%TF.GenerationSoftware,KiCad,Pcbnew,9.0.1*%
%TF.CreationDate,2025-10-10T09:50:29+06:00*%
%TF.ProjectId,Plant_pulse_hardware_V1.0,506c616e-745f-4707-956c-73655f686172,rev?*%
%TF.SameCoordinates,Original*%
%TF.FileFunction,AssemblyDrawing,Bot*%
%FSLAX46Y46*%
G04 Gerber Fmt 4.6, Leading zero omitted, Abs format (unit mm)*
G04 Created by KiCad (PCBNEW 9.0.1) date 2025-10-10 09:50:29*
%MOMM*%
%LPD*%
G01*
G04 APERTURE LIST*
%ADD10C,0.150000*%
%ADD11C,0.100000*%
G04 APERTURE END LIST*
D10*
X158961009Y-88805236D02*
X159008628Y-88948093D01*
X159008628Y-88948093D02*
X159056247Y-88995712D01*
X159056247Y-88995712D02*
X159151485Y-89043331D01*
X159151485Y-89043331D02*
X159294342Y-89043331D01*
X159294342Y-89043331D02*
X159389580Y-88995712D01*
X159389580Y-88995712D02*
X159437200Y-88948093D01*
X159437200Y-88948093D02*
X159484819Y-88852855D01*
X159484819Y-88852855D02*
X159484819Y-88471903D01*
X159484819Y-88471903D02*
X158484819Y-88471903D01*
X158484819Y-88471903D02*
X158484819Y-88805236D01*
X158484819Y-88805236D02*
X158532438Y-88900474D01*
X158532438Y-88900474D02*
X158580057Y-88948093D01*
X158580057Y-88948093D02*
X158675295Y-88995712D01*
X158675295Y-88995712D02*
X158770533Y-88995712D01*
X158770533Y-88995712D02*
X158865771Y-88948093D01*
X158865771Y-88948093D02*
X158913390Y-88900474D01*
X158913390Y-88900474D02*
X158961009Y-88805236D01*
X158961009Y-88805236D02*
X158961009Y-88471903D01*
X159484819Y-89900474D02*
X158961009Y-89900474D01*
X158961009Y-89900474D02*
X158865771Y-89852855D01*
X158865771Y-89852855D02*
X158818152Y-89757617D01*
X158818152Y-89757617D02*
X158818152Y-89567141D01*
X158818152Y-89567141D02*
X158865771Y-89471903D01*
X159437200Y-89900474D02*
X159484819Y-89805236D01*
X159484819Y-89805236D02*
X159484819Y-89567141D01*
X159484819Y-89567141D02*
X159437200Y-89471903D01*
X159437200Y-89471903D02*
X159341961Y-89424284D01*
X159341961Y-89424284D02*
X159246723Y-89424284D01*
X159246723Y-89424284D02*
X159151485Y-89471903D01*
X159151485Y-89471903D02*
X159103866Y-89567141D01*
X159103866Y-89567141D02*
X159103866Y-89805236D01*
X159103866Y-89805236D02*
X159056247Y-89900474D01*
X158818152Y-90233808D02*
X158818152Y-90614760D01*
X158484819Y-90376665D02*
X159341961Y-90376665D01*
X159341961Y-90376665D02*
X159437200Y-90424284D01*
X159437200Y-90424284D02*
X159484819Y-90519522D01*
X159484819Y-90519522D02*
X159484819Y-90614760D01*
X158818152Y-90805237D02*
X158818152Y-91186189D01*
X158484819Y-90948094D02*
X159341961Y-90948094D01*
X159341961Y-90948094D02*
X159437200Y-90995713D01*
X159437200Y-90995713D02*
X159484819Y-91090951D01*
X159484819Y-91090951D02*
X159484819Y-91186189D01*
X159437200Y-91900475D02*
X159484819Y-91805237D01*
X159484819Y-91805237D02*
X159484819Y-91614761D01*
X159484819Y-91614761D02*
X159437200Y-91519523D01*
X159437200Y-91519523D02*
X159341961Y-91471904D01*
X159341961Y-91471904D02*
X158961009Y-91471904D01*
X158961009Y-91471904D02*
X158865771Y-91519523D01*
X158865771Y-91519523D02*
X158818152Y-91614761D01*
X158818152Y-91614761D02*
X158818152Y-91805237D01*
X158818152Y-91805237D02*
X158865771Y-91900475D01*
X158865771Y-91900475D02*
X158961009Y-91948094D01*
X158961009Y-91948094D02*
X159056247Y-91948094D01*
X159056247Y-91948094D02*
X159151485Y-91471904D01*
X159484819Y-92376666D02*
X158818152Y-92376666D01*
X159008628Y-92376666D02*
X158913390Y-92424285D01*
X158913390Y-92424285D02*
X158865771Y-92471904D01*
X158865771Y-92471904D02*
X158818152Y-92567142D01*
X158818152Y-92567142D02*
X158818152Y-92662380D01*
X158818152Y-92900476D02*
X159484819Y-93138571D01*
X158818152Y-93376666D02*
X159484819Y-93138571D01*
X159484819Y-93138571D02*
X159722914Y-93043333D01*
X159722914Y-93043333D02*
X159770533Y-92995714D01*
X159770533Y-92995714D02*
X159818152Y-92900476D01*
X159580057Y-93519524D02*
X159580057Y-94281428D01*
X159389580Y-95090952D02*
X159437200Y-95043333D01*
X159437200Y-95043333D02*
X159484819Y-94900476D01*
X159484819Y-94900476D02*
X159484819Y-94805238D01*
X159484819Y-94805238D02*
X159437200Y-94662381D01*
X159437200Y-94662381D02*
X159341961Y-94567143D01*
X159341961Y-94567143D02*
X159246723Y-94519524D01*
X159246723Y-94519524D02*
X159056247Y-94471905D01*
X159056247Y-94471905D02*
X158913390Y-94471905D01*
X158913390Y-94471905D02*
X158722914Y-94519524D01*
X158722914Y-94519524D02*
X158627676Y-94567143D01*
X158627676Y-94567143D02*
X158532438Y-94662381D01*
X158532438Y-94662381D02*
X158484819Y-94805238D01*
X158484819Y-94805238D02*
X158484819Y-94900476D01*
X158484819Y-94900476D02*
X158532438Y-95043333D01*
X158532438Y-95043333D02*
X158580057Y-95090952D01*
X159437200Y-95900476D02*
X159484819Y-95805238D01*
X159484819Y-95805238D02*
X159484819Y-95614762D01*
X159484819Y-95614762D02*
X159437200Y-95519524D01*
X159437200Y-95519524D02*
X159341961Y-95471905D01*
X159341961Y-95471905D02*
X158961009Y-95471905D01*
X158961009Y-95471905D02*
X158865771Y-95519524D01*
X158865771Y-95519524D02*
X158818152Y-95614762D01*
X158818152Y-95614762D02*
X158818152Y-95805238D01*
X158818152Y-95805238D02*
X158865771Y-95900476D01*
X158865771Y-95900476D02*
X158961009Y-95948095D01*
X158961009Y-95948095D02*
X159056247Y-95948095D01*
X159056247Y-95948095D02*
X159151485Y-95471905D01*
X159484819Y-96519524D02*
X159437200Y-96424286D01*
X159437200Y-96424286D02*
X159341961Y-96376667D01*
X159341961Y-96376667D02*
X158484819Y-96376667D01*
X159484819Y-97043334D02*
X159437200Y-96948096D01*
X159437200Y-96948096D02*
X159341961Y-96900477D01*
X159341961Y-96900477D02*
X158484819Y-96900477D01*
X147431009Y-91924285D02*
X147478628Y-92067142D01*
X147478628Y-92067142D02*
X147526247Y-92114761D01*
X147526247Y-92114761D02*
X147621485Y-92162380D01*
X147621485Y-92162380D02*
X147764342Y-92162380D01*
X147764342Y-92162380D02*
X147859580Y-92114761D01*
X147859580Y-92114761D02*
X147907200Y-92067142D01*
X147907200Y-92067142D02*
X147954819Y-91971904D01*
X147954819Y-91971904D02*
X147954819Y-91590952D01*
X147954819Y-91590952D02*
X146954819Y-91590952D01*
X146954819Y-91590952D02*
X146954819Y-91924285D01*
X146954819Y-91924285D02*
X147002438Y-92019523D01*
X147002438Y-92019523D02*
X147050057Y-92067142D01*
X147050057Y-92067142D02*
X147145295Y-92114761D01*
X147145295Y-92114761D02*
X147240533Y-92114761D01*
X147240533Y-92114761D02*
X147335771Y-92067142D01*
X147335771Y-92067142D02*
X147383390Y-92019523D01*
X147383390Y-92019523D02*
X147431009Y-91924285D01*
X147431009Y-91924285D02*
X147431009Y-91590952D01*
X146954819Y-92448095D02*
X146954819Y-93019523D01*
X147954819Y-92733809D02*
X146954819Y-92733809D01*
X147954819Y-93876666D02*
X147954819Y-93305238D01*
X147954819Y-93590952D02*
X146954819Y-93590952D01*
X146954819Y-93590952D02*
X147097676Y-93495714D01*
X147097676Y-93495714D02*
X147192914Y-93400476D01*
X147192914Y-93400476D02*
X147240533Y-93305238D01*
X147505533Y-56948095D02*
X147505533Y-58471905D01*
X148267438Y-57710000D02*
X146743628Y-57710000D01*
%TO.C,BT1*%
D11*
X137175000Y-54180000D02*
X157825000Y-54180000D01*
X157825000Y-131240000D01*
X137175000Y-131240000D01*
X137175000Y-54180000D01*
%TD*%
M02*
