%TF.GenerationSoftware,KiCad,Pcbnew,9.0.1*%
%TF.CreationDate,2025-10-10T09:50:29+06:00*%
%TF.ProjectId,Plant_pulse_hardware_V1.0,506c616e-745f-4707-956c-73655f686172,rev?*%
%TF.SameCoordinates,Original*%
%TF.FileFunction,Copper,L2,Bot*%
%TF.FilePolarity,Positive*%
%FSLAX46Y46*%
G04 Gerber Fmt 4.6, Leading zero omitted, Abs format (unit mm)*
G04 Created by KiCad (PCBNEW 9.0.1) date 2025-10-10 09:50:29*
%MOMM*%
%LPD*%
G01*
G04 APERTURE LIST*
G04 Aperture macros list*
%AMRoundRect*
0 Rectangle with rounded corners*
0 $1 Rounding radius*
0 $2 $3 $4 $5 $6 $7 $8 $9 X,Y pos of 4 corners*
0 Add a 4 corners polygon primitive as box body*
4,1,4,$2,$3,$4,$5,$6,$7,$8,$9,$2,$3,0*
0 Add four circle primitives for the rounded corners*
1,1,$1+$1,$2,$3*
1,1,$1+$1,$4,$5*
1,1,$1+$1,$6,$7*
1,1,$1+$1,$8,$9*
0 Add four rect primitives between the rounded corners*
20,1,$1+$1,$2,$3,$4,$5,0*
20,1,$1+$1,$4,$5,$6,$7,0*
20,1,$1+$1,$6,$7,$8,$9,0*
20,1,$1+$1,$8,$9,$2,$3,0*%
G04 Aperture macros list end*
%TA.AperFunction,ComponentPad*%
%ADD10R,1.700000X1.700000*%
%TD*%
%TA.AperFunction,ComponentPad*%
%ADD11C,1.700000*%
%TD*%
%TA.AperFunction,HeatsinkPad*%
%ADD12O,1.000000X1.800000*%
%TD*%
%TA.AperFunction,HeatsinkPad*%
%ADD13O,1.000000X2.100000*%
%TD*%
%TA.AperFunction,ComponentPad*%
%ADD14RoundRect,0.250000X-1.050000X-1.050000X1.050000X-1.050000X1.050000X1.050000X-1.050000X1.050000X0*%
%TD*%
%TA.AperFunction,ComponentPad*%
%ADD15C,2.600000*%
%TD*%
%TA.AperFunction,HeatsinkPad*%
%ADD16C,0.600000*%
%TD*%
%TA.AperFunction,HeatsinkPad*%
%ADD17R,2.900000X1.900000*%
%TD*%
%TA.AperFunction,SMDPad,CuDef*%
%ADD18RoundRect,0.250003X-2.999997X3.499997X-2.999997X-3.499997X2.999997X-3.499997X2.999997X3.499997X0*%
%TD*%
%TA.AperFunction,ViaPad*%
%ADD19C,0.600000*%
%TD*%
%TA.AperFunction,Conductor*%
%ADD20C,1.000000*%
%TD*%
%TA.AperFunction,Conductor*%
%ADD21C,0.500000*%
%TD*%
%TA.AperFunction,Conductor*%
%ADD22C,1.500000*%
%TD*%
%TA.AperFunction,Conductor*%
%ADD23C,0.300000*%
%TD*%
G04 APERTURE END LIST*
D10*
%TO.P,J5,1,Pin_1*%
%TO.N,GND*%
X163060000Y-66880000D03*
D11*
%TO.P,J5,2,Pin_2*%
%TO.N,/EN*%
X163060000Y-64340000D03*
%TO.P,J5,3,Pin_3*%
%TO.N,/IO0*%
X163060000Y-61800000D03*
%TO.P,J5,4,Pin_4*%
%TO.N,Net-(J5-Pin_4)*%
X163060000Y-59260000D03*
%TO.P,J5,5,Pin_5*%
%TO.N,Net-(J5-Pin_5)*%
X163060000Y-56720000D03*
%TO.P,J5,6,Pin_6*%
%TO.N,+3.3V*%
X163060000Y-54180000D03*
%TD*%
D12*
%TO.P,J1,S1,SHIELD*%
%TO.N,GND*%
X141970001Y-46600001D03*
D13*
X141970000Y-50799999D03*
X133329999Y-50800002D03*
D12*
X133329999Y-46600000D03*
%TD*%
D14*
%TO.P,J2,1,Pin_1*%
%TO.N,Net-(J2-Pin_1)*%
X139860000Y-138172500D03*
D15*
%TO.P,J2,2,Pin_2*%
%TO.N,Net-(J2-Pin_2)*%
X144940000Y-138172500D03*
%TO.P,J2,3,Pin_3*%
%TO.N,Net-(J2-Pin_3)*%
X150020000Y-138172500D03*
%TO.P,J2,4,Pin_4*%
%TO.N,GND*%
X155100000Y-138172500D03*
%TD*%
D16*
%TO.P,U1,41,GND*%
%TO.N,GND*%
X150300000Y-90500000D03*
X148900000Y-90500000D03*
X151000000Y-91200000D03*
X149600000Y-91200000D03*
X148200000Y-91200000D03*
X150300000Y-91900000D03*
X148900000Y-91900000D03*
X151000000Y-92600000D03*
X149600000Y-92600000D03*
X148200000Y-92600000D03*
X150300000Y-93300000D03*
X148900000Y-93300000D03*
%TD*%
%TO.P,U7,9,EPAD*%
%TO.N,GND*%
X133900000Y-60100000D03*
X135100000Y-60100000D03*
X136300000Y-60100000D03*
D17*
X135100000Y-59400000D03*
D16*
X133900000Y-58700000D03*
X135100000Y-58700000D03*
X136300000Y-58700000D03*
%TD*%
D18*
%TO.P,BT1,1,+*%
%TO.N,B+*%
X147500000Y-53020000D03*
%TO.P,BT1,2,-*%
%TO.N,B-*%
X147500000Y-132400000D03*
%TD*%
D19*
%TO.N,GND*%
X157200000Y-46000000D03*
X162900000Y-141000000D03*
X132000000Y-140900000D03*
X140100000Y-75700000D03*
X153900000Y-131100000D03*
X150700000Y-81400000D03*
X143300000Y-81100000D03*
X145200000Y-79400000D03*
X136800000Y-114500000D03*
X138900000Y-111700000D03*
X158000000Y-113000000D03*
X154500000Y-49200000D03*
X143300000Y-51900000D03*
X137000000Y-123000000D03*
X141600000Y-83100000D03*
X160000000Y-118000000D03*
X140100000Y-110900000D03*
X140100000Y-46600000D03*
X160100000Y-52900000D03*
X132000000Y-94200000D03*
X140100000Y-114500000D03*
X133100000Y-114500000D03*
X133100000Y-118700000D03*
X153800000Y-74500000D03*
X131000000Y-141100000D03*
X132100000Y-125300000D03*
X138500000Y-67700000D03*
X150800000Y-59200000D03*
X159100000Y-53700000D03*
X153800000Y-72900000D03*
X154500000Y-46100000D03*
X156500000Y-76700000D03*
X158000000Y-109100000D03*
X161100000Y-142000000D03*
X136500000Y-118700000D03*
X153900000Y-132300000D03*
X153000000Y-94000000D03*
X143400000Y-62200000D03*
X146400000Y-74400000D03*
X164000000Y-118000000D03*
X157700000Y-126500000D03*
X153800000Y-75400000D03*
X149100000Y-61400000D03*
X137000000Y-121600000D03*
X143300000Y-50900000D03*
X148500000Y-47100000D03*
X138000000Y-114500000D03*
X159800000Y-46700000D03*
X162300000Y-47200000D03*
X143200000Y-65000000D03*
X151400000Y-132300000D03*
X140000000Y-83100000D03*
X149300000Y-57600000D03*
X140000000Y-109000000D03*
X143700000Y-68900000D03*
X158000000Y-118000000D03*
X163600000Y-46800000D03*
X133300000Y-93700000D03*
X154200000Y-71200000D03*
X158000000Y-115000000D03*
X156500000Y-73000000D03*
X137000000Y-124300000D03*
X151900000Y-69000000D03*
X149500000Y-86600000D03*
X136200000Y-47800000D03*
X154500000Y-47700000D03*
X133300000Y-90800000D03*
X142000000Y-104000000D03*
X154500000Y-54900000D03*
X133900000Y-143900000D03*
X153800000Y-55500000D03*
X156100000Y-48600000D03*
X137900000Y-111000000D03*
X142800000Y-68900000D03*
X143400000Y-61400000D03*
X140900000Y-74800000D03*
X151400000Y-131100000D03*
X144600000Y-106100000D03*
X154500000Y-50900000D03*
X151200000Y-65200000D03*
X133100000Y-115900000D03*
X134000000Y-142900000D03*
X141300000Y-121500000D03*
X160100000Y-55500000D03*
X141300000Y-124600000D03*
X157200000Y-47100000D03*
X154000000Y-54300000D03*
X162300000Y-46000000D03*
X138900000Y-112700000D03*
X149100000Y-63400000D03*
X132100000Y-90400000D03*
X149400000Y-47100000D03*
X160800000Y-55100000D03*
X161800000Y-141200000D03*
X143300000Y-49800000D03*
X142900000Y-56100000D03*
X153000000Y-90000000D03*
X151200000Y-61400000D03*
X138500000Y-65900000D03*
X158300000Y-100800000D03*
X130800000Y-93700000D03*
X152800000Y-68100000D03*
X139900000Y-81100000D03*
X138900000Y-112700000D03*
X139300000Y-103700000D03*
X161700000Y-51900000D03*
X130800000Y-90900000D03*
X152300000Y-86600000D03*
X163900000Y-141100000D03*
X161700000Y-50200000D03*
X146400000Y-107100000D03*
X146500000Y-78500000D03*
X162000000Y-118000000D03*
X163600000Y-51900000D03*
X146200000Y-82000000D03*
X133800000Y-141800000D03*
X162600000Y-51100000D03*
X147700000Y-77400000D03*
X137800000Y-73800000D03*
X160800000Y-55900000D03*
X156500000Y-75600000D03*
X138900000Y-113800000D03*
X132100000Y-118700000D03*
X140600000Y-54300000D03*
X135000000Y-46600000D03*
X144300000Y-64900000D03*
X149100000Y-65200000D03*
X158000000Y-111000000D03*
X132100000Y-123700000D03*
X137500000Y-46600000D03*
X141600000Y-81100000D03*
X138500000Y-66800000D03*
X160100000Y-68500000D03*
X138900000Y-47800000D03*
X137800000Y-77900000D03*
X153900000Y-129700000D03*
X163600000Y-50200000D03*
X160900000Y-143000000D03*
X142200000Y-65000000D03*
X160700000Y-67500000D03*
X136800000Y-111000000D03*
X158200000Y-54600000D03*
X145200000Y-75700000D03*
X153000000Y-92000000D03*
X150900000Y-86600000D03*
X151200000Y-63300000D03*
X137800000Y-75800000D03*
X159500000Y-67500000D03*
X154900000Y-126400000D03*
X155200000Y-54300000D03*
X151800000Y-72800000D03*
X144000000Y-104000000D03*
X151400000Y-129700000D03*
X144000000Y-109000000D03*
X133000000Y-141100000D03*
X161100000Y-144000000D03*
X140000000Y-73900000D03*
X141300000Y-123000000D03*
X157300000Y-100800000D03*
X143400000Y-63100000D03*
X156000000Y-46800000D03*
X132100000Y-122000000D03*
X150000000Y-58400000D03*
X157400000Y-55400000D03*
X158300000Y-101900000D03*
X163500000Y-48600000D03*
X145700000Y-83100000D03*
%TO.N,B+*%
X157550000Y-49600000D03*
X149000000Y-50000000D03*
X141030000Y-72550000D03*
X149000000Y-51300000D03*
X146400000Y-50700000D03*
X145500000Y-50000000D03*
X147250000Y-51300000D03*
X147250000Y-52700000D03*
X146400000Y-52100000D03*
X147250000Y-50000000D03*
X149000000Y-52700000D03*
X148200000Y-52000000D03*
X145500000Y-51300000D03*
X155200000Y-53000000D03*
X148200000Y-50800000D03*
%TO.N,/EN*%
X147800000Y-88300000D03*
X153862500Y-76762500D03*
X135950000Y-88300000D03*
%TO.N,B-*%
X147100000Y-132500000D03*
X146200000Y-131800000D03*
X147100000Y-129500000D03*
X145300000Y-132600000D03*
X146200000Y-130300000D03*
X150100000Y-131100000D03*
X150100000Y-132300000D03*
X145442500Y-71170000D03*
X150100000Y-129700000D03*
X147100000Y-131000000D03*
X145442500Y-72992500D03*
X145300000Y-131100000D03*
X145300000Y-129600000D03*
X145300000Y-134100000D03*
X146200000Y-133300000D03*
%TO.N,+3.3V*%
X140800000Y-106500000D03*
X158250000Y-77200000D03*
X142800000Y-108800000D03*
X154000000Y-115925000D03*
X161500000Y-54170000D03*
X156200000Y-99400000D03*
X148500000Y-117600000D03*
%TO.N,VBAT*%
X150650000Y-106350000D03*
X159050000Y-49600000D03*
X143751769Y-97096785D03*
X153143750Y-69443750D03*
X150100000Y-100000000D03*
X142900000Y-86900000D03*
X143800000Y-99900000D03*
%TO.N,VUSB*%
X142850000Y-52750000D03*
X135125000Y-55150000D03*
X136198197Y-52517310D03*
X131875000Y-58975000D03*
X139339240Y-52520000D03*
%TO.N,Net-(D2-K)*%
X137425000Y-69425000D03*
X132426000Y-48800000D03*
X133950000Y-55075000D03*
%TO.N,/CRG_DET*%
X141550000Y-86350000D03*
X139050000Y-83850000D03*
%TO.N,/IO0*%
X154675000Y-73625000D03*
X141700000Y-98300000D03*
%TO.N,/TXD0*%
X147500000Y-106700000D03*
X144550000Y-97150000D03*
%TO.N,/RXD0*%
X144550000Y-95900000D03*
X152650000Y-109550000D03*
%TO.N,/~{485_TXRXEN}*%
X138335000Y-96765000D03*
X149700000Y-108100000D03*
%TO.N,/RXD*%
X152240000Y-100450000D03*
X156797500Y-69922500D03*
%TO.N,/TXD*%
X155550000Y-70950000D03*
X152450000Y-98750000D03*
%TO.N,Net-(Q3-Pad1)*%
X145992502Y-63840002D03*
X140720428Y-63812072D03*
%TD*%
D20*
%TO.N,B+*%
X141030000Y-67370000D02*
X141030000Y-72550000D01*
X152700000Y-53020000D02*
X147500000Y-53020000D01*
X152720000Y-53000000D02*
X152700000Y-53020000D01*
X155200000Y-53000000D02*
X152720000Y-53000000D01*
X142100000Y-66300000D02*
X141030000Y-67370000D01*
X147500000Y-53020000D02*
X147500000Y-65100000D01*
X147500000Y-65100000D02*
X146300000Y-66300000D01*
X146300000Y-66300000D02*
X142100000Y-66300000D01*
D21*
%TO.N,/EN*%
X147800000Y-88300000D02*
X147800000Y-82825000D01*
X147800000Y-82825000D02*
X153862500Y-76762500D01*
X135950000Y-88300000D02*
X147800000Y-88300000D01*
D22*
%TO.N,B-*%
X145442500Y-72727500D02*
X134700000Y-83470000D01*
X134700000Y-126300000D02*
X139400000Y-131000000D01*
X139400000Y-131000000D02*
X145500000Y-131000000D01*
X145442500Y-71170000D02*
X145442500Y-71920000D01*
X145442500Y-71170000D02*
X145442500Y-72727500D01*
X145500000Y-131000000D02*
X147500000Y-131000000D01*
X134700000Y-83470000D02*
X134700000Y-126300000D01*
D21*
%TO.N,+3.3V*%
X158240000Y-77190000D02*
X158250000Y-77200000D01*
D23*
X140800000Y-106500000D02*
X140800000Y-106800000D01*
D21*
X153500000Y-117600000D02*
X154000000Y-117100000D01*
D23*
X140800000Y-106800000D02*
X142800000Y-108800000D01*
D20*
X156200000Y-113725000D02*
X154000000Y-115925000D01*
D21*
X161500000Y-54170000D02*
X160090000Y-54170000D01*
X154000000Y-117100000D02*
X154000000Y-115925000D01*
X158240000Y-56020000D02*
X158240000Y-77190000D01*
X148500000Y-117600000D02*
X153500000Y-117600000D01*
X160090000Y-54170000D02*
X158240000Y-56020000D01*
D20*
X156200000Y-99400000D02*
X156200000Y-113725000D01*
D23*
%TO.N,VBAT*%
X150443750Y-76356250D02*
X150443750Y-72143750D01*
X143751769Y-97096785D02*
X143751769Y-99851769D01*
D21*
X150100000Y-100000000D02*
X150100000Y-105800000D01*
D23*
X150443750Y-72143750D02*
X153143750Y-69443750D01*
X142900000Y-86900000D02*
X142900000Y-83900000D01*
X143751769Y-99851769D02*
X143800000Y-99900000D01*
D21*
X150000000Y-99900000D02*
X150100000Y-100000000D01*
D23*
X142900000Y-83900000D02*
X150443750Y-76356250D01*
D21*
X150100000Y-105800000D02*
X150650000Y-106350000D01*
%TO.N,VUSB*%
X131875000Y-58975000D02*
X131875000Y-56925000D01*
X134449000Y-55826000D02*
X135125000Y-55150000D01*
X139339240Y-52520000D02*
X139319240Y-52500000D01*
X139319240Y-52500000D02*
X136215507Y-52500000D01*
X132974000Y-55826000D02*
X134449000Y-55826000D01*
X139339240Y-52520000D02*
X139359240Y-52500000D01*
X142600000Y-52500000D02*
X142850000Y-52750000D01*
X139359240Y-52500000D02*
X142600000Y-52500000D01*
X131875000Y-56925000D02*
X132974000Y-55826000D01*
X136215507Y-52500000D02*
X136198197Y-52517310D01*
%TO.N,Net-(D2-K)*%
X132426000Y-48800000D02*
X132378999Y-48847001D01*
X131125000Y-56025000D02*
X131125000Y-67825000D01*
X133950000Y-55075000D02*
X133925000Y-55075000D01*
X132378999Y-48847001D02*
X132378999Y-54771001D01*
X133925000Y-55075000D02*
X133550000Y-54700000D01*
X132378999Y-54771001D02*
X131125000Y-56025000D01*
X132725000Y-69425000D02*
X137425000Y-69425000D01*
X131125000Y-67825000D02*
X132725000Y-69425000D01*
X133550000Y-54700000D02*
X132378999Y-54700000D01*
%TO.N,/CRG_DET*%
X139050000Y-83850000D02*
X141550000Y-86350000D01*
%TO.N,/IO0*%
X154675000Y-73625000D02*
X154675000Y-93625000D01*
X143450000Y-94950000D02*
X141700000Y-96700000D01*
X153350000Y-94950000D02*
X143450000Y-94950000D01*
X141700000Y-96700000D02*
X141700000Y-98300000D01*
X154675000Y-93625000D02*
X153350000Y-94950000D01*
%TO.N,/TXD0*%
X145095000Y-104295000D02*
X145095000Y-98795000D01*
X144550000Y-98250000D02*
X144550000Y-97150000D01*
X145095000Y-98795000D02*
X144550000Y-98250000D01*
X147500000Y-106700000D02*
X145095000Y-104295000D01*
%TO.N,/RXD0*%
X152650000Y-109550000D02*
X149400000Y-106300000D01*
X149400000Y-106300000D02*
X149400000Y-105200000D01*
X149400000Y-105200000D02*
X147300000Y-103100000D01*
X147300000Y-98650000D02*
X144550000Y-95900000D01*
X147300000Y-103100000D02*
X147300000Y-98650000D01*
%TO.N,/~{485_TXRXEN}*%
X137400000Y-97700000D02*
X138335000Y-96765000D01*
X149700000Y-108100000D02*
X145200000Y-108100000D01*
X139200000Y-104900000D02*
X137400000Y-103100000D01*
X142000000Y-104900000D02*
X139200000Y-104900000D01*
X145200000Y-108100000D02*
X142000000Y-104900000D01*
X137400000Y-103100000D02*
X137400000Y-97700000D01*
%TO.N,/RXD*%
X156797500Y-69922500D02*
X156822500Y-69922500D01*
X157400000Y-70500000D02*
X157400000Y-95300000D01*
X152250000Y-100450000D02*
X152240000Y-100450000D01*
X156822500Y-69922500D02*
X157400000Y-70500000D01*
X157400000Y-95300000D02*
X152250000Y-100450000D01*
%TO.N,/TXD*%
X155500000Y-95350000D02*
X155500000Y-71000000D01*
X152450000Y-98400000D02*
X155500000Y-95350000D01*
X155500000Y-71000000D02*
X155550000Y-70950000D01*
X152450000Y-98750000D02*
X152450000Y-98400000D01*
%TO.N,Net-(Q3-Pad1)*%
X145742504Y-64090000D02*
X140998355Y-64090000D01*
X140998355Y-64090000D02*
X140720428Y-63812072D01*
X145992502Y-63840002D02*
X145742504Y-64090000D01*
%TD*%
%TA.AperFunction,Conductor*%
%TO.N,GND*%
G36*
X154043834Y-77462204D02*
G01*
X154099767Y-77504076D01*
X154124184Y-77569540D01*
X154124500Y-77578386D01*
X154124500Y-93345613D01*
X154104815Y-93412652D01*
X154088181Y-93433294D01*
X153158294Y-94363181D01*
X153096971Y-94396666D01*
X153070613Y-94399500D01*
X143377525Y-94399500D01*
X143272517Y-94427637D01*
X143237514Y-94437016D01*
X143111986Y-94509489D01*
X143111983Y-94509491D01*
X141259489Y-96361985D01*
X141239689Y-96396282D01*
X141221963Y-96426985D01*
X141187016Y-96487515D01*
X141149500Y-96627525D01*
X141149500Y-96627527D01*
X141149500Y-98021637D01*
X141141834Y-98060179D01*
X141142527Y-98060365D01*
X141140423Y-98068214D01*
X141140423Y-98068216D01*
X141099500Y-98220943D01*
X141099500Y-98379057D01*
X141136788Y-98518216D01*
X141140423Y-98531783D01*
X141140426Y-98531790D01*
X141219475Y-98668709D01*
X141219479Y-98668714D01*
X141219480Y-98668716D01*
X141331284Y-98780520D01*
X141331286Y-98780521D01*
X141331290Y-98780524D01*
X141415353Y-98829057D01*
X141468216Y-98859577D01*
X141620943Y-98900500D01*
X141620945Y-98900500D01*
X141779055Y-98900500D01*
X141779057Y-98900500D01*
X141931784Y-98859577D01*
X142068716Y-98780520D01*
X142180520Y-98668716D01*
X142259577Y-98531784D01*
X142300500Y-98379057D01*
X142300500Y-98220943D01*
X142259577Y-98068216D01*
X142259576Y-98068214D01*
X142257473Y-98060365D01*
X142258165Y-98060179D01*
X142250500Y-98021637D01*
X142250500Y-96979387D01*
X142270185Y-96912348D01*
X142286819Y-96891706D01*
X143641706Y-95536819D01*
X143668633Y-95522115D01*
X143694452Y-95505523D01*
X143700652Y-95504631D01*
X143703029Y-95503334D01*
X143729387Y-95500500D01*
X143874314Y-95500500D01*
X143941353Y-95520185D01*
X143987108Y-95572989D01*
X143997052Y-95642147D01*
X143992087Y-95660247D01*
X143992527Y-95660365D01*
X143949500Y-95820943D01*
X143949500Y-95979056D01*
X143990423Y-96131783D01*
X143990426Y-96131790D01*
X144069475Y-96268709D01*
X144069481Y-96268717D01*
X144156112Y-96355348D01*
X144189597Y-96416671D01*
X144184613Y-96486363D01*
X144142741Y-96542296D01*
X144077277Y-96566713D01*
X144009004Y-96551861D01*
X144006433Y-96550417D01*
X143983557Y-96537210D01*
X143983555Y-96537209D01*
X143983553Y-96537208D01*
X143830826Y-96496285D01*
X143672712Y-96496285D01*
X143519985Y-96537208D01*
X143519978Y-96537211D01*
X143383059Y-96616260D01*
X143383051Y-96616266D01*
X143271250Y-96728067D01*
X143271244Y-96728075D01*
X143192195Y-96864994D01*
X143192192Y-96865001D01*
X143151269Y-97017728D01*
X143151269Y-97175842D01*
X143191123Y-97324577D01*
X143192192Y-97328568D01*
X143192195Y-97328575D01*
X143271242Y-97465491D01*
X143271246Y-97465497D01*
X143271249Y-97465501D01*
X143271251Y-97465503D01*
X143275641Y-97471223D01*
X143300838Y-97536391D01*
X143301269Y-97546715D01*
X143301269Y-99529600D01*
X143284657Y-99591599D01*
X143240423Y-99668215D01*
X143240423Y-99668216D01*
X143199500Y-99820943D01*
X143199500Y-99979057D01*
X143226295Y-100079055D01*
X143240423Y-100131783D01*
X143240426Y-100131790D01*
X143319475Y-100268709D01*
X143319479Y-100268714D01*
X143319480Y-100268716D01*
X143431284Y-100380520D01*
X143431286Y-100380521D01*
X143431290Y-100380524D01*
X143568209Y-100459573D01*
X143568216Y-100459577D01*
X143720943Y-100500500D01*
X143720945Y-100500500D01*
X143879055Y-100500500D01*
X143879057Y-100500500D01*
X144031784Y-100459577D01*
X144168716Y-100380520D01*
X144280520Y-100268716D01*
X144313112Y-100212263D01*
X144363679Y-100164048D01*
X144432286Y-100150824D01*
X144497151Y-100176792D01*
X144537680Y-100233706D01*
X144544500Y-100274263D01*
X144544500Y-104222526D01*
X144544500Y-104367474D01*
X144582016Y-104507485D01*
X144654490Y-104633015D01*
X145785380Y-105763905D01*
X146913904Y-106892428D01*
X146935738Y-106925104D01*
X146936359Y-106924746D01*
X147019475Y-107068709D01*
X147019479Y-107068714D01*
X147019480Y-107068716D01*
X147131284Y-107180520D01*
X147131286Y-107180521D01*
X147131290Y-107180524D01*
X147268209Y-107259573D01*
X147268216Y-107259577D01*
X147420943Y-107300500D01*
X147420945Y-107300500D01*
X147579055Y-107300500D01*
X147579057Y-107300500D01*
X147731784Y-107259577D01*
X147868716Y-107180520D01*
X147980520Y-107068716D01*
X148059577Y-106931784D01*
X148100500Y-106779057D01*
X148100500Y-106620943D01*
X148059577Y-106468216D01*
X148036968Y-106429055D01*
X147980524Y-106331290D01*
X147980518Y-106331282D01*
X147868717Y-106219481D01*
X147868709Y-106219475D01*
X147724746Y-106136359D01*
X147725104Y-106135738D01*
X147692428Y-106113904D01*
X145681819Y-104103294D01*
X145648334Y-104041971D01*
X145645500Y-104015613D01*
X145645500Y-98722527D01*
X145645500Y-98722525D01*
X145607984Y-98582515D01*
X145605103Y-98577525D01*
X145535510Y-98456985D01*
X145136819Y-98058294D01*
X145103334Y-97996971D01*
X145100500Y-97970613D01*
X145100500Y-97528387D01*
X145120185Y-97461348D01*
X145172989Y-97415593D01*
X145242147Y-97405649D01*
X145305703Y-97434674D01*
X145312181Y-97440706D01*
X146713181Y-98841706D01*
X146746666Y-98903029D01*
X146749500Y-98929387D01*
X146749500Y-103027526D01*
X146749500Y-103172474D01*
X146787016Y-103312485D01*
X146859489Y-103438013D01*
X146859491Y-103438016D01*
X148813181Y-105391706D01*
X148846666Y-105453029D01*
X148849500Y-105479387D01*
X148849500Y-106372475D01*
X148867767Y-106440649D01*
X148867779Y-106440691D01*
X148887016Y-106512485D01*
X148959489Y-106638013D01*
X148959491Y-106638016D01*
X149626835Y-107305360D01*
X149660320Y-107366683D01*
X149655336Y-107436375D01*
X149613464Y-107492308D01*
X149571249Y-107512815D01*
X149468216Y-107540423D01*
X149468214Y-107540424D01*
X149460366Y-107542527D01*
X149460180Y-107541834D01*
X149421637Y-107549500D01*
X145479387Y-107549500D01*
X145412348Y-107529815D01*
X145391706Y-107513181D01*
X142338016Y-104459491D01*
X142338015Y-104459490D01*
X142212485Y-104387016D01*
X142212486Y-104387016D01*
X142177482Y-104377637D01*
X142072475Y-104349500D01*
X142072472Y-104349500D01*
X139479387Y-104349500D01*
X139412348Y-104329815D01*
X139391706Y-104313181D01*
X137986819Y-102908294D01*
X137953334Y-102846971D01*
X137950500Y-102820613D01*
X137950500Y-97979385D01*
X137970185Y-97912346D01*
X137986815Y-97891708D01*
X138527429Y-97351093D01*
X138560103Y-97329264D01*
X138559744Y-97328642D01*
X138663974Y-97268465D01*
X138703716Y-97245520D01*
X138815520Y-97133716D01*
X138894577Y-96996784D01*
X138935500Y-96844057D01*
X138935500Y-96685943D01*
X138894577Y-96533216D01*
X138867527Y-96486363D01*
X138815524Y-96396290D01*
X138815518Y-96396282D01*
X138703717Y-96284481D01*
X138703709Y-96284475D01*
X138566790Y-96205426D01*
X138566786Y-96205424D01*
X138566784Y-96205423D01*
X138414057Y-96164500D01*
X138255943Y-96164500D01*
X138103216Y-96205423D01*
X138103209Y-96205426D01*
X137966290Y-96284475D01*
X137966282Y-96284481D01*
X137854481Y-96396282D01*
X137854477Y-96396287D01*
X137771359Y-96540254D01*
X137770737Y-96539895D01*
X137748905Y-96572569D01*
X136959491Y-97361983D01*
X136959485Y-97361991D01*
X136899726Y-97465499D01*
X136899726Y-97465501D01*
X136887016Y-97487515D01*
X136849500Y-97627525D01*
X136849500Y-103027526D01*
X136849500Y-103172474D01*
X136887016Y-103312485D01*
X136959490Y-103438015D01*
X138861985Y-105340510D01*
X138861987Y-105340511D01*
X138861991Y-105340514D01*
X138986651Y-105412486D01*
X138986663Y-105412492D01*
X138987515Y-105412984D01*
X139127525Y-105450500D01*
X141720613Y-105450500D01*
X141787652Y-105470185D01*
X141808294Y-105486819D01*
X144861985Y-108540510D01*
X144987515Y-108612984D01*
X145127525Y-108650500D01*
X149421637Y-108650500D01*
X149460179Y-108658165D01*
X149460365Y-108657473D01*
X149468214Y-108659576D01*
X149468216Y-108659577D01*
X149620943Y-108700500D01*
X149620945Y-108700500D01*
X149779055Y-108700500D01*
X149779057Y-108700500D01*
X149931784Y-108659577D01*
X150068716Y-108580520D01*
X150180520Y-108468716D01*
X150259577Y-108331784D01*
X150287185Y-108228748D01*
X150323547Y-108169092D01*
X150386394Y-108138562D01*
X150455770Y-108146856D01*
X150494639Y-108173164D01*
X152063905Y-109742430D01*
X152085737Y-109775105D01*
X152086359Y-109774746D01*
X152169477Y-109918712D01*
X152169479Y-109918715D01*
X152169480Y-109918716D01*
X152281284Y-110030520D01*
X152281286Y-110030521D01*
X152281290Y-110030524D01*
X152418209Y-110109573D01*
X152418216Y-110109577D01*
X152570943Y-110150500D01*
X152570945Y-110150500D01*
X152729055Y-110150500D01*
X152729057Y-110150500D01*
X152881784Y-110109577D01*
X153018716Y-110030520D01*
X153130520Y-109918716D01*
X153209577Y-109781784D01*
X153250500Y-109629057D01*
X153250500Y-109470943D01*
X153209577Y-109318216D01*
X153187816Y-109280524D01*
X153130524Y-109181290D01*
X153130518Y-109181282D01*
X153018717Y-109069481D01*
X153018712Y-109069477D01*
X152874746Y-108986359D01*
X152875105Y-108985737D01*
X152842430Y-108963905D01*
X150936660Y-107058135D01*
X150903175Y-106996812D01*
X150908159Y-106927120D01*
X150950031Y-106871187D01*
X150962334Y-106863071D01*
X151018716Y-106830520D01*
X151130520Y-106718716D01*
X151209577Y-106581784D01*
X151250500Y-106429057D01*
X151250500Y-106270943D01*
X151209577Y-106118216D01*
X151209573Y-106118209D01*
X151130524Y-105981290D01*
X151130518Y-105981282D01*
X151018717Y-105869481D01*
X151018712Y-105869477D01*
X150874746Y-105786359D01*
X150874961Y-105785986D01*
X150870684Y-105785056D01*
X150842430Y-105763905D01*
X150686819Y-105608294D01*
X150653334Y-105546971D01*
X150650500Y-105520613D01*
X150650500Y-100278362D01*
X150658167Y-100239822D01*
X150657473Y-100239636D01*
X150659577Y-100231784D01*
X150700500Y-100079057D01*
X150700500Y-99920943D01*
X150659577Y-99768216D01*
X150590033Y-99647761D01*
X150580524Y-99631290D01*
X150580518Y-99631282D01*
X150468717Y-99519481D01*
X150468709Y-99519475D01*
X150331790Y-99440426D01*
X150331786Y-99440424D01*
X150331784Y-99440423D01*
X150297549Y-99431249D01*
X150267648Y-99418864D01*
X150254683Y-99411379D01*
X150212485Y-99387016D01*
X150212486Y-99387016D01*
X150162222Y-99373548D01*
X150072474Y-99349500D01*
X149927526Y-99349500D01*
X149837778Y-99373548D01*
X149787514Y-99387016D01*
X149661986Y-99459489D01*
X149661983Y-99459491D01*
X149559491Y-99561983D01*
X149559489Y-99561986D01*
X149487016Y-99687514D01*
X149487016Y-99687515D01*
X149449500Y-99827526D01*
X149449500Y-99972474D01*
X149487016Y-100112485D01*
X149516785Y-100164048D01*
X149518864Y-100167648D01*
X149530637Y-100195344D01*
X149530948Y-100196425D01*
X149540423Y-100231784D01*
X149541827Y-100234215D01*
X149544661Y-100244060D01*
X149544609Y-100253780D01*
X149549500Y-100278363D01*
X149549500Y-104271613D01*
X149529815Y-104338652D01*
X149477011Y-104384407D01*
X149407853Y-104394351D01*
X149344297Y-104365326D01*
X149337819Y-104359294D01*
X147886819Y-102908294D01*
X147853334Y-102846971D01*
X147850500Y-102820613D01*
X147850500Y-98577527D01*
X147850500Y-98577525D01*
X147812984Y-98437515D01*
X147780519Y-98381284D01*
X147740510Y-98311985D01*
X145140706Y-95712181D01*
X145107221Y-95650858D01*
X145112205Y-95581166D01*
X145154077Y-95525233D01*
X145219541Y-95500816D01*
X145228387Y-95500500D01*
X153422472Y-95500500D01*
X153422474Y-95500500D01*
X153422475Y-95500500D01*
X153562485Y-95462984D01*
X153585840Y-95449500D01*
X153688015Y-95390510D01*
X154737819Y-94340706D01*
X154799142Y-94307221D01*
X154868834Y-94312205D01*
X154924767Y-94354077D01*
X154949184Y-94419541D01*
X154949500Y-94428387D01*
X154949500Y-95070613D01*
X154929815Y-95137652D01*
X154913181Y-95158294D01*
X152009491Y-98061983D01*
X152009489Y-98061985D01*
X151986822Y-98101247D01*
X151964154Y-98140510D01*
X151952188Y-98161235D01*
X151937017Y-98187512D01*
X151937016Y-98187513D01*
X151928059Y-98220943D01*
X151899500Y-98327525D01*
X151899500Y-98327527D01*
X151899500Y-98471637D01*
X151891834Y-98510179D01*
X151892527Y-98510365D01*
X151890423Y-98518214D01*
X151890423Y-98518216D01*
X151849500Y-98670943D01*
X151849500Y-98829057D01*
X151876384Y-98929387D01*
X151890423Y-98981783D01*
X151890426Y-98981790D01*
X151969475Y-99118709D01*
X151969479Y-99118714D01*
X151969480Y-99118716D01*
X152081284Y-99230520D01*
X152081286Y-99230521D01*
X152081290Y-99230524D01*
X152218209Y-99309573D01*
X152218216Y-99309577D01*
X152321248Y-99337184D01*
X152380907Y-99373548D01*
X152411436Y-99436395D01*
X152403141Y-99505770D01*
X152376834Y-99544639D01*
X152062903Y-99858570D01*
X152015220Y-99886102D01*
X152015722Y-99887314D01*
X152008212Y-99890424D01*
X151871287Y-99969477D01*
X151871282Y-99969481D01*
X151759481Y-100081282D01*
X151759475Y-100081290D01*
X151680426Y-100218209D01*
X151680423Y-100218216D01*
X151639500Y-100370943D01*
X151639500Y-100529056D01*
X151680423Y-100681783D01*
X151680426Y-100681790D01*
X151759475Y-100818709D01*
X151759479Y-100818714D01*
X151759480Y-100818716D01*
X151871284Y-100930520D01*
X151871286Y-100930521D01*
X151871290Y-100930524D01*
X152008209Y-101009573D01*
X152008216Y-101009577D01*
X152160943Y-101050500D01*
X152160945Y-101050500D01*
X152319055Y-101050500D01*
X152319057Y-101050500D01*
X152471784Y-101009577D01*
X152608716Y-100930520D01*
X152720520Y-100818716D01*
X152795293Y-100689202D01*
X152814992Y-100663531D01*
X157840510Y-95638015D01*
X157912984Y-95512485D01*
X157937102Y-95422475D01*
X157950500Y-95372475D01*
X157950500Y-77903032D01*
X157970185Y-77835993D01*
X158022989Y-77790238D01*
X158092147Y-77780294D01*
X158106581Y-77783254D01*
X158170943Y-77800500D01*
X158170946Y-77800500D01*
X158329055Y-77800500D01*
X158329057Y-77800500D01*
X158481784Y-77759577D01*
X158618716Y-77680520D01*
X158618716Y-77680519D01*
X158624000Y-77677469D01*
X158691900Y-77660996D01*
X158757927Y-77683849D01*
X158801118Y-77738770D01*
X158810000Y-77784856D01*
X158810000Y-117400000D01*
X164375500Y-117400000D01*
X164442539Y-117419685D01*
X164488294Y-117472489D01*
X164499500Y-117524000D01*
X164499500Y-142129448D01*
X164479815Y-142196487D01*
X164427011Y-142242242D01*
X164357853Y-142252186D01*
X164294297Y-142223161D01*
X164275182Y-142202334D01*
X164242632Y-142157533D01*
X164144517Y-142022490D01*
X163977510Y-141855483D01*
X163786433Y-141716657D01*
X163575996Y-141609433D01*
X163351368Y-141536446D01*
X163118097Y-141499500D01*
X163118092Y-141499500D01*
X162881908Y-141499500D01*
X162881903Y-141499500D01*
X162648631Y-141536446D01*
X162424003Y-141609433D01*
X162213566Y-141716657D01*
X162104550Y-141795862D01*
X162022490Y-141855483D01*
X162022488Y-141855485D01*
X162022487Y-141855485D01*
X161855485Y-142022487D01*
X161855485Y-142022488D01*
X161855483Y-142022490D01*
X161795862Y-142104550D01*
X161716657Y-142213566D01*
X161609433Y-142424003D01*
X161536446Y-142648631D01*
X161499500Y-142881902D01*
X161499500Y-143118097D01*
X161536446Y-143351368D01*
X161609433Y-143575996D01*
X161700641Y-143755000D01*
X161716657Y-143786433D01*
X161855483Y-143977510D01*
X162022490Y-144144517D01*
X162202335Y-144275183D01*
X162245000Y-144330512D01*
X162250979Y-144400126D01*
X162218373Y-144461920D01*
X162157534Y-144496278D01*
X162129449Y-144499500D01*
X132870551Y-144499500D01*
X132803512Y-144479815D01*
X132757757Y-144427011D01*
X132747813Y-144357853D01*
X132776838Y-144294297D01*
X132797662Y-144275184D01*
X132977510Y-144144517D01*
X133144517Y-143977510D01*
X133283343Y-143786433D01*
X133390568Y-143575992D01*
X133463553Y-143351368D01*
X133488929Y-143191150D01*
X133500500Y-143118097D01*
X133500500Y-142881902D01*
X133463553Y-142648631D01*
X133390566Y-142424003D01*
X133299358Y-142244999D01*
X133283343Y-142213567D01*
X133144517Y-142022490D01*
X132977510Y-141855483D01*
X132786433Y-141716657D01*
X132575996Y-141609433D01*
X132351368Y-141536446D01*
X132118097Y-141499500D01*
X132118092Y-141499500D01*
X131881908Y-141499500D01*
X131881903Y-141499500D01*
X131648631Y-141536446D01*
X131424003Y-141609433D01*
X131213566Y-141716657D01*
X131104550Y-141795862D01*
X131022490Y-141855483D01*
X131022488Y-141855485D01*
X131022487Y-141855485D01*
X130855485Y-142022487D01*
X130855485Y-142022488D01*
X130855483Y-142022490D01*
X130777773Y-142129448D01*
X130724818Y-142202334D01*
X130669488Y-142244999D01*
X130599874Y-142250978D01*
X130538079Y-142218372D01*
X130503722Y-142157533D01*
X130500500Y-142129448D01*
X130500500Y-137079398D01*
X138259500Y-137079398D01*
X138259500Y-139265602D01*
X138265126Y-139312454D01*
X138270122Y-139354061D01*
X138325639Y-139494843D01*
X138417077Y-139615422D01*
X138537656Y-139706860D01*
X138537657Y-139706860D01*
X138537658Y-139706861D01*
X138678436Y-139762377D01*
X138766898Y-139773000D01*
X138766903Y-139773000D01*
X140953097Y-139773000D01*
X140953102Y-139773000D01*
X141041564Y-139762377D01*
X141182342Y-139706861D01*
X141302922Y-139615422D01*
X141394361Y-139494842D01*
X141449877Y-139354064D01*
X141460500Y-139265602D01*
X141460500Y-137079398D01*
X141449877Y-136990936D01*
X141394361Y-136850158D01*
X141394360Y-136850157D01*
X141394360Y-136850156D01*
X141302922Y-136729577D01*
X141182343Y-136638139D01*
X141086192Y-136600222D01*
X141041564Y-136582623D01*
X141041563Y-136582622D01*
X141041561Y-136582622D01*
X140995247Y-136577061D01*
X140953102Y-136572000D01*
X138766898Y-136572000D01*
X138727853Y-136576688D01*
X138678438Y-136582622D01*
X138537656Y-136638139D01*
X138417077Y-136729577D01*
X138325639Y-136850156D01*
X138270122Y-136990938D01*
X138264188Y-137040353D01*
X138259500Y-137079398D01*
X130500500Y-137079398D01*
X130500500Y-92982437D01*
X130520185Y-92915398D01*
X130572989Y-92869643D01*
X130642147Y-92859699D01*
X130705703Y-92888724D01*
X130734984Y-92926140D01*
X130816657Y-93086433D01*
X130955483Y-93277510D01*
X131122490Y-93444517D01*
X131313567Y-93583343D01*
X131412991Y-93634002D01*
X131524003Y-93690566D01*
X131524005Y-93690566D01*
X131524008Y-93690568D01*
X131644412Y-93729689D01*
X131748631Y-93763553D01*
X131981903Y-93800500D01*
X131981908Y-93800500D01*
X132218097Y-93800500D01*
X132451368Y-93763553D01*
X132675992Y-93690568D01*
X132886433Y-93583343D01*
X133077510Y-93444517D01*
X133244517Y-93277510D01*
X133383343Y-93086433D01*
X133415015Y-93024272D01*
X133462990Y-92973477D01*
X133530811Y-92956682D01*
X133596946Y-92979219D01*
X133640397Y-93033934D01*
X133649500Y-93080568D01*
X133649500Y-126403469D01*
X133689868Y-126606412D01*
X133689870Y-126606420D01*
X133769059Y-126797598D01*
X133884023Y-126969655D01*
X134030345Y-127115977D01*
X134030346Y-127115977D01*
X134037413Y-127123044D01*
X134037412Y-127123044D01*
X134037416Y-127123047D01*
X138730341Y-131815974D01*
X138730345Y-131815977D01*
X138902395Y-131930938D01*
X138902408Y-131930945D01*
X139093575Y-132010128D01*
X139093580Y-132010130D01*
X139093584Y-132010130D01*
X139093585Y-132010131D01*
X139296532Y-132050501D01*
X139296535Y-132050501D01*
X139509579Y-132050501D01*
X139509599Y-132050500D01*
X143825500Y-132050500D01*
X143892539Y-132070185D01*
X143938294Y-132122989D01*
X143949500Y-132174500D01*
X143949500Y-135943089D01*
X143960123Y-136031559D01*
X144015641Y-136172343D01*
X144107078Y-136292921D01*
X144227656Y-136384358D01*
X144227659Y-136384360D01*
X144368438Y-136439876D01*
X144368440Y-136439876D01*
X144374716Y-136442351D01*
X144429860Y-136485257D01*
X144453053Y-136551165D01*
X144436933Y-136619149D01*
X144386616Y-136667626D01*
X144367546Y-136675636D01*
X144325620Y-136689258D01*
X144101151Y-136803632D01*
X143897350Y-136951701D01*
X143897345Y-136951705D01*
X143719205Y-137129845D01*
X143719201Y-137129850D01*
X143571132Y-137333651D01*
X143456760Y-137558116D01*
X143378910Y-137797714D01*
X143339500Y-138046538D01*
X143339500Y-138298461D01*
X143378910Y-138547285D01*
X143456760Y-138786883D01*
X143571132Y-139011348D01*
X143719201Y-139215149D01*
X143719205Y-139215154D01*
X143897345Y-139393294D01*
X143897350Y-139393298D01*
X144037116Y-139494843D01*
X144101155Y-139541370D01*
X144244184Y-139614247D01*
X144325616Y-139655739D01*
X144325618Y-139655739D01*
X144325621Y-139655741D01*
X144565215Y-139733590D01*
X144814038Y-139773000D01*
X144814039Y-139773000D01*
X145065961Y-139773000D01*
X145065962Y-139773000D01*
X145314785Y-139733590D01*
X145554379Y-139655741D01*
X145778845Y-139541370D01*
X145982656Y-139393293D01*
X146160793Y-139215156D01*
X146308870Y-139011345D01*
X146423241Y-138786879D01*
X146501090Y-138547285D01*
X146540500Y-138298462D01*
X146540500Y-138046538D01*
X146501090Y-137797715D01*
X146423241Y-137558121D01*
X146423239Y-137558118D01*
X146423239Y-137558116D01*
X146375994Y-137465394D01*
X146308870Y-137333655D01*
X146289952Y-137307617D01*
X146160798Y-137129850D01*
X146160794Y-137129845D01*
X145982654Y-136951705D01*
X145982649Y-136951701D01*
X145778848Y-136803632D01*
X145778847Y-136803631D01*
X145778845Y-136803630D01*
X145593975Y-136709434D01*
X145554370Y-136689254D01*
X145553896Y-136689058D01*
X145553743Y-136688934D01*
X145550038Y-136687047D01*
X145550434Y-136686268D01*
X145499494Y-136645215D01*
X145477432Y-136578920D01*
X145494714Y-136511222D01*
X145545853Y-136463613D01*
X145601349Y-136450499D01*
X149358648Y-136450499D01*
X149425687Y-136470184D01*
X149471442Y-136522988D01*
X149481386Y-136592146D01*
X149452361Y-136655702D01*
X149409674Y-136686482D01*
X149409962Y-136687047D01*
X149406312Y-136688906D01*
X149406097Y-136689062D01*
X149405617Y-136689260D01*
X149181151Y-136803632D01*
X148977350Y-136951701D01*
X148977345Y-136951705D01*
X148799205Y-137129845D01*
X148799201Y-137129850D01*
X148651132Y-137333651D01*
X148536760Y-137558116D01*
X148458910Y-137797714D01*
X148419500Y-138046538D01*
X148419500Y-138298461D01*
X148458910Y-138547285D01*
X148536760Y-138786883D01*
X148651132Y-139011348D01*
X148799201Y-139215149D01*
X148799205Y-139215154D01*
X148977345Y-139393294D01*
X148977350Y-139393298D01*
X149117116Y-139494843D01*
X149181155Y-139541370D01*
X149324184Y-139614247D01*
X149405616Y-139655739D01*
X149405618Y-139655739D01*
X149405621Y-139655741D01*
X149645215Y-139733590D01*
X149894038Y-139773000D01*
X149894039Y-139773000D01*
X150145961Y-139773000D01*
X150145962Y-139773000D01*
X150394785Y-139733590D01*
X150634379Y-139655741D01*
X150858845Y-139541370D01*
X150879423Y-139526419D01*
X154453184Y-139526419D01*
X154524197Y-139562602D01*
X154748752Y-139635565D01*
X154748751Y-139635565D01*
X154981948Y-139672500D01*
X155218052Y-139672500D01*
X155451247Y-139635565D01*
X155675797Y-139562604D01*
X155746814Y-139526419D01*
X155100001Y-138879606D01*
X155100000Y-138879606D01*
X154453184Y-139526419D01*
X150879423Y-139526419D01*
X151062656Y-139393293D01*
X151240793Y-139215156D01*
X151388870Y-139011345D01*
X151503241Y-138786879D01*
X151581090Y-138547285D01*
X151620500Y-138298462D01*
X151620500Y-138054447D01*
X153600000Y-138054447D01*
X153600000Y-138290552D01*
X153636934Y-138523747D01*
X153709898Y-138748305D01*
X153746078Y-138819313D01*
X153746079Y-138819314D01*
X154392894Y-138172500D01*
X154328875Y-138108481D01*
X154450000Y-138108481D01*
X154450000Y-138236519D01*
X154474979Y-138362098D01*
X154523978Y-138480390D01*
X154595112Y-138586851D01*
X154685649Y-138677388D01*
X154792110Y-138748522D01*
X154910402Y-138797521D01*
X155035981Y-138822500D01*
X155164019Y-138822500D01*
X155289598Y-138797521D01*
X155407890Y-138748522D01*
X155514351Y-138677388D01*
X155604888Y-138586851D01*
X155676022Y-138480390D01*
X155725021Y-138362098D01*
X155750000Y-138236519D01*
X155750000Y-138172499D01*
X155807106Y-138172499D01*
X155807106Y-138172501D01*
X156453919Y-138819314D01*
X156490104Y-138748297D01*
X156563065Y-138523747D01*
X156600000Y-138290552D01*
X156600000Y-138054447D01*
X156563065Y-137821252D01*
X156490102Y-137596697D01*
X156453919Y-137525684D01*
X155807106Y-138172499D01*
X155750000Y-138172499D01*
X155750000Y-138108481D01*
X155725021Y-137982902D01*
X155676022Y-137864610D01*
X155604888Y-137758149D01*
X155514351Y-137667612D01*
X155407890Y-137596478D01*
X155289598Y-137547479D01*
X155164019Y-137522500D01*
X155035981Y-137522500D01*
X154910402Y-137547479D01*
X154792110Y-137596478D01*
X154685649Y-137667612D01*
X154595112Y-137758149D01*
X154523978Y-137864610D01*
X154474979Y-137982902D01*
X154450000Y-138108481D01*
X154328875Y-138108481D01*
X153746078Y-137525684D01*
X153709894Y-137596702D01*
X153709894Y-137596703D01*
X153636934Y-137821251D01*
X153600000Y-138054447D01*
X151620500Y-138054447D01*
X151620500Y-138046538D01*
X151581090Y-137797715D01*
X151503241Y-137558121D01*
X151503239Y-137558118D01*
X151503239Y-137558116D01*
X151455994Y-137465394D01*
X151388870Y-137333655D01*
X151369952Y-137307617D01*
X151240798Y-137129850D01*
X151240794Y-137129845D01*
X151062654Y-136951705D01*
X151062649Y-136951701D01*
X150879420Y-136818578D01*
X154453184Y-136818578D01*
X155100000Y-137465394D01*
X155100001Y-137465394D01*
X155746814Y-136818579D01*
X155746813Y-136818578D01*
X155675805Y-136782398D01*
X155451247Y-136709434D01*
X155451248Y-136709434D01*
X155218052Y-136672500D01*
X154981948Y-136672500D01*
X154748751Y-136709434D01*
X154524203Y-136782394D01*
X154524202Y-136782394D01*
X154453184Y-136818578D01*
X150879420Y-136818578D01*
X150858848Y-136803632D01*
X150858847Y-136803631D01*
X150858845Y-136803630D01*
X150673975Y-136709434D01*
X150634382Y-136689260D01*
X150608531Y-136680860D01*
X150550857Y-136641420D01*
X150523661Y-136577061D01*
X150535577Y-136508215D01*
X150582823Y-136456741D01*
X150624039Y-136442577D01*
X150623850Y-136441826D01*
X150631554Y-136439878D01*
X150631557Y-136439876D01*
X150631562Y-136439876D01*
X150772341Y-136384360D01*
X150892921Y-136292921D01*
X150984360Y-136172341D01*
X151039876Y-136031562D01*
X151050500Y-135943097D01*
X151050499Y-128856904D01*
X151039876Y-128768438D01*
X150984360Y-128627659D01*
X150984358Y-128627656D01*
X150892921Y-128507078D01*
X150772343Y-128415641D01*
X150772341Y-128415640D01*
X150631562Y-128360124D01*
X150631561Y-128360123D01*
X150631559Y-128360123D01*
X150543097Y-128349500D01*
X144456910Y-128349500D01*
X144368440Y-128360123D01*
X144227656Y-128415641D01*
X144107078Y-128507078D01*
X144015641Y-128627656D01*
X143960123Y-128768439D01*
X143960123Y-128768440D01*
X143949500Y-128856902D01*
X143949500Y-129825500D01*
X143929815Y-129892539D01*
X143877011Y-129938294D01*
X143825500Y-129949500D01*
X139886494Y-129949500D01*
X139819455Y-129929815D01*
X139798813Y-129913181D01*
X135786819Y-125901187D01*
X135753334Y-125839864D01*
X135750500Y-125813506D01*
X135750500Y-117520943D01*
X147899500Y-117520943D01*
X147899500Y-117679056D01*
X147940423Y-117831783D01*
X147940426Y-117831790D01*
X148019475Y-117968709D01*
X148019479Y-117968714D01*
X148019480Y-117968716D01*
X148131284Y-118080520D01*
X148131286Y-118080521D01*
X148131290Y-118080524D01*
X148252494Y-118150500D01*
X148268216Y-118159577D01*
X148420943Y-118200500D01*
X148420945Y-118200500D01*
X148579055Y-118200500D01*
X148579057Y-118200500D01*
X148731784Y-118159577D01*
X148731785Y-118159576D01*
X148739635Y-118157473D01*
X148739820Y-118158165D01*
X148778363Y-118150500D01*
X153572472Y-118150500D01*
X153572474Y-118150500D01*
X153572475Y-118150500D01*
X153712485Y-118112984D01*
X153838015Y-118040510D01*
X154440510Y-117438015D01*
X154512984Y-117312485D01*
X154550500Y-117172475D01*
X154550500Y-116557940D01*
X154570185Y-116490901D01*
X154586819Y-116470259D01*
X156821786Y-114235292D01*
X156821789Y-114235289D01*
X156909394Y-114104179D01*
X156969737Y-113958497D01*
X157000500Y-113803842D01*
X157000500Y-113646157D01*
X157000500Y-99321158D01*
X157000500Y-99321155D01*
X157000499Y-99321153D01*
X156998196Y-99309573D01*
X156969737Y-99166503D01*
X156910307Y-99023025D01*
X156909397Y-99020827D01*
X156909390Y-99020814D01*
X156821789Y-98889711D01*
X156821786Y-98889707D01*
X156710292Y-98778213D01*
X156710288Y-98778210D01*
X156579185Y-98690609D01*
X156579172Y-98690602D01*
X156433501Y-98630264D01*
X156433489Y-98630261D01*
X156278845Y-98599500D01*
X156278842Y-98599500D01*
X156121158Y-98599500D01*
X156121155Y-98599500D01*
X155966510Y-98630261D01*
X155966498Y-98630264D01*
X155820827Y-98690602D01*
X155820814Y-98690609D01*
X155689711Y-98778210D01*
X155689707Y-98778213D01*
X155578213Y-98889707D01*
X155578210Y-98889711D01*
X155490609Y-99020814D01*
X155490602Y-99020827D01*
X155430264Y-99166498D01*
X155430261Y-99166510D01*
X155399500Y-99321153D01*
X155399500Y-113342059D01*
X155379815Y-113409098D01*
X155363181Y-113429740D01*
X153378213Y-115414707D01*
X153378210Y-115414711D01*
X153290609Y-115545814D01*
X153290602Y-115545827D01*
X153230264Y-115691498D01*
X153230261Y-115691510D01*
X153199500Y-115846153D01*
X153199500Y-116003846D01*
X153230261Y-116158489D01*
X153230264Y-116158501D01*
X153290602Y-116304172D01*
X153290609Y-116304185D01*
X153378210Y-116435288D01*
X153378213Y-116435292D01*
X153413180Y-116470258D01*
X153446666Y-116531580D01*
X153449500Y-116557940D01*
X153449500Y-116820613D01*
X153440855Y-116850053D01*
X153434332Y-116880040D01*
X153430577Y-116885055D01*
X153429815Y-116887652D01*
X153413181Y-116908294D01*
X153308294Y-117013181D01*
X153246971Y-117046666D01*
X153220613Y-117049500D01*
X148778363Y-117049500D01*
X148739820Y-117041834D01*
X148739635Y-117042527D01*
X148731785Y-117040423D01*
X148731784Y-117040423D01*
X148579057Y-116999500D01*
X148420943Y-116999500D01*
X148268216Y-117040423D01*
X148268209Y-117040426D01*
X148131290Y-117119475D01*
X148131282Y-117119481D01*
X148019481Y-117231282D01*
X148019475Y-117231290D01*
X147940426Y-117368209D01*
X147940423Y-117368216D01*
X147899500Y-117520943D01*
X135750500Y-117520943D01*
X135750500Y-106420943D01*
X140199500Y-106420943D01*
X140199500Y-106579057D01*
X140238456Y-106724441D01*
X140240423Y-106731783D01*
X140240426Y-106731790D01*
X140319475Y-106868709D01*
X140319481Y-106868717D01*
X140340437Y-106889673D01*
X140372531Y-106945263D01*
X140380199Y-106973884D01*
X140380201Y-106973887D01*
X140439511Y-107076614D01*
X140439513Y-107076616D01*
X142163299Y-108800402D01*
X142196784Y-108861725D01*
X142198556Y-108871893D01*
X142199498Y-108879050D01*
X142199500Y-108879056D01*
X142199500Y-108879057D01*
X142229340Y-108990423D01*
X142240423Y-109031783D01*
X142240426Y-109031790D01*
X142319475Y-109168709D01*
X142319479Y-109168714D01*
X142319480Y-109168716D01*
X142431284Y-109280520D01*
X142431286Y-109280521D01*
X142431290Y-109280524D01*
X142568209Y-109359573D01*
X142568216Y-109359577D01*
X142720943Y-109400500D01*
X142720945Y-109400500D01*
X142879055Y-109400500D01*
X142879057Y-109400500D01*
X143031784Y-109359577D01*
X143168716Y-109280520D01*
X143280520Y-109168716D01*
X143359577Y-109031784D01*
X143400500Y-108879057D01*
X143400500Y-108720943D01*
X143359577Y-108568216D01*
X143302132Y-108468717D01*
X143280524Y-108431290D01*
X143280518Y-108431282D01*
X143168717Y-108319481D01*
X143168709Y-108319475D01*
X143031790Y-108240426D01*
X143031786Y-108240424D01*
X143031784Y-108240423D01*
X142879057Y-108199500D01*
X142879050Y-108199498D01*
X142871893Y-108198556D01*
X142807997Y-108170287D01*
X142800402Y-108163299D01*
X141412167Y-106775064D01*
X141378682Y-106713741D01*
X141380073Y-106655289D01*
X141400500Y-106579057D01*
X141400500Y-106420943D01*
X141359577Y-106268216D01*
X141331437Y-106219475D01*
X141280524Y-106131290D01*
X141280518Y-106131282D01*
X141168717Y-106019481D01*
X141168709Y-106019475D01*
X141031790Y-105940426D01*
X141031786Y-105940424D01*
X141031784Y-105940423D01*
X140879057Y-105899500D01*
X140720943Y-105899500D01*
X140568216Y-105940423D01*
X140568209Y-105940426D01*
X140431290Y-106019475D01*
X140431282Y-106019481D01*
X140319481Y-106131282D01*
X140319475Y-106131290D01*
X140240426Y-106268209D01*
X140240423Y-106268216D01*
X140199500Y-106420943D01*
X135750500Y-106420943D01*
X135750500Y-89024500D01*
X135770185Y-88957461D01*
X135822989Y-88911706D01*
X135874500Y-88900500D01*
X136029055Y-88900500D01*
X136029057Y-88900500D01*
X136181784Y-88859577D01*
X136181785Y-88859576D01*
X136189635Y-88857473D01*
X136189820Y-88858165D01*
X136228363Y-88850500D01*
X147521637Y-88850500D01*
X147560179Y-88858165D01*
X147560365Y-88857473D01*
X147568214Y-88859576D01*
X147568216Y-88859577D01*
X147720943Y-88900500D01*
X147720945Y-88900500D01*
X147879055Y-88900500D01*
X147879057Y-88900500D01*
X148031784Y-88859577D01*
X148168716Y-88780520D01*
X148280520Y-88668716D01*
X148359577Y-88531784D01*
X148400500Y-88379057D01*
X148400500Y-88220943D01*
X148359577Y-88068216D01*
X148359576Y-88068214D01*
X148357473Y-88060365D01*
X148358165Y-88060179D01*
X148350500Y-88021637D01*
X148350500Y-83104386D01*
X148370185Y-83037347D01*
X148386814Y-83016710D01*
X153912819Y-77490704D01*
X153974142Y-77457220D01*
X154043834Y-77462204D01*
G37*
%TD.AperFunction*%
%TA.AperFunction,Conductor*%
G36*
X132807225Y-45520185D02*
G01*
X132852980Y-45572989D01*
X132862924Y-45642147D01*
X132833899Y-45705703D01*
X132827867Y-45712181D01*
X132786277Y-45753770D01*
X132786274Y-45753773D01*
X132709670Y-45868420D01*
X132709663Y-45868433D01*
X132656900Y-45995816D01*
X132656897Y-45995825D01*
X132636177Y-46100000D01*
X133046211Y-46100000D01*
X133029999Y-46160504D01*
X133029999Y-47039496D01*
X133050443Y-47115796D01*
X133089939Y-47184205D01*
X133145794Y-47240060D01*
X133214203Y-47279556D01*
X133290503Y-47300000D01*
X133369495Y-47300000D01*
X133445795Y-47279556D01*
X133514204Y-47240060D01*
X133570059Y-47184205D01*
X133609555Y-47115796D01*
X133629999Y-47039496D01*
X133629999Y-46160504D01*
X133613787Y-46100000D01*
X134023821Y-46100000D01*
X134003100Y-45995825D01*
X134003097Y-45995816D01*
X133950334Y-45868433D01*
X133950327Y-45868420D01*
X133873723Y-45753773D01*
X133832131Y-45712181D01*
X133798646Y-45650858D01*
X133803630Y-45581166D01*
X133845502Y-45525233D01*
X133910966Y-45500816D01*
X133919812Y-45500500D01*
X141380189Y-45500500D01*
X141447228Y-45520185D01*
X141492983Y-45572989D01*
X141502927Y-45642147D01*
X141473902Y-45705703D01*
X141467870Y-45712181D01*
X141426279Y-45753771D01*
X141426276Y-45753774D01*
X141349672Y-45868421D01*
X141349665Y-45868434D01*
X141296902Y-45995817D01*
X141296899Y-45995826D01*
X141276179Y-46100001D01*
X141686213Y-46100001D01*
X141670001Y-46160505D01*
X141670001Y-47039497D01*
X141690445Y-47115797D01*
X141729941Y-47184206D01*
X141785796Y-47240061D01*
X141854205Y-47279557D01*
X141930505Y-47300001D01*
X142009497Y-47300001D01*
X142085797Y-47279557D01*
X142154206Y-47240061D01*
X142210061Y-47184206D01*
X142249557Y-47115797D01*
X142270001Y-47039497D01*
X142270001Y-46781533D01*
X157624499Y-46781533D01*
X157650458Y-46912030D01*
X157650461Y-46912040D01*
X157701376Y-47034961D01*
X157701386Y-47034979D01*
X157775301Y-47145601D01*
X157775307Y-47145609D01*
X157869390Y-47239692D01*
X157869398Y-47239698D01*
X157980020Y-47313613D01*
X157980023Y-47313614D01*
X157980031Y-47313620D01*
X157980037Y-47313622D01*
X157980038Y-47313623D01*
X158102959Y-47364538D01*
X158102964Y-47364540D01*
X158102968Y-47364540D01*
X158102969Y-47364541D01*
X158233466Y-47390500D01*
X158233469Y-47390500D01*
X158366533Y-47390500D01*
X158454325Y-47373035D01*
X158497036Y-47364540D01*
X158619969Y-47313620D01*
X158730606Y-47239695D01*
X158824695Y-47145606D01*
X158898620Y-47034969D01*
X158949540Y-46912036D01*
X158975500Y-46781533D01*
X160624499Y-46781533D01*
X160650458Y-46912030D01*
X160650461Y-46912040D01*
X160701376Y-47034961D01*
X160701386Y-47034979D01*
X160775301Y-47145601D01*
X160775307Y-47145609D01*
X160869390Y-47239692D01*
X160869398Y-47239698D01*
X160980020Y-47313613D01*
X160980023Y-47313614D01*
X160980031Y-47313620D01*
X160980037Y-47313622D01*
X160980038Y-47313623D01*
X161102959Y-47364538D01*
X161102964Y-47364540D01*
X161102968Y-47364540D01*
X161102969Y-47364541D01*
X161233466Y-47390500D01*
X161233469Y-47390500D01*
X161366533Y-47390500D01*
X161454325Y-47373035D01*
X161497036Y-47364540D01*
X161619969Y-47313620D01*
X161730606Y-47239695D01*
X161824695Y-47145606D01*
X161898620Y-47034969D01*
X161949540Y-46912036D01*
X161975500Y-46781531D01*
X161975500Y-46648469D01*
X161975500Y-46648466D01*
X161949541Y-46517969D01*
X161949540Y-46517968D01*
X161949540Y-46517964D01*
X161898620Y-46395031D01*
X161824695Y-46284394D01*
X161824692Y-46284390D01*
X161730609Y-46190307D01*
X161730601Y-46190301D01*
X161619979Y-46116386D01*
X161619972Y-46116382D01*
X161619969Y-46116380D01*
X161619965Y-46116378D01*
X161619961Y-46116376D01*
X161497040Y-46065461D01*
X161497030Y-46065458D01*
X161366533Y-46039500D01*
X161366531Y-46039500D01*
X161233469Y-46039500D01*
X161233467Y-46039500D01*
X161102969Y-46065458D01*
X161102959Y-46065461D01*
X160980038Y-46116376D01*
X160980020Y-46116386D01*
X160869398Y-46190301D01*
X160869390Y-46190307D01*
X160775307Y-46284390D01*
X160775301Y-46284398D01*
X160701386Y-46395020D01*
X160701376Y-46395038D01*
X160650461Y-46517959D01*
X160650458Y-46517969D01*
X160624500Y-46648466D01*
X160624500Y-46648469D01*
X160624500Y-46781531D01*
X160624500Y-46781533D01*
X160624499Y-46781533D01*
X158975500Y-46781533D01*
X158975500Y-46781531D01*
X158975500Y-46648469D01*
X158975500Y-46648466D01*
X158949541Y-46517969D01*
X158949540Y-46517968D01*
X158949540Y-46517964D01*
X158898620Y-46395031D01*
X158824695Y-46284394D01*
X158824692Y-46284390D01*
X158730609Y-46190307D01*
X158730601Y-46190301D01*
X158619979Y-46116386D01*
X158619972Y-46116382D01*
X158619969Y-46116380D01*
X158619965Y-46116378D01*
X158619961Y-46116376D01*
X158497040Y-46065461D01*
X158497030Y-46065458D01*
X158366533Y-46039500D01*
X158366531Y-46039500D01*
X158233469Y-46039500D01*
X158233467Y-46039500D01*
X158102969Y-46065458D01*
X158102959Y-46065461D01*
X157980038Y-46116376D01*
X157980020Y-46116386D01*
X157869398Y-46190301D01*
X157869390Y-46190307D01*
X157775307Y-46284390D01*
X157775301Y-46284398D01*
X157701386Y-46395020D01*
X157701376Y-46395038D01*
X157650461Y-46517959D01*
X157650458Y-46517969D01*
X157624500Y-46648466D01*
X157624500Y-46648469D01*
X157624500Y-46781531D01*
X157624500Y-46781533D01*
X157624499Y-46781533D01*
X142270001Y-46781533D01*
X142270001Y-46160505D01*
X142253789Y-46100001D01*
X142663823Y-46100001D01*
X142643102Y-45995826D01*
X142643099Y-45995817D01*
X142590336Y-45868434D01*
X142590329Y-45868421D01*
X142513725Y-45753774D01*
X142472132Y-45712181D01*
X142438647Y-45650858D01*
X142443631Y-45581166D01*
X142485503Y-45525233D01*
X142550967Y-45500816D01*
X142559813Y-45500500D01*
X163934108Y-45500500D01*
X163993038Y-45500500D01*
X164006922Y-45501280D01*
X164097266Y-45511459D01*
X164124331Y-45517636D01*
X164203540Y-45545352D01*
X164228553Y-45557398D01*
X164299606Y-45602043D01*
X164321313Y-45619355D01*
X164380644Y-45678686D01*
X164397957Y-45700395D01*
X164442600Y-45771444D01*
X164454648Y-45796462D01*
X164482362Y-45875666D01*
X164488540Y-45902735D01*
X164498720Y-45993076D01*
X164499500Y-46006961D01*
X164499500Y-69276000D01*
X164479815Y-69343039D01*
X164427011Y-69388794D01*
X164375500Y-69400000D01*
X158914500Y-69400000D01*
X158847461Y-69380315D01*
X158801706Y-69327511D01*
X158790500Y-69276000D01*
X158790500Y-67749702D01*
X162010000Y-67749702D01*
X162021602Y-67808033D01*
X162021603Y-67808034D01*
X162065808Y-67874191D01*
X162131965Y-67918396D01*
X162131966Y-67918397D01*
X162190297Y-67929999D01*
X162190301Y-67930000D01*
X162560000Y-67930000D01*
X163560000Y-67930000D01*
X163929699Y-67930000D01*
X163929702Y-67929999D01*
X163988033Y-67918397D01*
X163988034Y-67918396D01*
X164054191Y-67874191D01*
X164098396Y-67808034D01*
X164098397Y-67808033D01*
X164109999Y-67749702D01*
X164110000Y-67749699D01*
X164110000Y-67380000D01*
X163560000Y-67380000D01*
X163560000Y-67930000D01*
X162560000Y-67930000D01*
X162560000Y-67380000D01*
X162010000Y-67380000D01*
X162010000Y-67749702D01*
X158790500Y-67749702D01*
X158790500Y-66814174D01*
X162560000Y-66814174D01*
X162560000Y-66945826D01*
X162594075Y-67072993D01*
X162659901Y-67187007D01*
X162752993Y-67280099D01*
X162867007Y-67345925D01*
X162994174Y-67380000D01*
X163125826Y-67380000D01*
X163252993Y-67345925D01*
X163367007Y-67280099D01*
X163460099Y-67187007D01*
X163525925Y-67072993D01*
X163560000Y-66945826D01*
X163560000Y-66814174D01*
X163525925Y-66687007D01*
X163460099Y-66572993D01*
X163367007Y-66479901D01*
X163252993Y-66414075D01*
X163125826Y-66380000D01*
X163560000Y-66380000D01*
X164110000Y-66380000D01*
X164110000Y-66010301D01*
X164109999Y-66010297D01*
X164098397Y-65951966D01*
X164098396Y-65951965D01*
X164054191Y-65885808D01*
X163988034Y-65841603D01*
X163988033Y-65841602D01*
X163929702Y-65830000D01*
X163560000Y-65830000D01*
X163560000Y-66380000D01*
X163125826Y-66380000D01*
X162994174Y-66380000D01*
X162867007Y-66414075D01*
X162752993Y-66479901D01*
X162659901Y-66572993D01*
X162594075Y-66687007D01*
X162560000Y-66814174D01*
X158790500Y-66814174D01*
X158790500Y-66010297D01*
X162010000Y-66010297D01*
X162010000Y-66380000D01*
X162560000Y-66380000D01*
X162560000Y-65830000D01*
X162190297Y-65830000D01*
X162131966Y-65841602D01*
X162131965Y-65841603D01*
X162065808Y-65885808D01*
X162021603Y-65951965D01*
X162021602Y-65951966D01*
X162010000Y-66010297D01*
X158790500Y-66010297D01*
X158790500Y-56299387D01*
X158810185Y-56232348D01*
X158826819Y-56211706D01*
X160281706Y-54756819D01*
X160343029Y-54723334D01*
X160369387Y-54720500D01*
X161221637Y-54720500D01*
X161260179Y-54728165D01*
X161260365Y-54727473D01*
X161268214Y-54729576D01*
X161268216Y-54729577D01*
X161420943Y-54770500D01*
X161420945Y-54770500D01*
X161579055Y-54770500D01*
X161579057Y-54770500D01*
X161731784Y-54729577D01*
X161863569Y-54653491D01*
X161931467Y-54637019D01*
X161997494Y-54659872D01*
X162036051Y-54704583D01*
X162069637Y-54770499D01*
X162076006Y-54782997D01*
X162182441Y-54929494D01*
X162182445Y-54929499D01*
X162310500Y-55057554D01*
X162310505Y-55057558D01*
X162416408Y-55134500D01*
X162457006Y-55163996D01*
X162562484Y-55217740D01*
X162618360Y-55246211D01*
X162618363Y-55246212D01*
X162704476Y-55274191D01*
X162790591Y-55302171D01*
X162859064Y-55313016D01*
X162950678Y-55327527D01*
X163013813Y-55357456D01*
X163050744Y-55416768D01*
X163049746Y-55486631D01*
X163011136Y-55544863D01*
X162950678Y-55572473D01*
X162790589Y-55597829D01*
X162618363Y-55653787D01*
X162618360Y-55653788D01*
X162457002Y-55736006D01*
X162310505Y-55842441D01*
X162310500Y-55842445D01*
X162182445Y-55970500D01*
X162182441Y-55970505D01*
X162076006Y-56117002D01*
X161993788Y-56278360D01*
X161993787Y-56278363D01*
X161937829Y-56450589D01*
X161909500Y-56629448D01*
X161909500Y-56810551D01*
X161937829Y-56989410D01*
X161993787Y-57161636D01*
X161993788Y-57161639D01*
X162076006Y-57322997D01*
X162182441Y-57469494D01*
X162182445Y-57469499D01*
X162310500Y-57597554D01*
X162310505Y-57597558D01*
X162427506Y-57682563D01*
X162457006Y-57703996D01*
X162562484Y-57757740D01*
X162618360Y-57786211D01*
X162618363Y-57786212D01*
X162704476Y-57814191D01*
X162790591Y-57842171D01*
X162863639Y-57853740D01*
X162950678Y-57867527D01*
X163013813Y-57897456D01*
X163050744Y-57956768D01*
X163049746Y-58026631D01*
X163011136Y-58084863D01*
X162950678Y-58112473D01*
X162790589Y-58137829D01*
X162618363Y-58193787D01*
X162618360Y-58193788D01*
X162457002Y-58276006D01*
X162310505Y-58382441D01*
X162310500Y-58382445D01*
X162182445Y-58510500D01*
X162182441Y-58510505D01*
X162076006Y-58657002D01*
X161993788Y-58818360D01*
X161993787Y-58818363D01*
X161937829Y-58990589D01*
X161909500Y-59169448D01*
X161909500Y-59350551D01*
X161937829Y-59529410D01*
X161993787Y-59701636D01*
X161993788Y-59701639D01*
X162076006Y-59862997D01*
X162182441Y-60009494D01*
X162182445Y-60009499D01*
X162310500Y-60137554D01*
X162310505Y-60137558D01*
X162360170Y-60173641D01*
X162457006Y-60243996D01*
X162562484Y-60297740D01*
X162618360Y-60326211D01*
X162618363Y-60326212D01*
X162704476Y-60354191D01*
X162790591Y-60382171D01*
X162863639Y-60393740D01*
X162950678Y-60407527D01*
X163013813Y-60437456D01*
X163050744Y-60496768D01*
X163049746Y-60566631D01*
X163011136Y-60624863D01*
X162950678Y-60652473D01*
X162790589Y-60677829D01*
X162618363Y-60733787D01*
X162618360Y-60733788D01*
X162457002Y-60816006D01*
X162310505Y-60922441D01*
X162310500Y-60922445D01*
X162182445Y-61050500D01*
X162182441Y-61050505D01*
X162076006Y-61197002D01*
X161993788Y-61358360D01*
X161993787Y-61358363D01*
X161937829Y-61530589D01*
X161909500Y-61709448D01*
X161909500Y-61890551D01*
X161937829Y-62069410D01*
X161993787Y-62241636D01*
X161993788Y-62241639D01*
X162076006Y-62402997D01*
X162182441Y-62549494D01*
X162182445Y-62549499D01*
X162310500Y-62677554D01*
X162310505Y-62677558D01*
X162438287Y-62770396D01*
X162457006Y-62783996D01*
X162562484Y-62837740D01*
X162618360Y-62866211D01*
X162618363Y-62866212D01*
X162704476Y-62894191D01*
X162790591Y-62922171D01*
X162863639Y-62933740D01*
X162950678Y-62947527D01*
X163013813Y-62977456D01*
X163050744Y-63036768D01*
X163049746Y-63106631D01*
X163011136Y-63164863D01*
X162950678Y-63192473D01*
X162790589Y-63217829D01*
X162618363Y-63273787D01*
X162618360Y-63273788D01*
X162457002Y-63356006D01*
X162310505Y-63462441D01*
X162310500Y-63462445D01*
X162182445Y-63590500D01*
X162182441Y-63590505D01*
X162076006Y-63737002D01*
X161993788Y-63898360D01*
X161993787Y-63898363D01*
X161937829Y-64070589D01*
X161909500Y-64249448D01*
X161909500Y-64430551D01*
X161937829Y-64609410D01*
X161993787Y-64781636D01*
X161993788Y-64781639D01*
X162076006Y-64942997D01*
X162182441Y-65089494D01*
X162182445Y-65089499D01*
X162310500Y-65217554D01*
X162310505Y-65217558D01*
X162438287Y-65310396D01*
X162457006Y-65323996D01*
X162562484Y-65377740D01*
X162618360Y-65406211D01*
X162618363Y-65406212D01*
X162704476Y-65434191D01*
X162790591Y-65462171D01*
X162873429Y-65475291D01*
X162969449Y-65490500D01*
X162969454Y-65490500D01*
X163150551Y-65490500D01*
X163237259Y-65476765D01*
X163329409Y-65462171D01*
X163501639Y-65406211D01*
X163662994Y-65323996D01*
X163809501Y-65217553D01*
X163937553Y-65089501D01*
X164043996Y-64942994D01*
X164126211Y-64781639D01*
X164182171Y-64609409D01*
X164196765Y-64517259D01*
X164210500Y-64430551D01*
X164210500Y-64249448D01*
X164182360Y-64071786D01*
X164182171Y-64070591D01*
X164126211Y-63898361D01*
X164126211Y-63898360D01*
X164097740Y-63842484D01*
X164043996Y-63737006D01*
X163950427Y-63608218D01*
X163937558Y-63590505D01*
X163937554Y-63590500D01*
X163809499Y-63462445D01*
X163809494Y-63462441D01*
X163662997Y-63356006D01*
X163662996Y-63356005D01*
X163662994Y-63356004D01*
X163611300Y-63329664D01*
X163501639Y-63273788D01*
X163501636Y-63273787D01*
X163329410Y-63217829D01*
X163169321Y-63192473D01*
X163106186Y-63162544D01*
X163069255Y-63103232D01*
X163070253Y-63033370D01*
X163108863Y-62975137D01*
X163169321Y-62947527D01*
X163239425Y-62936422D01*
X163329409Y-62922171D01*
X163501639Y-62866211D01*
X163662994Y-62783996D01*
X163809501Y-62677553D01*
X163937553Y-62549501D01*
X164043996Y-62402994D01*
X164126211Y-62241639D01*
X164182171Y-62069409D01*
X164196765Y-61977259D01*
X164210500Y-61890551D01*
X164210500Y-61709448D01*
X164194019Y-61605397D01*
X164182171Y-61530591D01*
X164126211Y-61358361D01*
X164126211Y-61358360D01*
X164097740Y-61302484D01*
X164043996Y-61197006D01*
X164030396Y-61178287D01*
X163937558Y-61050505D01*
X163937554Y-61050500D01*
X163809499Y-60922445D01*
X163809494Y-60922441D01*
X163662997Y-60816006D01*
X163662996Y-60816005D01*
X163662994Y-60816004D01*
X163611300Y-60789664D01*
X163501639Y-60733788D01*
X163501636Y-60733787D01*
X163329410Y-60677829D01*
X163169321Y-60652473D01*
X163106186Y-60622544D01*
X163069255Y-60563232D01*
X163070253Y-60493370D01*
X163108863Y-60435137D01*
X163169321Y-60407527D01*
X163239425Y-60396422D01*
X163329409Y-60382171D01*
X163501639Y-60326211D01*
X163662994Y-60243996D01*
X163809501Y-60137553D01*
X163937553Y-60009501D01*
X164043996Y-59862994D01*
X164126211Y-59701639D01*
X164182171Y-59529409D01*
X164196765Y-59437259D01*
X164210500Y-59350551D01*
X164210500Y-59169448D01*
X164192223Y-59054055D01*
X164182171Y-58990591D01*
X164136491Y-58850000D01*
X164126212Y-58818363D01*
X164126211Y-58818360D01*
X164094332Y-58755795D01*
X164043996Y-58657006D01*
X164013500Y-58615032D01*
X163937558Y-58510505D01*
X163937554Y-58510500D01*
X163809499Y-58382445D01*
X163809494Y-58382441D01*
X163662997Y-58276006D01*
X163662996Y-58276005D01*
X163662994Y-58276004D01*
X163611300Y-58249664D01*
X163501639Y-58193788D01*
X163501636Y-58193787D01*
X163329410Y-58137829D01*
X163169321Y-58112473D01*
X163106186Y-58082544D01*
X163069255Y-58023232D01*
X163070253Y-57953370D01*
X163108863Y-57895137D01*
X163169321Y-57867527D01*
X163239425Y-57856422D01*
X163329409Y-57842171D01*
X163501639Y-57786211D01*
X163662994Y-57703996D01*
X163809501Y-57597553D01*
X163937553Y-57469501D01*
X164043996Y-57322994D01*
X164126211Y-57161639D01*
X164182171Y-56989409D01*
X164196765Y-56897259D01*
X164210500Y-56810551D01*
X164210500Y-56629448D01*
X164184648Y-56466231D01*
X164182171Y-56450591D01*
X164126211Y-56278361D01*
X164126211Y-56278360D01*
X164092248Y-56211706D01*
X164043996Y-56117006D01*
X164030396Y-56098287D01*
X163937558Y-55970505D01*
X163937554Y-55970500D01*
X163809499Y-55842445D01*
X163809494Y-55842441D01*
X163662997Y-55736006D01*
X163662996Y-55736005D01*
X163662994Y-55736004D01*
X163578161Y-55692779D01*
X163501639Y-55653788D01*
X163501636Y-55653787D01*
X163329410Y-55597829D01*
X163169321Y-55572473D01*
X163106186Y-55542544D01*
X163069255Y-55483232D01*
X163070253Y-55413370D01*
X163108863Y-55355137D01*
X163169321Y-55327527D01*
X163239425Y-55316422D01*
X163329409Y-55302171D01*
X163501639Y-55246211D01*
X163662994Y-55163996D01*
X163809501Y-55057553D01*
X163937553Y-54929501D01*
X164043996Y-54782994D01*
X164126211Y-54621639D01*
X164182171Y-54449409D01*
X164196765Y-54357259D01*
X164210500Y-54270551D01*
X164210500Y-54089448D01*
X164194019Y-53985397D01*
X164182171Y-53910591D01*
X164126211Y-53738361D01*
X164126211Y-53738360D01*
X164084763Y-53657016D01*
X164043996Y-53577006D01*
X163995523Y-53510288D01*
X163937558Y-53430505D01*
X163937554Y-53430500D01*
X163809499Y-53302445D01*
X163809494Y-53302441D01*
X163662997Y-53196006D01*
X163662996Y-53196005D01*
X163662994Y-53196004D01*
X163611300Y-53169664D01*
X163501639Y-53113788D01*
X163501636Y-53113787D01*
X163329410Y-53057829D01*
X163150551Y-53029500D01*
X163150546Y-53029500D01*
X162969454Y-53029500D01*
X162969449Y-53029500D01*
X162790589Y-53057829D01*
X162618363Y-53113787D01*
X162618360Y-53113788D01*
X162457002Y-53196006D01*
X162310505Y-53302441D01*
X162310500Y-53302445D01*
X162182445Y-53430500D01*
X162182441Y-53430505D01*
X162076004Y-53577004D01*
X162043925Y-53639962D01*
X161995950Y-53690758D01*
X161928129Y-53707552D01*
X161871442Y-53691053D01*
X161731790Y-53610426D01*
X161731786Y-53610424D01*
X161731784Y-53610423D01*
X161579057Y-53569500D01*
X161420943Y-53569500D01*
X161268216Y-53610423D01*
X161268214Y-53610423D01*
X161260365Y-53612527D01*
X161260179Y-53611834D01*
X161221637Y-53619500D01*
X160017525Y-53619500D01*
X159941161Y-53639962D01*
X159877514Y-53657016D01*
X159751986Y-53729489D01*
X159751983Y-53729491D01*
X157799491Y-55681983D01*
X157799489Y-55681986D01*
X157727016Y-55807514D01*
X157723029Y-55822393D01*
X157689500Y-55947525D01*
X157689500Y-55947527D01*
X157689500Y-69711613D01*
X157683261Y-69732858D01*
X157681682Y-69754947D01*
X157673609Y-69765730D01*
X157669815Y-69778652D01*
X157653081Y-69793151D01*
X157639810Y-69810880D01*
X157627189Y-69815587D01*
X157617011Y-69824407D01*
X157595093Y-69827558D01*
X157574346Y-69835297D01*
X157561185Y-69832434D01*
X157547853Y-69834351D01*
X157527709Y-69825151D01*
X157506073Y-69820445D01*
X157488347Y-69807176D01*
X157484297Y-69805326D01*
X157477819Y-69799294D01*
X157352005Y-69673480D01*
X157332298Y-69647798D01*
X157278023Y-69553790D01*
X157278020Y-69553784D01*
X157166216Y-69441980D01*
X157166214Y-69441979D01*
X157166209Y-69441975D01*
X157029290Y-69362926D01*
X157029286Y-69362924D01*
X157029284Y-69362923D01*
X156876557Y-69322000D01*
X156718443Y-69322000D01*
X156565716Y-69362923D01*
X156565709Y-69362926D01*
X156428790Y-69441975D01*
X156428782Y-69441981D01*
X156316981Y-69553782D01*
X156316975Y-69553790D01*
X156237926Y-69690709D01*
X156237923Y-69690716D01*
X156197000Y-69843443D01*
X156197000Y-70001557D01*
X156218140Y-70080450D01*
X156237923Y-70154283D01*
X156237926Y-70154290D01*
X156316975Y-70291209D01*
X156316979Y-70291214D01*
X156316980Y-70291216D01*
X156428784Y-70403020D01*
X156428786Y-70403021D01*
X156428790Y-70403024D01*
X156565713Y-70482076D01*
X156565715Y-70482076D01*
X156565716Y-70482077D01*
X156585305Y-70487325D01*
X156599192Y-70495343D01*
X156612641Y-70498269D01*
X156640895Y-70519420D01*
X156813181Y-70691706D01*
X156846666Y-70753029D01*
X156849500Y-70779387D01*
X156849500Y-95020612D01*
X156829815Y-95087651D01*
X156813181Y-95108293D01*
X156206335Y-95715139D01*
X156145012Y-95748624D01*
X156075320Y-95743640D01*
X156019387Y-95701768D01*
X155994970Y-95636304D01*
X156009822Y-95568031D01*
X156011218Y-95565542D01*
X156012984Y-95562485D01*
X156019861Y-95536819D01*
X156021344Y-95531286D01*
X156021344Y-95531284D01*
X156043259Y-95449498D01*
X156050500Y-95422475D01*
X156050500Y-71317334D01*
X156067113Y-71255334D01*
X156109577Y-71181784D01*
X156150500Y-71029057D01*
X156150500Y-70870943D01*
X156109577Y-70718216D01*
X156083127Y-70672402D01*
X156030524Y-70581290D01*
X156030518Y-70581282D01*
X155918717Y-70469481D01*
X155918709Y-70469475D01*
X155781790Y-70390426D01*
X155781786Y-70390424D01*
X155781784Y-70390423D01*
X155629057Y-70349500D01*
X155470943Y-70349500D01*
X155318216Y-70390423D01*
X155318209Y-70390426D01*
X155181290Y-70469475D01*
X155181282Y-70469481D01*
X155069481Y-70581282D01*
X155069475Y-70581290D01*
X154990426Y-70718209D01*
X154990423Y-70718216D01*
X154949500Y-70870943D01*
X154949500Y-72915269D01*
X154929815Y-72982308D01*
X154877011Y-73028063D01*
X154807853Y-73038007D01*
X154793410Y-73035044D01*
X154754057Y-73024500D01*
X154595943Y-73024500D01*
X154443216Y-73065423D01*
X154443209Y-73065426D01*
X154306290Y-73144475D01*
X154306282Y-73144481D01*
X154194481Y-73256282D01*
X154194475Y-73256290D01*
X154115426Y-73393209D01*
X154115423Y-73393216D01*
X154074500Y-73545943D01*
X154074500Y-73704056D01*
X154117527Y-73864636D01*
X154116832Y-73864822D01*
X154124500Y-73903362D01*
X154124500Y-76049419D01*
X154104815Y-76116458D01*
X154052011Y-76162213D01*
X153982853Y-76172157D01*
X153968409Y-76169195D01*
X153941557Y-76162000D01*
X153783443Y-76162000D01*
X153630716Y-76202923D01*
X153630709Y-76202926D01*
X153493790Y-76281975D01*
X153493782Y-76281981D01*
X153381981Y-76393782D01*
X153381980Y-76393784D01*
X153302923Y-76530716D01*
X153302922Y-76530718D01*
X153298861Y-76537753D01*
X153298240Y-76537394D01*
X153276406Y-76570067D01*
X147359491Y-82486983D01*
X147359489Y-82486986D01*
X147287016Y-82612514D01*
X147287016Y-82612515D01*
X147249500Y-82752525D01*
X147249500Y-82752527D01*
X147249500Y-87625500D01*
X147229815Y-87692539D01*
X147177011Y-87738294D01*
X147125500Y-87749500D01*
X136228363Y-87749500D01*
X136189820Y-87741834D01*
X136189635Y-87742527D01*
X136181785Y-87740423D01*
X136181784Y-87740423D01*
X136029057Y-87699500D01*
X135874500Y-87699500D01*
X135807461Y-87679815D01*
X135761706Y-87627011D01*
X135750500Y-87575500D01*
X135750500Y-83956492D01*
X135770185Y-83889453D01*
X135786814Y-83868816D01*
X135884687Y-83770943D01*
X138449500Y-83770943D01*
X138449500Y-83929056D01*
X138490423Y-84081783D01*
X138490426Y-84081790D01*
X138569475Y-84218709D01*
X138569479Y-84218714D01*
X138569480Y-84218716D01*
X138681284Y-84330520D01*
X138681286Y-84330521D01*
X138681290Y-84330524D01*
X138825254Y-84413641D01*
X138824895Y-84414262D01*
X138857570Y-84436095D01*
X140963905Y-86542430D01*
X140985737Y-86575105D01*
X140986359Y-86574746D01*
X141069477Y-86718712D01*
X141069479Y-86718715D01*
X141069480Y-86718716D01*
X141181284Y-86830520D01*
X141181286Y-86830521D01*
X141181290Y-86830524D01*
X141318209Y-86909573D01*
X141318216Y-86909577D01*
X141470943Y-86950500D01*
X141470945Y-86950500D01*
X141629055Y-86950500D01*
X141629057Y-86950500D01*
X141781784Y-86909577D01*
X141918716Y-86830520D01*
X141928293Y-86820943D01*
X142299500Y-86820943D01*
X142299500Y-86979056D01*
X142340423Y-87131783D01*
X142340426Y-87131790D01*
X142419475Y-87268709D01*
X142419479Y-87268714D01*
X142419480Y-87268716D01*
X142531284Y-87380520D01*
X142531286Y-87380521D01*
X142531290Y-87380524D01*
X142668209Y-87459573D01*
X142668216Y-87459577D01*
X142820943Y-87500500D01*
X142820945Y-87500500D01*
X142979055Y-87500500D01*
X142979057Y-87500500D01*
X143131784Y-87459577D01*
X143268716Y-87380520D01*
X143380520Y-87268716D01*
X143459577Y-87131784D01*
X143500500Y-86979057D01*
X143500500Y-86820943D01*
X143459577Y-86668216D01*
X143457346Y-86664352D01*
X143380524Y-86531290D01*
X143380521Y-86531287D01*
X143380520Y-86531284D01*
X143380517Y-86531281D01*
X143376125Y-86525557D01*
X143350930Y-86460388D01*
X143350500Y-86450069D01*
X143350500Y-84137965D01*
X143370185Y-84070926D01*
X143386819Y-84050284D01*
X144950120Y-82486983D01*
X150804240Y-76632863D01*
X150863549Y-76530136D01*
X150894250Y-76415559D01*
X150894250Y-72381715D01*
X150913935Y-72314676D01*
X150930569Y-72294034D01*
X151969269Y-71255334D01*
X153144155Y-70080448D01*
X153205476Y-70046965D01*
X153215651Y-70045192D01*
X153222804Y-70044250D01*
X153222807Y-70044250D01*
X153375534Y-70003327D01*
X153512466Y-69924270D01*
X153624270Y-69812466D01*
X153703327Y-69675534D01*
X153744250Y-69522807D01*
X153744250Y-69364693D01*
X153703327Y-69211966D01*
X153692498Y-69193209D01*
X153624274Y-69075040D01*
X153624268Y-69075032D01*
X153512467Y-68963231D01*
X153512459Y-68963225D01*
X153375540Y-68884176D01*
X153375536Y-68884174D01*
X153375534Y-68884173D01*
X153222807Y-68843250D01*
X153064693Y-68843250D01*
X152911966Y-68884173D01*
X152911959Y-68884176D01*
X152775040Y-68963225D01*
X152775032Y-68963231D01*
X152663231Y-69075032D01*
X152663225Y-69075040D01*
X152584176Y-69211959D01*
X152584173Y-69211966D01*
X152543248Y-69364698D01*
X152542306Y-69371857D01*
X152514036Y-69435752D01*
X152507049Y-69443346D01*
X150083263Y-71867133D01*
X150083259Y-71867139D01*
X150023951Y-71969862D01*
X150023950Y-71969867D01*
X149993250Y-72084441D01*
X149993250Y-76118285D01*
X149973565Y-76185324D01*
X149956931Y-76205966D01*
X142539513Y-83623383D01*
X142539509Y-83623389D01*
X142480201Y-83726112D01*
X142480200Y-83726117D01*
X142449500Y-83840691D01*
X142449500Y-86450069D01*
X142429815Y-86517108D01*
X142423875Y-86525557D01*
X142419477Y-86531288D01*
X142342652Y-86664352D01*
X142342648Y-86664360D01*
X142340423Y-86668216D01*
X142338304Y-86676120D01*
X142338303Y-86676126D01*
X142299500Y-86820943D01*
X141928293Y-86820943D01*
X142030520Y-86718716D01*
X142109577Y-86581784D01*
X142150500Y-86429057D01*
X142150500Y-86270943D01*
X142109577Y-86118216D01*
X142109573Y-86118209D01*
X142030524Y-85981290D01*
X142030518Y-85981282D01*
X141918717Y-85869481D01*
X141918712Y-85869477D01*
X141774746Y-85786359D01*
X141775105Y-85785737D01*
X141742430Y-85763905D01*
X139636095Y-83657570D01*
X139614262Y-83624895D01*
X139613641Y-83625254D01*
X139530524Y-83481290D01*
X139530518Y-83481282D01*
X139418717Y-83369481D01*
X139418709Y-83369475D01*
X139281790Y-83290426D01*
X139281786Y-83290424D01*
X139281784Y-83290423D01*
X139129057Y-83249500D01*
X138970943Y-83249500D01*
X138818216Y-83290423D01*
X138818209Y-83290426D01*
X138681290Y-83369475D01*
X138681282Y-83369481D01*
X138569481Y-83481282D01*
X138569475Y-83481290D01*
X138490426Y-83618209D01*
X138490423Y-83618216D01*
X138449500Y-83770943D01*
X135884687Y-83770943D01*
X146112151Y-73543479D01*
X146112155Y-73543477D01*
X146258477Y-73397155D01*
X146373441Y-73225098D01*
X146452630Y-73033920D01*
X146493000Y-72830965D01*
X146493000Y-71066535D01*
X146452630Y-70863580D01*
X146373441Y-70672402D01*
X146258477Y-70500345D01*
X146258475Y-70500342D01*
X146112157Y-70354024D01*
X146026126Y-70296541D01*
X145940098Y-70239059D01*
X145748920Y-70159870D01*
X145748912Y-70159868D01*
X145545969Y-70119500D01*
X145545965Y-70119500D01*
X145339035Y-70119500D01*
X145339030Y-70119500D01*
X145136087Y-70159868D01*
X145136079Y-70159870D01*
X144944903Y-70239058D01*
X144772842Y-70354024D01*
X144626524Y-70500342D01*
X144511558Y-70672403D01*
X144432370Y-70863579D01*
X144432368Y-70863587D01*
X144392000Y-71066530D01*
X144392000Y-72241006D01*
X144372315Y-72308045D01*
X144355681Y-72328687D01*
X139193663Y-77490705D01*
X134030348Y-82654020D01*
X134030345Y-82654023D01*
X133957184Y-82727184D01*
X133884023Y-82800344D01*
X133769058Y-82972403D01*
X133689870Y-83163579D01*
X133689868Y-83163587D01*
X133649500Y-83366530D01*
X133649500Y-91519431D01*
X133629815Y-91586470D01*
X133577011Y-91632225D01*
X133507853Y-91642169D01*
X133444297Y-91613144D01*
X133415016Y-91575727D01*
X133383344Y-91513568D01*
X133362488Y-91484863D01*
X133244517Y-91322490D01*
X133077510Y-91155483D01*
X132886433Y-91016657D01*
X132675996Y-90909433D01*
X132451368Y-90836446D01*
X132218097Y-90799500D01*
X132218092Y-90799500D01*
X131981908Y-90799500D01*
X131981903Y-90799500D01*
X131748631Y-90836446D01*
X131524003Y-90909433D01*
X131313566Y-91016657D01*
X131204550Y-91095862D01*
X131122490Y-91155483D01*
X131122488Y-91155485D01*
X131122487Y-91155485D01*
X130955485Y-91322487D01*
X130955485Y-91322488D01*
X130955483Y-91322490D01*
X130895862Y-91404550D01*
X130816657Y-91513566D01*
X130734985Y-91673857D01*
X130687010Y-91724653D01*
X130619189Y-91741448D01*
X130553054Y-91718911D01*
X130509603Y-91664195D01*
X130500500Y-91617562D01*
X130500500Y-68278387D01*
X130520185Y-68211348D01*
X130572989Y-68165593D01*
X130642147Y-68155649D01*
X130705703Y-68184674D01*
X130712181Y-68190706D01*
X132386985Y-69865510D01*
X132512515Y-69937984D01*
X132652525Y-69975500D01*
X132652526Y-69975500D01*
X132797474Y-69975500D01*
X137146637Y-69975500D01*
X137185179Y-69983165D01*
X137185365Y-69982473D01*
X137193214Y-69984576D01*
X137193216Y-69984577D01*
X137345943Y-70025500D01*
X137345945Y-70025500D01*
X137504055Y-70025500D01*
X137504057Y-70025500D01*
X137656784Y-69984577D01*
X137793716Y-69905520D01*
X137905520Y-69793716D01*
X137984577Y-69656784D01*
X138025500Y-69504057D01*
X138025500Y-69345943D01*
X137984577Y-69193216D01*
X137916349Y-69075040D01*
X137905524Y-69056290D01*
X137905518Y-69056282D01*
X137793717Y-68944481D01*
X137793709Y-68944475D01*
X137656790Y-68865426D01*
X137656786Y-68865424D01*
X137656784Y-68865423D01*
X137504057Y-68824500D01*
X137345943Y-68824500D01*
X137193216Y-68865423D01*
X137193214Y-68865423D01*
X137185365Y-68867527D01*
X137185179Y-68866834D01*
X137146637Y-68874500D01*
X133004387Y-68874500D01*
X132937348Y-68854815D01*
X132916706Y-68838181D01*
X131711819Y-67633294D01*
X131678334Y-67571971D01*
X131675500Y-67545613D01*
X131675500Y-63733015D01*
X140119928Y-63733015D01*
X140119928Y-63891129D01*
X140121867Y-63898363D01*
X140160851Y-64043855D01*
X140160854Y-64043862D01*
X140239903Y-64180781D01*
X140239907Y-64180786D01*
X140239908Y-64180788D01*
X140351712Y-64292592D01*
X140351714Y-64292593D01*
X140351718Y-64292596D01*
X140495682Y-64375713D01*
X140495323Y-64376334D01*
X140527998Y-64398167D01*
X140660340Y-64530509D01*
X140785869Y-64602984D01*
X140925880Y-64640500D01*
X140925883Y-64640500D01*
X145814976Y-64640500D01*
X145814978Y-64640500D01*
X145814979Y-64640500D01*
X145954989Y-64602984D01*
X146080519Y-64530510D01*
X146184934Y-64426093D01*
X146217606Y-64404264D01*
X146217247Y-64403642D01*
X146224282Y-64399579D01*
X146224286Y-64399579D01*
X146361218Y-64320522D01*
X146473022Y-64208718D01*
X146473024Y-64208713D01*
X146477125Y-64203371D01*
X146533553Y-64162168D01*
X146603299Y-64158014D01*
X146664219Y-64192227D01*
X146696971Y-64253945D01*
X146699500Y-64278858D01*
X146699500Y-64717060D01*
X146679815Y-64784099D01*
X146663181Y-64804741D01*
X146004741Y-65463181D01*
X145943418Y-65496666D01*
X145917060Y-65499500D01*
X142021153Y-65499500D01*
X141866510Y-65530260D01*
X141866502Y-65530262D01*
X141720824Y-65590604D01*
X141720814Y-65590609D01*
X141589711Y-65678210D01*
X141589707Y-65678213D01*
X140694929Y-66572993D01*
X140519711Y-66748211D01*
X140463960Y-66803962D01*
X140408209Y-66859712D01*
X140320609Y-66990814D01*
X140320602Y-66990827D01*
X140260264Y-67136498D01*
X140260261Y-67136510D01*
X140229500Y-67291153D01*
X140229500Y-72628846D01*
X140260261Y-72783489D01*
X140260264Y-72783501D01*
X140320602Y-72929172D01*
X140320609Y-72929185D01*
X140408210Y-73060288D01*
X140408213Y-73060292D01*
X140519707Y-73171786D01*
X140519711Y-73171789D01*
X140650814Y-73259390D01*
X140650827Y-73259397D01*
X140796498Y-73319735D01*
X140796503Y-73319737D01*
X140951153Y-73350499D01*
X140951156Y-73350500D01*
X140951158Y-73350500D01*
X141108844Y-73350500D01*
X141108845Y-73350499D01*
X141263497Y-73319737D01*
X141409179Y-73259394D01*
X141540289Y-73171789D01*
X141651789Y-73060289D01*
X141739394Y-72929179D01*
X141799737Y-72783497D01*
X141830500Y-72628842D01*
X141830500Y-67752940D01*
X141850185Y-67685901D01*
X141866819Y-67665259D01*
X142395259Y-67136819D01*
X142456582Y-67103334D01*
X142482940Y-67100500D01*
X146378844Y-67100500D01*
X146378845Y-67100499D01*
X146533497Y-67069737D01*
X146679179Y-67009394D01*
X146810289Y-66921789D01*
X148010286Y-65721790D01*
X148010289Y-65721789D01*
X148121789Y-65610289D01*
X148209394Y-65479179D01*
X148269737Y-65333497D01*
X148300500Y-65178842D01*
X148300500Y-57194499D01*
X148320185Y-57127460D01*
X148372989Y-57081705D01*
X148424500Y-57070499D01*
X150543090Y-57070499D01*
X150543096Y-57070499D01*
X150631562Y-57059876D01*
X150772341Y-57004360D01*
X150892921Y-56912921D01*
X150984360Y-56792341D01*
X151039876Y-56651562D01*
X151050500Y-56563097D01*
X151050500Y-53944500D01*
X151070185Y-53877461D01*
X151122989Y-53831706D01*
X151174500Y-53820500D01*
X152778843Y-53820500D01*
X152824398Y-53811438D01*
X152867408Y-53802882D01*
X152891599Y-53800500D01*
X155278844Y-53800500D01*
X155278845Y-53800499D01*
X155433497Y-53769737D01*
X155579179Y-53709394D01*
X155710289Y-53621789D01*
X155821789Y-53510289D01*
X155909394Y-53379179D01*
X155969737Y-53233497D01*
X156000500Y-53078842D01*
X156000500Y-52921158D01*
X156000500Y-52921155D01*
X156000499Y-52921153D01*
X155982180Y-52829057D01*
X155969737Y-52766503D01*
X155969735Y-52766498D01*
X155909397Y-52620827D01*
X155909390Y-52620814D01*
X155821789Y-52489711D01*
X155821786Y-52489707D01*
X155710292Y-52378213D01*
X155710288Y-52378210D01*
X155579185Y-52290609D01*
X155579172Y-52290602D01*
X155433501Y-52230264D01*
X155433489Y-52230261D01*
X155278845Y-52199500D01*
X155278842Y-52199500D01*
X152798842Y-52199500D01*
X152641157Y-52199500D01*
X152641154Y-52199500D01*
X152552588Y-52217117D01*
X152528397Y-52219500D01*
X151174499Y-52219500D01*
X151107460Y-52199815D01*
X151061705Y-52147011D01*
X151050499Y-52095500D01*
X151050499Y-49520943D01*
X156949500Y-49520943D01*
X156949500Y-49679057D01*
X156987129Y-49819488D01*
X156990423Y-49831783D01*
X156990426Y-49831790D01*
X157069475Y-49968709D01*
X157069479Y-49968714D01*
X157069480Y-49968716D01*
X157181284Y-50080520D01*
X157181286Y-50080521D01*
X157181290Y-50080524D01*
X157318209Y-50159573D01*
X157318216Y-50159577D01*
X157470943Y-50200500D01*
X157470945Y-50200500D01*
X157629055Y-50200500D01*
X157629057Y-50200500D01*
X157781784Y-50159577D01*
X157918716Y-50080520D01*
X158030520Y-49968716D01*
X158109577Y-49831784D01*
X158150500Y-49679057D01*
X158150500Y-49520943D01*
X158449500Y-49520943D01*
X158449500Y-49679057D01*
X158487129Y-49819488D01*
X158490423Y-49831783D01*
X158490426Y-49831790D01*
X158569475Y-49968709D01*
X158569479Y-49968714D01*
X158569480Y-49968716D01*
X158681284Y-50080520D01*
X158681286Y-50080521D01*
X158681290Y-50080524D01*
X158818209Y-50159573D01*
X158818216Y-50159577D01*
X158970943Y-50200500D01*
X158970945Y-50200500D01*
X159129055Y-50200500D01*
X159129057Y-50200500D01*
X159281784Y-50159577D01*
X159418716Y-50080520D01*
X159530520Y-49968716D01*
X159609577Y-49831784D01*
X159650500Y-49679057D01*
X159650500Y-49520943D01*
X159609577Y-49368216D01*
X159609573Y-49368209D01*
X159530524Y-49231290D01*
X159530518Y-49231282D01*
X159418717Y-49119481D01*
X159418709Y-49119475D01*
X159281790Y-49040426D01*
X159281786Y-49040424D01*
X159281784Y-49040423D01*
X159129057Y-48999500D01*
X158970943Y-48999500D01*
X158818216Y-49040423D01*
X158818209Y-49040426D01*
X158681290Y-49119475D01*
X158681282Y-49119481D01*
X158569481Y-49231282D01*
X158569475Y-49231290D01*
X158490426Y-49368209D01*
X158490423Y-49368216D01*
X158449500Y-49520943D01*
X158150500Y-49520943D01*
X158109577Y-49368216D01*
X158109573Y-49368209D01*
X158030524Y-49231290D01*
X158030518Y-49231282D01*
X157918717Y-49119481D01*
X157918709Y-49119475D01*
X157781790Y-49040426D01*
X157781786Y-49040424D01*
X157781784Y-49040423D01*
X157629057Y-48999500D01*
X157470943Y-48999500D01*
X157318216Y-49040423D01*
X157318209Y-49040426D01*
X157181290Y-49119475D01*
X157181282Y-49119481D01*
X157069481Y-49231282D01*
X157069475Y-49231290D01*
X156990426Y-49368209D01*
X156990423Y-49368216D01*
X156949500Y-49520943D01*
X151050499Y-49520943D01*
X151050499Y-49476910D01*
X151050499Y-49476904D01*
X151039876Y-49388438D01*
X150984360Y-49247659D01*
X150971947Y-49231290D01*
X150892921Y-49127078D01*
X150772343Y-49035641D01*
X150772341Y-49035640D01*
X150631562Y-48980124D01*
X150631561Y-48980123D01*
X150631559Y-48980123D01*
X150543097Y-48969500D01*
X144456910Y-48969500D01*
X144368440Y-48980123D01*
X144227656Y-49035641D01*
X144107078Y-49127078D01*
X144015641Y-49247656D01*
X143960123Y-49388439D01*
X143960123Y-49388440D01*
X143949500Y-49476902D01*
X143949500Y-56563089D01*
X143960123Y-56651559D01*
X144015641Y-56792343D01*
X144107078Y-56912921D01*
X144227656Y-57004358D01*
X144227659Y-57004360D01*
X144368438Y-57059876D01*
X144456903Y-57070500D01*
X146575500Y-57070499D01*
X146642539Y-57090184D01*
X146688294Y-57142987D01*
X146699500Y-57194499D01*
X146699500Y-63401145D01*
X146679815Y-63468184D01*
X146627011Y-63513939D01*
X146557853Y-63523883D01*
X146494297Y-63494858D01*
X146477128Y-63476636D01*
X146473023Y-63471287D01*
X146361219Y-63359483D01*
X146361211Y-63359477D01*
X146224292Y-63280428D01*
X146224288Y-63280426D01*
X146224286Y-63280425D01*
X146071559Y-63239502D01*
X145913445Y-63239502D01*
X145760718Y-63280425D01*
X145760711Y-63280428D01*
X145623792Y-63359477D01*
X145623784Y-63359483D01*
X145511983Y-63471284D01*
X145511979Y-63471289D01*
X145508394Y-63477500D01*
X145457827Y-63525715D01*
X145401007Y-63539500D01*
X141328048Y-63539500D01*
X141261009Y-63519815D01*
X141220660Y-63477499D01*
X141217075Y-63471289D01*
X141200948Y-63443356D01*
X141089144Y-63331552D01*
X141089142Y-63331551D01*
X141089137Y-63331547D01*
X140952218Y-63252498D01*
X140952214Y-63252496D01*
X140952212Y-63252495D01*
X140799485Y-63211572D01*
X140641371Y-63211572D01*
X140488644Y-63252495D01*
X140488637Y-63252498D01*
X140351718Y-63331547D01*
X140351710Y-63331553D01*
X140239909Y-63443354D01*
X140239903Y-63443362D01*
X140160854Y-63580281D01*
X140160851Y-63580288D01*
X140119928Y-63733015D01*
X131675500Y-63733015D01*
X131675500Y-60597904D01*
X133826357Y-60597904D01*
X133834170Y-60599999D01*
X133834177Y-60600000D01*
X133965824Y-60600000D01*
X133965827Y-60599999D01*
X133973640Y-60597904D01*
X133973641Y-60597904D01*
X135026357Y-60597904D01*
X135034170Y-60599999D01*
X135034177Y-60600000D01*
X135165824Y-60600000D01*
X135165827Y-60599999D01*
X135173640Y-60597904D01*
X135173641Y-60597904D01*
X136226357Y-60597904D01*
X136234170Y-60599999D01*
X136234177Y-60600000D01*
X136365824Y-60600000D01*
X136365827Y-60599999D01*
X136373640Y-60597904D01*
X136373641Y-60597904D01*
X136300001Y-60524264D01*
X136299999Y-60524264D01*
X136226357Y-60597904D01*
X135173641Y-60597904D01*
X135100001Y-60524264D01*
X135099999Y-60524264D01*
X135026357Y-60597904D01*
X133973641Y-60597904D01*
X133900001Y-60524264D01*
X133899999Y-60524264D01*
X133826357Y-60597904D01*
X131675500Y-60597904D01*
X131675500Y-60034170D01*
X133400000Y-60034170D01*
X133400000Y-60165825D01*
X133402094Y-60173640D01*
X133475735Y-60099999D01*
X133445899Y-60070163D01*
X133750000Y-60070163D01*
X133750000Y-60129837D01*
X133772836Y-60184968D01*
X133815032Y-60227164D01*
X133870163Y-60250000D01*
X133929837Y-60250000D01*
X133984968Y-60227164D01*
X134027164Y-60184968D01*
X134050000Y-60129837D01*
X134050000Y-60099999D01*
X134324264Y-60099999D01*
X134324264Y-60100001D01*
X134397904Y-60173641D01*
X134467053Y-60155117D01*
X134467127Y-60155396D01*
X134479431Y-60149420D01*
X134532758Y-60155795D01*
X134532942Y-60155111D01*
X134537701Y-60156386D01*
X134548807Y-60157714D01*
X134551762Y-60160153D01*
X134602094Y-60173640D01*
X134675735Y-60099999D01*
X134645899Y-60070163D01*
X134950000Y-60070163D01*
X134950000Y-60129837D01*
X134972836Y-60184968D01*
X135015032Y-60227164D01*
X135070163Y-60250000D01*
X135129837Y-60250000D01*
X135184968Y-60227164D01*
X135227164Y-60184968D01*
X135250000Y-60129837D01*
X135250000Y-60099999D01*
X135524264Y-60099999D01*
X135524264Y-60100001D01*
X135597904Y-60173641D01*
X135667053Y-60155117D01*
X135667127Y-60155396D01*
X135679431Y-60149420D01*
X135732758Y-60155795D01*
X135732942Y-60155111D01*
X135737701Y-60156386D01*
X135748807Y-60157714D01*
X135751762Y-60160153D01*
X135802094Y-60173640D01*
X135875735Y-60099999D01*
X135845899Y-60070163D01*
X136150000Y-60070163D01*
X136150000Y-60129837D01*
X136172836Y-60184968D01*
X136215032Y-60227164D01*
X136270163Y-60250000D01*
X136329837Y-60250000D01*
X136384968Y-60227164D01*
X136427164Y-60184968D01*
X136450000Y-60129837D01*
X136450000Y-60099999D01*
X136724264Y-60099999D01*
X136724264Y-60100001D01*
X136797904Y-60173641D01*
X136797904Y-60173640D01*
X136799999Y-60165827D01*
X136800000Y-60165823D01*
X136800000Y-60034177D01*
X136799999Y-60034170D01*
X136797904Y-60026357D01*
X136724264Y-60099999D01*
X136450000Y-60099999D01*
X136450000Y-60070163D01*
X136427164Y-60015032D01*
X136384968Y-59972836D01*
X136329837Y-59950000D01*
X136270163Y-59950000D01*
X136215032Y-59972836D01*
X136172836Y-60015032D01*
X136150000Y-60070163D01*
X135845899Y-60070163D01*
X135802094Y-60026358D01*
X135732941Y-60044889D01*
X135732860Y-60044590D01*
X135720546Y-60050571D01*
X135667240Y-60044191D01*
X135667055Y-60044883D01*
X135662243Y-60043594D01*
X135651171Y-60042269D01*
X135648229Y-60039839D01*
X135597904Y-60026357D01*
X135524264Y-60099999D01*
X135250000Y-60099999D01*
X135250000Y-60070163D01*
X135227164Y-60015032D01*
X135184968Y-59972836D01*
X135129837Y-59950000D01*
X135070163Y-59950000D01*
X135015032Y-59972836D01*
X134972836Y-60015032D01*
X134950000Y-60070163D01*
X134645899Y-60070163D01*
X134602094Y-60026358D01*
X134532941Y-60044889D01*
X134532860Y-60044590D01*
X134520546Y-60050571D01*
X134467240Y-60044191D01*
X134467055Y-60044883D01*
X134462243Y-60043594D01*
X134451171Y-60042269D01*
X134448229Y-60039839D01*
X134397904Y-60026357D01*
X134324264Y-60099999D01*
X134050000Y-60099999D01*
X134050000Y-60070163D01*
X134027164Y-60015032D01*
X133984968Y-59972836D01*
X133929837Y-59950000D01*
X133870163Y-59950000D01*
X133815032Y-59972836D01*
X133772836Y-60015032D01*
X133750000Y-60070163D01*
X133445899Y-60070163D01*
X133402094Y-60026358D01*
X133402093Y-60026358D01*
X133400000Y-60034170D01*
X131675500Y-60034170D01*
X131675500Y-59699500D01*
X131695185Y-59632461D01*
X131730231Y-59602093D01*
X133826358Y-59602093D01*
X133826358Y-59602094D01*
X133899999Y-59675735D01*
X133973640Y-59602094D01*
X133973636Y-59602093D01*
X135026358Y-59602093D01*
X135026358Y-59602094D01*
X135099999Y-59675735D01*
X135173640Y-59602094D01*
X135173636Y-59602093D01*
X136226358Y-59602093D01*
X136226358Y-59602094D01*
X136299999Y-59675735D01*
X136373640Y-59602094D01*
X136365825Y-59600000D01*
X136234170Y-59600000D01*
X136226358Y-59602093D01*
X135173636Y-59602093D01*
X135165825Y-59600000D01*
X135034170Y-59600000D01*
X135026358Y-59602093D01*
X133973636Y-59602093D01*
X133965825Y-59600000D01*
X133834170Y-59600000D01*
X133826358Y-59602093D01*
X131730231Y-59602093D01*
X131747989Y-59586706D01*
X131799500Y-59575500D01*
X131954055Y-59575500D01*
X131954057Y-59575500D01*
X132106784Y-59534577D01*
X132243716Y-59455520D01*
X132355520Y-59343716D01*
X132434577Y-59206784D01*
X132436956Y-59197904D01*
X133826357Y-59197904D01*
X133834170Y-59199999D01*
X133834177Y-59200000D01*
X133965824Y-59200000D01*
X133965827Y-59199999D01*
X133973640Y-59197904D01*
X133973641Y-59197904D01*
X135026357Y-59197904D01*
X135034170Y-59199999D01*
X135034177Y-59200000D01*
X135165824Y-59200000D01*
X135165827Y-59199999D01*
X135173640Y-59197904D01*
X135173641Y-59197904D01*
X136226357Y-59197904D01*
X136234170Y-59199999D01*
X136234177Y-59200000D01*
X136365824Y-59200000D01*
X136365827Y-59199999D01*
X136373640Y-59197904D01*
X136373641Y-59197904D01*
X136300001Y-59124264D01*
X136299999Y-59124264D01*
X136226357Y-59197904D01*
X135173641Y-59197904D01*
X135100001Y-59124264D01*
X135099999Y-59124264D01*
X135026357Y-59197904D01*
X133973641Y-59197904D01*
X133900001Y-59124264D01*
X133899999Y-59124264D01*
X133826357Y-59197904D01*
X132436956Y-59197904D01*
X132475500Y-59054057D01*
X132475500Y-58895943D01*
X132434577Y-58743216D01*
X132434576Y-58743214D01*
X132432473Y-58735365D01*
X132432888Y-58735253D01*
X132430523Y-58731572D01*
X132425500Y-58696637D01*
X132425500Y-58634170D01*
X133400000Y-58634170D01*
X133400000Y-58765825D01*
X133402094Y-58773640D01*
X133475735Y-58699999D01*
X133445899Y-58670163D01*
X133750000Y-58670163D01*
X133750000Y-58729837D01*
X133772836Y-58784968D01*
X133815032Y-58827164D01*
X133870163Y-58850000D01*
X133929837Y-58850000D01*
X133984968Y-58827164D01*
X134027164Y-58784968D01*
X134050000Y-58729837D01*
X134050000Y-58699999D01*
X134324264Y-58699999D01*
X134324264Y-58700001D01*
X134397904Y-58773641D01*
X134467053Y-58755117D01*
X134467127Y-58755396D01*
X134479431Y-58749420D01*
X134532758Y-58755795D01*
X134532942Y-58755111D01*
X134537701Y-58756386D01*
X134548807Y-58757714D01*
X134551762Y-58760153D01*
X134602094Y-58773640D01*
X134675735Y-58699999D01*
X134645899Y-58670163D01*
X134950000Y-58670163D01*
X134950000Y-58729837D01*
X134972836Y-58784968D01*
X135015032Y-58827164D01*
X135070163Y-58850000D01*
X135129837Y-58850000D01*
X135184968Y-58827164D01*
X135227164Y-58784968D01*
X135250000Y-58729837D01*
X135250000Y-58699999D01*
X135524264Y-58699999D01*
X135524264Y-58700001D01*
X135597904Y-58773641D01*
X135667053Y-58755117D01*
X135667127Y-58755396D01*
X135679431Y-58749420D01*
X135732758Y-58755795D01*
X135732942Y-58755111D01*
X135737701Y-58756386D01*
X135748807Y-58757714D01*
X135751762Y-58760153D01*
X135802094Y-58773640D01*
X135875735Y-58699999D01*
X135845899Y-58670163D01*
X136150000Y-58670163D01*
X136150000Y-58729837D01*
X136172836Y-58784968D01*
X136215032Y-58827164D01*
X136270163Y-58850000D01*
X136329837Y-58850000D01*
X136384968Y-58827164D01*
X136427164Y-58784968D01*
X136450000Y-58729837D01*
X136450000Y-58699999D01*
X136724264Y-58699999D01*
X136724264Y-58700001D01*
X136797904Y-58773641D01*
X136797904Y-58773640D01*
X136799999Y-58765827D01*
X136800000Y-58765823D01*
X136800000Y-58634177D01*
X136799999Y-58634170D01*
X136797904Y-58626357D01*
X136724264Y-58699999D01*
X136450000Y-58699999D01*
X136450000Y-58670163D01*
X136427164Y-58615032D01*
X136384968Y-58572836D01*
X136329837Y-58550000D01*
X136270163Y-58550000D01*
X136215032Y-58572836D01*
X136172836Y-58615032D01*
X136150000Y-58670163D01*
X135845899Y-58670163D01*
X135802094Y-58626358D01*
X135732941Y-58644889D01*
X135732860Y-58644590D01*
X135720546Y-58650571D01*
X135667240Y-58644191D01*
X135667055Y-58644883D01*
X135662243Y-58643594D01*
X135651171Y-58642269D01*
X135648229Y-58639839D01*
X135597904Y-58626357D01*
X135524264Y-58699999D01*
X135250000Y-58699999D01*
X135250000Y-58670163D01*
X135227164Y-58615032D01*
X135184968Y-58572836D01*
X135129837Y-58550000D01*
X135070163Y-58550000D01*
X135015032Y-58572836D01*
X134972836Y-58615032D01*
X134950000Y-58670163D01*
X134645899Y-58670163D01*
X134602094Y-58626358D01*
X134532941Y-58644889D01*
X134532860Y-58644590D01*
X134520546Y-58650571D01*
X134467240Y-58644191D01*
X134467055Y-58644883D01*
X134462243Y-58643594D01*
X134451171Y-58642269D01*
X134448229Y-58639839D01*
X134397904Y-58626357D01*
X134324264Y-58699999D01*
X134050000Y-58699999D01*
X134050000Y-58670163D01*
X134027164Y-58615032D01*
X133984968Y-58572836D01*
X133929837Y-58550000D01*
X133870163Y-58550000D01*
X133815032Y-58572836D01*
X133772836Y-58615032D01*
X133750000Y-58670163D01*
X133445899Y-58670163D01*
X133402094Y-58626358D01*
X133402093Y-58626358D01*
X133400000Y-58634170D01*
X132425500Y-58634170D01*
X132425500Y-58202093D01*
X133826358Y-58202093D01*
X133826358Y-58202094D01*
X133899999Y-58275735D01*
X133973640Y-58202094D01*
X133973636Y-58202093D01*
X135026358Y-58202093D01*
X135026358Y-58202094D01*
X135099999Y-58275735D01*
X135173640Y-58202094D01*
X135173636Y-58202093D01*
X136226358Y-58202093D01*
X136226358Y-58202094D01*
X136299999Y-58275735D01*
X136373640Y-58202094D01*
X136365825Y-58200000D01*
X136234170Y-58200000D01*
X136226358Y-58202093D01*
X135173636Y-58202093D01*
X135165825Y-58200000D01*
X135034170Y-58200000D01*
X135026358Y-58202093D01*
X133973636Y-58202093D01*
X133965825Y-58200000D01*
X133834170Y-58200000D01*
X133826358Y-58202093D01*
X132425500Y-58202093D01*
X132425500Y-57204387D01*
X132445185Y-57137348D01*
X132461819Y-57116706D01*
X133112294Y-56466231D01*
X138054500Y-56466231D01*
X138054500Y-56693768D01*
X138090093Y-56918490D01*
X138160400Y-57134876D01*
X138160401Y-57134879D01*
X138256251Y-57322994D01*
X138263697Y-57337607D01*
X138397434Y-57521680D01*
X138558320Y-57682566D01*
X138742393Y-57816303D01*
X138793160Y-57842170D01*
X138945120Y-57919598D01*
X138945123Y-57919599D01*
X139049061Y-57953370D01*
X139161511Y-57989907D01*
X139265591Y-58006391D01*
X139386232Y-58025500D01*
X139386237Y-58025500D01*
X139613768Y-58025500D01*
X139722710Y-58008244D01*
X139838489Y-57989907D01*
X140054879Y-57919598D01*
X140257607Y-57816303D01*
X140441680Y-57682566D01*
X140602566Y-57521680D01*
X140736303Y-57337607D01*
X140839598Y-57134879D01*
X140909907Y-56918489D01*
X140929887Y-56792341D01*
X140945500Y-56693768D01*
X140945500Y-56466231D01*
X140924793Y-56335499D01*
X140909907Y-56241511D01*
X140839598Y-56025121D01*
X140839598Y-56025120D01*
X140736302Y-55822392D01*
X140725493Y-55807515D01*
X140602566Y-55638320D01*
X140441680Y-55477434D01*
X140257607Y-55343697D01*
X140054879Y-55240401D01*
X140054876Y-55240400D01*
X139838490Y-55170093D01*
X139613768Y-55134500D01*
X139613763Y-55134500D01*
X139386237Y-55134500D01*
X139386232Y-55134500D01*
X139161509Y-55170093D01*
X138945123Y-55240400D01*
X138945120Y-55240401D01*
X138742392Y-55343697D01*
X138646496Y-55413370D01*
X138558320Y-55477434D01*
X138558318Y-55477436D01*
X138558317Y-55477436D01*
X138397436Y-55638317D01*
X138397436Y-55638318D01*
X138397434Y-55638320D01*
X138365709Y-55681986D01*
X138263697Y-55822392D01*
X138160401Y-56025120D01*
X138160400Y-56025123D01*
X138090093Y-56241509D01*
X138054500Y-56466231D01*
X133112294Y-56466231D01*
X133165706Y-56412819D01*
X133227029Y-56379334D01*
X133253387Y-56376500D01*
X134521472Y-56376500D01*
X134521474Y-56376500D01*
X134521475Y-56376500D01*
X134661485Y-56338984D01*
X134787015Y-56266510D01*
X135317431Y-55736092D01*
X135350104Y-55714262D01*
X135349745Y-55713640D01*
X135356780Y-55709577D01*
X135356784Y-55709577D01*
X135493716Y-55630520D01*
X135605520Y-55518716D01*
X135684577Y-55381784D01*
X135725500Y-55229057D01*
X135725500Y-55070943D01*
X135684577Y-54918216D01*
X135618468Y-54803710D01*
X135605524Y-54781290D01*
X135605518Y-54781282D01*
X135493717Y-54669481D01*
X135493709Y-54669475D01*
X135356790Y-54590426D01*
X135356786Y-54590424D01*
X135356784Y-54590423D01*
X135204057Y-54549500D01*
X135045943Y-54549500D01*
X134893216Y-54590423D01*
X134893209Y-54590426D01*
X134756290Y-54669475D01*
X134756286Y-54669478D01*
X134650554Y-54775210D01*
X134589231Y-54808694D01*
X134519539Y-54803710D01*
X134463606Y-54761838D01*
X134455489Y-54749532D01*
X134430520Y-54706284D01*
X134318716Y-54594480D01*
X134318714Y-54594479D01*
X134318709Y-54594475D01*
X134181790Y-54515426D01*
X134181786Y-54515424D01*
X134181784Y-54515423D01*
X134181782Y-54515422D01*
X134181781Y-54515422D01*
X134162189Y-54510172D01*
X134106604Y-54478079D01*
X133888016Y-54259491D01*
X133888015Y-54259490D01*
X133762485Y-54187016D01*
X133762486Y-54187016D01*
X133727482Y-54177637D01*
X133622475Y-54149500D01*
X133622472Y-54149500D01*
X133053499Y-54149500D01*
X132986460Y-54129815D01*
X132940705Y-54077011D01*
X132929499Y-54025500D01*
X132929499Y-52438253D01*
X135597697Y-52438253D01*
X135597697Y-52596367D01*
X135604250Y-52620821D01*
X135638620Y-52749093D01*
X135638623Y-52749100D01*
X135717672Y-52886019D01*
X135717676Y-52886024D01*
X135717677Y-52886026D01*
X135829481Y-52997830D01*
X135829483Y-52997831D01*
X135829487Y-52997834D01*
X135920709Y-53050500D01*
X135966413Y-53076887D01*
X136119140Y-53117810D01*
X136119142Y-53117810D01*
X136277252Y-53117810D01*
X136277254Y-53117810D01*
X136429981Y-53076887D01*
X136446910Y-53067112D01*
X136508910Y-53050500D01*
X139023868Y-53050500D01*
X139085866Y-53067112D01*
X139107456Y-53079577D01*
X139260183Y-53120500D01*
X139260185Y-53120500D01*
X139418295Y-53120500D01*
X139418297Y-53120500D01*
X139571024Y-53079577D01*
X139592613Y-53067112D01*
X139654612Y-53050500D01*
X142258504Y-53050500D01*
X142325543Y-53070185D01*
X142365891Y-53112500D01*
X142369480Y-53118716D01*
X142481284Y-53230520D01*
X142481286Y-53230521D01*
X142481290Y-53230524D01*
X142605856Y-53302441D01*
X142618216Y-53309577D01*
X142770943Y-53350500D01*
X142770945Y-53350500D01*
X142929055Y-53350500D01*
X142929057Y-53350500D01*
X143081784Y-53309577D01*
X143218716Y-53230520D01*
X143330520Y-53118716D01*
X143409577Y-52981784D01*
X143450500Y-52829057D01*
X143450500Y-52670943D01*
X143409577Y-52518216D01*
X143393120Y-52489711D01*
X143330524Y-52381290D01*
X143330518Y-52381282D01*
X143218717Y-52269481D01*
X143218712Y-52269477D01*
X143074746Y-52186359D01*
X143075105Y-52185737D01*
X143042430Y-52163905D01*
X142938016Y-52059491D01*
X142938015Y-52059490D01*
X142812485Y-51987016D01*
X142812486Y-51987016D01*
X142777482Y-51977637D01*
X142672475Y-51949500D01*
X142672472Y-51949500D01*
X142643297Y-51949500D01*
X142576258Y-51929815D01*
X142530503Y-51877011D01*
X142520559Y-51807853D01*
X142540195Y-51756610D01*
X142590325Y-51681583D01*
X142590335Y-51681565D01*
X142643097Y-51554185D01*
X142643100Y-51554175D01*
X142670000Y-51418945D01*
X142670000Y-51299999D01*
X142270000Y-51299999D01*
X142270000Y-50299999D01*
X142470000Y-50299999D01*
X142670000Y-50299999D01*
X142670000Y-50181052D01*
X142643100Y-50045822D01*
X142643097Y-50045812D01*
X142590335Y-49918432D01*
X142590328Y-49918419D01*
X142513724Y-49803772D01*
X142470000Y-49760048D01*
X142470000Y-50299999D01*
X142270000Y-50299999D01*
X142270000Y-50210503D01*
X142249556Y-50134203D01*
X142210060Y-50065794D01*
X142154205Y-50009939D01*
X142085796Y-49970443D01*
X142009496Y-49949999D01*
X141930504Y-49949999D01*
X141854204Y-49970443D01*
X141785795Y-50009939D01*
X141729940Y-50065794D01*
X141690444Y-50134203D01*
X141670000Y-50210503D01*
X141670000Y-51299999D01*
X141270000Y-51299999D01*
X141270000Y-51418945D01*
X141269999Y-51418945D01*
X141296899Y-51554175D01*
X141296902Y-51554185D01*
X141349664Y-51681565D01*
X141349674Y-51681583D01*
X141399805Y-51756610D01*
X141420683Y-51823287D01*
X141402198Y-51890667D01*
X141350219Y-51937357D01*
X141296703Y-51949500D01*
X139546584Y-51949500D01*
X139514491Y-51945275D01*
X139418297Y-51919500D01*
X139260183Y-51919500D01*
X139163989Y-51945275D01*
X139131896Y-51949500D01*
X136415580Y-51949500D01*
X136383487Y-51945275D01*
X136277254Y-51916810D01*
X136119140Y-51916810D01*
X135966413Y-51957733D01*
X135966406Y-51957736D01*
X135829487Y-52036785D01*
X135829479Y-52036791D01*
X135717678Y-52148592D01*
X135717672Y-52148600D01*
X135638623Y-52285519D01*
X135638620Y-52285526D01*
X135597697Y-52438253D01*
X132929499Y-52438253D01*
X132929499Y-51839952D01*
X133829999Y-51839952D01*
X133873723Y-51796228D01*
X133950327Y-51681581D01*
X133950334Y-51681568D01*
X134003096Y-51554188D01*
X134003099Y-51554178D01*
X134029999Y-51418948D01*
X134029999Y-51300002D01*
X133829999Y-51300002D01*
X133829999Y-51839952D01*
X132929499Y-51839952D01*
X132929499Y-50210506D01*
X133029999Y-50210506D01*
X133029999Y-51389498D01*
X133050443Y-51465798D01*
X133089939Y-51534207D01*
X133145794Y-51590062D01*
X133214203Y-51629558D01*
X133290503Y-51650002D01*
X133369495Y-51650002D01*
X133445795Y-51629558D01*
X133514204Y-51590062D01*
X133570059Y-51534207D01*
X133609555Y-51465798D01*
X133629999Y-51389498D01*
X133629999Y-50210506D01*
X133609555Y-50134206D01*
X133570059Y-50065797D01*
X133514204Y-50009942D01*
X133445795Y-49970446D01*
X133369495Y-49950002D01*
X133290503Y-49950002D01*
X133214203Y-49970446D01*
X133145794Y-50009942D01*
X133089939Y-50065797D01*
X133050443Y-50134206D01*
X133029999Y-50210506D01*
X132929499Y-50210506D01*
X132929499Y-49760051D01*
X133829999Y-49760051D01*
X133829999Y-50300002D01*
X134074409Y-50300002D01*
X134141448Y-50319687D01*
X134187203Y-50372491D01*
X134194184Y-50391909D01*
X134223719Y-50502138D01*
X134261602Y-50567752D01*
X134299485Y-50633367D01*
X134406635Y-50740517D01*
X134520281Y-50806131D01*
X134537861Y-50816281D01*
X134537865Y-50816283D01*
X134684234Y-50855502D01*
X134684236Y-50855502D01*
X134835764Y-50855502D01*
X134835766Y-50855502D01*
X134982135Y-50816283D01*
X135113365Y-50740517D01*
X135220515Y-50633367D01*
X135296281Y-50502137D01*
X135335500Y-50355768D01*
X135335500Y-50204236D01*
X135335500Y-50204235D01*
X139964500Y-50204235D01*
X139964500Y-50355767D01*
X139968981Y-50372491D01*
X140003719Y-50502137D01*
X140003720Y-50502138D01*
X140079485Y-50633366D01*
X140186635Y-50740516D01*
X140317865Y-50816282D01*
X140464234Y-50855501D01*
X140464236Y-50855501D01*
X140615764Y-50855501D01*
X140615766Y-50855501D01*
X140762135Y-50816282D01*
X140893365Y-50740516D01*
X141000515Y-50633366D01*
X141076281Y-50502136D01*
X141105817Y-50391903D01*
X141142181Y-50332245D01*
X141205027Y-50301716D01*
X141225591Y-50299999D01*
X141470000Y-50299999D01*
X141470000Y-49760049D01*
X141469999Y-49760048D01*
X141426275Y-49803772D01*
X141349671Y-49918419D01*
X141349666Y-49918429D01*
X141298058Y-50043022D01*
X141254217Y-50097425D01*
X141187922Y-50119490D01*
X141120223Y-50102211D01*
X141076110Y-50057569D01*
X141000517Y-49926639D01*
X141000516Y-49926637D01*
X141000515Y-49926636D01*
X140893365Y-49819486D01*
X140827750Y-49781603D01*
X140762136Y-49743720D01*
X140688950Y-49724110D01*
X140615766Y-49704501D01*
X140464234Y-49704501D01*
X140317863Y-49743720D01*
X140186635Y-49819486D01*
X140186632Y-49819488D01*
X140079487Y-49926633D01*
X140079485Y-49926636D01*
X140003719Y-50057864D01*
X139987207Y-50119490D01*
X139964500Y-50204235D01*
X135335500Y-50204235D01*
X135296281Y-50057867D01*
X135220515Y-49926637D01*
X135113365Y-49819487D01*
X135047750Y-49781604D01*
X134982136Y-49743721D01*
X134908950Y-49724111D01*
X134835766Y-49704502D01*
X134684234Y-49704502D01*
X134537863Y-49743721D01*
X134406635Y-49819487D01*
X134406632Y-49819489D01*
X134299487Y-49926634D01*
X134299485Y-49926637D01*
X134223888Y-50057573D01*
X134173320Y-50105788D01*
X134104713Y-50119010D01*
X134039848Y-50093042D01*
X134001940Y-50043024D01*
X133950334Y-49918435D01*
X133950327Y-49918422D01*
X133873723Y-49803775D01*
X133829999Y-49760051D01*
X132929499Y-49760051D01*
X132929499Y-49162139D01*
X132946112Y-49100139D01*
X132985577Y-49031784D01*
X133026500Y-48879057D01*
X133026500Y-48720943D01*
X132985577Y-48568216D01*
X132985573Y-48568209D01*
X132906524Y-48431290D01*
X132906518Y-48431282D01*
X132794717Y-48319481D01*
X132794709Y-48319475D01*
X132657790Y-48240426D01*
X132657786Y-48240424D01*
X132657784Y-48240423D01*
X132505057Y-48199500D01*
X132346943Y-48199500D01*
X132194216Y-48240423D01*
X132194209Y-48240426D01*
X132057290Y-48319475D01*
X132057282Y-48319481D01*
X131945481Y-48431282D01*
X131945475Y-48431290D01*
X131866426Y-48568209D01*
X131866423Y-48568216D01*
X131825500Y-48720943D01*
X131825500Y-48879056D01*
X131826561Y-48887114D01*
X131825947Y-48887194D01*
X131828499Y-48906574D01*
X131828499Y-54491614D01*
X131808814Y-54558653D01*
X131792180Y-54579295D01*
X130712181Y-55659294D01*
X130650858Y-55692779D01*
X130581166Y-55687795D01*
X130525233Y-55645923D01*
X130500816Y-55580459D01*
X130500500Y-55571613D01*
X130500500Y-47100000D01*
X132636177Y-47100000D01*
X132656897Y-47204174D01*
X132656900Y-47204183D01*
X132709663Y-47331566D01*
X132709670Y-47331579D01*
X132786274Y-47446226D01*
X132829998Y-47489950D01*
X133829999Y-47489950D01*
X133873723Y-47446226D01*
X133950327Y-47331579D01*
X133950334Y-47331566D01*
X134003097Y-47204183D01*
X134003100Y-47204174D01*
X134023821Y-47100001D01*
X141276179Y-47100001D01*
X141296899Y-47204175D01*
X141296902Y-47204184D01*
X141349665Y-47331567D01*
X141349672Y-47331580D01*
X141426276Y-47446227D01*
X141470000Y-47489951D01*
X142470001Y-47489951D01*
X142513725Y-47446227D01*
X142590329Y-47331580D01*
X142590336Y-47331567D01*
X142643099Y-47204184D01*
X142643102Y-47204175D01*
X142663823Y-47100001D01*
X142470001Y-47100001D01*
X142470001Y-47489951D01*
X141470000Y-47489951D01*
X141470001Y-47489950D01*
X141470001Y-47100001D01*
X141276179Y-47100001D01*
X134023821Y-47100001D01*
X134023821Y-47100000D01*
X133829999Y-47100000D01*
X133829999Y-47489950D01*
X132829998Y-47489950D01*
X132829999Y-47489949D01*
X132829999Y-47100000D01*
X132636177Y-47100000D01*
X130500500Y-47100000D01*
X130500500Y-46006961D01*
X130501280Y-45993077D01*
X130505014Y-45959940D01*
X130511460Y-45902729D01*
X130517635Y-45875670D01*
X130545353Y-45796456D01*
X130557396Y-45771450D01*
X130602046Y-45700389D01*
X130619351Y-45678690D01*
X130678690Y-45619351D01*
X130700389Y-45602046D01*
X130771450Y-45557396D01*
X130796456Y-45545353D01*
X130875670Y-45517635D01*
X130902733Y-45511459D01*
X130965419Y-45504396D01*
X130993079Y-45501280D01*
X131006962Y-45500500D01*
X131065892Y-45500500D01*
X132740186Y-45500500D01*
X132807225Y-45520185D01*
G37*
%TD.AperFunction*%
%TD*%
M02*
