%TF.GenerationSoftware,KiCad,Pcbnew,9.0.1*%
%TF.CreationDate,2025-10-10T09:50:29+06:00*%
%TF.ProjectId,Plant_pulse_hardware_V1.0,506c616e-745f-4707-956c-73655f686172,rev?*%
%TF.SameCoordinates,Original*%
%TF.FileFunction,AssemblyDrawing,Top*%
%FSLAX46Y46*%
G04 Gerber Fmt 4.6, Leading zero omitted, Abs format (unit mm)*
G04 Created by KiCad (PCBNEW 9.0.1) date 2025-10-10 09:50:29*
%MOMM*%
%LPD*%
G01*
G04 APERTURE LIST*
%ADD10C,0.100000*%
%ADD11C,0.150000*%
%ADD12C,0.060000*%
G04 APERTURE END LIST*
D10*
X134401966Y-72716666D02*
X134435300Y-72749999D01*
X134435300Y-72749999D02*
X134468633Y-72849999D01*
X134468633Y-72849999D02*
X134468633Y-72916666D01*
X134468633Y-72916666D02*
X134435300Y-73016666D01*
X134435300Y-73016666D02*
X134368633Y-73083333D01*
X134368633Y-73083333D02*
X134301966Y-73116666D01*
X134301966Y-73116666D02*
X134168633Y-73149999D01*
X134168633Y-73149999D02*
X134068633Y-73149999D01*
X134068633Y-73149999D02*
X133935300Y-73116666D01*
X133935300Y-73116666D02*
X133868633Y-73083333D01*
X133868633Y-73083333D02*
X133801966Y-73016666D01*
X133801966Y-73016666D02*
X133768633Y-72916666D01*
X133768633Y-72916666D02*
X133768633Y-72849999D01*
X133768633Y-72849999D02*
X133801966Y-72749999D01*
X133801966Y-72749999D02*
X133835300Y-72716666D01*
X134468633Y-72049999D02*
X134468633Y-72449999D01*
X134468633Y-72249999D02*
X133768633Y-72249999D01*
X133768633Y-72249999D02*
X133868633Y-72316666D01*
X133868633Y-72316666D02*
X133935300Y-72383333D01*
X133935300Y-72383333D02*
X133968633Y-72449999D01*
X134066666Y-91672633D02*
X134066666Y-90972633D01*
X134533333Y-90972633D02*
X134666666Y-90972633D01*
X134666666Y-90972633D02*
X134733333Y-91005966D01*
X134733333Y-91005966D02*
X134799999Y-91072633D01*
X134799999Y-91072633D02*
X134833333Y-91205966D01*
X134833333Y-91205966D02*
X134833333Y-91439300D01*
X134833333Y-91439300D02*
X134799999Y-91572633D01*
X134799999Y-91572633D02*
X134733333Y-91639300D01*
X134733333Y-91639300D02*
X134666666Y-91672633D01*
X134666666Y-91672633D02*
X134533333Y-91672633D01*
X134533333Y-91672633D02*
X134466666Y-91639300D01*
X134466666Y-91639300D02*
X134399999Y-91572633D01*
X134399999Y-91572633D02*
X134366666Y-91439300D01*
X134366666Y-91439300D02*
X134366666Y-91205966D01*
X134366666Y-91205966D02*
X134399999Y-91072633D01*
X134399999Y-91072633D02*
X134466666Y-91005966D01*
X134466666Y-91005966D02*
X134533333Y-90972633D01*
X135499999Y-91672633D02*
X135099999Y-91672633D01*
X135299999Y-91672633D02*
X135299999Y-90972633D01*
X135299999Y-90972633D02*
X135233332Y-91072633D01*
X135233332Y-91072633D02*
X135166666Y-91139300D01*
X135166666Y-91139300D02*
X135099999Y-91172633D01*
X136166666Y-91672633D02*
X135766666Y-91672633D01*
X135966666Y-91672633D02*
X135966666Y-90972633D01*
X135966666Y-90972633D02*
X135899999Y-91072633D01*
X135899999Y-91072633D02*
X135833333Y-91139300D01*
X135833333Y-91139300D02*
X135766666Y-91172633D01*
X153283333Y-70564466D02*
X153250000Y-70597800D01*
X153250000Y-70597800D02*
X153150000Y-70631133D01*
X153150000Y-70631133D02*
X153083333Y-70631133D01*
X153083333Y-70631133D02*
X152983333Y-70597800D01*
X152983333Y-70597800D02*
X152916667Y-70531133D01*
X152916667Y-70531133D02*
X152883333Y-70464466D01*
X152883333Y-70464466D02*
X152850000Y-70331133D01*
X152850000Y-70331133D02*
X152850000Y-70231133D01*
X152850000Y-70231133D02*
X152883333Y-70097800D01*
X152883333Y-70097800D02*
X152916667Y-70031133D01*
X152916667Y-70031133D02*
X152983333Y-69964466D01*
X152983333Y-69964466D02*
X153083333Y-69931133D01*
X153083333Y-69931133D02*
X153150000Y-69931133D01*
X153150000Y-69931133D02*
X153250000Y-69964466D01*
X153250000Y-69964466D02*
X153283333Y-69997800D01*
X153683333Y-70231133D02*
X153616667Y-70197800D01*
X153616667Y-70197800D02*
X153583333Y-70164466D01*
X153583333Y-70164466D02*
X153550000Y-70097800D01*
X153550000Y-70097800D02*
X153550000Y-70064466D01*
X153550000Y-70064466D02*
X153583333Y-69997800D01*
X153583333Y-69997800D02*
X153616667Y-69964466D01*
X153616667Y-69964466D02*
X153683333Y-69931133D01*
X153683333Y-69931133D02*
X153816667Y-69931133D01*
X153816667Y-69931133D02*
X153883333Y-69964466D01*
X153883333Y-69964466D02*
X153916667Y-69997800D01*
X153916667Y-69997800D02*
X153950000Y-70064466D01*
X153950000Y-70064466D02*
X153950000Y-70097800D01*
X153950000Y-70097800D02*
X153916667Y-70164466D01*
X153916667Y-70164466D02*
X153883333Y-70197800D01*
X153883333Y-70197800D02*
X153816667Y-70231133D01*
X153816667Y-70231133D02*
X153683333Y-70231133D01*
X153683333Y-70231133D02*
X153616667Y-70264466D01*
X153616667Y-70264466D02*
X153583333Y-70297800D01*
X153583333Y-70297800D02*
X153550000Y-70364466D01*
X153550000Y-70364466D02*
X153550000Y-70497800D01*
X153550000Y-70497800D02*
X153583333Y-70564466D01*
X153583333Y-70564466D02*
X153616667Y-70597800D01*
X153616667Y-70597800D02*
X153683333Y-70631133D01*
X153683333Y-70631133D02*
X153816667Y-70631133D01*
X153816667Y-70631133D02*
X153883333Y-70597800D01*
X153883333Y-70597800D02*
X153916667Y-70564466D01*
X153916667Y-70564466D02*
X153950000Y-70497800D01*
X153950000Y-70497800D02*
X153950000Y-70364466D01*
X153950000Y-70364466D02*
X153916667Y-70297800D01*
X153916667Y-70297800D02*
X153883333Y-70264466D01*
X153883333Y-70264466D02*
X153816667Y-70231133D01*
X131618633Y-61450000D02*
X131285300Y-61683333D01*
X131618633Y-61850000D02*
X130918633Y-61850000D01*
X130918633Y-61850000D02*
X130918633Y-61583333D01*
X130918633Y-61583333D02*
X130951966Y-61516667D01*
X130951966Y-61516667D02*
X130985300Y-61483333D01*
X130985300Y-61483333D02*
X131051966Y-61450000D01*
X131051966Y-61450000D02*
X131151966Y-61450000D01*
X131151966Y-61450000D02*
X131218633Y-61483333D01*
X131218633Y-61483333D02*
X131251966Y-61516667D01*
X131251966Y-61516667D02*
X131285300Y-61583333D01*
X131285300Y-61583333D02*
X131285300Y-61850000D01*
X130985300Y-61183333D02*
X130951966Y-61150000D01*
X130951966Y-61150000D02*
X130918633Y-61083333D01*
X130918633Y-61083333D02*
X130918633Y-60916667D01*
X130918633Y-60916667D02*
X130951966Y-60850000D01*
X130951966Y-60850000D02*
X130985300Y-60816667D01*
X130985300Y-60816667D02*
X131051966Y-60783333D01*
X131051966Y-60783333D02*
X131118633Y-60783333D01*
X131118633Y-60783333D02*
X131218633Y-60816667D01*
X131218633Y-60816667D02*
X131618633Y-61216667D01*
X131618633Y-61216667D02*
X131618633Y-60783333D01*
X131151966Y-60183333D02*
X131618633Y-60183333D01*
X130885300Y-60350000D02*
X131385300Y-60516666D01*
X131385300Y-60516666D02*
X131385300Y-60083333D01*
X134500000Y-88390633D02*
X134500000Y-87690633D01*
X134966667Y-87690633D02*
X135100000Y-87690633D01*
X135100000Y-87690633D02*
X135166667Y-87723966D01*
X135166667Y-87723966D02*
X135233333Y-87790633D01*
X135233333Y-87790633D02*
X135266667Y-87923966D01*
X135266667Y-87923966D02*
X135266667Y-88157300D01*
X135266667Y-88157300D02*
X135233333Y-88290633D01*
X135233333Y-88290633D02*
X135166667Y-88357300D01*
X135166667Y-88357300D02*
X135100000Y-88390633D01*
X135100000Y-88390633D02*
X134966667Y-88390633D01*
X134966667Y-88390633D02*
X134900000Y-88357300D01*
X134900000Y-88357300D02*
X134833333Y-88290633D01*
X134833333Y-88290633D02*
X134800000Y-88157300D01*
X134800000Y-88157300D02*
X134800000Y-87923966D01*
X134800000Y-87923966D02*
X134833333Y-87790633D01*
X134833333Y-87790633D02*
X134900000Y-87723966D01*
X134900000Y-87723966D02*
X134966667Y-87690633D01*
X135600000Y-88390633D02*
X135733333Y-88390633D01*
X135733333Y-88390633D02*
X135800000Y-88357300D01*
X135800000Y-88357300D02*
X135833333Y-88323966D01*
X135833333Y-88323966D02*
X135900000Y-88223966D01*
X135900000Y-88223966D02*
X135933333Y-88090633D01*
X135933333Y-88090633D02*
X135933333Y-87823966D01*
X135933333Y-87823966D02*
X135900000Y-87757300D01*
X135900000Y-87757300D02*
X135866666Y-87723966D01*
X135866666Y-87723966D02*
X135800000Y-87690633D01*
X135800000Y-87690633D02*
X135666666Y-87690633D01*
X135666666Y-87690633D02*
X135600000Y-87723966D01*
X135600000Y-87723966D02*
X135566666Y-87757300D01*
X135566666Y-87757300D02*
X135533333Y-87823966D01*
X135533333Y-87823966D02*
X135533333Y-87990633D01*
X135533333Y-87990633D02*
X135566666Y-88057300D01*
X135566666Y-88057300D02*
X135600000Y-88090633D01*
X135600000Y-88090633D02*
X135666666Y-88123966D01*
X135666666Y-88123966D02*
X135800000Y-88123966D01*
X135800000Y-88123966D02*
X135866666Y-88090633D01*
X135866666Y-88090633D02*
X135900000Y-88057300D01*
X135900000Y-88057300D02*
X135933333Y-87990633D01*
X155429999Y-121718633D02*
X155429999Y-121018633D01*
X155429999Y-121018633D02*
X155596666Y-121018633D01*
X155596666Y-121018633D02*
X155696666Y-121051966D01*
X155696666Y-121051966D02*
X155763333Y-121118633D01*
X155763333Y-121118633D02*
X155796666Y-121185300D01*
X155796666Y-121185300D02*
X155829999Y-121318633D01*
X155829999Y-121318633D02*
X155829999Y-121418633D01*
X155829999Y-121418633D02*
X155796666Y-121551966D01*
X155796666Y-121551966D02*
X155763333Y-121618633D01*
X155763333Y-121618633D02*
X155696666Y-121685300D01*
X155696666Y-121685300D02*
X155596666Y-121718633D01*
X155596666Y-121718633D02*
X155429999Y-121718633D01*
X156496666Y-121718633D02*
X156096666Y-121718633D01*
X156296666Y-121718633D02*
X156296666Y-121018633D01*
X156296666Y-121018633D02*
X156229999Y-121118633D01*
X156229999Y-121118633D02*
X156163333Y-121185300D01*
X156163333Y-121185300D02*
X156096666Y-121218633D01*
X157163333Y-121718633D02*
X156763333Y-121718633D01*
X156963333Y-121718633D02*
X156963333Y-121018633D01*
X156963333Y-121018633D02*
X156896666Y-121118633D01*
X156896666Y-121118633D02*
X156830000Y-121185300D01*
X156830000Y-121185300D02*
X156763333Y-121218633D01*
X159351966Y-105405000D02*
X159385300Y-105438333D01*
X159385300Y-105438333D02*
X159418633Y-105538333D01*
X159418633Y-105538333D02*
X159418633Y-105605000D01*
X159418633Y-105605000D02*
X159385300Y-105705000D01*
X159385300Y-105705000D02*
X159318633Y-105771667D01*
X159318633Y-105771667D02*
X159251966Y-105805000D01*
X159251966Y-105805000D02*
X159118633Y-105838333D01*
X159118633Y-105838333D02*
X159018633Y-105838333D01*
X159018633Y-105838333D02*
X158885300Y-105805000D01*
X158885300Y-105805000D02*
X158818633Y-105771667D01*
X158818633Y-105771667D02*
X158751966Y-105705000D01*
X158751966Y-105705000D02*
X158718633Y-105605000D01*
X158718633Y-105605000D02*
X158718633Y-105538333D01*
X158718633Y-105538333D02*
X158751966Y-105438333D01*
X158751966Y-105438333D02*
X158785300Y-105405000D01*
X159418633Y-104738333D02*
X159418633Y-105138333D01*
X159418633Y-104938333D02*
X158718633Y-104938333D01*
X158718633Y-104938333D02*
X158818633Y-105005000D01*
X158818633Y-105005000D02*
X158885300Y-105071667D01*
X158885300Y-105071667D02*
X158918633Y-105138333D01*
X159418633Y-104071666D02*
X159418633Y-104471666D01*
X159418633Y-104271666D02*
X158718633Y-104271666D01*
X158718633Y-104271666D02*
X158818633Y-104338333D01*
X158818633Y-104338333D02*
X158885300Y-104405000D01*
X158885300Y-104405000D02*
X158918633Y-104471666D01*
X151315000Y-80718633D02*
X151315000Y-80018633D01*
X151781667Y-80018633D02*
X151915000Y-80018633D01*
X151915000Y-80018633D02*
X151981667Y-80051966D01*
X151981667Y-80051966D02*
X152048333Y-80118633D01*
X152048333Y-80118633D02*
X152081667Y-80251966D01*
X152081667Y-80251966D02*
X152081667Y-80485300D01*
X152081667Y-80485300D02*
X152048333Y-80618633D01*
X152048333Y-80618633D02*
X151981667Y-80685300D01*
X151981667Y-80685300D02*
X151915000Y-80718633D01*
X151915000Y-80718633D02*
X151781667Y-80718633D01*
X151781667Y-80718633D02*
X151715000Y-80685300D01*
X151715000Y-80685300D02*
X151648333Y-80618633D01*
X151648333Y-80618633D02*
X151615000Y-80485300D01*
X151615000Y-80485300D02*
X151615000Y-80251966D01*
X151615000Y-80251966D02*
X151648333Y-80118633D01*
X151648333Y-80118633D02*
X151715000Y-80051966D01*
X151715000Y-80051966D02*
X151781667Y-80018633D01*
X152715000Y-80018633D02*
X152381666Y-80018633D01*
X152381666Y-80018633D02*
X152348333Y-80351966D01*
X152348333Y-80351966D02*
X152381666Y-80318633D01*
X152381666Y-80318633D02*
X152448333Y-80285300D01*
X152448333Y-80285300D02*
X152615000Y-80285300D01*
X152615000Y-80285300D02*
X152681666Y-80318633D01*
X152681666Y-80318633D02*
X152715000Y-80351966D01*
X152715000Y-80351966D02*
X152748333Y-80418633D01*
X152748333Y-80418633D02*
X152748333Y-80585300D01*
X152748333Y-80585300D02*
X152715000Y-80651966D01*
X152715000Y-80651966D02*
X152681666Y-80685300D01*
X152681666Y-80685300D02*
X152615000Y-80718633D01*
X152615000Y-80718633D02*
X152448333Y-80718633D01*
X152448333Y-80718633D02*
X152381666Y-80685300D01*
X152381666Y-80685300D02*
X152348333Y-80651966D01*
X154100000Y-83108633D02*
X154100000Y-82408633D01*
X154566667Y-82408633D02*
X154700000Y-82408633D01*
X154700000Y-82408633D02*
X154766667Y-82441966D01*
X154766667Y-82441966D02*
X154833333Y-82508633D01*
X154833333Y-82508633D02*
X154866667Y-82641966D01*
X154866667Y-82641966D02*
X154866667Y-82875300D01*
X154866667Y-82875300D02*
X154833333Y-83008633D01*
X154833333Y-83008633D02*
X154766667Y-83075300D01*
X154766667Y-83075300D02*
X154700000Y-83108633D01*
X154700000Y-83108633D02*
X154566667Y-83108633D01*
X154566667Y-83108633D02*
X154500000Y-83075300D01*
X154500000Y-83075300D02*
X154433333Y-83008633D01*
X154433333Y-83008633D02*
X154400000Y-82875300D01*
X154400000Y-82875300D02*
X154400000Y-82641966D01*
X154400000Y-82641966D02*
X154433333Y-82508633D01*
X154433333Y-82508633D02*
X154500000Y-82441966D01*
X154500000Y-82441966D02*
X154566667Y-82408633D01*
X155466666Y-82641966D02*
X155466666Y-83108633D01*
X155300000Y-82375300D02*
X155133333Y-82875300D01*
X155133333Y-82875300D02*
X155566666Y-82875300D01*
X153268633Y-49216666D02*
X152568633Y-49216666D01*
X152568633Y-49216666D02*
X152568633Y-49049999D01*
X152568633Y-49049999D02*
X152601966Y-48949999D01*
X152601966Y-48949999D02*
X152668633Y-48883333D01*
X152668633Y-48883333D02*
X152735300Y-48849999D01*
X152735300Y-48849999D02*
X152868633Y-48816666D01*
X152868633Y-48816666D02*
X152968633Y-48816666D01*
X152968633Y-48816666D02*
X153101966Y-48849999D01*
X153101966Y-48849999D02*
X153168633Y-48883333D01*
X153168633Y-48883333D02*
X153235300Y-48949999D01*
X153235300Y-48949999D02*
X153268633Y-49049999D01*
X153268633Y-49049999D02*
X153268633Y-49216666D01*
X152568633Y-48583333D02*
X152568633Y-48116666D01*
X152568633Y-48116666D02*
X153268633Y-48416666D01*
X132999999Y-66418633D02*
X132766666Y-66085300D01*
X132599999Y-66418633D02*
X132599999Y-65718633D01*
X132599999Y-65718633D02*
X132866666Y-65718633D01*
X132866666Y-65718633D02*
X132933333Y-65751966D01*
X132933333Y-65751966D02*
X132966666Y-65785300D01*
X132966666Y-65785300D02*
X132999999Y-65851966D01*
X132999999Y-65851966D02*
X132999999Y-65951966D01*
X132999999Y-65951966D02*
X132966666Y-66018633D01*
X132966666Y-66018633D02*
X132933333Y-66051966D01*
X132933333Y-66051966D02*
X132866666Y-66085300D01*
X132866666Y-66085300D02*
X132599999Y-66085300D01*
X133266666Y-65785300D02*
X133299999Y-65751966D01*
X133299999Y-65751966D02*
X133366666Y-65718633D01*
X133366666Y-65718633D02*
X133533333Y-65718633D01*
X133533333Y-65718633D02*
X133599999Y-65751966D01*
X133599999Y-65751966D02*
X133633333Y-65785300D01*
X133633333Y-65785300D02*
X133666666Y-65851966D01*
X133666666Y-65851966D02*
X133666666Y-65918633D01*
X133666666Y-65918633D02*
X133633333Y-66018633D01*
X133633333Y-66018633D02*
X133233333Y-66418633D01*
X133233333Y-66418633D02*
X133666666Y-66418633D01*
X133900000Y-65718633D02*
X134333333Y-65718633D01*
X134333333Y-65718633D02*
X134100000Y-65985300D01*
X134100000Y-65985300D02*
X134200000Y-65985300D01*
X134200000Y-65985300D02*
X134266666Y-66018633D01*
X134266666Y-66018633D02*
X134300000Y-66051966D01*
X134300000Y-66051966D02*
X134333333Y-66118633D01*
X134333333Y-66118633D02*
X134333333Y-66285300D01*
X134333333Y-66285300D02*
X134300000Y-66351966D01*
X134300000Y-66351966D02*
X134266666Y-66385300D01*
X134266666Y-66385300D02*
X134200000Y-66418633D01*
X134200000Y-66418633D02*
X134000000Y-66418633D01*
X134000000Y-66418633D02*
X133933333Y-66385300D01*
X133933333Y-66385300D02*
X133900000Y-66351966D01*
X155249999Y-59398633D02*
X155016666Y-59065300D01*
X154849999Y-59398633D02*
X154849999Y-58698633D01*
X154849999Y-58698633D02*
X155116666Y-58698633D01*
X155116666Y-58698633D02*
X155183333Y-58731966D01*
X155183333Y-58731966D02*
X155216666Y-58765300D01*
X155216666Y-58765300D02*
X155249999Y-58831966D01*
X155249999Y-58831966D02*
X155249999Y-58931966D01*
X155249999Y-58931966D02*
X155216666Y-58998633D01*
X155216666Y-58998633D02*
X155183333Y-59031966D01*
X155183333Y-59031966D02*
X155116666Y-59065300D01*
X155116666Y-59065300D02*
X154849999Y-59065300D01*
X155916666Y-59398633D02*
X155516666Y-59398633D01*
X155716666Y-59398633D02*
X155716666Y-58698633D01*
X155716666Y-58698633D02*
X155649999Y-58798633D01*
X155649999Y-58798633D02*
X155583333Y-58865300D01*
X155583333Y-58865300D02*
X155516666Y-58898633D01*
X156316666Y-58998633D02*
X156250000Y-58965300D01*
X156250000Y-58965300D02*
X156216666Y-58931966D01*
X156216666Y-58931966D02*
X156183333Y-58865300D01*
X156183333Y-58865300D02*
X156183333Y-58831966D01*
X156183333Y-58831966D02*
X156216666Y-58765300D01*
X156216666Y-58765300D02*
X156250000Y-58731966D01*
X156250000Y-58731966D02*
X156316666Y-58698633D01*
X156316666Y-58698633D02*
X156450000Y-58698633D01*
X156450000Y-58698633D02*
X156516666Y-58731966D01*
X156516666Y-58731966D02*
X156550000Y-58765300D01*
X156550000Y-58765300D02*
X156583333Y-58831966D01*
X156583333Y-58831966D02*
X156583333Y-58865300D01*
X156583333Y-58865300D02*
X156550000Y-58931966D01*
X156550000Y-58931966D02*
X156516666Y-58965300D01*
X156516666Y-58965300D02*
X156450000Y-58998633D01*
X156450000Y-58998633D02*
X156316666Y-58998633D01*
X156316666Y-58998633D02*
X156250000Y-59031966D01*
X156250000Y-59031966D02*
X156216666Y-59065300D01*
X156216666Y-59065300D02*
X156183333Y-59131966D01*
X156183333Y-59131966D02*
X156183333Y-59265300D01*
X156183333Y-59265300D02*
X156216666Y-59331966D01*
X156216666Y-59331966D02*
X156250000Y-59365300D01*
X156250000Y-59365300D02*
X156316666Y-59398633D01*
X156316666Y-59398633D02*
X156450000Y-59398633D01*
X156450000Y-59398633D02*
X156516666Y-59365300D01*
X156516666Y-59365300D02*
X156550000Y-59331966D01*
X156550000Y-59331966D02*
X156583333Y-59265300D01*
X156583333Y-59265300D02*
X156583333Y-59131966D01*
X156583333Y-59131966D02*
X156550000Y-59065300D01*
X156550000Y-59065300D02*
X156516666Y-59031966D01*
X156516666Y-59031966D02*
X156450000Y-58998633D01*
X132018633Y-126350000D02*
X131318633Y-126350000D01*
X131318633Y-126350000D02*
X131318633Y-126183333D01*
X131318633Y-126183333D02*
X131351966Y-126083333D01*
X131351966Y-126083333D02*
X131418633Y-126016667D01*
X131418633Y-126016667D02*
X131485300Y-125983333D01*
X131485300Y-125983333D02*
X131618633Y-125950000D01*
X131618633Y-125950000D02*
X131718633Y-125950000D01*
X131718633Y-125950000D02*
X131851966Y-125983333D01*
X131851966Y-125983333D02*
X131918633Y-126016667D01*
X131918633Y-126016667D02*
X131985300Y-126083333D01*
X131985300Y-126083333D02*
X132018633Y-126183333D01*
X132018633Y-126183333D02*
X132018633Y-126350000D01*
X132018633Y-125283333D02*
X132018633Y-125683333D01*
X132018633Y-125483333D02*
X131318633Y-125483333D01*
X131318633Y-125483333D02*
X131418633Y-125550000D01*
X131418633Y-125550000D02*
X131485300Y-125616667D01*
X131485300Y-125616667D02*
X131518633Y-125683333D01*
X131318633Y-124850000D02*
X131318633Y-124783333D01*
X131318633Y-124783333D02*
X131351966Y-124716666D01*
X131351966Y-124716666D02*
X131385300Y-124683333D01*
X131385300Y-124683333D02*
X131451966Y-124650000D01*
X131451966Y-124650000D02*
X131585300Y-124616666D01*
X131585300Y-124616666D02*
X131751966Y-124616666D01*
X131751966Y-124616666D02*
X131885300Y-124650000D01*
X131885300Y-124650000D02*
X131951966Y-124683333D01*
X131951966Y-124683333D02*
X131985300Y-124716666D01*
X131985300Y-124716666D02*
X132018633Y-124783333D01*
X132018633Y-124783333D02*
X132018633Y-124850000D01*
X132018633Y-124850000D02*
X131985300Y-124916666D01*
X131985300Y-124916666D02*
X131951966Y-124950000D01*
X131951966Y-124950000D02*
X131885300Y-124983333D01*
X131885300Y-124983333D02*
X131751966Y-125016666D01*
X131751966Y-125016666D02*
X131585300Y-125016666D01*
X131585300Y-125016666D02*
X131451966Y-124983333D01*
X131451966Y-124983333D02*
X131385300Y-124950000D01*
X131385300Y-124950000D02*
X131351966Y-124916666D01*
X131351966Y-124916666D02*
X131318633Y-124850000D01*
X146266666Y-107518633D02*
X146266666Y-106818633D01*
X146733333Y-106818633D02*
X146866666Y-106818633D01*
X146866666Y-106818633D02*
X146933333Y-106851966D01*
X146933333Y-106851966D02*
X146999999Y-106918633D01*
X146999999Y-106918633D02*
X147033333Y-107051966D01*
X147033333Y-107051966D02*
X147033333Y-107285300D01*
X147033333Y-107285300D02*
X146999999Y-107418633D01*
X146999999Y-107418633D02*
X146933333Y-107485300D01*
X146933333Y-107485300D02*
X146866666Y-107518633D01*
X146866666Y-107518633D02*
X146733333Y-107518633D01*
X146733333Y-107518633D02*
X146666666Y-107485300D01*
X146666666Y-107485300D02*
X146599999Y-107418633D01*
X146599999Y-107418633D02*
X146566666Y-107285300D01*
X146566666Y-107285300D02*
X146566666Y-107051966D01*
X146566666Y-107051966D02*
X146599999Y-106918633D01*
X146599999Y-106918633D02*
X146666666Y-106851966D01*
X146666666Y-106851966D02*
X146733333Y-106818633D01*
X147633332Y-107051966D02*
X147633332Y-107518633D01*
X147466666Y-106785300D02*
X147299999Y-107285300D01*
X147299999Y-107285300D02*
X147733332Y-107285300D01*
X148133333Y-106818633D02*
X148199999Y-106818633D01*
X148199999Y-106818633D02*
X148266666Y-106851966D01*
X148266666Y-106851966D02*
X148299999Y-106885300D01*
X148299999Y-106885300D02*
X148333333Y-106951966D01*
X148333333Y-106951966D02*
X148366666Y-107085300D01*
X148366666Y-107085300D02*
X148366666Y-107251966D01*
X148366666Y-107251966D02*
X148333333Y-107385300D01*
X148333333Y-107385300D02*
X148299999Y-107451966D01*
X148299999Y-107451966D02*
X148266666Y-107485300D01*
X148266666Y-107485300D02*
X148199999Y-107518633D01*
X148199999Y-107518633D02*
X148133333Y-107518633D01*
X148133333Y-107518633D02*
X148066666Y-107485300D01*
X148066666Y-107485300D02*
X148033333Y-107451966D01*
X148033333Y-107451966D02*
X147999999Y-107385300D01*
X147999999Y-107385300D02*
X147966666Y-107251966D01*
X147966666Y-107251966D02*
X147966666Y-107085300D01*
X147966666Y-107085300D02*
X147999999Y-106951966D01*
X147999999Y-106951966D02*
X148033333Y-106885300D01*
X148033333Y-106885300D02*
X148066666Y-106851966D01*
X148066666Y-106851966D02*
X148133333Y-106818633D01*
X146483333Y-45418633D02*
X146250000Y-45085300D01*
X146083333Y-45418633D02*
X146083333Y-44718633D01*
X146083333Y-44718633D02*
X146350000Y-44718633D01*
X146350000Y-44718633D02*
X146416667Y-44751966D01*
X146416667Y-44751966D02*
X146450000Y-44785300D01*
X146450000Y-44785300D02*
X146483333Y-44851966D01*
X146483333Y-44851966D02*
X146483333Y-44951966D01*
X146483333Y-44951966D02*
X146450000Y-45018633D01*
X146450000Y-45018633D02*
X146416667Y-45051966D01*
X146416667Y-45051966D02*
X146350000Y-45085300D01*
X146350000Y-45085300D02*
X146083333Y-45085300D01*
X146750000Y-44785300D02*
X146783333Y-44751966D01*
X146783333Y-44751966D02*
X146850000Y-44718633D01*
X146850000Y-44718633D02*
X147016667Y-44718633D01*
X147016667Y-44718633D02*
X147083333Y-44751966D01*
X147083333Y-44751966D02*
X147116667Y-44785300D01*
X147116667Y-44785300D02*
X147150000Y-44851966D01*
X147150000Y-44851966D02*
X147150000Y-44918633D01*
X147150000Y-44918633D02*
X147116667Y-45018633D01*
X147116667Y-45018633D02*
X146716667Y-45418633D01*
X146716667Y-45418633D02*
X147150000Y-45418633D01*
X150083333Y-120918633D02*
X150083333Y-120218633D01*
X150083333Y-120218633D02*
X150250000Y-120218633D01*
X150250000Y-120218633D02*
X150350000Y-120251966D01*
X150350000Y-120251966D02*
X150416667Y-120318633D01*
X150416667Y-120318633D02*
X150450000Y-120385300D01*
X150450000Y-120385300D02*
X150483333Y-120518633D01*
X150483333Y-120518633D02*
X150483333Y-120618633D01*
X150483333Y-120618633D02*
X150450000Y-120751966D01*
X150450000Y-120751966D02*
X150416667Y-120818633D01*
X150416667Y-120818633D02*
X150350000Y-120885300D01*
X150350000Y-120885300D02*
X150250000Y-120918633D01*
X150250000Y-120918633D02*
X150083333Y-120918633D01*
X151150000Y-120918633D02*
X150750000Y-120918633D01*
X150950000Y-120918633D02*
X150950000Y-120218633D01*
X150950000Y-120218633D02*
X150883333Y-120318633D01*
X150883333Y-120318633D02*
X150816667Y-120385300D01*
X150816667Y-120385300D02*
X150750000Y-120418633D01*
X155349999Y-57158633D02*
X155116666Y-56825300D01*
X154949999Y-57158633D02*
X154949999Y-56458633D01*
X154949999Y-56458633D02*
X155216666Y-56458633D01*
X155216666Y-56458633D02*
X155283333Y-56491966D01*
X155283333Y-56491966D02*
X155316666Y-56525300D01*
X155316666Y-56525300D02*
X155349999Y-56591966D01*
X155349999Y-56591966D02*
X155349999Y-56691966D01*
X155349999Y-56691966D02*
X155316666Y-56758633D01*
X155316666Y-56758633D02*
X155283333Y-56791966D01*
X155283333Y-56791966D02*
X155216666Y-56825300D01*
X155216666Y-56825300D02*
X154949999Y-56825300D01*
X156016666Y-57158633D02*
X155616666Y-57158633D01*
X155816666Y-57158633D02*
X155816666Y-56458633D01*
X155816666Y-56458633D02*
X155749999Y-56558633D01*
X155749999Y-56558633D02*
X155683333Y-56625300D01*
X155683333Y-56625300D02*
X155616666Y-56658633D01*
X156350000Y-57158633D02*
X156483333Y-57158633D01*
X156483333Y-57158633D02*
X156550000Y-57125300D01*
X156550000Y-57125300D02*
X156583333Y-57091966D01*
X156583333Y-57091966D02*
X156650000Y-56991966D01*
X156650000Y-56991966D02*
X156683333Y-56858633D01*
X156683333Y-56858633D02*
X156683333Y-56591966D01*
X156683333Y-56591966D02*
X156650000Y-56525300D01*
X156650000Y-56525300D02*
X156616666Y-56491966D01*
X156616666Y-56491966D02*
X156550000Y-56458633D01*
X156550000Y-56458633D02*
X156416666Y-56458633D01*
X156416666Y-56458633D02*
X156350000Y-56491966D01*
X156350000Y-56491966D02*
X156316666Y-56525300D01*
X156316666Y-56525300D02*
X156283333Y-56591966D01*
X156283333Y-56591966D02*
X156283333Y-56758633D01*
X156283333Y-56758633D02*
X156316666Y-56825300D01*
X156316666Y-56825300D02*
X156350000Y-56858633D01*
X156350000Y-56858633D02*
X156416666Y-56891966D01*
X156416666Y-56891966D02*
X156550000Y-56891966D01*
X156550000Y-56891966D02*
X156616666Y-56858633D01*
X156616666Y-56858633D02*
X156650000Y-56825300D01*
X156650000Y-56825300D02*
X156683333Y-56758633D01*
X148133333Y-48318633D02*
X147900000Y-47985300D01*
X147733333Y-48318633D02*
X147733333Y-47618633D01*
X147733333Y-47618633D02*
X148000000Y-47618633D01*
X148000000Y-47618633D02*
X148066667Y-47651966D01*
X148066667Y-47651966D02*
X148100000Y-47685300D01*
X148100000Y-47685300D02*
X148133333Y-47751966D01*
X148133333Y-47751966D02*
X148133333Y-47851966D01*
X148133333Y-47851966D02*
X148100000Y-47918633D01*
X148100000Y-47918633D02*
X148066667Y-47951966D01*
X148066667Y-47951966D02*
X148000000Y-47985300D01*
X148000000Y-47985300D02*
X147733333Y-47985300D01*
X148800000Y-48318633D02*
X148400000Y-48318633D01*
X148600000Y-48318633D02*
X148600000Y-47618633D01*
X148600000Y-47618633D02*
X148533333Y-47718633D01*
X148533333Y-47718633D02*
X148466667Y-47785300D01*
X148466667Y-47785300D02*
X148400000Y-47818633D01*
X139851966Y-125416666D02*
X139885300Y-125449999D01*
X139885300Y-125449999D02*
X139918633Y-125549999D01*
X139918633Y-125549999D02*
X139918633Y-125616666D01*
X139918633Y-125616666D02*
X139885300Y-125716666D01*
X139885300Y-125716666D02*
X139818633Y-125783333D01*
X139818633Y-125783333D02*
X139751966Y-125816666D01*
X139751966Y-125816666D02*
X139618633Y-125849999D01*
X139618633Y-125849999D02*
X139518633Y-125849999D01*
X139518633Y-125849999D02*
X139385300Y-125816666D01*
X139385300Y-125816666D02*
X139318633Y-125783333D01*
X139318633Y-125783333D02*
X139251966Y-125716666D01*
X139251966Y-125716666D02*
X139218633Y-125616666D01*
X139218633Y-125616666D02*
X139218633Y-125549999D01*
X139218633Y-125549999D02*
X139251966Y-125449999D01*
X139251966Y-125449999D02*
X139285300Y-125416666D01*
X139218633Y-125183333D02*
X139218633Y-124749999D01*
X139218633Y-124749999D02*
X139485300Y-124983333D01*
X139485300Y-124983333D02*
X139485300Y-124883333D01*
X139485300Y-124883333D02*
X139518633Y-124816666D01*
X139518633Y-124816666D02*
X139551966Y-124783333D01*
X139551966Y-124783333D02*
X139618633Y-124749999D01*
X139618633Y-124749999D02*
X139785300Y-124749999D01*
X139785300Y-124749999D02*
X139851966Y-124783333D01*
X139851966Y-124783333D02*
X139885300Y-124816666D01*
X139885300Y-124816666D02*
X139918633Y-124883333D01*
X139918633Y-124883333D02*
X139918633Y-125083333D01*
X139918633Y-125083333D02*
X139885300Y-125149999D01*
X139885300Y-125149999D02*
X139851966Y-125183333D01*
X134518633Y-118816667D02*
X134518633Y-119150000D01*
X134518633Y-119150000D02*
X133818633Y-119150000D01*
X133885300Y-118616666D02*
X133851966Y-118583333D01*
X133851966Y-118583333D02*
X133818633Y-118516666D01*
X133818633Y-118516666D02*
X133818633Y-118350000D01*
X133818633Y-118350000D02*
X133851966Y-118283333D01*
X133851966Y-118283333D02*
X133885300Y-118250000D01*
X133885300Y-118250000D02*
X133951966Y-118216666D01*
X133951966Y-118216666D02*
X134018633Y-118216666D01*
X134018633Y-118216666D02*
X134118633Y-118250000D01*
X134118633Y-118250000D02*
X134518633Y-118650000D01*
X134518633Y-118650000D02*
X134518633Y-118216666D01*
X132449999Y-53751966D02*
X132416666Y-53785300D01*
X132416666Y-53785300D02*
X132316666Y-53818633D01*
X132316666Y-53818633D02*
X132249999Y-53818633D01*
X132249999Y-53818633D02*
X132149999Y-53785300D01*
X132149999Y-53785300D02*
X132083333Y-53718633D01*
X132083333Y-53718633D02*
X132049999Y-53651966D01*
X132049999Y-53651966D02*
X132016666Y-53518633D01*
X132016666Y-53518633D02*
X132016666Y-53418633D01*
X132016666Y-53418633D02*
X132049999Y-53285300D01*
X132049999Y-53285300D02*
X132083333Y-53218633D01*
X132083333Y-53218633D02*
X132149999Y-53151966D01*
X132149999Y-53151966D02*
X132249999Y-53118633D01*
X132249999Y-53118633D02*
X132316666Y-53118633D01*
X132316666Y-53118633D02*
X132416666Y-53151966D01*
X132416666Y-53151966D02*
X132449999Y-53185300D01*
X133116666Y-53818633D02*
X132716666Y-53818633D01*
X132916666Y-53818633D02*
X132916666Y-53118633D01*
X132916666Y-53118633D02*
X132849999Y-53218633D01*
X132849999Y-53218633D02*
X132783333Y-53285300D01*
X132783333Y-53285300D02*
X132716666Y-53318633D01*
X133716666Y-53118633D02*
X133583333Y-53118633D01*
X133583333Y-53118633D02*
X133516666Y-53151966D01*
X133516666Y-53151966D02*
X133483333Y-53185300D01*
X133483333Y-53185300D02*
X133416666Y-53285300D01*
X133416666Y-53285300D02*
X133383333Y-53418633D01*
X133383333Y-53418633D02*
X133383333Y-53685300D01*
X133383333Y-53685300D02*
X133416666Y-53751966D01*
X133416666Y-53751966D02*
X133450000Y-53785300D01*
X133450000Y-53785300D02*
X133516666Y-53818633D01*
X133516666Y-53818633D02*
X133650000Y-53818633D01*
X133650000Y-53818633D02*
X133716666Y-53785300D01*
X133716666Y-53785300D02*
X133750000Y-53751966D01*
X133750000Y-53751966D02*
X133783333Y-53685300D01*
X133783333Y-53685300D02*
X133783333Y-53518633D01*
X133783333Y-53518633D02*
X133750000Y-53451966D01*
X133750000Y-53451966D02*
X133716666Y-53418633D01*
X133716666Y-53418633D02*
X133650000Y-53385300D01*
X133650000Y-53385300D02*
X133516666Y-53385300D01*
X133516666Y-53385300D02*
X133450000Y-53418633D01*
X133450000Y-53418633D02*
X133416666Y-53451966D01*
X133416666Y-53451966D02*
X133383333Y-53518633D01*
X134166666Y-90031633D02*
X134166666Y-89331633D01*
X134633333Y-89331633D02*
X134766666Y-89331633D01*
X134766666Y-89331633D02*
X134833333Y-89364966D01*
X134833333Y-89364966D02*
X134899999Y-89431633D01*
X134899999Y-89431633D02*
X134933333Y-89564966D01*
X134933333Y-89564966D02*
X134933333Y-89798300D01*
X134933333Y-89798300D02*
X134899999Y-89931633D01*
X134899999Y-89931633D02*
X134833333Y-89998300D01*
X134833333Y-89998300D02*
X134766666Y-90031633D01*
X134766666Y-90031633D02*
X134633333Y-90031633D01*
X134633333Y-90031633D02*
X134566666Y-89998300D01*
X134566666Y-89998300D02*
X134499999Y-89931633D01*
X134499999Y-89931633D02*
X134466666Y-89798300D01*
X134466666Y-89798300D02*
X134466666Y-89564966D01*
X134466666Y-89564966D02*
X134499999Y-89431633D01*
X134499999Y-89431633D02*
X134566666Y-89364966D01*
X134566666Y-89364966D02*
X134633333Y-89331633D01*
X135599999Y-90031633D02*
X135199999Y-90031633D01*
X135399999Y-90031633D02*
X135399999Y-89331633D01*
X135399999Y-89331633D02*
X135333332Y-89431633D01*
X135333332Y-89431633D02*
X135266666Y-89498300D01*
X135266666Y-89498300D02*
X135199999Y-89531633D01*
X136033333Y-89331633D02*
X136099999Y-89331633D01*
X136099999Y-89331633D02*
X136166666Y-89364966D01*
X136166666Y-89364966D02*
X136199999Y-89398300D01*
X136199999Y-89398300D02*
X136233333Y-89464966D01*
X136233333Y-89464966D02*
X136266666Y-89598300D01*
X136266666Y-89598300D02*
X136266666Y-89764966D01*
X136266666Y-89764966D02*
X136233333Y-89898300D01*
X136233333Y-89898300D02*
X136199999Y-89964966D01*
X136199999Y-89964966D02*
X136166666Y-89998300D01*
X136166666Y-89998300D02*
X136099999Y-90031633D01*
X136099999Y-90031633D02*
X136033333Y-90031633D01*
X136033333Y-90031633D02*
X135966666Y-89998300D01*
X135966666Y-89998300D02*
X135933333Y-89964966D01*
X135933333Y-89964966D02*
X135899999Y-89898300D01*
X135899999Y-89898300D02*
X135866666Y-89764966D01*
X135866666Y-89764966D02*
X135866666Y-89598300D01*
X135866666Y-89598300D02*
X135899999Y-89464966D01*
X135899999Y-89464966D02*
X135933333Y-89398300D01*
X135933333Y-89398300D02*
X135966666Y-89364966D01*
X135966666Y-89364966D02*
X136033333Y-89331633D01*
X144749999Y-66258633D02*
X144516666Y-65925300D01*
X144349999Y-66258633D02*
X144349999Y-65558633D01*
X144349999Y-65558633D02*
X144616666Y-65558633D01*
X144616666Y-65558633D02*
X144683333Y-65591966D01*
X144683333Y-65591966D02*
X144716666Y-65625300D01*
X144716666Y-65625300D02*
X144749999Y-65691966D01*
X144749999Y-65691966D02*
X144749999Y-65791966D01*
X144749999Y-65791966D02*
X144716666Y-65858633D01*
X144716666Y-65858633D02*
X144683333Y-65891966D01*
X144683333Y-65891966D02*
X144616666Y-65925300D01*
X144616666Y-65925300D02*
X144349999Y-65925300D01*
X145016666Y-65625300D02*
X145049999Y-65591966D01*
X145049999Y-65591966D02*
X145116666Y-65558633D01*
X145116666Y-65558633D02*
X145283333Y-65558633D01*
X145283333Y-65558633D02*
X145349999Y-65591966D01*
X145349999Y-65591966D02*
X145383333Y-65625300D01*
X145383333Y-65625300D02*
X145416666Y-65691966D01*
X145416666Y-65691966D02*
X145416666Y-65758633D01*
X145416666Y-65758633D02*
X145383333Y-65858633D01*
X145383333Y-65858633D02*
X144983333Y-66258633D01*
X144983333Y-66258633D02*
X145416666Y-66258633D01*
X145850000Y-65558633D02*
X145916666Y-65558633D01*
X145916666Y-65558633D02*
X145983333Y-65591966D01*
X145983333Y-65591966D02*
X146016666Y-65625300D01*
X146016666Y-65625300D02*
X146050000Y-65691966D01*
X146050000Y-65691966D02*
X146083333Y-65825300D01*
X146083333Y-65825300D02*
X146083333Y-65991966D01*
X146083333Y-65991966D02*
X146050000Y-66125300D01*
X146050000Y-66125300D02*
X146016666Y-66191966D01*
X146016666Y-66191966D02*
X145983333Y-66225300D01*
X145983333Y-66225300D02*
X145916666Y-66258633D01*
X145916666Y-66258633D02*
X145850000Y-66258633D01*
X145850000Y-66258633D02*
X145783333Y-66225300D01*
X145783333Y-66225300D02*
X145750000Y-66191966D01*
X145750000Y-66191966D02*
X145716666Y-66125300D01*
X145716666Y-66125300D02*
X145683333Y-65991966D01*
X145683333Y-65991966D02*
X145683333Y-65825300D01*
X145683333Y-65825300D02*
X145716666Y-65691966D01*
X145716666Y-65691966D02*
X145750000Y-65625300D01*
X145750000Y-65625300D02*
X145783333Y-65591966D01*
X145783333Y-65591966D02*
X145850000Y-65558633D01*
X134383333Y-112951966D02*
X134350000Y-112985300D01*
X134350000Y-112985300D02*
X134250000Y-113018633D01*
X134250000Y-113018633D02*
X134183333Y-113018633D01*
X134183333Y-113018633D02*
X134083333Y-112985300D01*
X134083333Y-112985300D02*
X134016667Y-112918633D01*
X134016667Y-112918633D02*
X133983333Y-112851966D01*
X133983333Y-112851966D02*
X133950000Y-112718633D01*
X133950000Y-112718633D02*
X133950000Y-112618633D01*
X133950000Y-112618633D02*
X133983333Y-112485300D01*
X133983333Y-112485300D02*
X134016667Y-112418633D01*
X134016667Y-112418633D02*
X134083333Y-112351966D01*
X134083333Y-112351966D02*
X134183333Y-112318633D01*
X134183333Y-112318633D02*
X134250000Y-112318633D01*
X134250000Y-112318633D02*
X134350000Y-112351966D01*
X134350000Y-112351966D02*
X134383333Y-112385300D01*
X134650000Y-112385300D02*
X134683333Y-112351966D01*
X134683333Y-112351966D02*
X134750000Y-112318633D01*
X134750000Y-112318633D02*
X134916667Y-112318633D01*
X134916667Y-112318633D02*
X134983333Y-112351966D01*
X134983333Y-112351966D02*
X135016667Y-112385300D01*
X135016667Y-112385300D02*
X135050000Y-112451966D01*
X135050000Y-112451966D02*
X135050000Y-112518633D01*
X135050000Y-112518633D02*
X135016667Y-112618633D01*
X135016667Y-112618633D02*
X134616667Y-113018633D01*
X134616667Y-113018633D02*
X135050000Y-113018633D01*
X136166666Y-102918633D02*
X136166666Y-102218633D01*
X136633333Y-102218633D02*
X136766666Y-102218633D01*
X136766666Y-102218633D02*
X136833333Y-102251966D01*
X136833333Y-102251966D02*
X136899999Y-102318633D01*
X136899999Y-102318633D02*
X136933333Y-102451966D01*
X136933333Y-102451966D02*
X136933333Y-102685300D01*
X136933333Y-102685300D02*
X136899999Y-102818633D01*
X136899999Y-102818633D02*
X136833333Y-102885300D01*
X136833333Y-102885300D02*
X136766666Y-102918633D01*
X136766666Y-102918633D02*
X136633333Y-102918633D01*
X136633333Y-102918633D02*
X136566666Y-102885300D01*
X136566666Y-102885300D02*
X136499999Y-102818633D01*
X136499999Y-102818633D02*
X136466666Y-102685300D01*
X136466666Y-102685300D02*
X136466666Y-102451966D01*
X136466666Y-102451966D02*
X136499999Y-102318633D01*
X136499999Y-102318633D02*
X136566666Y-102251966D01*
X136566666Y-102251966D02*
X136633333Y-102218633D01*
X137533332Y-102451966D02*
X137533332Y-102918633D01*
X137366666Y-102185300D02*
X137199999Y-102685300D01*
X137199999Y-102685300D02*
X137633332Y-102685300D01*
X138233333Y-102218633D02*
X137899999Y-102218633D01*
X137899999Y-102218633D02*
X137866666Y-102551966D01*
X137866666Y-102551966D02*
X137899999Y-102518633D01*
X137899999Y-102518633D02*
X137966666Y-102485300D01*
X137966666Y-102485300D02*
X138133333Y-102485300D01*
X138133333Y-102485300D02*
X138199999Y-102518633D01*
X138199999Y-102518633D02*
X138233333Y-102551966D01*
X138233333Y-102551966D02*
X138266666Y-102618633D01*
X138266666Y-102618633D02*
X138266666Y-102785300D01*
X138266666Y-102785300D02*
X138233333Y-102851966D01*
X138233333Y-102851966D02*
X138199999Y-102885300D01*
X138199999Y-102885300D02*
X138133333Y-102918633D01*
X138133333Y-102918633D02*
X137966666Y-102918633D01*
X137966666Y-102918633D02*
X137899999Y-102885300D01*
X137899999Y-102885300D02*
X137866666Y-102851966D01*
X153051966Y-77516666D02*
X153085300Y-77549999D01*
X153085300Y-77549999D02*
X153118633Y-77649999D01*
X153118633Y-77649999D02*
X153118633Y-77716666D01*
X153118633Y-77716666D02*
X153085300Y-77816666D01*
X153085300Y-77816666D02*
X153018633Y-77883333D01*
X153018633Y-77883333D02*
X152951966Y-77916666D01*
X152951966Y-77916666D02*
X152818633Y-77949999D01*
X152818633Y-77949999D02*
X152718633Y-77949999D01*
X152718633Y-77949999D02*
X152585300Y-77916666D01*
X152585300Y-77916666D02*
X152518633Y-77883333D01*
X152518633Y-77883333D02*
X152451966Y-77816666D01*
X152451966Y-77816666D02*
X152418633Y-77716666D01*
X152418633Y-77716666D02*
X152418633Y-77649999D01*
X152418633Y-77649999D02*
X152451966Y-77549999D01*
X152451966Y-77549999D02*
X152485300Y-77516666D01*
X153118633Y-77183333D02*
X153118633Y-77049999D01*
X153118633Y-77049999D02*
X153085300Y-76983333D01*
X153085300Y-76983333D02*
X153051966Y-76949999D01*
X153051966Y-76949999D02*
X152951966Y-76883333D01*
X152951966Y-76883333D02*
X152818633Y-76849999D01*
X152818633Y-76849999D02*
X152551966Y-76849999D01*
X152551966Y-76849999D02*
X152485300Y-76883333D01*
X152485300Y-76883333D02*
X152451966Y-76916666D01*
X152451966Y-76916666D02*
X152418633Y-76983333D01*
X152418633Y-76983333D02*
X152418633Y-77116666D01*
X152418633Y-77116666D02*
X152451966Y-77183333D01*
X152451966Y-77183333D02*
X152485300Y-77216666D01*
X152485300Y-77216666D02*
X152551966Y-77249999D01*
X152551966Y-77249999D02*
X152718633Y-77249999D01*
X152718633Y-77249999D02*
X152785300Y-77216666D01*
X152785300Y-77216666D02*
X152818633Y-77183333D01*
X152818633Y-77183333D02*
X152851966Y-77116666D01*
X152851966Y-77116666D02*
X152851966Y-76983333D01*
X152851966Y-76983333D02*
X152818633Y-76916666D01*
X152818633Y-76916666D02*
X152785300Y-76883333D01*
X152785300Y-76883333D02*
X152718633Y-76849999D01*
X153168633Y-54016666D02*
X152835300Y-54249999D01*
X153168633Y-54416666D02*
X152468633Y-54416666D01*
X152468633Y-54416666D02*
X152468633Y-54149999D01*
X152468633Y-54149999D02*
X152501966Y-54083333D01*
X152501966Y-54083333D02*
X152535300Y-54049999D01*
X152535300Y-54049999D02*
X152601966Y-54016666D01*
X152601966Y-54016666D02*
X152701966Y-54016666D01*
X152701966Y-54016666D02*
X152768633Y-54049999D01*
X152768633Y-54049999D02*
X152801966Y-54083333D01*
X152801966Y-54083333D02*
X152835300Y-54149999D01*
X152835300Y-54149999D02*
X152835300Y-54416666D01*
X153168633Y-53683333D02*
X153168633Y-53549999D01*
X153168633Y-53549999D02*
X153135300Y-53483333D01*
X153135300Y-53483333D02*
X153101966Y-53449999D01*
X153101966Y-53449999D02*
X153001966Y-53383333D01*
X153001966Y-53383333D02*
X152868633Y-53349999D01*
X152868633Y-53349999D02*
X152601966Y-53349999D01*
X152601966Y-53349999D02*
X152535300Y-53383333D01*
X152535300Y-53383333D02*
X152501966Y-53416666D01*
X152501966Y-53416666D02*
X152468633Y-53483333D01*
X152468633Y-53483333D02*
X152468633Y-53616666D01*
X152468633Y-53616666D02*
X152501966Y-53683333D01*
X152501966Y-53683333D02*
X152535300Y-53716666D01*
X152535300Y-53716666D02*
X152601966Y-53749999D01*
X152601966Y-53749999D02*
X152768633Y-53749999D01*
X152768633Y-53749999D02*
X152835300Y-53716666D01*
X152835300Y-53716666D02*
X152868633Y-53683333D01*
X152868633Y-53683333D02*
X152901966Y-53616666D01*
X152901966Y-53616666D02*
X152901966Y-53483333D01*
X152901966Y-53483333D02*
X152868633Y-53416666D01*
X152868633Y-53416666D02*
X152835300Y-53383333D01*
X152835300Y-53383333D02*
X152768633Y-53349999D01*
X138118633Y-119370833D02*
X138685300Y-119370833D01*
X138685300Y-119370833D02*
X138751966Y-119337500D01*
X138751966Y-119337500D02*
X138785300Y-119304166D01*
X138785300Y-119304166D02*
X138818633Y-119237500D01*
X138818633Y-119237500D02*
X138818633Y-119104166D01*
X138818633Y-119104166D02*
X138785300Y-119037500D01*
X138785300Y-119037500D02*
X138751966Y-119004166D01*
X138751966Y-119004166D02*
X138685300Y-118970833D01*
X138685300Y-118970833D02*
X138118633Y-118970833D01*
X138118633Y-118704167D02*
X138118633Y-118270833D01*
X138118633Y-118270833D02*
X138385300Y-118504167D01*
X138385300Y-118504167D02*
X138385300Y-118404167D01*
X138385300Y-118404167D02*
X138418633Y-118337500D01*
X138418633Y-118337500D02*
X138451966Y-118304167D01*
X138451966Y-118304167D02*
X138518633Y-118270833D01*
X138518633Y-118270833D02*
X138685300Y-118270833D01*
X138685300Y-118270833D02*
X138751966Y-118304167D01*
X138751966Y-118304167D02*
X138785300Y-118337500D01*
X138785300Y-118337500D02*
X138818633Y-118404167D01*
X138818633Y-118404167D02*
X138818633Y-118604167D01*
X138818633Y-118604167D02*
X138785300Y-118670833D01*
X138785300Y-118670833D02*
X138751966Y-118704167D01*
X142861133Y-69473333D02*
X143427800Y-69473333D01*
X143427800Y-69473333D02*
X143494466Y-69440000D01*
X143494466Y-69440000D02*
X143527800Y-69406666D01*
X143527800Y-69406666D02*
X143561133Y-69340000D01*
X143561133Y-69340000D02*
X143561133Y-69206666D01*
X143561133Y-69206666D02*
X143527800Y-69140000D01*
X143527800Y-69140000D02*
X143494466Y-69106666D01*
X143494466Y-69106666D02*
X143427800Y-69073333D01*
X143427800Y-69073333D02*
X142861133Y-69073333D01*
X143094466Y-68440000D02*
X143561133Y-68440000D01*
X142827800Y-68606667D02*
X143327800Y-68773333D01*
X143327800Y-68773333D02*
X143327800Y-68340000D01*
X133535300Y-105558333D02*
X133568633Y-105458333D01*
X133568633Y-105458333D02*
X133568633Y-105291667D01*
X133568633Y-105291667D02*
X133535300Y-105225000D01*
X133535300Y-105225000D02*
X133501966Y-105191667D01*
X133501966Y-105191667D02*
X133435300Y-105158333D01*
X133435300Y-105158333D02*
X133368633Y-105158333D01*
X133368633Y-105158333D02*
X133301966Y-105191667D01*
X133301966Y-105191667D02*
X133268633Y-105225000D01*
X133268633Y-105225000D02*
X133235300Y-105291667D01*
X133235300Y-105291667D02*
X133201966Y-105425000D01*
X133201966Y-105425000D02*
X133168633Y-105491667D01*
X133168633Y-105491667D02*
X133135300Y-105525000D01*
X133135300Y-105525000D02*
X133068633Y-105558333D01*
X133068633Y-105558333D02*
X133001966Y-105558333D01*
X133001966Y-105558333D02*
X132935300Y-105525000D01*
X132935300Y-105525000D02*
X132901966Y-105491667D01*
X132901966Y-105491667D02*
X132868633Y-105425000D01*
X132868633Y-105425000D02*
X132868633Y-105258333D01*
X132868633Y-105258333D02*
X132901966Y-105158333D01*
X132868633Y-104925000D02*
X133568633Y-104758333D01*
X133568633Y-104758333D02*
X133068633Y-104625000D01*
X133068633Y-104625000D02*
X133568633Y-104491666D01*
X133568633Y-104491666D02*
X132868633Y-104325000D01*
X133568633Y-103691666D02*
X133568633Y-104091666D01*
X133568633Y-103891666D02*
X132868633Y-103891666D01*
X132868633Y-103891666D02*
X132968633Y-103958333D01*
X132968633Y-103958333D02*
X133035300Y-104025000D01*
X133035300Y-104025000D02*
X133068633Y-104091666D01*
X146363333Y-115295300D02*
X146296666Y-115261966D01*
X146296666Y-115261966D02*
X146230000Y-115195300D01*
X146230000Y-115195300D02*
X146130000Y-115095300D01*
X146130000Y-115095300D02*
X146063333Y-115061966D01*
X146063333Y-115061966D02*
X145996666Y-115061966D01*
X146030000Y-115228633D02*
X145963333Y-115195300D01*
X145963333Y-115195300D02*
X145896666Y-115128633D01*
X145896666Y-115128633D02*
X145863333Y-114995300D01*
X145863333Y-114995300D02*
X145863333Y-114761966D01*
X145863333Y-114761966D02*
X145896666Y-114628633D01*
X145896666Y-114628633D02*
X145963333Y-114561966D01*
X145963333Y-114561966D02*
X146030000Y-114528633D01*
X146030000Y-114528633D02*
X146163333Y-114528633D01*
X146163333Y-114528633D02*
X146230000Y-114561966D01*
X146230000Y-114561966D02*
X146296666Y-114628633D01*
X146296666Y-114628633D02*
X146330000Y-114761966D01*
X146330000Y-114761966D02*
X146330000Y-114995300D01*
X146330000Y-114995300D02*
X146296666Y-115128633D01*
X146296666Y-115128633D02*
X146230000Y-115195300D01*
X146230000Y-115195300D02*
X146163333Y-115228633D01*
X146163333Y-115228633D02*
X146030000Y-115228633D01*
X146996666Y-115228633D02*
X146596666Y-115228633D01*
X146796666Y-115228633D02*
X146796666Y-114528633D01*
X146796666Y-114528633D02*
X146729999Y-114628633D01*
X146729999Y-114628633D02*
X146663333Y-114695300D01*
X146663333Y-114695300D02*
X146596666Y-114728633D01*
X144649999Y-73991966D02*
X144616666Y-74025300D01*
X144616666Y-74025300D02*
X144516666Y-74058633D01*
X144516666Y-74058633D02*
X144449999Y-74058633D01*
X144449999Y-74058633D02*
X144349999Y-74025300D01*
X144349999Y-74025300D02*
X144283333Y-73958633D01*
X144283333Y-73958633D02*
X144249999Y-73891966D01*
X144249999Y-73891966D02*
X144216666Y-73758633D01*
X144216666Y-73758633D02*
X144216666Y-73658633D01*
X144216666Y-73658633D02*
X144249999Y-73525300D01*
X144249999Y-73525300D02*
X144283333Y-73458633D01*
X144283333Y-73458633D02*
X144349999Y-73391966D01*
X144349999Y-73391966D02*
X144449999Y-73358633D01*
X144449999Y-73358633D02*
X144516666Y-73358633D01*
X144516666Y-73358633D02*
X144616666Y-73391966D01*
X144616666Y-73391966D02*
X144649999Y-73425300D01*
X145316666Y-74058633D02*
X144916666Y-74058633D01*
X145116666Y-74058633D02*
X145116666Y-73358633D01*
X145116666Y-73358633D02*
X145049999Y-73458633D01*
X145049999Y-73458633D02*
X144983333Y-73525300D01*
X144983333Y-73525300D02*
X144916666Y-73558633D01*
X145916666Y-73591966D02*
X145916666Y-74058633D01*
X145750000Y-73325300D02*
X145583333Y-73825300D01*
X145583333Y-73825300D02*
X146016666Y-73825300D01*
X151418633Y-75545833D02*
X151985300Y-75545833D01*
X151985300Y-75545833D02*
X152051966Y-75512500D01*
X152051966Y-75512500D02*
X152085300Y-75479166D01*
X152085300Y-75479166D02*
X152118633Y-75412500D01*
X152118633Y-75412500D02*
X152118633Y-75279166D01*
X152118633Y-75279166D02*
X152085300Y-75212500D01*
X152085300Y-75212500D02*
X152051966Y-75179166D01*
X152051966Y-75179166D02*
X151985300Y-75145833D01*
X151985300Y-75145833D02*
X151418633Y-75145833D01*
X151418633Y-74512500D02*
X151418633Y-74645833D01*
X151418633Y-74645833D02*
X151451966Y-74712500D01*
X151451966Y-74712500D02*
X151485300Y-74745833D01*
X151485300Y-74745833D02*
X151585300Y-74812500D01*
X151585300Y-74812500D02*
X151718633Y-74845833D01*
X151718633Y-74845833D02*
X151985300Y-74845833D01*
X151985300Y-74845833D02*
X152051966Y-74812500D01*
X152051966Y-74812500D02*
X152085300Y-74779167D01*
X152085300Y-74779167D02*
X152118633Y-74712500D01*
X152118633Y-74712500D02*
X152118633Y-74579167D01*
X152118633Y-74579167D02*
X152085300Y-74512500D01*
X152085300Y-74512500D02*
X152051966Y-74479167D01*
X152051966Y-74479167D02*
X151985300Y-74445833D01*
X151985300Y-74445833D02*
X151818633Y-74445833D01*
X151818633Y-74445833D02*
X151751966Y-74479167D01*
X151751966Y-74479167D02*
X151718633Y-74512500D01*
X151718633Y-74512500D02*
X151685300Y-74579167D01*
X151685300Y-74579167D02*
X151685300Y-74712500D01*
X151685300Y-74712500D02*
X151718633Y-74779167D01*
X151718633Y-74779167D02*
X151751966Y-74812500D01*
X151751966Y-74812500D02*
X151818633Y-74845833D01*
X148300000Y-83158633D02*
X148300000Y-82458633D01*
X148766667Y-82458633D02*
X148900000Y-82458633D01*
X148900000Y-82458633D02*
X148966667Y-82491966D01*
X148966667Y-82491966D02*
X149033333Y-82558633D01*
X149033333Y-82558633D02*
X149066667Y-82691966D01*
X149066667Y-82691966D02*
X149066667Y-82925300D01*
X149066667Y-82925300D02*
X149033333Y-83058633D01*
X149033333Y-83058633D02*
X148966667Y-83125300D01*
X148966667Y-83125300D02*
X148900000Y-83158633D01*
X148900000Y-83158633D02*
X148766667Y-83158633D01*
X148766667Y-83158633D02*
X148700000Y-83125300D01*
X148700000Y-83125300D02*
X148633333Y-83058633D01*
X148633333Y-83058633D02*
X148600000Y-82925300D01*
X148600000Y-82925300D02*
X148600000Y-82691966D01*
X148600000Y-82691966D02*
X148633333Y-82558633D01*
X148633333Y-82558633D02*
X148700000Y-82491966D01*
X148700000Y-82491966D02*
X148766667Y-82458633D01*
X149666666Y-82458633D02*
X149533333Y-82458633D01*
X149533333Y-82458633D02*
X149466666Y-82491966D01*
X149466666Y-82491966D02*
X149433333Y-82525300D01*
X149433333Y-82525300D02*
X149366666Y-82625300D01*
X149366666Y-82625300D02*
X149333333Y-82758633D01*
X149333333Y-82758633D02*
X149333333Y-83025300D01*
X149333333Y-83025300D02*
X149366666Y-83091966D01*
X149366666Y-83091966D02*
X149400000Y-83125300D01*
X149400000Y-83125300D02*
X149466666Y-83158633D01*
X149466666Y-83158633D02*
X149600000Y-83158633D01*
X149600000Y-83158633D02*
X149666666Y-83125300D01*
X149666666Y-83125300D02*
X149700000Y-83091966D01*
X149700000Y-83091966D02*
X149733333Y-83025300D01*
X149733333Y-83025300D02*
X149733333Y-82858633D01*
X149733333Y-82858633D02*
X149700000Y-82791966D01*
X149700000Y-82791966D02*
X149666666Y-82758633D01*
X149666666Y-82758633D02*
X149600000Y-82725300D01*
X149600000Y-82725300D02*
X149466666Y-82725300D01*
X149466666Y-82725300D02*
X149400000Y-82758633D01*
X149400000Y-82758633D02*
X149366666Y-82791966D01*
X149366666Y-82791966D02*
X149333333Y-82858633D01*
X149366666Y-106218633D02*
X149366666Y-105518633D01*
X149833333Y-105518633D02*
X149966666Y-105518633D01*
X149966666Y-105518633D02*
X150033333Y-105551966D01*
X150033333Y-105551966D02*
X150099999Y-105618633D01*
X150099999Y-105618633D02*
X150133333Y-105751966D01*
X150133333Y-105751966D02*
X150133333Y-105985300D01*
X150133333Y-105985300D02*
X150099999Y-106118633D01*
X150099999Y-106118633D02*
X150033333Y-106185300D01*
X150033333Y-106185300D02*
X149966666Y-106218633D01*
X149966666Y-106218633D02*
X149833333Y-106218633D01*
X149833333Y-106218633D02*
X149766666Y-106185300D01*
X149766666Y-106185300D02*
X149699999Y-106118633D01*
X149699999Y-106118633D02*
X149666666Y-105985300D01*
X149666666Y-105985300D02*
X149666666Y-105751966D01*
X149666666Y-105751966D02*
X149699999Y-105618633D01*
X149699999Y-105618633D02*
X149766666Y-105551966D01*
X149766666Y-105551966D02*
X149833333Y-105518633D01*
X150733332Y-105751966D02*
X150733332Y-106218633D01*
X150566666Y-105485300D02*
X150399999Y-105985300D01*
X150399999Y-105985300D02*
X150833332Y-105985300D01*
X151066666Y-105585300D02*
X151099999Y-105551966D01*
X151099999Y-105551966D02*
X151166666Y-105518633D01*
X151166666Y-105518633D02*
X151333333Y-105518633D01*
X151333333Y-105518633D02*
X151399999Y-105551966D01*
X151399999Y-105551966D02*
X151433333Y-105585300D01*
X151433333Y-105585300D02*
X151466666Y-105651966D01*
X151466666Y-105651966D02*
X151466666Y-105718633D01*
X151466666Y-105718633D02*
X151433333Y-105818633D01*
X151433333Y-105818633D02*
X151033333Y-106218633D01*
X151033333Y-106218633D02*
X151466666Y-106218633D01*
X152571966Y-127123333D02*
X152571966Y-127356666D01*
X152938633Y-127356666D02*
X152238633Y-127356666D01*
X152238633Y-127356666D02*
X152238633Y-127023333D01*
X152238633Y-126823333D02*
X152238633Y-126389999D01*
X152238633Y-126389999D02*
X152505300Y-126623333D01*
X152505300Y-126623333D02*
X152505300Y-126523333D01*
X152505300Y-126523333D02*
X152538633Y-126456666D01*
X152538633Y-126456666D02*
X152571966Y-126423333D01*
X152571966Y-126423333D02*
X152638633Y-126389999D01*
X152638633Y-126389999D02*
X152805300Y-126389999D01*
X152805300Y-126389999D02*
X152871966Y-126423333D01*
X152871966Y-126423333D02*
X152905300Y-126456666D01*
X152905300Y-126456666D02*
X152938633Y-126523333D01*
X152938633Y-126523333D02*
X152938633Y-126723333D01*
X152938633Y-126723333D02*
X152905300Y-126789999D01*
X152905300Y-126789999D02*
X152871966Y-126823333D01*
D11*
X153731009Y-109469047D02*
X153778628Y-109326190D01*
X153778628Y-109326190D02*
X153826247Y-109278571D01*
X153826247Y-109278571D02*
X153921485Y-109230952D01*
X153921485Y-109230952D02*
X154064342Y-109230952D01*
X154064342Y-109230952D02*
X154159580Y-109278571D01*
X154159580Y-109278571D02*
X154207200Y-109326190D01*
X154207200Y-109326190D02*
X154254819Y-109421428D01*
X154254819Y-109421428D02*
X154254819Y-109802380D01*
X154254819Y-109802380D02*
X153254819Y-109802380D01*
X153254819Y-109802380D02*
X153254819Y-109469047D01*
X153254819Y-109469047D02*
X153302438Y-109373809D01*
X153302438Y-109373809D02*
X153350057Y-109326190D01*
X153350057Y-109326190D02*
X153445295Y-109278571D01*
X153445295Y-109278571D02*
X153540533Y-109278571D01*
X153540533Y-109278571D02*
X153635771Y-109326190D01*
X153635771Y-109326190D02*
X153683390Y-109373809D01*
X153683390Y-109373809D02*
X153731009Y-109469047D01*
X153731009Y-109469047D02*
X153731009Y-109802380D01*
X153254819Y-108897618D02*
X153254819Y-108230952D01*
X153254819Y-108230952D02*
X154254819Y-108897618D01*
X154254819Y-108897618D02*
X154254819Y-108230952D01*
X153254819Y-107992856D02*
X153254819Y-107421428D01*
X154254819Y-107707142D02*
X153254819Y-107707142D01*
X153254819Y-106611904D02*
X153254819Y-107088094D01*
X153254819Y-107088094D02*
X153731009Y-107135713D01*
X153731009Y-107135713D02*
X153683390Y-107088094D01*
X153683390Y-107088094D02*
X153635771Y-106992856D01*
X153635771Y-106992856D02*
X153635771Y-106754761D01*
X153635771Y-106754761D02*
X153683390Y-106659523D01*
X153683390Y-106659523D02*
X153731009Y-106611904D01*
X153731009Y-106611904D02*
X153826247Y-106564285D01*
X153826247Y-106564285D02*
X154064342Y-106564285D01*
X154064342Y-106564285D02*
X154159580Y-106611904D01*
X154159580Y-106611904D02*
X154207200Y-106659523D01*
X154207200Y-106659523D02*
X154254819Y-106754761D01*
X154254819Y-106754761D02*
X154254819Y-106992856D01*
X154254819Y-106992856D02*
X154207200Y-107088094D01*
X154207200Y-107088094D02*
X154159580Y-107135713D01*
X153350057Y-106183332D02*
X153302438Y-106135713D01*
X153302438Y-106135713D02*
X153254819Y-106040475D01*
X153254819Y-106040475D02*
X153254819Y-105802380D01*
X153254819Y-105802380D02*
X153302438Y-105707142D01*
X153302438Y-105707142D02*
X153350057Y-105659523D01*
X153350057Y-105659523D02*
X153445295Y-105611904D01*
X153445295Y-105611904D02*
X153540533Y-105611904D01*
X153540533Y-105611904D02*
X153683390Y-105659523D01*
X153683390Y-105659523D02*
X154254819Y-106230951D01*
X154254819Y-106230951D02*
X154254819Y-105611904D01*
X154159580Y-104611904D02*
X154207200Y-104659523D01*
X154207200Y-104659523D02*
X154254819Y-104802380D01*
X154254819Y-104802380D02*
X154254819Y-104897618D01*
X154254819Y-104897618D02*
X154207200Y-105040475D01*
X154207200Y-105040475D02*
X154111961Y-105135713D01*
X154111961Y-105135713D02*
X154016723Y-105183332D01*
X154016723Y-105183332D02*
X153826247Y-105230951D01*
X153826247Y-105230951D02*
X153683390Y-105230951D01*
X153683390Y-105230951D02*
X153492914Y-105183332D01*
X153492914Y-105183332D02*
X153397676Y-105135713D01*
X153397676Y-105135713D02*
X153302438Y-105040475D01*
X153302438Y-105040475D02*
X153254819Y-104897618D01*
X153254819Y-104897618D02*
X153254819Y-104802380D01*
X153254819Y-104802380D02*
X153302438Y-104659523D01*
X153302438Y-104659523D02*
X153350057Y-104611904D01*
X153254819Y-104278570D02*
X153254819Y-103659523D01*
X153254819Y-103659523D02*
X153635771Y-103992856D01*
X153635771Y-103992856D02*
X153635771Y-103849999D01*
X153635771Y-103849999D02*
X153683390Y-103754761D01*
X153683390Y-103754761D02*
X153731009Y-103707142D01*
X153731009Y-103707142D02*
X153826247Y-103659523D01*
X153826247Y-103659523D02*
X154064342Y-103659523D01*
X154064342Y-103659523D02*
X154159580Y-103707142D01*
X154159580Y-103707142D02*
X154207200Y-103754761D01*
X154207200Y-103754761D02*
X154254819Y-103849999D01*
X154254819Y-103849999D02*
X154254819Y-104135713D01*
X154254819Y-104135713D02*
X154207200Y-104230951D01*
X154207200Y-104230951D02*
X154159580Y-104278570D01*
X153254819Y-103373808D02*
X154254819Y-103040475D01*
X154254819Y-103040475D02*
X153254819Y-102707142D01*
X153254819Y-102469046D02*
X153254819Y-101849999D01*
X153254819Y-101849999D02*
X153635771Y-102183332D01*
X153635771Y-102183332D02*
X153635771Y-102040475D01*
X153635771Y-102040475D02*
X153683390Y-101945237D01*
X153683390Y-101945237D02*
X153731009Y-101897618D01*
X153731009Y-101897618D02*
X153826247Y-101849999D01*
X153826247Y-101849999D02*
X154064342Y-101849999D01*
X154064342Y-101849999D02*
X154159580Y-101897618D01*
X154159580Y-101897618D02*
X154207200Y-101945237D01*
X154207200Y-101945237D02*
X154254819Y-102040475D01*
X154254819Y-102040475D02*
X154254819Y-102326189D01*
X154254819Y-102326189D02*
X154207200Y-102421427D01*
X154207200Y-102421427D02*
X154159580Y-102469046D01*
X158354819Y-106588094D02*
X157354819Y-106588094D01*
X157354819Y-106588094D02*
X157354819Y-106349999D01*
X157354819Y-106349999D02*
X157402438Y-106207142D01*
X157402438Y-106207142D02*
X157497676Y-106111904D01*
X157497676Y-106111904D02*
X157592914Y-106064285D01*
X157592914Y-106064285D02*
X157783390Y-106016666D01*
X157783390Y-106016666D02*
X157926247Y-106016666D01*
X157926247Y-106016666D02*
X158116723Y-106064285D01*
X158116723Y-106064285D02*
X158211961Y-106111904D01*
X158211961Y-106111904D02*
X158307200Y-106207142D01*
X158307200Y-106207142D02*
X158354819Y-106349999D01*
X158354819Y-106349999D02*
X158354819Y-106588094D01*
X157354819Y-105683332D02*
X157354819Y-105064285D01*
X157354819Y-105064285D02*
X157735771Y-105397618D01*
X157735771Y-105397618D02*
X157735771Y-105254761D01*
X157735771Y-105254761D02*
X157783390Y-105159523D01*
X157783390Y-105159523D02*
X157831009Y-105111904D01*
X157831009Y-105111904D02*
X157926247Y-105064285D01*
X157926247Y-105064285D02*
X158164342Y-105064285D01*
X158164342Y-105064285D02*
X158259580Y-105111904D01*
X158259580Y-105111904D02*
X158307200Y-105159523D01*
X158307200Y-105159523D02*
X158354819Y-105254761D01*
X158354819Y-105254761D02*
X158354819Y-105540475D01*
X158354819Y-105540475D02*
X158307200Y-105635713D01*
X158307200Y-105635713D02*
X158259580Y-105683332D01*
D10*
X151068633Y-49216666D02*
X150368633Y-49216666D01*
X150368633Y-49216666D02*
X150368633Y-49049999D01*
X150368633Y-49049999D02*
X150401966Y-48949999D01*
X150401966Y-48949999D02*
X150468633Y-48883333D01*
X150468633Y-48883333D02*
X150535300Y-48849999D01*
X150535300Y-48849999D02*
X150668633Y-48816666D01*
X150668633Y-48816666D02*
X150768633Y-48816666D01*
X150768633Y-48816666D02*
X150901966Y-48849999D01*
X150901966Y-48849999D02*
X150968633Y-48883333D01*
X150968633Y-48883333D02*
X151035300Y-48949999D01*
X151035300Y-48949999D02*
X151068633Y-49049999D01*
X151068633Y-49049999D02*
X151068633Y-49216666D01*
X150668633Y-48416666D02*
X150635300Y-48483333D01*
X150635300Y-48483333D02*
X150601966Y-48516666D01*
X150601966Y-48516666D02*
X150535300Y-48549999D01*
X150535300Y-48549999D02*
X150501966Y-48549999D01*
X150501966Y-48549999D02*
X150435300Y-48516666D01*
X150435300Y-48516666D02*
X150401966Y-48483333D01*
X150401966Y-48483333D02*
X150368633Y-48416666D01*
X150368633Y-48416666D02*
X150368633Y-48283333D01*
X150368633Y-48283333D02*
X150401966Y-48216666D01*
X150401966Y-48216666D02*
X150435300Y-48183333D01*
X150435300Y-48183333D02*
X150501966Y-48149999D01*
X150501966Y-48149999D02*
X150535300Y-48149999D01*
X150535300Y-48149999D02*
X150601966Y-48183333D01*
X150601966Y-48183333D02*
X150635300Y-48216666D01*
X150635300Y-48216666D02*
X150668633Y-48283333D01*
X150668633Y-48283333D02*
X150668633Y-48416666D01*
X150668633Y-48416666D02*
X150701966Y-48483333D01*
X150701966Y-48483333D02*
X150735300Y-48516666D01*
X150735300Y-48516666D02*
X150801966Y-48549999D01*
X150801966Y-48549999D02*
X150935300Y-48549999D01*
X150935300Y-48549999D02*
X151001966Y-48516666D01*
X151001966Y-48516666D02*
X151035300Y-48483333D01*
X151035300Y-48483333D02*
X151068633Y-48416666D01*
X151068633Y-48416666D02*
X151068633Y-48283333D01*
X151068633Y-48283333D02*
X151035300Y-48216666D01*
X151035300Y-48216666D02*
X151001966Y-48183333D01*
X151001966Y-48183333D02*
X150935300Y-48149999D01*
X150935300Y-48149999D02*
X150801966Y-48149999D01*
X150801966Y-48149999D02*
X150735300Y-48183333D01*
X150735300Y-48183333D02*
X150701966Y-48216666D01*
X150701966Y-48216666D02*
X150668633Y-48283333D01*
X132068633Y-53750000D02*
X131735300Y-53983333D01*
X132068633Y-54150000D02*
X131368633Y-54150000D01*
X131368633Y-54150000D02*
X131368633Y-53883333D01*
X131368633Y-53883333D02*
X131401966Y-53816667D01*
X131401966Y-53816667D02*
X131435300Y-53783333D01*
X131435300Y-53783333D02*
X131501966Y-53750000D01*
X131501966Y-53750000D02*
X131601966Y-53750000D01*
X131601966Y-53750000D02*
X131668633Y-53783333D01*
X131668633Y-53783333D02*
X131701966Y-53816667D01*
X131701966Y-53816667D02*
X131735300Y-53883333D01*
X131735300Y-53883333D02*
X131735300Y-54150000D01*
X131435300Y-53483333D02*
X131401966Y-53450000D01*
X131401966Y-53450000D02*
X131368633Y-53383333D01*
X131368633Y-53383333D02*
X131368633Y-53216667D01*
X131368633Y-53216667D02*
X131401966Y-53150000D01*
X131401966Y-53150000D02*
X131435300Y-53116667D01*
X131435300Y-53116667D02*
X131501966Y-53083333D01*
X131501966Y-53083333D02*
X131568633Y-53083333D01*
X131568633Y-53083333D02*
X131668633Y-53116667D01*
X131668633Y-53116667D02*
X132068633Y-53516667D01*
X132068633Y-53516667D02*
X132068633Y-53083333D01*
X131435300Y-52816666D02*
X131401966Y-52783333D01*
X131401966Y-52783333D02*
X131368633Y-52716666D01*
X131368633Y-52716666D02*
X131368633Y-52550000D01*
X131368633Y-52550000D02*
X131401966Y-52483333D01*
X131401966Y-52483333D02*
X131435300Y-52450000D01*
X131435300Y-52450000D02*
X131501966Y-52416666D01*
X131501966Y-52416666D02*
X131568633Y-52416666D01*
X131568633Y-52416666D02*
X131668633Y-52450000D01*
X131668633Y-52450000D02*
X132068633Y-52850000D01*
X132068633Y-52850000D02*
X132068633Y-52416666D01*
X144383333Y-112518633D02*
X144150000Y-112185300D01*
X143983333Y-112518633D02*
X143983333Y-111818633D01*
X143983333Y-111818633D02*
X144250000Y-111818633D01*
X144250000Y-111818633D02*
X144316667Y-111851966D01*
X144316667Y-111851966D02*
X144350000Y-111885300D01*
X144350000Y-111885300D02*
X144383333Y-111951966D01*
X144383333Y-111951966D02*
X144383333Y-112051966D01*
X144383333Y-112051966D02*
X144350000Y-112118633D01*
X144350000Y-112118633D02*
X144316667Y-112151966D01*
X144316667Y-112151966D02*
X144250000Y-112185300D01*
X144250000Y-112185300D02*
X143983333Y-112185300D01*
X145016667Y-111818633D02*
X144683333Y-111818633D01*
X144683333Y-111818633D02*
X144650000Y-112151966D01*
X144650000Y-112151966D02*
X144683333Y-112118633D01*
X144683333Y-112118633D02*
X144750000Y-112085300D01*
X144750000Y-112085300D02*
X144916667Y-112085300D01*
X144916667Y-112085300D02*
X144983333Y-112118633D01*
X144983333Y-112118633D02*
X145016667Y-112151966D01*
X145016667Y-112151966D02*
X145050000Y-112218633D01*
X145050000Y-112218633D02*
X145050000Y-112385300D01*
X145050000Y-112385300D02*
X145016667Y-112451966D01*
X145016667Y-112451966D02*
X144983333Y-112485300D01*
X144983333Y-112485300D02*
X144916667Y-112518633D01*
X144916667Y-112518633D02*
X144750000Y-112518633D01*
X144750000Y-112518633D02*
X144683333Y-112485300D01*
X144683333Y-112485300D02*
X144650000Y-112451966D01*
X162678633Y-60763333D02*
X163178633Y-60763333D01*
X163178633Y-60763333D02*
X163278633Y-60796666D01*
X163278633Y-60796666D02*
X163345300Y-60863333D01*
X163345300Y-60863333D02*
X163378633Y-60963333D01*
X163378633Y-60963333D02*
X163378633Y-61030000D01*
X162678633Y-60096667D02*
X162678633Y-60430000D01*
X162678633Y-60430000D02*
X163011966Y-60463333D01*
X163011966Y-60463333D02*
X162978633Y-60430000D01*
X162978633Y-60430000D02*
X162945300Y-60363333D01*
X162945300Y-60363333D02*
X162945300Y-60196667D01*
X162945300Y-60196667D02*
X162978633Y-60130000D01*
X162978633Y-60130000D02*
X163011966Y-60096667D01*
X163011966Y-60096667D02*
X163078633Y-60063333D01*
X163078633Y-60063333D02*
X163245300Y-60063333D01*
X163245300Y-60063333D02*
X163311966Y-60096667D01*
X163311966Y-60096667D02*
X163345300Y-60130000D01*
X163345300Y-60130000D02*
X163378633Y-60196667D01*
X163378633Y-60196667D02*
X163378633Y-60363333D01*
X163378633Y-60363333D02*
X163345300Y-60430000D01*
X163345300Y-60430000D02*
X163311966Y-60463333D01*
X133866666Y-99877633D02*
X133866666Y-99177633D01*
X134333333Y-99177633D02*
X134466666Y-99177633D01*
X134466666Y-99177633D02*
X134533333Y-99210966D01*
X134533333Y-99210966D02*
X134599999Y-99277633D01*
X134599999Y-99277633D02*
X134633333Y-99410966D01*
X134633333Y-99410966D02*
X134633333Y-99644300D01*
X134633333Y-99644300D02*
X134599999Y-99777633D01*
X134599999Y-99777633D02*
X134533333Y-99844300D01*
X134533333Y-99844300D02*
X134466666Y-99877633D01*
X134466666Y-99877633D02*
X134333333Y-99877633D01*
X134333333Y-99877633D02*
X134266666Y-99844300D01*
X134266666Y-99844300D02*
X134199999Y-99777633D01*
X134199999Y-99777633D02*
X134166666Y-99644300D01*
X134166666Y-99644300D02*
X134166666Y-99410966D01*
X134166666Y-99410966D02*
X134199999Y-99277633D01*
X134199999Y-99277633D02*
X134266666Y-99210966D01*
X134266666Y-99210966D02*
X134333333Y-99177633D01*
X135233332Y-99410966D02*
X135233332Y-99877633D01*
X135066666Y-99144300D02*
X134899999Y-99644300D01*
X134899999Y-99644300D02*
X135333332Y-99644300D01*
X135699999Y-99477633D02*
X135633333Y-99444300D01*
X135633333Y-99444300D02*
X135599999Y-99410966D01*
X135599999Y-99410966D02*
X135566666Y-99344300D01*
X135566666Y-99344300D02*
X135566666Y-99310966D01*
X135566666Y-99310966D02*
X135599999Y-99244300D01*
X135599999Y-99244300D02*
X135633333Y-99210966D01*
X135633333Y-99210966D02*
X135699999Y-99177633D01*
X135699999Y-99177633D02*
X135833333Y-99177633D01*
X135833333Y-99177633D02*
X135899999Y-99210966D01*
X135899999Y-99210966D02*
X135933333Y-99244300D01*
X135933333Y-99244300D02*
X135966666Y-99310966D01*
X135966666Y-99310966D02*
X135966666Y-99344300D01*
X135966666Y-99344300D02*
X135933333Y-99410966D01*
X135933333Y-99410966D02*
X135899999Y-99444300D01*
X135899999Y-99444300D02*
X135833333Y-99477633D01*
X135833333Y-99477633D02*
X135699999Y-99477633D01*
X135699999Y-99477633D02*
X135633333Y-99510966D01*
X135633333Y-99510966D02*
X135599999Y-99544300D01*
X135599999Y-99544300D02*
X135566666Y-99610966D01*
X135566666Y-99610966D02*
X135566666Y-99744300D01*
X135566666Y-99744300D02*
X135599999Y-99810966D01*
X135599999Y-99810966D02*
X135633333Y-99844300D01*
X135633333Y-99844300D02*
X135699999Y-99877633D01*
X135699999Y-99877633D02*
X135833333Y-99877633D01*
X135833333Y-99877633D02*
X135899999Y-99844300D01*
X135899999Y-99844300D02*
X135933333Y-99810966D01*
X135933333Y-99810966D02*
X135966666Y-99744300D01*
X135966666Y-99744300D02*
X135966666Y-99610966D01*
X135966666Y-99610966D02*
X135933333Y-99544300D01*
X135933333Y-99544300D02*
X135899999Y-99510966D01*
X135899999Y-99510966D02*
X135833333Y-99477633D01*
X143449999Y-120518633D02*
X143216666Y-120185300D01*
X143049999Y-120518633D02*
X143049999Y-119818633D01*
X143049999Y-119818633D02*
X143316666Y-119818633D01*
X143316666Y-119818633D02*
X143383333Y-119851966D01*
X143383333Y-119851966D02*
X143416666Y-119885300D01*
X143416666Y-119885300D02*
X143449999Y-119951966D01*
X143449999Y-119951966D02*
X143449999Y-120051966D01*
X143449999Y-120051966D02*
X143416666Y-120118633D01*
X143416666Y-120118633D02*
X143383333Y-120151966D01*
X143383333Y-120151966D02*
X143316666Y-120185300D01*
X143316666Y-120185300D02*
X143049999Y-120185300D01*
X144116666Y-120518633D02*
X143716666Y-120518633D01*
X143916666Y-120518633D02*
X143916666Y-119818633D01*
X143916666Y-119818633D02*
X143849999Y-119918633D01*
X143849999Y-119918633D02*
X143783333Y-119985300D01*
X143783333Y-119985300D02*
X143716666Y-120018633D01*
X144716666Y-120051966D02*
X144716666Y-120518633D01*
X144550000Y-119785300D02*
X144383333Y-120285300D01*
X144383333Y-120285300D02*
X144816666Y-120285300D01*
X143425833Y-62262800D02*
X143359166Y-62229466D01*
X143359166Y-62229466D02*
X143292500Y-62162800D01*
X143292500Y-62162800D02*
X143192500Y-62062800D01*
X143192500Y-62062800D02*
X143125833Y-62029466D01*
X143125833Y-62029466D02*
X143059166Y-62029466D01*
X143092500Y-62196133D02*
X143025833Y-62162800D01*
X143025833Y-62162800D02*
X142959166Y-62096133D01*
X142959166Y-62096133D02*
X142925833Y-61962800D01*
X142925833Y-61962800D02*
X142925833Y-61729466D01*
X142925833Y-61729466D02*
X142959166Y-61596133D01*
X142959166Y-61596133D02*
X143025833Y-61529466D01*
X143025833Y-61529466D02*
X143092500Y-61496133D01*
X143092500Y-61496133D02*
X143225833Y-61496133D01*
X143225833Y-61496133D02*
X143292500Y-61529466D01*
X143292500Y-61529466D02*
X143359166Y-61596133D01*
X143359166Y-61596133D02*
X143392500Y-61729466D01*
X143392500Y-61729466D02*
X143392500Y-61962800D01*
X143392500Y-61962800D02*
X143359166Y-62096133D01*
X143359166Y-62096133D02*
X143292500Y-62162800D01*
X143292500Y-62162800D02*
X143225833Y-62196133D01*
X143225833Y-62196133D02*
X143092500Y-62196133D01*
X143625833Y-61496133D02*
X144059166Y-61496133D01*
X144059166Y-61496133D02*
X143825833Y-61762800D01*
X143825833Y-61762800D02*
X143925833Y-61762800D01*
X143925833Y-61762800D02*
X143992499Y-61796133D01*
X143992499Y-61796133D02*
X144025833Y-61829466D01*
X144025833Y-61829466D02*
X144059166Y-61896133D01*
X144059166Y-61896133D02*
X144059166Y-62062800D01*
X144059166Y-62062800D02*
X144025833Y-62129466D01*
X144025833Y-62129466D02*
X143992499Y-62162800D01*
X143992499Y-62162800D02*
X143925833Y-62196133D01*
X143925833Y-62196133D02*
X143725833Y-62196133D01*
X143725833Y-62196133D02*
X143659166Y-62162800D01*
X143659166Y-62162800D02*
X143625833Y-62129466D01*
X148849999Y-117718633D02*
X148616666Y-117385300D01*
X148449999Y-117718633D02*
X148449999Y-117018633D01*
X148449999Y-117018633D02*
X148716666Y-117018633D01*
X148716666Y-117018633D02*
X148783333Y-117051966D01*
X148783333Y-117051966D02*
X148816666Y-117085300D01*
X148816666Y-117085300D02*
X148849999Y-117151966D01*
X148849999Y-117151966D02*
X148849999Y-117251966D01*
X148849999Y-117251966D02*
X148816666Y-117318633D01*
X148816666Y-117318633D02*
X148783333Y-117351966D01*
X148783333Y-117351966D02*
X148716666Y-117385300D01*
X148716666Y-117385300D02*
X148449999Y-117385300D01*
X149116666Y-117085300D02*
X149149999Y-117051966D01*
X149149999Y-117051966D02*
X149216666Y-117018633D01*
X149216666Y-117018633D02*
X149383333Y-117018633D01*
X149383333Y-117018633D02*
X149449999Y-117051966D01*
X149449999Y-117051966D02*
X149483333Y-117085300D01*
X149483333Y-117085300D02*
X149516666Y-117151966D01*
X149516666Y-117151966D02*
X149516666Y-117218633D01*
X149516666Y-117218633D02*
X149483333Y-117318633D01*
X149483333Y-117318633D02*
X149083333Y-117718633D01*
X149083333Y-117718633D02*
X149516666Y-117718633D01*
X150116666Y-117018633D02*
X149983333Y-117018633D01*
X149983333Y-117018633D02*
X149916666Y-117051966D01*
X149916666Y-117051966D02*
X149883333Y-117085300D01*
X149883333Y-117085300D02*
X149816666Y-117185300D01*
X149816666Y-117185300D02*
X149783333Y-117318633D01*
X149783333Y-117318633D02*
X149783333Y-117585300D01*
X149783333Y-117585300D02*
X149816666Y-117651966D01*
X149816666Y-117651966D02*
X149850000Y-117685300D01*
X149850000Y-117685300D02*
X149916666Y-117718633D01*
X149916666Y-117718633D02*
X150050000Y-117718633D01*
X150050000Y-117718633D02*
X150116666Y-117685300D01*
X150116666Y-117685300D02*
X150150000Y-117651966D01*
X150150000Y-117651966D02*
X150183333Y-117585300D01*
X150183333Y-117585300D02*
X150183333Y-117418633D01*
X150183333Y-117418633D02*
X150150000Y-117351966D01*
X150150000Y-117351966D02*
X150116666Y-117318633D01*
X150116666Y-117318633D02*
X150050000Y-117285300D01*
X150050000Y-117285300D02*
X149916666Y-117285300D01*
X149916666Y-117285300D02*
X149850000Y-117318633D01*
X149850000Y-117318633D02*
X149816666Y-117351966D01*
X149816666Y-117351966D02*
X149783333Y-117418633D01*
D11*
X141694819Y-81172618D02*
X141694819Y-81077380D01*
X141694819Y-81077380D02*
X141742438Y-80982142D01*
X141742438Y-80982142D02*
X141790057Y-80934523D01*
X141790057Y-80934523D02*
X141885295Y-80886904D01*
X141885295Y-80886904D02*
X142075771Y-80839285D01*
X142075771Y-80839285D02*
X142313866Y-80839285D01*
X142313866Y-80839285D02*
X142504342Y-80886904D01*
X142504342Y-80886904D02*
X142599580Y-80934523D01*
X142599580Y-80934523D02*
X142647200Y-80982142D01*
X142647200Y-80982142D02*
X142694819Y-81077380D01*
X142694819Y-81077380D02*
X142694819Y-81172618D01*
X142694819Y-81172618D02*
X142647200Y-81267856D01*
X142647200Y-81267856D02*
X142599580Y-81315475D01*
X142599580Y-81315475D02*
X142504342Y-81363094D01*
X142504342Y-81363094D02*
X142313866Y-81410713D01*
X142313866Y-81410713D02*
X142075771Y-81410713D01*
X142075771Y-81410713D02*
X141885295Y-81363094D01*
X141885295Y-81363094D02*
X141790057Y-81315475D01*
X141790057Y-81315475D02*
X141742438Y-81267856D01*
X141742438Y-81267856D02*
X141694819Y-81172618D01*
D10*
X141128633Y-81575000D02*
X140795300Y-81808333D01*
X141128633Y-81975000D02*
X140428633Y-81975000D01*
X140428633Y-81975000D02*
X140428633Y-81708333D01*
X140428633Y-81708333D02*
X140461966Y-81641667D01*
X140461966Y-81641667D02*
X140495300Y-81608333D01*
X140495300Y-81608333D02*
X140561966Y-81575000D01*
X140561966Y-81575000D02*
X140661966Y-81575000D01*
X140661966Y-81575000D02*
X140728633Y-81608333D01*
X140728633Y-81608333D02*
X140761966Y-81641667D01*
X140761966Y-81641667D02*
X140795300Y-81708333D01*
X140795300Y-81708333D02*
X140795300Y-81975000D01*
X140495300Y-81308333D02*
X140461966Y-81275000D01*
X140461966Y-81275000D02*
X140428633Y-81208333D01*
X140428633Y-81208333D02*
X140428633Y-81041667D01*
X140428633Y-81041667D02*
X140461966Y-80975000D01*
X140461966Y-80975000D02*
X140495300Y-80941667D01*
X140495300Y-80941667D02*
X140561966Y-80908333D01*
X140561966Y-80908333D02*
X140628633Y-80908333D01*
X140628633Y-80908333D02*
X140728633Y-80941667D01*
X140728633Y-80941667D02*
X141128633Y-81341667D01*
X141128633Y-81341667D02*
X141128633Y-80908333D01*
X140428633Y-80275000D02*
X140428633Y-80608333D01*
X140428633Y-80608333D02*
X140761966Y-80641666D01*
X140761966Y-80641666D02*
X140728633Y-80608333D01*
X140728633Y-80608333D02*
X140695300Y-80541666D01*
X140695300Y-80541666D02*
X140695300Y-80375000D01*
X140695300Y-80375000D02*
X140728633Y-80308333D01*
X140728633Y-80308333D02*
X140761966Y-80275000D01*
X140761966Y-80275000D02*
X140828633Y-80241666D01*
X140828633Y-80241666D02*
X140995300Y-80241666D01*
X140995300Y-80241666D02*
X141061966Y-80275000D01*
X141061966Y-80275000D02*
X141095300Y-80308333D01*
X141095300Y-80308333D02*
X141128633Y-80375000D01*
X141128633Y-80375000D02*
X141128633Y-80541666D01*
X141128633Y-80541666D02*
X141095300Y-80608333D01*
X141095300Y-80608333D02*
X141061966Y-80641666D01*
X137416666Y-47293634D02*
X137416666Y-47793634D01*
X137416666Y-47793634D02*
X137383333Y-47893634D01*
X137383333Y-47893634D02*
X137316666Y-47960301D01*
X137316666Y-47960301D02*
X137216666Y-47993634D01*
X137216666Y-47993634D02*
X137150000Y-47993634D01*
X138116666Y-47993634D02*
X137716666Y-47993634D01*
X137916666Y-47993634D02*
X137916666Y-47293634D01*
X137916666Y-47293634D02*
X137849999Y-47393634D01*
X137849999Y-47393634D02*
X137783333Y-47460301D01*
X137783333Y-47460301D02*
X137716666Y-47493634D01*
X148066666Y-103618633D02*
X148066666Y-102918633D01*
X148533333Y-102918633D02*
X148666666Y-102918633D01*
X148666666Y-102918633D02*
X148733333Y-102951966D01*
X148733333Y-102951966D02*
X148799999Y-103018633D01*
X148799999Y-103018633D02*
X148833333Y-103151966D01*
X148833333Y-103151966D02*
X148833333Y-103385300D01*
X148833333Y-103385300D02*
X148799999Y-103518633D01*
X148799999Y-103518633D02*
X148733333Y-103585300D01*
X148733333Y-103585300D02*
X148666666Y-103618633D01*
X148666666Y-103618633D02*
X148533333Y-103618633D01*
X148533333Y-103618633D02*
X148466666Y-103585300D01*
X148466666Y-103585300D02*
X148399999Y-103518633D01*
X148399999Y-103518633D02*
X148366666Y-103385300D01*
X148366666Y-103385300D02*
X148366666Y-103151966D01*
X148366666Y-103151966D02*
X148399999Y-103018633D01*
X148399999Y-103018633D02*
X148466666Y-102951966D01*
X148466666Y-102951966D02*
X148533333Y-102918633D01*
X149433332Y-103151966D02*
X149433332Y-103618633D01*
X149266666Y-102885300D02*
X149099999Y-103385300D01*
X149099999Y-103385300D02*
X149533332Y-103385300D01*
X150166666Y-103618633D02*
X149766666Y-103618633D01*
X149966666Y-103618633D02*
X149966666Y-102918633D01*
X149966666Y-102918633D02*
X149899999Y-103018633D01*
X149899999Y-103018633D02*
X149833333Y-103085300D01*
X149833333Y-103085300D02*
X149766666Y-103118633D01*
D11*
X144718095Y-144999700D02*
X144860952Y-145047319D01*
X144860952Y-145047319D02*
X145099047Y-145047319D01*
X145099047Y-145047319D02*
X145194285Y-144999700D01*
X145194285Y-144999700D02*
X145241904Y-144952080D01*
X145241904Y-144952080D02*
X145289523Y-144856842D01*
X145289523Y-144856842D02*
X145289523Y-144761604D01*
X145289523Y-144761604D02*
X145241904Y-144666366D01*
X145241904Y-144666366D02*
X145194285Y-144618747D01*
X145194285Y-144618747D02*
X145099047Y-144571128D01*
X145099047Y-144571128D02*
X144908571Y-144523509D01*
X144908571Y-144523509D02*
X144813333Y-144475890D01*
X144813333Y-144475890D02*
X144765714Y-144428271D01*
X144765714Y-144428271D02*
X144718095Y-144333033D01*
X144718095Y-144333033D02*
X144718095Y-144237795D01*
X144718095Y-144237795D02*
X144765714Y-144142557D01*
X144765714Y-144142557D02*
X144813333Y-144094938D01*
X144813333Y-144094938D02*
X144908571Y-144047319D01*
X144908571Y-144047319D02*
X145146666Y-144047319D01*
X145146666Y-144047319D02*
X145289523Y-144094938D01*
X145718095Y-144523509D02*
X146051428Y-144523509D01*
X146194285Y-145047319D02*
X145718095Y-145047319D01*
X145718095Y-145047319D02*
X145718095Y-144047319D01*
X145718095Y-144047319D02*
X146194285Y-144047319D01*
X146622857Y-145047319D02*
X146622857Y-144047319D01*
X146622857Y-144047319D02*
X147194285Y-145047319D01*
X147194285Y-145047319D02*
X147194285Y-144047319D01*
X147622857Y-144999700D02*
X147765714Y-145047319D01*
X147765714Y-145047319D02*
X148003809Y-145047319D01*
X148003809Y-145047319D02*
X148099047Y-144999700D01*
X148099047Y-144999700D02*
X148146666Y-144952080D01*
X148146666Y-144952080D02*
X148194285Y-144856842D01*
X148194285Y-144856842D02*
X148194285Y-144761604D01*
X148194285Y-144761604D02*
X148146666Y-144666366D01*
X148146666Y-144666366D02*
X148099047Y-144618747D01*
X148099047Y-144618747D02*
X148003809Y-144571128D01*
X148003809Y-144571128D02*
X147813333Y-144523509D01*
X147813333Y-144523509D02*
X147718095Y-144475890D01*
X147718095Y-144475890D02*
X147670476Y-144428271D01*
X147670476Y-144428271D02*
X147622857Y-144333033D01*
X147622857Y-144333033D02*
X147622857Y-144237795D01*
X147622857Y-144237795D02*
X147670476Y-144142557D01*
X147670476Y-144142557D02*
X147718095Y-144094938D01*
X147718095Y-144094938D02*
X147813333Y-144047319D01*
X147813333Y-144047319D02*
X148051428Y-144047319D01*
X148051428Y-144047319D02*
X148194285Y-144094938D01*
X148813333Y-144047319D02*
X149003809Y-144047319D01*
X149003809Y-144047319D02*
X149099047Y-144094938D01*
X149099047Y-144094938D02*
X149194285Y-144190176D01*
X149194285Y-144190176D02*
X149241904Y-144380652D01*
X149241904Y-144380652D02*
X149241904Y-144713985D01*
X149241904Y-144713985D02*
X149194285Y-144904461D01*
X149194285Y-144904461D02*
X149099047Y-144999700D01*
X149099047Y-144999700D02*
X149003809Y-145047319D01*
X149003809Y-145047319D02*
X148813333Y-145047319D01*
X148813333Y-145047319D02*
X148718095Y-144999700D01*
X148718095Y-144999700D02*
X148622857Y-144904461D01*
X148622857Y-144904461D02*
X148575238Y-144713985D01*
X148575238Y-144713985D02*
X148575238Y-144380652D01*
X148575238Y-144380652D02*
X148622857Y-144190176D01*
X148622857Y-144190176D02*
X148718095Y-144094938D01*
X148718095Y-144094938D02*
X148813333Y-144047319D01*
X150241904Y-145047319D02*
X149908571Y-144571128D01*
X149670476Y-145047319D02*
X149670476Y-144047319D01*
X149670476Y-144047319D02*
X150051428Y-144047319D01*
X150051428Y-144047319D02*
X150146666Y-144094938D01*
X150146666Y-144094938D02*
X150194285Y-144142557D01*
X150194285Y-144142557D02*
X150241904Y-144237795D01*
X150241904Y-144237795D02*
X150241904Y-144380652D01*
X150241904Y-144380652D02*
X150194285Y-144475890D01*
X150194285Y-144475890D02*
X150146666Y-144523509D01*
X150146666Y-144523509D02*
X150051428Y-144571128D01*
X150051428Y-144571128D02*
X149670476Y-144571128D01*
X147146666Y-140727319D02*
X147146666Y-141441604D01*
X147146666Y-141441604D02*
X147099047Y-141584461D01*
X147099047Y-141584461D02*
X147003809Y-141679700D01*
X147003809Y-141679700D02*
X146860952Y-141727319D01*
X146860952Y-141727319D02*
X146765714Y-141727319D01*
X147575238Y-140822557D02*
X147622857Y-140774938D01*
X147622857Y-140774938D02*
X147718095Y-140727319D01*
X147718095Y-140727319D02*
X147956190Y-140727319D01*
X147956190Y-140727319D02*
X148051428Y-140774938D01*
X148051428Y-140774938D02*
X148099047Y-140822557D01*
X148099047Y-140822557D02*
X148146666Y-140917795D01*
X148146666Y-140917795D02*
X148146666Y-141013033D01*
X148146666Y-141013033D02*
X148099047Y-141155890D01*
X148099047Y-141155890D02*
X147527619Y-141727319D01*
X147527619Y-141727319D02*
X148146666Y-141727319D01*
D10*
X134151966Y-132433333D02*
X134151966Y-132666666D01*
X134518633Y-132666666D02*
X133818633Y-132666666D01*
X133818633Y-132666666D02*
X133818633Y-132333333D01*
X134518633Y-131699999D02*
X134518633Y-132099999D01*
X134518633Y-131899999D02*
X133818633Y-131899999D01*
X133818633Y-131899999D02*
X133918633Y-131966666D01*
X133918633Y-131966666D02*
X133985300Y-132033333D01*
X133985300Y-132033333D02*
X134018633Y-132099999D01*
D11*
X140480953Y-97931009D02*
X140814286Y-97931009D01*
X140957143Y-98454819D02*
X140480953Y-98454819D01*
X140480953Y-98454819D02*
X140480953Y-97454819D01*
X140480953Y-97454819D02*
X140957143Y-97454819D01*
X141338096Y-98407200D02*
X141480953Y-98454819D01*
X141480953Y-98454819D02*
X141719048Y-98454819D01*
X141719048Y-98454819D02*
X141814286Y-98407200D01*
X141814286Y-98407200D02*
X141861905Y-98359580D01*
X141861905Y-98359580D02*
X141909524Y-98264342D01*
X141909524Y-98264342D02*
X141909524Y-98169104D01*
X141909524Y-98169104D02*
X141861905Y-98073866D01*
X141861905Y-98073866D02*
X141814286Y-98026247D01*
X141814286Y-98026247D02*
X141719048Y-97978628D01*
X141719048Y-97978628D02*
X141528572Y-97931009D01*
X141528572Y-97931009D02*
X141433334Y-97883390D01*
X141433334Y-97883390D02*
X141385715Y-97835771D01*
X141385715Y-97835771D02*
X141338096Y-97740533D01*
X141338096Y-97740533D02*
X141338096Y-97645295D01*
X141338096Y-97645295D02*
X141385715Y-97550057D01*
X141385715Y-97550057D02*
X141433334Y-97502438D01*
X141433334Y-97502438D02*
X141528572Y-97454819D01*
X141528572Y-97454819D02*
X141766667Y-97454819D01*
X141766667Y-97454819D02*
X141909524Y-97502438D01*
X142338096Y-98454819D02*
X142338096Y-97454819D01*
X142338096Y-97454819D02*
X142719048Y-97454819D01*
X142719048Y-97454819D02*
X142814286Y-97502438D01*
X142814286Y-97502438D02*
X142861905Y-97550057D01*
X142861905Y-97550057D02*
X142909524Y-97645295D01*
X142909524Y-97645295D02*
X142909524Y-97788152D01*
X142909524Y-97788152D02*
X142861905Y-97883390D01*
X142861905Y-97883390D02*
X142814286Y-97931009D01*
X142814286Y-97931009D02*
X142719048Y-97978628D01*
X142719048Y-97978628D02*
X142338096Y-97978628D01*
X143242858Y-97454819D02*
X143861905Y-97454819D01*
X143861905Y-97454819D02*
X143528572Y-97835771D01*
X143528572Y-97835771D02*
X143671429Y-97835771D01*
X143671429Y-97835771D02*
X143766667Y-97883390D01*
X143766667Y-97883390D02*
X143814286Y-97931009D01*
X143814286Y-97931009D02*
X143861905Y-98026247D01*
X143861905Y-98026247D02*
X143861905Y-98264342D01*
X143861905Y-98264342D02*
X143814286Y-98359580D01*
X143814286Y-98359580D02*
X143766667Y-98407200D01*
X143766667Y-98407200D02*
X143671429Y-98454819D01*
X143671429Y-98454819D02*
X143385715Y-98454819D01*
X143385715Y-98454819D02*
X143290477Y-98407200D01*
X143290477Y-98407200D02*
X143242858Y-98359580D01*
X144242858Y-97550057D02*
X144290477Y-97502438D01*
X144290477Y-97502438D02*
X144385715Y-97454819D01*
X144385715Y-97454819D02*
X144623810Y-97454819D01*
X144623810Y-97454819D02*
X144719048Y-97502438D01*
X144719048Y-97502438D02*
X144766667Y-97550057D01*
X144766667Y-97550057D02*
X144814286Y-97645295D01*
X144814286Y-97645295D02*
X144814286Y-97740533D01*
X144814286Y-97740533D02*
X144766667Y-97883390D01*
X144766667Y-97883390D02*
X144195239Y-98454819D01*
X144195239Y-98454819D02*
X144814286Y-98454819D01*
X145242858Y-98073866D02*
X146004763Y-98073866D01*
X146433334Y-98407200D02*
X146576191Y-98454819D01*
X146576191Y-98454819D02*
X146814286Y-98454819D01*
X146814286Y-98454819D02*
X146909524Y-98407200D01*
X146909524Y-98407200D02*
X146957143Y-98359580D01*
X146957143Y-98359580D02*
X147004762Y-98264342D01*
X147004762Y-98264342D02*
X147004762Y-98169104D01*
X147004762Y-98169104D02*
X146957143Y-98073866D01*
X146957143Y-98073866D02*
X146909524Y-98026247D01*
X146909524Y-98026247D02*
X146814286Y-97978628D01*
X146814286Y-97978628D02*
X146623810Y-97931009D01*
X146623810Y-97931009D02*
X146528572Y-97883390D01*
X146528572Y-97883390D02*
X146480953Y-97835771D01*
X146480953Y-97835771D02*
X146433334Y-97740533D01*
X146433334Y-97740533D02*
X146433334Y-97645295D01*
X146433334Y-97645295D02*
X146480953Y-97550057D01*
X146480953Y-97550057D02*
X146528572Y-97502438D01*
X146528572Y-97502438D02*
X146623810Y-97454819D01*
X146623810Y-97454819D02*
X146861905Y-97454819D01*
X146861905Y-97454819D02*
X147004762Y-97502438D01*
X147338096Y-97454819D02*
X147957143Y-97454819D01*
X147957143Y-97454819D02*
X147623810Y-97835771D01*
X147623810Y-97835771D02*
X147766667Y-97835771D01*
X147766667Y-97835771D02*
X147861905Y-97883390D01*
X147861905Y-97883390D02*
X147909524Y-97931009D01*
X147909524Y-97931009D02*
X147957143Y-98026247D01*
X147957143Y-98026247D02*
X147957143Y-98264342D01*
X147957143Y-98264342D02*
X147909524Y-98359580D01*
X147909524Y-98359580D02*
X147861905Y-98407200D01*
X147861905Y-98407200D02*
X147766667Y-98454819D01*
X147766667Y-98454819D02*
X147480953Y-98454819D01*
X147480953Y-98454819D02*
X147385715Y-98407200D01*
X147385715Y-98407200D02*
X147338096Y-98359580D01*
X148385715Y-98073866D02*
X149147620Y-98073866D01*
X149528572Y-97454819D02*
X149766667Y-98454819D01*
X149766667Y-98454819D02*
X149957143Y-97740533D01*
X149957143Y-97740533D02*
X150147619Y-98454819D01*
X150147619Y-98454819D02*
X150385715Y-97454819D01*
X151338095Y-98454819D02*
X151004762Y-97978628D01*
X150766667Y-98454819D02*
X150766667Y-97454819D01*
X150766667Y-97454819D02*
X151147619Y-97454819D01*
X151147619Y-97454819D02*
X151242857Y-97502438D01*
X151242857Y-97502438D02*
X151290476Y-97550057D01*
X151290476Y-97550057D02*
X151338095Y-97645295D01*
X151338095Y-97645295D02*
X151338095Y-97788152D01*
X151338095Y-97788152D02*
X151290476Y-97883390D01*
X151290476Y-97883390D02*
X151242857Y-97931009D01*
X151242857Y-97931009D02*
X151147619Y-97978628D01*
X151147619Y-97978628D02*
X150766667Y-97978628D01*
X151957143Y-97454819D02*
X152147619Y-97454819D01*
X152147619Y-97454819D02*
X152242857Y-97502438D01*
X152242857Y-97502438D02*
X152338095Y-97597676D01*
X152338095Y-97597676D02*
X152385714Y-97788152D01*
X152385714Y-97788152D02*
X152385714Y-98121485D01*
X152385714Y-98121485D02*
X152338095Y-98311961D01*
X152338095Y-98311961D02*
X152242857Y-98407200D01*
X152242857Y-98407200D02*
X152147619Y-98454819D01*
X152147619Y-98454819D02*
X151957143Y-98454819D01*
X151957143Y-98454819D02*
X151861905Y-98407200D01*
X151861905Y-98407200D02*
X151766667Y-98311961D01*
X151766667Y-98311961D02*
X151719048Y-98121485D01*
X151719048Y-98121485D02*
X151719048Y-97788152D01*
X151719048Y-97788152D02*
X151766667Y-97597676D01*
X151766667Y-97597676D02*
X151861905Y-97502438D01*
X151861905Y-97502438D02*
X151957143Y-97454819D01*
X153004762Y-97454819D02*
X153195238Y-97454819D01*
X153195238Y-97454819D02*
X153290476Y-97502438D01*
X153290476Y-97502438D02*
X153385714Y-97597676D01*
X153385714Y-97597676D02*
X153433333Y-97788152D01*
X153433333Y-97788152D02*
X153433333Y-98121485D01*
X153433333Y-98121485D02*
X153385714Y-98311961D01*
X153385714Y-98311961D02*
X153290476Y-98407200D01*
X153290476Y-98407200D02*
X153195238Y-98454819D01*
X153195238Y-98454819D02*
X153004762Y-98454819D01*
X153004762Y-98454819D02*
X152909524Y-98407200D01*
X152909524Y-98407200D02*
X152814286Y-98311961D01*
X152814286Y-98311961D02*
X152766667Y-98121485D01*
X152766667Y-98121485D02*
X152766667Y-97788152D01*
X152766667Y-97788152D02*
X152814286Y-97597676D01*
X152814286Y-97597676D02*
X152909524Y-97502438D01*
X152909524Y-97502438D02*
X153004762Y-97454819D01*
X153861905Y-98454819D02*
X153861905Y-97454819D01*
X153861905Y-97454819D02*
X154195238Y-98169104D01*
X154195238Y-98169104D02*
X154528571Y-97454819D01*
X154528571Y-97454819D02*
X154528571Y-98454819D01*
X155004762Y-98073866D02*
X155766667Y-98073866D01*
X156766666Y-98454819D02*
X156195238Y-98454819D01*
X156480952Y-98454819D02*
X156480952Y-97454819D01*
X156480952Y-97454819D02*
X156385714Y-97597676D01*
X156385714Y-97597676D02*
X156290476Y-97692914D01*
X156290476Y-97692914D02*
X156195238Y-97740533D01*
D10*
X153041366Y-92866666D02*
X152474700Y-92866666D01*
X152474700Y-92866666D02*
X152408033Y-92900000D01*
X152408033Y-92900000D02*
X152374700Y-92933333D01*
X152374700Y-92933333D02*
X152341366Y-93000000D01*
X152341366Y-93000000D02*
X152341366Y-93133333D01*
X152341366Y-93133333D02*
X152374700Y-93200000D01*
X152374700Y-93200000D02*
X152408033Y-93233333D01*
X152408033Y-93233333D02*
X152474700Y-93266666D01*
X152474700Y-93266666D02*
X153041366Y-93266666D01*
X152341366Y-93966666D02*
X152341366Y-93566666D01*
X152341366Y-93766666D02*
X153041366Y-93766666D01*
X153041366Y-93766666D02*
X152941366Y-93699999D01*
X152941366Y-93699999D02*
X152874700Y-93633333D01*
X152874700Y-93633333D02*
X152841366Y-93566666D01*
X154449999Y-107118633D02*
X154216666Y-106785300D01*
X154049999Y-107118633D02*
X154049999Y-106418633D01*
X154049999Y-106418633D02*
X154316666Y-106418633D01*
X154316666Y-106418633D02*
X154383333Y-106451966D01*
X154383333Y-106451966D02*
X154416666Y-106485300D01*
X154416666Y-106485300D02*
X154449999Y-106551966D01*
X154449999Y-106551966D02*
X154449999Y-106651966D01*
X154449999Y-106651966D02*
X154416666Y-106718633D01*
X154416666Y-106718633D02*
X154383333Y-106751966D01*
X154383333Y-106751966D02*
X154316666Y-106785300D01*
X154316666Y-106785300D02*
X154049999Y-106785300D01*
X155116666Y-107118633D02*
X154716666Y-107118633D01*
X154916666Y-107118633D02*
X154916666Y-106418633D01*
X154916666Y-106418633D02*
X154849999Y-106518633D01*
X154849999Y-106518633D02*
X154783333Y-106585300D01*
X154783333Y-106585300D02*
X154716666Y-106618633D01*
X155383333Y-106485300D02*
X155416666Y-106451966D01*
X155416666Y-106451966D02*
X155483333Y-106418633D01*
X155483333Y-106418633D02*
X155650000Y-106418633D01*
X155650000Y-106418633D02*
X155716666Y-106451966D01*
X155716666Y-106451966D02*
X155750000Y-106485300D01*
X155750000Y-106485300D02*
X155783333Y-106551966D01*
X155783333Y-106551966D02*
X155783333Y-106618633D01*
X155783333Y-106618633D02*
X155750000Y-106718633D01*
X155750000Y-106718633D02*
X155350000Y-107118633D01*
X155350000Y-107118633D02*
X155783333Y-107118633D01*
X150663633Y-113983333D02*
X151230300Y-113983333D01*
X151230300Y-113983333D02*
X151296966Y-113950000D01*
X151296966Y-113950000D02*
X151330300Y-113916666D01*
X151330300Y-113916666D02*
X151363633Y-113850000D01*
X151363633Y-113850000D02*
X151363633Y-113716666D01*
X151363633Y-113716666D02*
X151330300Y-113650000D01*
X151330300Y-113650000D02*
X151296966Y-113616666D01*
X151296966Y-113616666D02*
X151230300Y-113583333D01*
X151230300Y-113583333D02*
X150663633Y-113583333D01*
X150730300Y-113283333D02*
X150696966Y-113250000D01*
X150696966Y-113250000D02*
X150663633Y-113183333D01*
X150663633Y-113183333D02*
X150663633Y-113016667D01*
X150663633Y-113016667D02*
X150696966Y-112950000D01*
X150696966Y-112950000D02*
X150730300Y-112916667D01*
X150730300Y-112916667D02*
X150796966Y-112883333D01*
X150796966Y-112883333D02*
X150863633Y-112883333D01*
X150863633Y-112883333D02*
X150963633Y-112916667D01*
X150963633Y-112916667D02*
X151363633Y-113316667D01*
X151363633Y-113316667D02*
X151363633Y-112883333D01*
X144149999Y-121718633D02*
X144149999Y-121018633D01*
X144149999Y-121018633D02*
X144316666Y-121018633D01*
X144316666Y-121018633D02*
X144416666Y-121051966D01*
X144416666Y-121051966D02*
X144483333Y-121118633D01*
X144483333Y-121118633D02*
X144516666Y-121185300D01*
X144516666Y-121185300D02*
X144549999Y-121318633D01*
X144549999Y-121318633D02*
X144549999Y-121418633D01*
X144549999Y-121418633D02*
X144516666Y-121551966D01*
X144516666Y-121551966D02*
X144483333Y-121618633D01*
X144483333Y-121618633D02*
X144416666Y-121685300D01*
X144416666Y-121685300D02*
X144316666Y-121718633D01*
X144316666Y-121718633D02*
X144149999Y-121718633D01*
X145216666Y-121718633D02*
X144816666Y-121718633D01*
X145016666Y-121718633D02*
X145016666Y-121018633D01*
X145016666Y-121018633D02*
X144949999Y-121118633D01*
X144949999Y-121118633D02*
X144883333Y-121185300D01*
X144883333Y-121185300D02*
X144816666Y-121218633D01*
X145483333Y-121085300D02*
X145516666Y-121051966D01*
X145516666Y-121051966D02*
X145583333Y-121018633D01*
X145583333Y-121018633D02*
X145750000Y-121018633D01*
X145750000Y-121018633D02*
X145816666Y-121051966D01*
X145816666Y-121051966D02*
X145850000Y-121085300D01*
X145850000Y-121085300D02*
X145883333Y-121151966D01*
X145883333Y-121151966D02*
X145883333Y-121218633D01*
X145883333Y-121218633D02*
X145850000Y-121318633D01*
X145850000Y-121318633D02*
X145450000Y-121718633D01*
X145450000Y-121718633D02*
X145883333Y-121718633D01*
X133866666Y-93313633D02*
X133866666Y-92613633D01*
X134333333Y-92613633D02*
X134466666Y-92613633D01*
X134466666Y-92613633D02*
X134533333Y-92646966D01*
X134533333Y-92646966D02*
X134599999Y-92713633D01*
X134599999Y-92713633D02*
X134633333Y-92846966D01*
X134633333Y-92846966D02*
X134633333Y-93080300D01*
X134633333Y-93080300D02*
X134599999Y-93213633D01*
X134599999Y-93213633D02*
X134533333Y-93280300D01*
X134533333Y-93280300D02*
X134466666Y-93313633D01*
X134466666Y-93313633D02*
X134333333Y-93313633D01*
X134333333Y-93313633D02*
X134266666Y-93280300D01*
X134266666Y-93280300D02*
X134199999Y-93213633D01*
X134199999Y-93213633D02*
X134166666Y-93080300D01*
X134166666Y-93080300D02*
X134166666Y-92846966D01*
X134166666Y-92846966D02*
X134199999Y-92713633D01*
X134199999Y-92713633D02*
X134266666Y-92646966D01*
X134266666Y-92646966D02*
X134333333Y-92613633D01*
X135299999Y-93313633D02*
X134899999Y-93313633D01*
X135099999Y-93313633D02*
X135099999Y-92613633D01*
X135099999Y-92613633D02*
X135033332Y-92713633D01*
X135033332Y-92713633D02*
X134966666Y-92780300D01*
X134966666Y-92780300D02*
X134899999Y-92813633D01*
X135566666Y-92680300D02*
X135599999Y-92646966D01*
X135599999Y-92646966D02*
X135666666Y-92613633D01*
X135666666Y-92613633D02*
X135833333Y-92613633D01*
X135833333Y-92613633D02*
X135899999Y-92646966D01*
X135899999Y-92646966D02*
X135933333Y-92680300D01*
X135933333Y-92680300D02*
X135966666Y-92746966D01*
X135966666Y-92746966D02*
X135966666Y-92813633D01*
X135966666Y-92813633D02*
X135933333Y-92913633D01*
X135933333Y-92913633D02*
X135533333Y-93313633D01*
X135533333Y-93313633D02*
X135966666Y-93313633D01*
X156758633Y-79516666D02*
X156425300Y-79749999D01*
X156758633Y-79916666D02*
X156058633Y-79916666D01*
X156058633Y-79916666D02*
X156058633Y-79649999D01*
X156058633Y-79649999D02*
X156091966Y-79583333D01*
X156091966Y-79583333D02*
X156125300Y-79549999D01*
X156125300Y-79549999D02*
X156191966Y-79516666D01*
X156191966Y-79516666D02*
X156291966Y-79516666D01*
X156291966Y-79516666D02*
X156358633Y-79549999D01*
X156358633Y-79549999D02*
X156391966Y-79583333D01*
X156391966Y-79583333D02*
X156425300Y-79649999D01*
X156425300Y-79649999D02*
X156425300Y-79916666D01*
X156058633Y-79283333D02*
X156058633Y-78849999D01*
X156058633Y-78849999D02*
X156325300Y-79083333D01*
X156325300Y-79083333D02*
X156325300Y-78983333D01*
X156325300Y-78983333D02*
X156358633Y-78916666D01*
X156358633Y-78916666D02*
X156391966Y-78883333D01*
X156391966Y-78883333D02*
X156458633Y-78849999D01*
X156458633Y-78849999D02*
X156625300Y-78849999D01*
X156625300Y-78849999D02*
X156691966Y-78883333D01*
X156691966Y-78883333D02*
X156725300Y-78916666D01*
X156725300Y-78916666D02*
X156758633Y-78983333D01*
X156758633Y-78983333D02*
X156758633Y-79183333D01*
X156758633Y-79183333D02*
X156725300Y-79249999D01*
X156725300Y-79249999D02*
X156691966Y-79283333D01*
X143449999Y-118518633D02*
X143216666Y-118185300D01*
X143049999Y-118518633D02*
X143049999Y-117818633D01*
X143049999Y-117818633D02*
X143316666Y-117818633D01*
X143316666Y-117818633D02*
X143383333Y-117851966D01*
X143383333Y-117851966D02*
X143416666Y-117885300D01*
X143416666Y-117885300D02*
X143449999Y-117951966D01*
X143449999Y-117951966D02*
X143449999Y-118051966D01*
X143449999Y-118051966D02*
X143416666Y-118118633D01*
X143416666Y-118118633D02*
X143383333Y-118151966D01*
X143383333Y-118151966D02*
X143316666Y-118185300D01*
X143316666Y-118185300D02*
X143049999Y-118185300D01*
X144116666Y-118518633D02*
X143716666Y-118518633D01*
X143916666Y-118518633D02*
X143916666Y-117818633D01*
X143916666Y-117818633D02*
X143849999Y-117918633D01*
X143849999Y-117918633D02*
X143783333Y-117985300D01*
X143783333Y-117985300D02*
X143716666Y-118018633D01*
X144750000Y-117818633D02*
X144416666Y-117818633D01*
X144416666Y-117818633D02*
X144383333Y-118151966D01*
X144383333Y-118151966D02*
X144416666Y-118118633D01*
X144416666Y-118118633D02*
X144483333Y-118085300D01*
X144483333Y-118085300D02*
X144650000Y-118085300D01*
X144650000Y-118085300D02*
X144716666Y-118118633D01*
X144716666Y-118118633D02*
X144750000Y-118151966D01*
X144750000Y-118151966D02*
X144783333Y-118218633D01*
X144783333Y-118218633D02*
X144783333Y-118385300D01*
X144783333Y-118385300D02*
X144750000Y-118451966D01*
X144750000Y-118451966D02*
X144716666Y-118485300D01*
X144716666Y-118485300D02*
X144650000Y-118518633D01*
X144650000Y-118518633D02*
X144483333Y-118518633D01*
X144483333Y-118518633D02*
X144416666Y-118485300D01*
X144416666Y-118485300D02*
X144383333Y-118451966D01*
D11*
X142684819Y-105615476D02*
X142684819Y-106186904D01*
X142684819Y-105901190D02*
X141684819Y-105901190D01*
X141684819Y-105901190D02*
X141827676Y-105996428D01*
X141827676Y-105996428D02*
X141922914Y-106091666D01*
X141922914Y-106091666D02*
X141970533Y-106186904D01*
X141684819Y-104996428D02*
X141684819Y-104901190D01*
X141684819Y-104901190D02*
X141732438Y-104805952D01*
X141732438Y-104805952D02*
X141780057Y-104758333D01*
X141780057Y-104758333D02*
X141875295Y-104710714D01*
X141875295Y-104710714D02*
X142065771Y-104663095D01*
X142065771Y-104663095D02*
X142303866Y-104663095D01*
X142303866Y-104663095D02*
X142494342Y-104710714D01*
X142494342Y-104710714D02*
X142589580Y-104758333D01*
X142589580Y-104758333D02*
X142637200Y-104805952D01*
X142637200Y-104805952D02*
X142684819Y-104901190D01*
X142684819Y-104901190D02*
X142684819Y-104996428D01*
X142684819Y-104996428D02*
X142637200Y-105091666D01*
X142637200Y-105091666D02*
X142589580Y-105139285D01*
X142589580Y-105139285D02*
X142494342Y-105186904D01*
X142494342Y-105186904D02*
X142303866Y-105234523D01*
X142303866Y-105234523D02*
X142065771Y-105234523D01*
X142065771Y-105234523D02*
X141875295Y-105186904D01*
X141875295Y-105186904D02*
X141780057Y-105139285D01*
X141780057Y-105139285D02*
X141732438Y-105091666D01*
X141732438Y-105091666D02*
X141684819Y-104996428D01*
X142684819Y-104234523D02*
X141684819Y-104234523D01*
X142684819Y-103663095D02*
X142113390Y-104091666D01*
X141684819Y-103663095D02*
X142256247Y-104234523D01*
D12*
X140981927Y-104991666D02*
X140791451Y-105124999D01*
X140981927Y-105220237D02*
X140581927Y-105220237D01*
X140581927Y-105220237D02*
X140581927Y-105067856D01*
X140581927Y-105067856D02*
X140600975Y-105029761D01*
X140600975Y-105029761D02*
X140620022Y-105010714D01*
X140620022Y-105010714D02*
X140658118Y-104991666D01*
X140658118Y-104991666D02*
X140715260Y-104991666D01*
X140715260Y-104991666D02*
X140753356Y-105010714D01*
X140753356Y-105010714D02*
X140772403Y-105029761D01*
X140772403Y-105029761D02*
X140791451Y-105067856D01*
X140791451Y-105067856D02*
X140791451Y-105220237D01*
X140753356Y-104763095D02*
X140734308Y-104801190D01*
X140734308Y-104801190D02*
X140715260Y-104820237D01*
X140715260Y-104820237D02*
X140677165Y-104839285D01*
X140677165Y-104839285D02*
X140658118Y-104839285D01*
X140658118Y-104839285D02*
X140620022Y-104820237D01*
X140620022Y-104820237D02*
X140600975Y-104801190D01*
X140600975Y-104801190D02*
X140581927Y-104763095D01*
X140581927Y-104763095D02*
X140581927Y-104686904D01*
X140581927Y-104686904D02*
X140600975Y-104648809D01*
X140600975Y-104648809D02*
X140620022Y-104629761D01*
X140620022Y-104629761D02*
X140658118Y-104610714D01*
X140658118Y-104610714D02*
X140677165Y-104610714D01*
X140677165Y-104610714D02*
X140715260Y-104629761D01*
X140715260Y-104629761D02*
X140734308Y-104648809D01*
X140734308Y-104648809D02*
X140753356Y-104686904D01*
X140753356Y-104686904D02*
X140753356Y-104763095D01*
X140753356Y-104763095D02*
X140772403Y-104801190D01*
X140772403Y-104801190D02*
X140791451Y-104820237D01*
X140791451Y-104820237D02*
X140829546Y-104839285D01*
X140829546Y-104839285D02*
X140905737Y-104839285D01*
X140905737Y-104839285D02*
X140943832Y-104820237D01*
X140943832Y-104820237D02*
X140962880Y-104801190D01*
X140962880Y-104801190D02*
X140981927Y-104763095D01*
X140981927Y-104763095D02*
X140981927Y-104686904D01*
X140981927Y-104686904D02*
X140962880Y-104648809D01*
X140962880Y-104648809D02*
X140943832Y-104629761D01*
X140943832Y-104629761D02*
X140905737Y-104610714D01*
X140905737Y-104610714D02*
X140829546Y-104610714D01*
X140829546Y-104610714D02*
X140791451Y-104629761D01*
X140791451Y-104629761D02*
X140772403Y-104648809D01*
X140772403Y-104648809D02*
X140753356Y-104686904D01*
D10*
X154971966Y-79516666D02*
X155005300Y-79549999D01*
X155005300Y-79549999D02*
X155038633Y-79649999D01*
X155038633Y-79649999D02*
X155038633Y-79716666D01*
X155038633Y-79716666D02*
X155005300Y-79816666D01*
X155005300Y-79816666D02*
X154938633Y-79883333D01*
X154938633Y-79883333D02*
X154871966Y-79916666D01*
X154871966Y-79916666D02*
X154738633Y-79949999D01*
X154738633Y-79949999D02*
X154638633Y-79949999D01*
X154638633Y-79949999D02*
X154505300Y-79916666D01*
X154505300Y-79916666D02*
X154438633Y-79883333D01*
X154438633Y-79883333D02*
X154371966Y-79816666D01*
X154371966Y-79816666D02*
X154338633Y-79716666D01*
X154338633Y-79716666D02*
X154338633Y-79649999D01*
X154338633Y-79649999D02*
X154371966Y-79549999D01*
X154371966Y-79549999D02*
X154405300Y-79516666D01*
X154338633Y-78883333D02*
X154338633Y-79216666D01*
X154338633Y-79216666D02*
X154671966Y-79249999D01*
X154671966Y-79249999D02*
X154638633Y-79216666D01*
X154638633Y-79216666D02*
X154605300Y-79149999D01*
X154605300Y-79149999D02*
X154605300Y-78983333D01*
X154605300Y-78983333D02*
X154638633Y-78916666D01*
X154638633Y-78916666D02*
X154671966Y-78883333D01*
X154671966Y-78883333D02*
X154738633Y-78849999D01*
X154738633Y-78849999D02*
X154905300Y-78849999D01*
X154905300Y-78849999D02*
X154971966Y-78883333D01*
X154971966Y-78883333D02*
X155005300Y-78916666D01*
X155005300Y-78916666D02*
X155038633Y-78983333D01*
X155038633Y-78983333D02*
X155038633Y-79149999D01*
X155038633Y-79149999D02*
X155005300Y-79216666D01*
X155005300Y-79216666D02*
X154971966Y-79249999D01*
X144649999Y-72258633D02*
X144416666Y-71925300D01*
X144249999Y-72258633D02*
X144249999Y-71558633D01*
X144249999Y-71558633D02*
X144516666Y-71558633D01*
X144516666Y-71558633D02*
X144583333Y-71591966D01*
X144583333Y-71591966D02*
X144616666Y-71625300D01*
X144616666Y-71625300D02*
X144649999Y-71691966D01*
X144649999Y-71691966D02*
X144649999Y-71791966D01*
X144649999Y-71791966D02*
X144616666Y-71858633D01*
X144616666Y-71858633D02*
X144583333Y-71891966D01*
X144583333Y-71891966D02*
X144516666Y-71925300D01*
X144516666Y-71925300D02*
X144249999Y-71925300D01*
X145316666Y-72258633D02*
X144916666Y-72258633D01*
X145116666Y-72258633D02*
X145116666Y-71558633D01*
X145116666Y-71558633D02*
X145049999Y-71658633D01*
X145049999Y-71658633D02*
X144983333Y-71725300D01*
X144983333Y-71725300D02*
X144916666Y-71758633D01*
X145550000Y-71558633D02*
X146016666Y-71558633D01*
X146016666Y-71558633D02*
X145716666Y-72258633D01*
X140918633Y-71616666D02*
X140218633Y-71616666D01*
X140218633Y-71616666D02*
X140218633Y-71449999D01*
X140218633Y-71449999D02*
X140251966Y-71349999D01*
X140251966Y-71349999D02*
X140318633Y-71283333D01*
X140318633Y-71283333D02*
X140385300Y-71249999D01*
X140385300Y-71249999D02*
X140518633Y-71216666D01*
X140518633Y-71216666D02*
X140618633Y-71216666D01*
X140618633Y-71216666D02*
X140751966Y-71249999D01*
X140751966Y-71249999D02*
X140818633Y-71283333D01*
X140818633Y-71283333D02*
X140885300Y-71349999D01*
X140885300Y-71349999D02*
X140918633Y-71449999D01*
X140918633Y-71449999D02*
X140918633Y-71616666D01*
X140218633Y-70616666D02*
X140218633Y-70749999D01*
X140218633Y-70749999D02*
X140251966Y-70816666D01*
X140251966Y-70816666D02*
X140285300Y-70849999D01*
X140285300Y-70849999D02*
X140385300Y-70916666D01*
X140385300Y-70916666D02*
X140518633Y-70949999D01*
X140518633Y-70949999D02*
X140785300Y-70949999D01*
X140785300Y-70949999D02*
X140851966Y-70916666D01*
X140851966Y-70916666D02*
X140885300Y-70883333D01*
X140885300Y-70883333D02*
X140918633Y-70816666D01*
X140918633Y-70816666D02*
X140918633Y-70683333D01*
X140918633Y-70683333D02*
X140885300Y-70616666D01*
X140885300Y-70616666D02*
X140851966Y-70583333D01*
X140851966Y-70583333D02*
X140785300Y-70549999D01*
X140785300Y-70549999D02*
X140618633Y-70549999D01*
X140618633Y-70549999D02*
X140551966Y-70583333D01*
X140551966Y-70583333D02*
X140518633Y-70616666D01*
X140518633Y-70616666D02*
X140485300Y-70683333D01*
X140485300Y-70683333D02*
X140485300Y-70816666D01*
X140485300Y-70816666D02*
X140518633Y-70883333D01*
X140518633Y-70883333D02*
X140551966Y-70916666D01*
X140551966Y-70916666D02*
X140618633Y-70949999D01*
X160879999Y-130118633D02*
X160646666Y-129785300D01*
X160479999Y-130118633D02*
X160479999Y-129418633D01*
X160479999Y-129418633D02*
X160746666Y-129418633D01*
X160746666Y-129418633D02*
X160813333Y-129451966D01*
X160813333Y-129451966D02*
X160846666Y-129485300D01*
X160846666Y-129485300D02*
X160879999Y-129551966D01*
X160879999Y-129551966D02*
X160879999Y-129651966D01*
X160879999Y-129651966D02*
X160846666Y-129718633D01*
X160846666Y-129718633D02*
X160813333Y-129751966D01*
X160813333Y-129751966D02*
X160746666Y-129785300D01*
X160746666Y-129785300D02*
X160479999Y-129785300D01*
X161146666Y-129485300D02*
X161179999Y-129451966D01*
X161179999Y-129451966D02*
X161246666Y-129418633D01*
X161246666Y-129418633D02*
X161413333Y-129418633D01*
X161413333Y-129418633D02*
X161479999Y-129451966D01*
X161479999Y-129451966D02*
X161513333Y-129485300D01*
X161513333Y-129485300D02*
X161546666Y-129551966D01*
X161546666Y-129551966D02*
X161546666Y-129618633D01*
X161546666Y-129618633D02*
X161513333Y-129718633D01*
X161513333Y-129718633D02*
X161113333Y-130118633D01*
X161113333Y-130118633D02*
X161546666Y-130118633D01*
X161946666Y-129718633D02*
X161880000Y-129685300D01*
X161880000Y-129685300D02*
X161846666Y-129651966D01*
X161846666Y-129651966D02*
X161813333Y-129585300D01*
X161813333Y-129585300D02*
X161813333Y-129551966D01*
X161813333Y-129551966D02*
X161846666Y-129485300D01*
X161846666Y-129485300D02*
X161880000Y-129451966D01*
X161880000Y-129451966D02*
X161946666Y-129418633D01*
X161946666Y-129418633D02*
X162080000Y-129418633D01*
X162080000Y-129418633D02*
X162146666Y-129451966D01*
X162146666Y-129451966D02*
X162180000Y-129485300D01*
X162180000Y-129485300D02*
X162213333Y-129551966D01*
X162213333Y-129551966D02*
X162213333Y-129585300D01*
X162213333Y-129585300D02*
X162180000Y-129651966D01*
X162180000Y-129651966D02*
X162146666Y-129685300D01*
X162146666Y-129685300D02*
X162080000Y-129718633D01*
X162080000Y-129718633D02*
X161946666Y-129718633D01*
X161946666Y-129718633D02*
X161880000Y-129751966D01*
X161880000Y-129751966D02*
X161846666Y-129785300D01*
X161846666Y-129785300D02*
X161813333Y-129851966D01*
X161813333Y-129851966D02*
X161813333Y-129985300D01*
X161813333Y-129985300D02*
X161846666Y-130051966D01*
X161846666Y-130051966D02*
X161880000Y-130085300D01*
X161880000Y-130085300D02*
X161946666Y-130118633D01*
X161946666Y-130118633D02*
X162080000Y-130118633D01*
X162080000Y-130118633D02*
X162146666Y-130085300D01*
X162146666Y-130085300D02*
X162180000Y-130051966D01*
X162180000Y-130051966D02*
X162213333Y-129985300D01*
X162213333Y-129985300D02*
X162213333Y-129851966D01*
X162213333Y-129851966D02*
X162180000Y-129785300D01*
X162180000Y-129785300D02*
X162146666Y-129751966D01*
X162146666Y-129751966D02*
X162080000Y-129718633D01*
X131718633Y-53450000D02*
X131385300Y-53683333D01*
X131718633Y-53850000D02*
X131018633Y-53850000D01*
X131018633Y-53850000D02*
X131018633Y-53583333D01*
X131018633Y-53583333D02*
X131051966Y-53516667D01*
X131051966Y-53516667D02*
X131085300Y-53483333D01*
X131085300Y-53483333D02*
X131151966Y-53450000D01*
X131151966Y-53450000D02*
X131251966Y-53450000D01*
X131251966Y-53450000D02*
X131318633Y-53483333D01*
X131318633Y-53483333D02*
X131351966Y-53516667D01*
X131351966Y-53516667D02*
X131385300Y-53583333D01*
X131385300Y-53583333D02*
X131385300Y-53850000D01*
X131085300Y-53183333D02*
X131051966Y-53150000D01*
X131051966Y-53150000D02*
X131018633Y-53083333D01*
X131018633Y-53083333D02*
X131018633Y-52916667D01*
X131018633Y-52916667D02*
X131051966Y-52850000D01*
X131051966Y-52850000D02*
X131085300Y-52816667D01*
X131085300Y-52816667D02*
X131151966Y-52783333D01*
X131151966Y-52783333D02*
X131218633Y-52783333D01*
X131218633Y-52783333D02*
X131318633Y-52816667D01*
X131318633Y-52816667D02*
X131718633Y-53216667D01*
X131718633Y-53216667D02*
X131718633Y-52783333D01*
X131718633Y-52116666D02*
X131718633Y-52516666D01*
X131718633Y-52316666D02*
X131018633Y-52316666D01*
X131018633Y-52316666D02*
X131118633Y-52383333D01*
X131118633Y-52383333D02*
X131185300Y-52450000D01*
X131185300Y-52450000D02*
X131218633Y-52516666D01*
X148561966Y-127183333D02*
X148561966Y-127416666D01*
X148928633Y-127416666D02*
X148228633Y-127416666D01*
X148228633Y-127416666D02*
X148228633Y-127083333D01*
X148295300Y-126849999D02*
X148261966Y-126816666D01*
X148261966Y-126816666D02*
X148228633Y-126749999D01*
X148228633Y-126749999D02*
X148228633Y-126583333D01*
X148228633Y-126583333D02*
X148261966Y-126516666D01*
X148261966Y-126516666D02*
X148295300Y-126483333D01*
X148295300Y-126483333D02*
X148361966Y-126449999D01*
X148361966Y-126449999D02*
X148428633Y-126449999D01*
X148428633Y-126449999D02*
X148528633Y-126483333D01*
X148528633Y-126483333D02*
X148928633Y-126883333D01*
X148928633Y-126883333D02*
X148928633Y-126449999D01*
X151168633Y-54650000D02*
X150835300Y-54883333D01*
X151168633Y-55050000D02*
X150468633Y-55050000D01*
X150468633Y-55050000D02*
X150468633Y-54783333D01*
X150468633Y-54783333D02*
X150501966Y-54716667D01*
X150501966Y-54716667D02*
X150535300Y-54683333D01*
X150535300Y-54683333D02*
X150601966Y-54650000D01*
X150601966Y-54650000D02*
X150701966Y-54650000D01*
X150701966Y-54650000D02*
X150768633Y-54683333D01*
X150768633Y-54683333D02*
X150801966Y-54716667D01*
X150801966Y-54716667D02*
X150835300Y-54783333D01*
X150835300Y-54783333D02*
X150835300Y-55050000D01*
X151168633Y-53983333D02*
X151168633Y-54383333D01*
X151168633Y-54183333D02*
X150468633Y-54183333D01*
X150468633Y-54183333D02*
X150568633Y-54250000D01*
X150568633Y-54250000D02*
X150635300Y-54316667D01*
X150635300Y-54316667D02*
X150668633Y-54383333D01*
X150468633Y-53550000D02*
X150468633Y-53483333D01*
X150468633Y-53483333D02*
X150501966Y-53416666D01*
X150501966Y-53416666D02*
X150535300Y-53383333D01*
X150535300Y-53383333D02*
X150601966Y-53350000D01*
X150601966Y-53350000D02*
X150735300Y-53316666D01*
X150735300Y-53316666D02*
X150901966Y-53316666D01*
X150901966Y-53316666D02*
X151035300Y-53350000D01*
X151035300Y-53350000D02*
X151101966Y-53383333D01*
X151101966Y-53383333D02*
X151135300Y-53416666D01*
X151135300Y-53416666D02*
X151168633Y-53483333D01*
X151168633Y-53483333D02*
X151168633Y-53550000D01*
X151168633Y-53550000D02*
X151135300Y-53616666D01*
X151135300Y-53616666D02*
X151101966Y-53650000D01*
X151101966Y-53650000D02*
X151035300Y-53683333D01*
X151035300Y-53683333D02*
X150901966Y-53716666D01*
X150901966Y-53716666D02*
X150735300Y-53716666D01*
X150735300Y-53716666D02*
X150601966Y-53683333D01*
X150601966Y-53683333D02*
X150535300Y-53650000D01*
X150535300Y-53650000D02*
X150501966Y-53616666D01*
X150501966Y-53616666D02*
X150468633Y-53550000D01*
X133766666Y-94954633D02*
X133766666Y-94254633D01*
X134233333Y-94254633D02*
X134366666Y-94254633D01*
X134366666Y-94254633D02*
X134433333Y-94287966D01*
X134433333Y-94287966D02*
X134499999Y-94354633D01*
X134499999Y-94354633D02*
X134533333Y-94487966D01*
X134533333Y-94487966D02*
X134533333Y-94721300D01*
X134533333Y-94721300D02*
X134499999Y-94854633D01*
X134499999Y-94854633D02*
X134433333Y-94921300D01*
X134433333Y-94921300D02*
X134366666Y-94954633D01*
X134366666Y-94954633D02*
X134233333Y-94954633D01*
X134233333Y-94954633D02*
X134166666Y-94921300D01*
X134166666Y-94921300D02*
X134099999Y-94854633D01*
X134099999Y-94854633D02*
X134066666Y-94721300D01*
X134066666Y-94721300D02*
X134066666Y-94487966D01*
X134066666Y-94487966D02*
X134099999Y-94354633D01*
X134099999Y-94354633D02*
X134166666Y-94287966D01*
X134166666Y-94287966D02*
X134233333Y-94254633D01*
X135199999Y-94954633D02*
X134799999Y-94954633D01*
X134999999Y-94954633D02*
X134999999Y-94254633D01*
X134999999Y-94254633D02*
X134933332Y-94354633D01*
X134933332Y-94354633D02*
X134866666Y-94421300D01*
X134866666Y-94421300D02*
X134799999Y-94454633D01*
X135433333Y-94254633D02*
X135866666Y-94254633D01*
X135866666Y-94254633D02*
X135633333Y-94521300D01*
X135633333Y-94521300D02*
X135733333Y-94521300D01*
X135733333Y-94521300D02*
X135799999Y-94554633D01*
X135799999Y-94554633D02*
X135833333Y-94587966D01*
X135833333Y-94587966D02*
X135866666Y-94654633D01*
X135866666Y-94654633D02*
X135866666Y-94821300D01*
X135866666Y-94821300D02*
X135833333Y-94887966D01*
X135833333Y-94887966D02*
X135799999Y-94921300D01*
X135799999Y-94921300D02*
X135733333Y-94954633D01*
X135733333Y-94954633D02*
X135533333Y-94954633D01*
X135533333Y-94954633D02*
X135466666Y-94921300D01*
X135466666Y-94921300D02*
X135433333Y-94887966D01*
X143550000Y-82818633D02*
X143550000Y-82118633D01*
X144016667Y-82118633D02*
X144150000Y-82118633D01*
X144150000Y-82118633D02*
X144216667Y-82151966D01*
X144216667Y-82151966D02*
X144283333Y-82218633D01*
X144283333Y-82218633D02*
X144316667Y-82351966D01*
X144316667Y-82351966D02*
X144316667Y-82585300D01*
X144316667Y-82585300D02*
X144283333Y-82718633D01*
X144283333Y-82718633D02*
X144216667Y-82785300D01*
X144216667Y-82785300D02*
X144150000Y-82818633D01*
X144150000Y-82818633D02*
X144016667Y-82818633D01*
X144016667Y-82818633D02*
X143950000Y-82785300D01*
X143950000Y-82785300D02*
X143883333Y-82718633D01*
X143883333Y-82718633D02*
X143850000Y-82585300D01*
X143850000Y-82585300D02*
X143850000Y-82351966D01*
X143850000Y-82351966D02*
X143883333Y-82218633D01*
X143883333Y-82218633D02*
X143950000Y-82151966D01*
X143950000Y-82151966D02*
X144016667Y-82118633D01*
X144716666Y-82418633D02*
X144650000Y-82385300D01*
X144650000Y-82385300D02*
X144616666Y-82351966D01*
X144616666Y-82351966D02*
X144583333Y-82285300D01*
X144583333Y-82285300D02*
X144583333Y-82251966D01*
X144583333Y-82251966D02*
X144616666Y-82185300D01*
X144616666Y-82185300D02*
X144650000Y-82151966D01*
X144650000Y-82151966D02*
X144716666Y-82118633D01*
X144716666Y-82118633D02*
X144850000Y-82118633D01*
X144850000Y-82118633D02*
X144916666Y-82151966D01*
X144916666Y-82151966D02*
X144950000Y-82185300D01*
X144950000Y-82185300D02*
X144983333Y-82251966D01*
X144983333Y-82251966D02*
X144983333Y-82285300D01*
X144983333Y-82285300D02*
X144950000Y-82351966D01*
X144950000Y-82351966D02*
X144916666Y-82385300D01*
X144916666Y-82385300D02*
X144850000Y-82418633D01*
X144850000Y-82418633D02*
X144716666Y-82418633D01*
X144716666Y-82418633D02*
X144650000Y-82451966D01*
X144650000Y-82451966D02*
X144616666Y-82485300D01*
X144616666Y-82485300D02*
X144583333Y-82551966D01*
X144583333Y-82551966D02*
X144583333Y-82685300D01*
X144583333Y-82685300D02*
X144616666Y-82751966D01*
X144616666Y-82751966D02*
X144650000Y-82785300D01*
X144650000Y-82785300D02*
X144716666Y-82818633D01*
X144716666Y-82818633D02*
X144850000Y-82818633D01*
X144850000Y-82818633D02*
X144916666Y-82785300D01*
X144916666Y-82785300D02*
X144950000Y-82751966D01*
X144950000Y-82751966D02*
X144983333Y-82685300D01*
X144983333Y-82685300D02*
X144983333Y-82551966D01*
X144983333Y-82551966D02*
X144950000Y-82485300D01*
X144950000Y-82485300D02*
X144916666Y-82451966D01*
X144916666Y-82451966D02*
X144850000Y-82418633D01*
X152049999Y-117818633D02*
X151816666Y-117485300D01*
X151649999Y-117818633D02*
X151649999Y-117118633D01*
X151649999Y-117118633D02*
X151916666Y-117118633D01*
X151916666Y-117118633D02*
X151983333Y-117151966D01*
X151983333Y-117151966D02*
X152016666Y-117185300D01*
X152016666Y-117185300D02*
X152049999Y-117251966D01*
X152049999Y-117251966D02*
X152049999Y-117351966D01*
X152049999Y-117351966D02*
X152016666Y-117418633D01*
X152016666Y-117418633D02*
X151983333Y-117451966D01*
X151983333Y-117451966D02*
X151916666Y-117485300D01*
X151916666Y-117485300D02*
X151649999Y-117485300D01*
X152316666Y-117185300D02*
X152349999Y-117151966D01*
X152349999Y-117151966D02*
X152416666Y-117118633D01*
X152416666Y-117118633D02*
X152583333Y-117118633D01*
X152583333Y-117118633D02*
X152649999Y-117151966D01*
X152649999Y-117151966D02*
X152683333Y-117185300D01*
X152683333Y-117185300D02*
X152716666Y-117251966D01*
X152716666Y-117251966D02*
X152716666Y-117318633D01*
X152716666Y-117318633D02*
X152683333Y-117418633D01*
X152683333Y-117418633D02*
X152283333Y-117818633D01*
X152283333Y-117818633D02*
X152716666Y-117818633D01*
X152950000Y-117118633D02*
X153416666Y-117118633D01*
X153416666Y-117118633D02*
X153116666Y-117818633D01*
D11*
X143274819Y-81172618D02*
X143274819Y-81077380D01*
X143274819Y-81077380D02*
X143322438Y-80982142D01*
X143322438Y-80982142D02*
X143370057Y-80934523D01*
X143370057Y-80934523D02*
X143465295Y-80886904D01*
X143465295Y-80886904D02*
X143655771Y-80839285D01*
X143655771Y-80839285D02*
X143893866Y-80839285D01*
X143893866Y-80839285D02*
X144084342Y-80886904D01*
X144084342Y-80886904D02*
X144179580Y-80934523D01*
X144179580Y-80934523D02*
X144227200Y-80982142D01*
X144227200Y-80982142D02*
X144274819Y-81077380D01*
X144274819Y-81077380D02*
X144274819Y-81172618D01*
X144274819Y-81172618D02*
X144227200Y-81267856D01*
X144227200Y-81267856D02*
X144179580Y-81315475D01*
X144179580Y-81315475D02*
X144084342Y-81363094D01*
X144084342Y-81363094D02*
X143893866Y-81410713D01*
X143893866Y-81410713D02*
X143655771Y-81410713D01*
X143655771Y-81410713D02*
X143465295Y-81363094D01*
X143465295Y-81363094D02*
X143370057Y-81315475D01*
X143370057Y-81315475D02*
X143322438Y-81267856D01*
X143322438Y-81267856D02*
X143274819Y-81172618D01*
D10*
X142708633Y-81575000D02*
X142375300Y-81808333D01*
X142708633Y-81975000D02*
X142008633Y-81975000D01*
X142008633Y-81975000D02*
X142008633Y-81708333D01*
X142008633Y-81708333D02*
X142041966Y-81641667D01*
X142041966Y-81641667D02*
X142075300Y-81608333D01*
X142075300Y-81608333D02*
X142141966Y-81575000D01*
X142141966Y-81575000D02*
X142241966Y-81575000D01*
X142241966Y-81575000D02*
X142308633Y-81608333D01*
X142308633Y-81608333D02*
X142341966Y-81641667D01*
X142341966Y-81641667D02*
X142375300Y-81708333D01*
X142375300Y-81708333D02*
X142375300Y-81975000D01*
X142708633Y-80908333D02*
X142708633Y-81308333D01*
X142708633Y-81108333D02*
X142008633Y-81108333D01*
X142008633Y-81108333D02*
X142108633Y-81175000D01*
X142108633Y-81175000D02*
X142175300Y-81241667D01*
X142175300Y-81241667D02*
X142208633Y-81308333D01*
X142008633Y-80308333D02*
X142008633Y-80441666D01*
X142008633Y-80441666D02*
X142041966Y-80508333D01*
X142041966Y-80508333D02*
X142075300Y-80541666D01*
X142075300Y-80541666D02*
X142175300Y-80608333D01*
X142175300Y-80608333D02*
X142308633Y-80641666D01*
X142308633Y-80641666D02*
X142575300Y-80641666D01*
X142575300Y-80641666D02*
X142641966Y-80608333D01*
X142641966Y-80608333D02*
X142675300Y-80575000D01*
X142675300Y-80575000D02*
X142708633Y-80508333D01*
X142708633Y-80508333D02*
X142708633Y-80375000D01*
X142708633Y-80375000D02*
X142675300Y-80308333D01*
X142675300Y-80308333D02*
X142641966Y-80275000D01*
X142641966Y-80275000D02*
X142575300Y-80241666D01*
X142575300Y-80241666D02*
X142408633Y-80241666D01*
X142408633Y-80241666D02*
X142341966Y-80275000D01*
X142341966Y-80275000D02*
X142308633Y-80308333D01*
X142308633Y-80308333D02*
X142275300Y-80375000D01*
X142275300Y-80375000D02*
X142275300Y-80508333D01*
X142275300Y-80508333D02*
X142308633Y-80575000D01*
X142308633Y-80575000D02*
X142341966Y-80608333D01*
X142341966Y-80608333D02*
X142408633Y-80641666D01*
D11*
X156704762Y-47122200D02*
X156847619Y-47169819D01*
X156847619Y-47169819D02*
X157085714Y-47169819D01*
X157085714Y-47169819D02*
X157180952Y-47122200D01*
X157180952Y-47122200D02*
X157228571Y-47074580D01*
X157228571Y-47074580D02*
X157276190Y-46979342D01*
X157276190Y-46979342D02*
X157276190Y-46884104D01*
X157276190Y-46884104D02*
X157228571Y-46788866D01*
X157228571Y-46788866D02*
X157180952Y-46741247D01*
X157180952Y-46741247D02*
X157085714Y-46693628D01*
X157085714Y-46693628D02*
X156895238Y-46646009D01*
X156895238Y-46646009D02*
X156800000Y-46598390D01*
X156800000Y-46598390D02*
X156752381Y-46550771D01*
X156752381Y-46550771D02*
X156704762Y-46455533D01*
X156704762Y-46455533D02*
X156704762Y-46360295D01*
X156704762Y-46360295D02*
X156752381Y-46265057D01*
X156752381Y-46265057D02*
X156800000Y-46217438D01*
X156800000Y-46217438D02*
X156895238Y-46169819D01*
X156895238Y-46169819D02*
X157133333Y-46169819D01*
X157133333Y-46169819D02*
X157276190Y-46217438D01*
X157609524Y-46169819D02*
X157847619Y-47169819D01*
X157847619Y-47169819D02*
X158038095Y-46455533D01*
X158038095Y-46455533D02*
X158228571Y-47169819D01*
X158228571Y-47169819D02*
X158466667Y-46169819D01*
X158609524Y-47265057D02*
X159371428Y-47265057D01*
X159561905Y-47122200D02*
X159704762Y-47169819D01*
X159704762Y-47169819D02*
X159942857Y-47169819D01*
X159942857Y-47169819D02*
X160038095Y-47122200D01*
X160038095Y-47122200D02*
X160085714Y-47074580D01*
X160085714Y-47074580D02*
X160133333Y-46979342D01*
X160133333Y-46979342D02*
X160133333Y-46884104D01*
X160133333Y-46884104D02*
X160085714Y-46788866D01*
X160085714Y-46788866D02*
X160038095Y-46741247D01*
X160038095Y-46741247D02*
X159942857Y-46693628D01*
X159942857Y-46693628D02*
X159752381Y-46646009D01*
X159752381Y-46646009D02*
X159657143Y-46598390D01*
X159657143Y-46598390D02*
X159609524Y-46550771D01*
X159609524Y-46550771D02*
X159561905Y-46455533D01*
X159561905Y-46455533D02*
X159561905Y-46360295D01*
X159561905Y-46360295D02*
X159609524Y-46265057D01*
X159609524Y-46265057D02*
X159657143Y-46217438D01*
X159657143Y-46217438D02*
X159752381Y-46169819D01*
X159752381Y-46169819D02*
X159990476Y-46169819D01*
X159990476Y-46169819D02*
X160133333Y-46217438D01*
X160561905Y-47169819D02*
X160561905Y-46169819D01*
X160561905Y-46169819D02*
X160942857Y-46169819D01*
X160942857Y-46169819D02*
X161038095Y-46217438D01*
X161038095Y-46217438D02*
X161085714Y-46265057D01*
X161085714Y-46265057D02*
X161133333Y-46360295D01*
X161133333Y-46360295D02*
X161133333Y-46503152D01*
X161133333Y-46503152D02*
X161085714Y-46598390D01*
X161085714Y-46598390D02*
X161038095Y-46646009D01*
X161038095Y-46646009D02*
X160942857Y-46693628D01*
X160942857Y-46693628D02*
X160561905Y-46693628D01*
X161561905Y-47169819D02*
X161561905Y-46169819D01*
X161561905Y-46169819D02*
X161800000Y-46169819D01*
X161800000Y-46169819D02*
X161942857Y-46217438D01*
X161942857Y-46217438D02*
X162038095Y-46312676D01*
X162038095Y-46312676D02*
X162085714Y-46407914D01*
X162085714Y-46407914D02*
X162133333Y-46598390D01*
X162133333Y-46598390D02*
X162133333Y-46741247D01*
X162133333Y-46741247D02*
X162085714Y-46931723D01*
X162085714Y-46931723D02*
X162038095Y-47026961D01*
X162038095Y-47026961D02*
X161942857Y-47122200D01*
X161942857Y-47122200D02*
X161800000Y-47169819D01*
X161800000Y-47169819D02*
X161561905Y-47169819D01*
X162419048Y-46169819D02*
X162990476Y-46169819D01*
X162704762Y-47169819D02*
X162704762Y-46169819D01*
D10*
X158766666Y-49485300D02*
X158866666Y-49518633D01*
X158866666Y-49518633D02*
X159033333Y-49518633D01*
X159033333Y-49518633D02*
X159099999Y-49485300D01*
X159099999Y-49485300D02*
X159133333Y-49451966D01*
X159133333Y-49451966D02*
X159166666Y-49385300D01*
X159166666Y-49385300D02*
X159166666Y-49318633D01*
X159166666Y-49318633D02*
X159133333Y-49251966D01*
X159133333Y-49251966D02*
X159099999Y-49218633D01*
X159099999Y-49218633D02*
X159033333Y-49185300D01*
X159033333Y-49185300D02*
X158899999Y-49151966D01*
X158899999Y-49151966D02*
X158833333Y-49118633D01*
X158833333Y-49118633D02*
X158799999Y-49085300D01*
X158799999Y-49085300D02*
X158766666Y-49018633D01*
X158766666Y-49018633D02*
X158766666Y-48951966D01*
X158766666Y-48951966D02*
X158799999Y-48885300D01*
X158799999Y-48885300D02*
X158833333Y-48851966D01*
X158833333Y-48851966D02*
X158899999Y-48818633D01*
X158899999Y-48818633D02*
X159066666Y-48818633D01*
X159066666Y-48818633D02*
X159166666Y-48851966D01*
X159400000Y-48818633D02*
X159566666Y-49518633D01*
X159566666Y-49518633D02*
X159700000Y-49018633D01*
X159700000Y-49018633D02*
X159833333Y-49518633D01*
X159833333Y-49518633D02*
X160000000Y-48818633D01*
X160200000Y-48818633D02*
X160633333Y-48818633D01*
X160633333Y-48818633D02*
X160400000Y-49085300D01*
X160400000Y-49085300D02*
X160500000Y-49085300D01*
X160500000Y-49085300D02*
X160566666Y-49118633D01*
X160566666Y-49118633D02*
X160600000Y-49151966D01*
X160600000Y-49151966D02*
X160633333Y-49218633D01*
X160633333Y-49218633D02*
X160633333Y-49385300D01*
X160633333Y-49385300D02*
X160600000Y-49451966D01*
X160600000Y-49451966D02*
X160566666Y-49485300D01*
X160566666Y-49485300D02*
X160500000Y-49518633D01*
X160500000Y-49518633D02*
X160300000Y-49518633D01*
X160300000Y-49518633D02*
X160233333Y-49485300D01*
X160233333Y-49485300D02*
X160200000Y-49451966D01*
X134266666Y-86749633D02*
X134266666Y-86049633D01*
X134733333Y-86049633D02*
X134866666Y-86049633D01*
X134866666Y-86049633D02*
X134933333Y-86082966D01*
X134933333Y-86082966D02*
X134999999Y-86149633D01*
X134999999Y-86149633D02*
X135033333Y-86282966D01*
X135033333Y-86282966D02*
X135033333Y-86516300D01*
X135033333Y-86516300D02*
X134999999Y-86649633D01*
X134999999Y-86649633D02*
X134933333Y-86716300D01*
X134933333Y-86716300D02*
X134866666Y-86749633D01*
X134866666Y-86749633D02*
X134733333Y-86749633D01*
X134733333Y-86749633D02*
X134666666Y-86716300D01*
X134666666Y-86716300D02*
X134599999Y-86649633D01*
X134599999Y-86649633D02*
X134566666Y-86516300D01*
X134566666Y-86516300D02*
X134566666Y-86282966D01*
X134566666Y-86282966D02*
X134599999Y-86149633D01*
X134599999Y-86149633D02*
X134666666Y-86082966D01*
X134666666Y-86082966D02*
X134733333Y-86049633D01*
X135633332Y-86282966D02*
X135633332Y-86749633D01*
X135466666Y-86016300D02*
X135299999Y-86516300D01*
X135299999Y-86516300D02*
X135733332Y-86516300D01*
X136299999Y-86049633D02*
X136166666Y-86049633D01*
X136166666Y-86049633D02*
X136099999Y-86082966D01*
X136099999Y-86082966D02*
X136066666Y-86116300D01*
X136066666Y-86116300D02*
X135999999Y-86216300D01*
X135999999Y-86216300D02*
X135966666Y-86349633D01*
X135966666Y-86349633D02*
X135966666Y-86616300D01*
X135966666Y-86616300D02*
X135999999Y-86682966D01*
X135999999Y-86682966D02*
X136033333Y-86716300D01*
X136033333Y-86716300D02*
X136099999Y-86749633D01*
X136099999Y-86749633D02*
X136233333Y-86749633D01*
X136233333Y-86749633D02*
X136299999Y-86716300D01*
X136299999Y-86716300D02*
X136333333Y-86682966D01*
X136333333Y-86682966D02*
X136366666Y-86616300D01*
X136366666Y-86616300D02*
X136366666Y-86449633D01*
X136366666Y-86449633D02*
X136333333Y-86382966D01*
X136333333Y-86382966D02*
X136299999Y-86349633D01*
X136299999Y-86349633D02*
X136233333Y-86316300D01*
X136233333Y-86316300D02*
X136099999Y-86316300D01*
X136099999Y-86316300D02*
X136033333Y-86349633D01*
X136033333Y-86349633D02*
X135999999Y-86382966D01*
X135999999Y-86382966D02*
X135966666Y-86449633D01*
X152334999Y-105318633D02*
X152101666Y-104985300D01*
X151934999Y-105318633D02*
X151934999Y-104618633D01*
X151934999Y-104618633D02*
X152201666Y-104618633D01*
X152201666Y-104618633D02*
X152268333Y-104651966D01*
X152268333Y-104651966D02*
X152301666Y-104685300D01*
X152301666Y-104685300D02*
X152334999Y-104751966D01*
X152334999Y-104751966D02*
X152334999Y-104851966D01*
X152334999Y-104851966D02*
X152301666Y-104918633D01*
X152301666Y-104918633D02*
X152268333Y-104951966D01*
X152268333Y-104951966D02*
X152201666Y-104985300D01*
X152201666Y-104985300D02*
X151934999Y-104985300D01*
X153001666Y-105318633D02*
X152601666Y-105318633D01*
X152801666Y-105318633D02*
X152801666Y-104618633D01*
X152801666Y-104618633D02*
X152734999Y-104718633D01*
X152734999Y-104718633D02*
X152668333Y-104785300D01*
X152668333Y-104785300D02*
X152601666Y-104818633D01*
X153235000Y-104618633D02*
X153668333Y-104618633D01*
X153668333Y-104618633D02*
X153435000Y-104885300D01*
X153435000Y-104885300D02*
X153535000Y-104885300D01*
X153535000Y-104885300D02*
X153601666Y-104918633D01*
X153601666Y-104918633D02*
X153635000Y-104951966D01*
X153635000Y-104951966D02*
X153668333Y-105018633D01*
X153668333Y-105018633D02*
X153668333Y-105185300D01*
X153668333Y-105185300D02*
X153635000Y-105251966D01*
X153635000Y-105251966D02*
X153601666Y-105285300D01*
X153601666Y-105285300D02*
X153535000Y-105318633D01*
X153535000Y-105318633D02*
X153335000Y-105318633D01*
X153335000Y-105318633D02*
X153268333Y-105285300D01*
X153268333Y-105285300D02*
X153235000Y-105251966D01*
X134718633Y-59933333D02*
X135285300Y-59933333D01*
X135285300Y-59933333D02*
X135351966Y-59900000D01*
X135351966Y-59900000D02*
X135385300Y-59866666D01*
X135385300Y-59866666D02*
X135418633Y-59800000D01*
X135418633Y-59800000D02*
X135418633Y-59666666D01*
X135418633Y-59666666D02*
X135385300Y-59600000D01*
X135385300Y-59600000D02*
X135351966Y-59566666D01*
X135351966Y-59566666D02*
X135285300Y-59533333D01*
X135285300Y-59533333D02*
X134718633Y-59533333D01*
X134718633Y-59266667D02*
X134718633Y-58800000D01*
X134718633Y-58800000D02*
X135418633Y-59100000D01*
X133866666Y-96595633D02*
X133866666Y-95895633D01*
X134333333Y-95895633D02*
X134466666Y-95895633D01*
X134466666Y-95895633D02*
X134533333Y-95928966D01*
X134533333Y-95928966D02*
X134599999Y-95995633D01*
X134599999Y-95995633D02*
X134633333Y-96128966D01*
X134633333Y-96128966D02*
X134633333Y-96362300D01*
X134633333Y-96362300D02*
X134599999Y-96495633D01*
X134599999Y-96495633D02*
X134533333Y-96562300D01*
X134533333Y-96562300D02*
X134466666Y-96595633D01*
X134466666Y-96595633D02*
X134333333Y-96595633D01*
X134333333Y-96595633D02*
X134266666Y-96562300D01*
X134266666Y-96562300D02*
X134199999Y-96495633D01*
X134199999Y-96495633D02*
X134166666Y-96362300D01*
X134166666Y-96362300D02*
X134166666Y-96128966D01*
X134166666Y-96128966D02*
X134199999Y-95995633D01*
X134199999Y-95995633D02*
X134266666Y-95928966D01*
X134266666Y-95928966D02*
X134333333Y-95895633D01*
X135299999Y-96595633D02*
X134899999Y-96595633D01*
X135099999Y-96595633D02*
X135099999Y-95895633D01*
X135099999Y-95895633D02*
X135033332Y-95995633D01*
X135033332Y-95995633D02*
X134966666Y-96062300D01*
X134966666Y-96062300D02*
X134899999Y-96095633D01*
X135899999Y-96128966D02*
X135899999Y-96595633D01*
X135733333Y-95862300D02*
X135566666Y-96362300D01*
X135566666Y-96362300D02*
X135999999Y-96362300D01*
X132964700Y-80691666D02*
X132931366Y-80791666D01*
X132931366Y-80791666D02*
X132931366Y-80958333D01*
X132931366Y-80958333D02*
X132964700Y-81024999D01*
X132964700Y-81024999D02*
X132998033Y-81058333D01*
X132998033Y-81058333D02*
X133064700Y-81091666D01*
X133064700Y-81091666D02*
X133131366Y-81091666D01*
X133131366Y-81091666D02*
X133198033Y-81058333D01*
X133198033Y-81058333D02*
X133231366Y-81024999D01*
X133231366Y-81024999D02*
X133264700Y-80958333D01*
X133264700Y-80958333D02*
X133298033Y-80824999D01*
X133298033Y-80824999D02*
X133331366Y-80758333D01*
X133331366Y-80758333D02*
X133364700Y-80724999D01*
X133364700Y-80724999D02*
X133431366Y-80691666D01*
X133431366Y-80691666D02*
X133498033Y-80691666D01*
X133498033Y-80691666D02*
X133564700Y-80724999D01*
X133564700Y-80724999D02*
X133598033Y-80758333D01*
X133598033Y-80758333D02*
X133631366Y-80824999D01*
X133631366Y-80824999D02*
X133631366Y-80991666D01*
X133631366Y-80991666D02*
X133598033Y-81091666D01*
X133631366Y-81325000D02*
X132931366Y-81491666D01*
X132931366Y-81491666D02*
X133431366Y-81625000D01*
X133431366Y-81625000D02*
X132931366Y-81758333D01*
X132931366Y-81758333D02*
X133631366Y-81925000D01*
X133564700Y-82158333D02*
X133598033Y-82191666D01*
X133598033Y-82191666D02*
X133631366Y-82258333D01*
X133631366Y-82258333D02*
X133631366Y-82425000D01*
X133631366Y-82425000D02*
X133598033Y-82491666D01*
X133598033Y-82491666D02*
X133564700Y-82525000D01*
X133564700Y-82525000D02*
X133498033Y-82558333D01*
X133498033Y-82558333D02*
X133431366Y-82558333D01*
X133431366Y-82558333D02*
X133331366Y-82525000D01*
X133331366Y-82525000D02*
X132931366Y-82125000D01*
X132931366Y-82125000D02*
X132931366Y-82558333D01*
X156151966Y-117654166D02*
X156185300Y-117687499D01*
X156185300Y-117687499D02*
X156218633Y-117787499D01*
X156218633Y-117787499D02*
X156218633Y-117854166D01*
X156218633Y-117854166D02*
X156185300Y-117954166D01*
X156185300Y-117954166D02*
X156118633Y-118020833D01*
X156118633Y-118020833D02*
X156051966Y-118054166D01*
X156051966Y-118054166D02*
X155918633Y-118087499D01*
X155918633Y-118087499D02*
X155818633Y-118087499D01*
X155818633Y-118087499D02*
X155685300Y-118054166D01*
X155685300Y-118054166D02*
X155618633Y-118020833D01*
X155618633Y-118020833D02*
X155551966Y-117954166D01*
X155551966Y-117954166D02*
X155518633Y-117854166D01*
X155518633Y-117854166D02*
X155518633Y-117787499D01*
X155518633Y-117787499D02*
X155551966Y-117687499D01*
X155551966Y-117687499D02*
X155585300Y-117654166D01*
X155518633Y-117054166D02*
X155518633Y-117187499D01*
X155518633Y-117187499D02*
X155551966Y-117254166D01*
X155551966Y-117254166D02*
X155585300Y-117287499D01*
X155585300Y-117287499D02*
X155685300Y-117354166D01*
X155685300Y-117354166D02*
X155818633Y-117387499D01*
X155818633Y-117387499D02*
X156085300Y-117387499D01*
X156085300Y-117387499D02*
X156151966Y-117354166D01*
X156151966Y-117354166D02*
X156185300Y-117320833D01*
X156185300Y-117320833D02*
X156218633Y-117254166D01*
X156218633Y-117254166D02*
X156218633Y-117120833D01*
X156218633Y-117120833D02*
X156185300Y-117054166D01*
X156185300Y-117054166D02*
X156151966Y-117020833D01*
X156151966Y-117020833D02*
X156085300Y-116987499D01*
X156085300Y-116987499D02*
X155918633Y-116987499D01*
X155918633Y-116987499D02*
X155851966Y-117020833D01*
X155851966Y-117020833D02*
X155818633Y-117054166D01*
X155818633Y-117054166D02*
X155785300Y-117120833D01*
X155785300Y-117120833D02*
X155785300Y-117254166D01*
X155785300Y-117254166D02*
X155818633Y-117320833D01*
X155818633Y-117320833D02*
X155851966Y-117354166D01*
X155851966Y-117354166D02*
X155918633Y-117387499D01*
X136500000Y-83818633D02*
X136500000Y-83118633D01*
X136966667Y-83118633D02*
X137100000Y-83118633D01*
X137100000Y-83118633D02*
X137166667Y-83151966D01*
X137166667Y-83151966D02*
X137233333Y-83218633D01*
X137233333Y-83218633D02*
X137266667Y-83351966D01*
X137266667Y-83351966D02*
X137266667Y-83585300D01*
X137266667Y-83585300D02*
X137233333Y-83718633D01*
X137233333Y-83718633D02*
X137166667Y-83785300D01*
X137166667Y-83785300D02*
X137100000Y-83818633D01*
X137100000Y-83818633D02*
X136966667Y-83818633D01*
X136966667Y-83818633D02*
X136900000Y-83785300D01*
X136900000Y-83785300D02*
X136833333Y-83718633D01*
X136833333Y-83718633D02*
X136800000Y-83585300D01*
X136800000Y-83585300D02*
X136800000Y-83351966D01*
X136800000Y-83351966D02*
X136833333Y-83218633D01*
X136833333Y-83218633D02*
X136900000Y-83151966D01*
X136900000Y-83151966D02*
X136966667Y-83118633D01*
X137500000Y-83118633D02*
X137933333Y-83118633D01*
X137933333Y-83118633D02*
X137700000Y-83385300D01*
X137700000Y-83385300D02*
X137800000Y-83385300D01*
X137800000Y-83385300D02*
X137866666Y-83418633D01*
X137866666Y-83418633D02*
X137900000Y-83451966D01*
X137900000Y-83451966D02*
X137933333Y-83518633D01*
X137933333Y-83518633D02*
X137933333Y-83685300D01*
X137933333Y-83685300D02*
X137900000Y-83751966D01*
X137900000Y-83751966D02*
X137866666Y-83785300D01*
X137866666Y-83785300D02*
X137800000Y-83818633D01*
X137800000Y-83818633D02*
X137600000Y-83818633D01*
X137600000Y-83818633D02*
X137533333Y-83785300D01*
X137533333Y-83785300D02*
X137500000Y-83751966D01*
X138483333Y-66418633D02*
X138149999Y-66418633D01*
X138149999Y-66418633D02*
X138149999Y-65718633D01*
X139083333Y-66418633D02*
X138683333Y-66418633D01*
X138883333Y-66418633D02*
X138883333Y-65718633D01*
X138883333Y-65718633D02*
X138816666Y-65818633D01*
X138816666Y-65818633D02*
X138750000Y-65885300D01*
X138750000Y-65885300D02*
X138683333Y-65918633D01*
X144383333Y-110818633D02*
X144150000Y-110485300D01*
X143983333Y-110818633D02*
X143983333Y-110118633D01*
X143983333Y-110118633D02*
X144250000Y-110118633D01*
X144250000Y-110118633D02*
X144316667Y-110151966D01*
X144316667Y-110151966D02*
X144350000Y-110185300D01*
X144350000Y-110185300D02*
X144383333Y-110251966D01*
X144383333Y-110251966D02*
X144383333Y-110351966D01*
X144383333Y-110351966D02*
X144350000Y-110418633D01*
X144350000Y-110418633D02*
X144316667Y-110451966D01*
X144316667Y-110451966D02*
X144250000Y-110485300D01*
X144250000Y-110485300D02*
X143983333Y-110485300D01*
X144983333Y-110351966D02*
X144983333Y-110818633D01*
X144816667Y-110085300D02*
X144650000Y-110585300D01*
X144650000Y-110585300D02*
X145083333Y-110585300D01*
X142404166Y-54068633D02*
X142404166Y-54635300D01*
X142404166Y-54635300D02*
X142437500Y-54701966D01*
X142437500Y-54701966D02*
X142470833Y-54735300D01*
X142470833Y-54735300D02*
X142537500Y-54768633D01*
X142537500Y-54768633D02*
X142670833Y-54768633D01*
X142670833Y-54768633D02*
X142737500Y-54735300D01*
X142737500Y-54735300D02*
X142770833Y-54701966D01*
X142770833Y-54701966D02*
X142804166Y-54635300D01*
X142804166Y-54635300D02*
X142804166Y-54068633D01*
X143470833Y-54068633D02*
X143137499Y-54068633D01*
X143137499Y-54068633D02*
X143104166Y-54401966D01*
X143104166Y-54401966D02*
X143137499Y-54368633D01*
X143137499Y-54368633D02*
X143204166Y-54335300D01*
X143204166Y-54335300D02*
X143370833Y-54335300D01*
X143370833Y-54335300D02*
X143437499Y-54368633D01*
X143437499Y-54368633D02*
X143470833Y-54401966D01*
X143470833Y-54401966D02*
X143504166Y-54468633D01*
X143504166Y-54468633D02*
X143504166Y-54635300D01*
X143504166Y-54635300D02*
X143470833Y-54701966D01*
X143470833Y-54701966D02*
X143437499Y-54735300D01*
X143437499Y-54735300D02*
X143370833Y-54768633D01*
X143370833Y-54768633D02*
X143204166Y-54768633D01*
X143204166Y-54768633D02*
X143137499Y-54735300D01*
X143137499Y-54735300D02*
X143104166Y-54701966D01*
X133866666Y-98236633D02*
X133866666Y-97536633D01*
X134333333Y-97536633D02*
X134466666Y-97536633D01*
X134466666Y-97536633D02*
X134533333Y-97569966D01*
X134533333Y-97569966D02*
X134599999Y-97636633D01*
X134599999Y-97636633D02*
X134633333Y-97769966D01*
X134633333Y-97769966D02*
X134633333Y-98003300D01*
X134633333Y-98003300D02*
X134599999Y-98136633D01*
X134599999Y-98136633D02*
X134533333Y-98203300D01*
X134533333Y-98203300D02*
X134466666Y-98236633D01*
X134466666Y-98236633D02*
X134333333Y-98236633D01*
X134333333Y-98236633D02*
X134266666Y-98203300D01*
X134266666Y-98203300D02*
X134199999Y-98136633D01*
X134199999Y-98136633D02*
X134166666Y-98003300D01*
X134166666Y-98003300D02*
X134166666Y-97769966D01*
X134166666Y-97769966D02*
X134199999Y-97636633D01*
X134199999Y-97636633D02*
X134266666Y-97569966D01*
X134266666Y-97569966D02*
X134333333Y-97536633D01*
X135233332Y-97769966D02*
X135233332Y-98236633D01*
X135066666Y-97503300D02*
X134899999Y-98003300D01*
X134899999Y-98003300D02*
X135333332Y-98003300D01*
X135533333Y-97536633D02*
X135999999Y-97536633D01*
X135999999Y-97536633D02*
X135699999Y-98236633D01*
X131618633Y-46216666D02*
X130918633Y-46216666D01*
X130918633Y-46216666D02*
X130918633Y-46049999D01*
X130918633Y-46049999D02*
X130951966Y-45949999D01*
X130951966Y-45949999D02*
X131018633Y-45883333D01*
X131018633Y-45883333D02*
X131085300Y-45849999D01*
X131085300Y-45849999D02*
X131218633Y-45816666D01*
X131218633Y-45816666D02*
X131318633Y-45816666D01*
X131318633Y-45816666D02*
X131451966Y-45849999D01*
X131451966Y-45849999D02*
X131518633Y-45883333D01*
X131518633Y-45883333D02*
X131585300Y-45949999D01*
X131585300Y-45949999D02*
X131618633Y-46049999D01*
X131618633Y-46049999D02*
X131618633Y-46216666D01*
X130985300Y-45549999D02*
X130951966Y-45516666D01*
X130951966Y-45516666D02*
X130918633Y-45449999D01*
X130918633Y-45449999D02*
X130918633Y-45283333D01*
X130918633Y-45283333D02*
X130951966Y-45216666D01*
X130951966Y-45216666D02*
X130985300Y-45183333D01*
X130985300Y-45183333D02*
X131051966Y-45149999D01*
X131051966Y-45149999D02*
X131118633Y-45149999D01*
X131118633Y-45149999D02*
X131218633Y-45183333D01*
X131218633Y-45183333D02*
X131618633Y-45583333D01*
X131618633Y-45583333D02*
X131618633Y-45149999D01*
X153283333Y-72254466D02*
X153250000Y-72287800D01*
X153250000Y-72287800D02*
X153150000Y-72321133D01*
X153150000Y-72321133D02*
X153083333Y-72321133D01*
X153083333Y-72321133D02*
X152983333Y-72287800D01*
X152983333Y-72287800D02*
X152916667Y-72221133D01*
X152916667Y-72221133D02*
X152883333Y-72154466D01*
X152883333Y-72154466D02*
X152850000Y-72021133D01*
X152850000Y-72021133D02*
X152850000Y-71921133D01*
X152850000Y-71921133D02*
X152883333Y-71787800D01*
X152883333Y-71787800D02*
X152916667Y-71721133D01*
X152916667Y-71721133D02*
X152983333Y-71654466D01*
X152983333Y-71654466D02*
X153083333Y-71621133D01*
X153083333Y-71621133D02*
X153150000Y-71621133D01*
X153150000Y-71621133D02*
X153250000Y-71654466D01*
X153250000Y-71654466D02*
X153283333Y-71687800D01*
X153516667Y-71621133D02*
X153983333Y-71621133D01*
X153983333Y-71621133D02*
X153683333Y-72321133D01*
X141908333Y-115518633D02*
X141675000Y-115185300D01*
X141508333Y-115518633D02*
X141508333Y-114818633D01*
X141508333Y-114818633D02*
X141775000Y-114818633D01*
X141775000Y-114818633D02*
X141841667Y-114851966D01*
X141841667Y-114851966D02*
X141875000Y-114885300D01*
X141875000Y-114885300D02*
X141908333Y-114951966D01*
X141908333Y-114951966D02*
X141908333Y-115051966D01*
X141908333Y-115051966D02*
X141875000Y-115118633D01*
X141875000Y-115118633D02*
X141841667Y-115151966D01*
X141841667Y-115151966D02*
X141775000Y-115185300D01*
X141775000Y-115185300D02*
X141508333Y-115185300D01*
X142141667Y-114818633D02*
X142608333Y-114818633D01*
X142608333Y-114818633D02*
X142308333Y-115518633D01*
X147100000Y-81838633D02*
X147100000Y-81138633D01*
X147566667Y-81138633D02*
X147700000Y-81138633D01*
X147700000Y-81138633D02*
X147766667Y-81171966D01*
X147766667Y-81171966D02*
X147833333Y-81238633D01*
X147833333Y-81238633D02*
X147866667Y-81371966D01*
X147866667Y-81371966D02*
X147866667Y-81605300D01*
X147866667Y-81605300D02*
X147833333Y-81738633D01*
X147833333Y-81738633D02*
X147766667Y-81805300D01*
X147766667Y-81805300D02*
X147700000Y-81838633D01*
X147700000Y-81838633D02*
X147566667Y-81838633D01*
X147566667Y-81838633D02*
X147500000Y-81805300D01*
X147500000Y-81805300D02*
X147433333Y-81738633D01*
X147433333Y-81738633D02*
X147400000Y-81605300D01*
X147400000Y-81605300D02*
X147400000Y-81371966D01*
X147400000Y-81371966D02*
X147433333Y-81238633D01*
X147433333Y-81238633D02*
X147500000Y-81171966D01*
X147500000Y-81171966D02*
X147566667Y-81138633D01*
X148100000Y-81138633D02*
X148566666Y-81138633D01*
X148566666Y-81138633D02*
X148266666Y-81838633D01*
X151251966Y-77550000D02*
X151285300Y-77583333D01*
X151285300Y-77583333D02*
X151318633Y-77683333D01*
X151318633Y-77683333D02*
X151318633Y-77750000D01*
X151318633Y-77750000D02*
X151285300Y-77850000D01*
X151285300Y-77850000D02*
X151218633Y-77916667D01*
X151218633Y-77916667D02*
X151151966Y-77950000D01*
X151151966Y-77950000D02*
X151018633Y-77983333D01*
X151018633Y-77983333D02*
X150918633Y-77983333D01*
X150918633Y-77983333D02*
X150785300Y-77950000D01*
X150785300Y-77950000D02*
X150718633Y-77916667D01*
X150718633Y-77916667D02*
X150651966Y-77850000D01*
X150651966Y-77850000D02*
X150618633Y-77750000D01*
X150618633Y-77750000D02*
X150618633Y-77683333D01*
X150618633Y-77683333D02*
X150651966Y-77583333D01*
X150651966Y-77583333D02*
X150685300Y-77550000D01*
X151318633Y-76883333D02*
X151318633Y-77283333D01*
X151318633Y-77083333D02*
X150618633Y-77083333D01*
X150618633Y-77083333D02*
X150718633Y-77150000D01*
X150718633Y-77150000D02*
X150785300Y-77216667D01*
X150785300Y-77216667D02*
X150818633Y-77283333D01*
X150618633Y-76450000D02*
X150618633Y-76383333D01*
X150618633Y-76383333D02*
X150651966Y-76316666D01*
X150651966Y-76316666D02*
X150685300Y-76283333D01*
X150685300Y-76283333D02*
X150751966Y-76250000D01*
X150751966Y-76250000D02*
X150885300Y-76216666D01*
X150885300Y-76216666D02*
X151051966Y-76216666D01*
X151051966Y-76216666D02*
X151185300Y-76250000D01*
X151185300Y-76250000D02*
X151251966Y-76283333D01*
X151251966Y-76283333D02*
X151285300Y-76316666D01*
X151285300Y-76316666D02*
X151318633Y-76383333D01*
X151318633Y-76383333D02*
X151318633Y-76450000D01*
X151318633Y-76450000D02*
X151285300Y-76516666D01*
X151285300Y-76516666D02*
X151251966Y-76550000D01*
X151251966Y-76550000D02*
X151185300Y-76583333D01*
X151185300Y-76583333D02*
X151051966Y-76616666D01*
X151051966Y-76616666D02*
X150885300Y-76616666D01*
X150885300Y-76616666D02*
X150751966Y-76583333D01*
X150751966Y-76583333D02*
X150685300Y-76550000D01*
X150685300Y-76550000D02*
X150651966Y-76516666D01*
X150651966Y-76516666D02*
X150618633Y-76450000D01*
X140518633Y-112866666D02*
X140185300Y-113099999D01*
X140518633Y-113266666D02*
X139818633Y-113266666D01*
X139818633Y-113266666D02*
X139818633Y-112999999D01*
X139818633Y-112999999D02*
X139851966Y-112933333D01*
X139851966Y-112933333D02*
X139885300Y-112899999D01*
X139885300Y-112899999D02*
X139951966Y-112866666D01*
X139951966Y-112866666D02*
X140051966Y-112866666D01*
X140051966Y-112866666D02*
X140118633Y-112899999D01*
X140118633Y-112899999D02*
X140151966Y-112933333D01*
X140151966Y-112933333D02*
X140185300Y-112999999D01*
X140185300Y-112999999D02*
X140185300Y-113266666D01*
X139818633Y-112266666D02*
X139818633Y-112399999D01*
X139818633Y-112399999D02*
X139851966Y-112466666D01*
X139851966Y-112466666D02*
X139885300Y-112499999D01*
X139885300Y-112499999D02*
X139985300Y-112566666D01*
X139985300Y-112566666D02*
X140118633Y-112599999D01*
X140118633Y-112599999D02*
X140385300Y-112599999D01*
X140385300Y-112599999D02*
X140451966Y-112566666D01*
X140451966Y-112566666D02*
X140485300Y-112533333D01*
X140485300Y-112533333D02*
X140518633Y-112466666D01*
X140518633Y-112466666D02*
X140518633Y-112333333D01*
X140518633Y-112333333D02*
X140485300Y-112266666D01*
X140485300Y-112266666D02*
X140451966Y-112233333D01*
X140451966Y-112233333D02*
X140385300Y-112199999D01*
X140385300Y-112199999D02*
X140218633Y-112199999D01*
X140218633Y-112199999D02*
X140151966Y-112233333D01*
X140151966Y-112233333D02*
X140118633Y-112266666D01*
X140118633Y-112266666D02*
X140085300Y-112333333D01*
X140085300Y-112333333D02*
X140085300Y-112466666D01*
X140085300Y-112466666D02*
X140118633Y-112533333D01*
X140118633Y-112533333D02*
X140151966Y-112566666D01*
X140151966Y-112566666D02*
X140218633Y-112599999D01*
X154249999Y-108818633D02*
X154016666Y-108485300D01*
X153849999Y-108818633D02*
X153849999Y-108118633D01*
X153849999Y-108118633D02*
X154116666Y-108118633D01*
X154116666Y-108118633D02*
X154183333Y-108151966D01*
X154183333Y-108151966D02*
X154216666Y-108185300D01*
X154216666Y-108185300D02*
X154249999Y-108251966D01*
X154249999Y-108251966D02*
X154249999Y-108351966D01*
X154249999Y-108351966D02*
X154216666Y-108418633D01*
X154216666Y-108418633D02*
X154183333Y-108451966D01*
X154183333Y-108451966D02*
X154116666Y-108485300D01*
X154116666Y-108485300D02*
X153849999Y-108485300D01*
X154916666Y-108818633D02*
X154516666Y-108818633D01*
X154716666Y-108818633D02*
X154716666Y-108118633D01*
X154716666Y-108118633D02*
X154649999Y-108218633D01*
X154649999Y-108218633D02*
X154583333Y-108285300D01*
X154583333Y-108285300D02*
X154516666Y-108318633D01*
X155583333Y-108818633D02*
X155183333Y-108818633D01*
X155383333Y-108818633D02*
X155383333Y-108118633D01*
X155383333Y-108118633D02*
X155316666Y-108218633D01*
X155316666Y-108218633D02*
X155250000Y-108285300D01*
X155250000Y-108285300D02*
X155183333Y-108318633D01*
%TO.C,C1*%
X131500000Y-70950000D02*
X131500000Y-75250000D01*
X132500000Y-69950000D02*
X131500000Y-70950000D01*
X135350000Y-70566044D02*
X135350000Y-71066044D01*
X135600000Y-70816044D02*
X135100000Y-70816044D01*
X135800000Y-69950000D02*
X132500000Y-69950000D01*
X135800000Y-69950000D02*
X136800000Y-70950000D01*
X136800000Y-70950000D02*
X136800000Y-75250000D01*
X136800000Y-75250000D02*
X131500000Y-75250000D01*
X136650000Y-72600000D02*
G75*
G02*
X131650000Y-72600000I-2500000J0D01*
G01*
X131650000Y-72600000D02*
G75*
G02*
X136650000Y-72600000I2500000J0D01*
G01*
%TO.C,IO11*%
X136600000Y-90754000D02*
X137830000Y-90754000D01*
X136600000Y-91954000D02*
X136600000Y-90754000D01*
X137800000Y-90754000D02*
X137800000Y-91954000D01*
X137800000Y-91954000D02*
X136600000Y-91954000D01*
%TO.C,C8*%
X151062500Y-69912500D02*
X152662500Y-69912500D01*
X151062500Y-70712500D02*
X151062500Y-69912500D01*
X152662500Y-69912500D02*
X152662500Y-70712500D01*
X152662500Y-70712500D02*
X151062500Y-70712500D01*
%TO.C,R24*%
X130887500Y-60200000D02*
X131712500Y-60200000D01*
X130887500Y-61800000D02*
X130887500Y-60200000D01*
X131712500Y-60200000D02*
X131712500Y-61800000D01*
X131712500Y-61800000D02*
X130887500Y-61800000D01*
%TO.C,IO9*%
X136600000Y-87472000D02*
X137830000Y-87472000D01*
X136600000Y-88672000D02*
X136600000Y-87472000D01*
X137800000Y-87472000D02*
X137800000Y-88672000D01*
X137800000Y-88672000D02*
X136600000Y-88672000D01*
%TO.C,D11*%
X154780000Y-122127500D02*
X154780000Y-126727500D01*
X154780000Y-122127500D02*
X157780000Y-122127500D01*
X155480920Y-125076940D02*
X157081120Y-125076940D01*
X156281020Y-123926320D02*
X156281020Y-122928100D01*
X156281020Y-125076940D02*
X155480920Y-123926320D01*
X156281020Y-125076940D02*
X156281020Y-125978640D01*
X156281020Y-125076940D02*
X157030320Y-123926320D01*
X157030320Y-123926320D02*
X155480920Y-123926320D01*
X157780000Y-122127500D02*
X157780000Y-126727500D01*
X157780000Y-126727500D02*
X154780000Y-126727500D01*
%TO.C,C11*%
X157485000Y-104155000D02*
X158285000Y-104155000D01*
X157485000Y-105755000D02*
X157485000Y-104155000D01*
X158285000Y-104155000D02*
X158285000Y-105755000D01*
X158285000Y-105755000D02*
X157485000Y-105755000D01*
%TO.C,IO5*%
X151400000Y-80920000D02*
X152630000Y-80920000D01*
X151400000Y-82120000D02*
X151400000Y-80920000D01*
X152600000Y-80920000D02*
X152600000Y-82120000D01*
X152600000Y-82120000D02*
X151400000Y-82120000D01*
%TO.C,IO4*%
X152590000Y-82190000D02*
X153820000Y-82190000D01*
X152590000Y-83390000D02*
X152590000Y-82190000D01*
X153790000Y-82190000D02*
X153790000Y-83390000D01*
X153790000Y-83390000D02*
X152590000Y-83390000D01*
%TO.C,D7*%
X152549999Y-46270001D02*
X152549999Y-47869999D01*
X152549999Y-47869999D02*
X153350001Y-47869999D01*
X153049999Y-46270000D02*
X152549999Y-46270001D01*
X153350001Y-46569999D02*
X153049999Y-46270000D01*
X153350001Y-47869999D02*
X153350001Y-46569999D01*
%TO.C,R23*%
X131850000Y-64855000D02*
X135050000Y-64855000D01*
X131850000Y-67345000D02*
X131850000Y-64855000D01*
X135050000Y-64855000D02*
X135050000Y-67345000D01*
X135050000Y-67345000D02*
X131850000Y-67345000D01*
%TO.C,R18*%
X156910000Y-58667500D02*
X158510000Y-58667500D01*
X156910000Y-59492500D02*
X156910000Y-58667500D01*
X158510000Y-58667500D02*
X158510000Y-59492500D01*
X158510000Y-59492500D02*
X156910000Y-59492500D01*
%TO.C,D10*%
X132700000Y-123200000D02*
X132700000Y-127800000D01*
X132700000Y-123200000D02*
X135700000Y-123200000D01*
X133400920Y-126149440D02*
X135001120Y-126149440D01*
X134201020Y-124998820D02*
X134201020Y-124000600D01*
X134201020Y-126149440D02*
X133400920Y-124998820D01*
X134201020Y-126149440D02*
X134201020Y-127051140D01*
X134201020Y-126149440D02*
X134950320Y-124998820D01*
X134950320Y-124998820D02*
X133400920Y-124998820D01*
X135700000Y-123200000D02*
X135700000Y-127800000D01*
X135700000Y-127800000D02*
X132700000Y-127800000D01*
%TO.C,IO40*%
X146700000Y-105000000D02*
X147930000Y-105000000D01*
X146700000Y-106200000D02*
X146700000Y-105000000D01*
X147900000Y-105000000D02*
X147900000Y-106200000D01*
X147900000Y-106200000D02*
X146700000Y-106200000D01*
%TO.C,R2*%
X145800000Y-45787500D02*
X147400000Y-45787500D01*
X145800000Y-46612500D02*
X145800000Y-45787500D01*
X147400000Y-45787500D02*
X147400000Y-46612500D01*
X147400000Y-46612500D02*
X145800000Y-46612500D01*
%TO.C,D1*%
X148317500Y-121177500D02*
X152917500Y-121177500D01*
X148317500Y-124177500D02*
X148317500Y-121177500D01*
X148317500Y-124177500D02*
X152917500Y-124177500D01*
X150116320Y-121927180D02*
X150116320Y-123476580D01*
X150116320Y-122676480D02*
X149118100Y-122676480D01*
X151266940Y-122676480D02*
X150116320Y-121927180D01*
X151266940Y-122676480D02*
X150116320Y-123476580D01*
X151266940Y-122676480D02*
X152168640Y-122676480D01*
X151266940Y-123476580D02*
X151266940Y-121876380D01*
X152917500Y-121177500D02*
X152917500Y-124177500D01*
%TO.C,R19*%
X157070000Y-56427500D02*
X158670000Y-56427500D01*
X157070000Y-57252500D02*
X157070000Y-56427500D01*
X158670000Y-56427500D02*
X158670000Y-57252500D01*
X158670000Y-57252500D02*
X157070000Y-57252500D01*
%TO.C,R1*%
X145800000Y-47587500D02*
X147400000Y-47587500D01*
X145800000Y-48412500D02*
X145800000Y-47587500D01*
X147400000Y-47587500D02*
X147400000Y-48412500D01*
X147400000Y-48412500D02*
X145800000Y-48412500D01*
%TO.C,C3*%
X136950000Y-122650000D02*
X142250000Y-122650000D01*
X136950000Y-126950000D02*
X136950000Y-122650000D01*
X137950000Y-127950000D02*
X136950000Y-126950000D01*
X137950000Y-127950000D02*
X141250000Y-127950000D01*
X138150000Y-127083956D02*
X138650000Y-127083956D01*
X138400000Y-127333956D02*
X138400000Y-126833956D01*
X141250000Y-127950000D02*
X142250000Y-126950000D01*
X142250000Y-126950000D02*
X142250000Y-122650000D01*
X142100000Y-125300000D02*
G75*
G02*
X137100000Y-125300000I-2500000J0D01*
G01*
X137100000Y-125300000D02*
G75*
G02*
X142100000Y-125300000I2500000J0D01*
G01*
%TO.C,L2*%
X136200000Y-116700000D02*
X132200000Y-116700000D01*
X132200000Y-120700000D01*
X136200000Y-120700000D01*
X136200000Y-116700000D01*
%TO.C,C16*%
X134000000Y-53100000D02*
X135600000Y-53100000D01*
X134000000Y-53900000D02*
X134000000Y-53100000D01*
X135600000Y-53100000D02*
X135600000Y-53900000D01*
X135600000Y-53900000D02*
X134000000Y-53900000D01*
%TO.C,IO10*%
X136600000Y-89113000D02*
X137830000Y-89113000D01*
X136600000Y-90313000D02*
X136600000Y-89113000D01*
X137800000Y-89113000D02*
X137800000Y-90313000D01*
X137800000Y-90313000D02*
X136600000Y-90313000D01*
%TO.C,R20*%
X142492500Y-65527500D02*
X144092500Y-65527500D01*
X142492500Y-66352500D02*
X142492500Y-65527500D01*
X144092500Y-65527500D02*
X144092500Y-66352500D01*
X144092500Y-66352500D02*
X142492500Y-66352500D01*
%TO.C,C2*%
X131850000Y-111050000D02*
X131850000Y-114350000D01*
X131850000Y-111050000D02*
X132850000Y-110050000D01*
X131850000Y-114350000D02*
X132850000Y-115350000D01*
X132466044Y-111500000D02*
X132966044Y-111500000D01*
X132716044Y-111250000D02*
X132716044Y-111750000D01*
X132850000Y-110050000D02*
X137150000Y-110050000D01*
X132850000Y-115350000D02*
X137150000Y-115350000D01*
X137150000Y-110050000D02*
X137150000Y-115350000D01*
X137000000Y-112700000D02*
G75*
G02*
X132000000Y-112700000I-2500000J0D01*
G01*
X132000000Y-112700000D02*
G75*
G02*
X137000000Y-112700000I2500000J0D01*
G01*
%TO.C,IO45*%
X136600000Y-100600000D02*
X137830000Y-100600000D01*
X136600000Y-101800000D02*
X136600000Y-100600000D01*
X137800000Y-100600000D02*
X137800000Y-101800000D01*
X137800000Y-101800000D02*
X136600000Y-101800000D01*
%TO.C,C9*%
X152400000Y-78212500D02*
X153200000Y-78212500D01*
X152400000Y-79812500D02*
X152400000Y-78212500D01*
X153200000Y-78212500D02*
X153200000Y-79812500D01*
X153200000Y-79812500D02*
X152400000Y-79812500D01*
%TO.C,R9*%
X152437500Y-51400000D02*
X153262500Y-51400000D01*
X152437500Y-53000000D02*
X152437500Y-51400000D01*
X153262500Y-51400000D02*
X153262500Y-53000000D01*
X153262500Y-53000000D02*
X152437500Y-53000000D01*
%TO.C,U3*%
X137050000Y-118037500D02*
X139950000Y-118037500D01*
X137050000Y-119237500D02*
X137050000Y-118037500D01*
X137450000Y-119637500D02*
X137050000Y-119237500D01*
X139950000Y-118037500D02*
X139950000Y-119637500D01*
X139950000Y-119637500D02*
X137450000Y-119637500D01*
%TO.C,U4*%
X141792500Y-68140000D02*
X144292500Y-68140000D01*
X141792500Y-69740000D02*
X141792500Y-68140000D01*
X144292500Y-68140000D02*
X144692500Y-68540000D01*
X144692500Y-68540000D02*
X144692500Y-69740000D01*
X144692500Y-69740000D02*
X141792500Y-69740000D01*
%TO.C,SW1*%
X131400000Y-107675000D02*
X135100000Y-107675000D01*
X135100000Y-101575000D01*
X131400000Y-101575000D01*
X131400000Y-107675000D01*
%TO.C,Q1*%
X145330000Y-115580000D02*
X145330000Y-114230000D01*
X147030000Y-114230000D02*
X145330000Y-114230000D01*
X147530000Y-114730000D02*
X147030000Y-114230000D01*
X147530000Y-115580000D02*
X145330000Y-115580000D01*
X147530000Y-115580000D02*
X147530000Y-114730000D01*
%TO.C,C14*%
X142442500Y-73340000D02*
X144042500Y-73340000D01*
X142442500Y-74140000D02*
X142442500Y-73340000D01*
X144042500Y-73340000D02*
X144042500Y-74140000D01*
X144042500Y-74140000D02*
X142442500Y-74140000D01*
%TO.C,U6*%
X150350000Y-74212500D02*
X152850000Y-74212500D01*
X150350000Y-75812500D02*
X150350000Y-74212500D01*
X152850000Y-74212500D02*
X153250000Y-74612500D01*
X153250000Y-74612500D02*
X153250000Y-75812500D01*
X153250000Y-75812500D02*
X150350000Y-75812500D01*
%TO.C,IO6*%
X150091667Y-82240000D02*
X151321667Y-82240000D01*
X150091667Y-83440000D02*
X150091667Y-82240000D01*
X151291667Y-82240000D02*
X151291667Y-83440000D01*
X151291667Y-83440000D02*
X150091667Y-83440000D01*
%TO.C,IO42*%
X149800000Y-103900000D02*
X151030000Y-103900000D01*
X149800000Y-105100000D02*
X149800000Y-103900000D01*
X151000000Y-103900000D02*
X151000000Y-105100000D01*
X151000000Y-105100000D02*
X149800000Y-105100000D01*
%TO.C,F3*%
X151820000Y-125290000D02*
X153420000Y-125290000D01*
X151820000Y-128490000D02*
X151820000Y-125290000D01*
X153420000Y-125290000D02*
X153420000Y-128490000D01*
X153420000Y-128490000D02*
X151820000Y-128490000D01*
%TO.C,D3*%
X155000000Y-104450000D02*
X156800000Y-104450000D01*
X155000000Y-107250000D02*
X155000000Y-104450000D01*
X155500000Y-106100000D02*
X155900000Y-105500000D01*
X155900000Y-105100000D02*
X155900000Y-105500000D01*
X155900000Y-105500000D02*
X155350000Y-105500000D01*
X155900000Y-105500000D02*
X156300000Y-106100000D01*
X155900000Y-105500000D02*
X156450000Y-105500000D01*
X155900000Y-106100000D02*
X155900000Y-106600000D01*
X156300000Y-106100000D02*
X155500000Y-106100000D01*
X156800000Y-104450000D02*
X156800000Y-107250000D01*
X156800000Y-107250000D02*
X155000000Y-107250000D01*
%TO.C,D8*%
X150350000Y-46270000D02*
X150350000Y-47870000D01*
X150350000Y-47870000D02*
X151150000Y-47870000D01*
X150849999Y-46270000D02*
X150350000Y-46270000D01*
X151150000Y-47870000D02*
X151150001Y-46570000D01*
X151150001Y-46570000D02*
X150849999Y-46270000D01*
%TO.C,R22*%
X131337500Y-54350000D02*
X132162500Y-54350000D01*
X131337500Y-55950000D02*
X131337500Y-54350000D01*
X132162500Y-54350000D02*
X132162500Y-55950000D01*
X132162500Y-55950000D02*
X131337500Y-55950000D01*
%TO.C,R5*%
X145445000Y-111787500D02*
X147045000Y-111787500D01*
X145445000Y-112612500D02*
X145445000Y-111787500D01*
X147045000Y-111787500D02*
X147045000Y-112612500D01*
X147045000Y-112612500D02*
X145445000Y-112612500D01*
%TO.C,J5*%
X161790000Y-52910000D02*
X164330000Y-52910000D01*
X161790000Y-68150000D02*
X161790000Y-52910000D01*
X163695000Y-68150000D02*
X161790000Y-68150000D01*
X164330000Y-52910000D02*
X164330000Y-67515000D01*
X164330000Y-67515000D02*
X163695000Y-68150000D01*
%TO.C,IO48*%
X136600000Y-98959000D02*
X137830000Y-98959000D01*
X136600000Y-100159000D02*
X136600000Y-98959000D01*
X137800000Y-98959000D02*
X137800000Y-100159000D01*
X137800000Y-100159000D02*
X136600000Y-100159000D01*
%TO.C,R14*%
X141200000Y-119787500D02*
X142800000Y-119787500D01*
X141200000Y-120612500D02*
X141200000Y-119787500D01*
X142800000Y-119787500D02*
X142800000Y-120612500D01*
X142800000Y-120612500D02*
X141200000Y-120612500D01*
%TO.C,Q3*%
X141292500Y-60377500D02*
X145692500Y-60377500D01*
X141292500Y-63377500D02*
X141292500Y-60377500D01*
X144942500Y-63377500D02*
X141292500Y-63377500D01*
X145692500Y-60377500D02*
X145692500Y-62627500D01*
X145692500Y-62627500D02*
X144942500Y-63377500D01*
%TO.C,R26*%
X148490000Y-117987500D02*
X150090000Y-117987500D01*
X148490000Y-118812500D02*
X148490000Y-117987500D01*
X150090000Y-117987500D02*
X150090000Y-118812500D01*
X150090000Y-118812500D02*
X148490000Y-118812500D01*
%TO.C,R25*%
X140397500Y-80325000D02*
X141222500Y-80325000D01*
X140397500Y-81925000D02*
X140397500Y-80325000D01*
X141222500Y-80325000D02*
X141222500Y-81925000D01*
X141222500Y-81925000D02*
X140397500Y-81925000D01*
%TO.C,J1*%
X133180000Y-44000002D02*
X133180000Y-51350001D01*
X142120000Y-44000001D02*
X133180000Y-44000002D01*
X142120000Y-51350000D02*
X133180000Y-51350001D01*
X142120000Y-51350000D02*
X142120000Y-44000001D01*
%TO.C,IO41*%
X148300000Y-103900000D02*
X149530000Y-103900000D01*
X148300000Y-105100000D02*
X148300000Y-103900000D01*
X149500000Y-103900000D02*
X149500000Y-105100000D01*
X149500000Y-105100000D02*
X148300000Y-105100000D01*
%TO.C,J2*%
X137320000Y-132272500D02*
X157640000Y-132272500D01*
X137320000Y-134272500D02*
X157640000Y-134272500D01*
X137320000Y-140472500D02*
X157640000Y-140472500D01*
X137320000Y-142972500D02*
X137320000Y-132272500D01*
X137320000Y-142972500D02*
X157640000Y-142972500D01*
X137820000Y-143472500D02*
X137320000Y-142972500D01*
X141133000Y-136655500D02*
X138343000Y-139445500D01*
X141377000Y-136899500D02*
X138587000Y-139689500D01*
X146213000Y-136655500D02*
X143423000Y-139445500D01*
X146457000Y-136899500D02*
X143667000Y-139689500D01*
X151293000Y-136655500D02*
X148503000Y-139445500D01*
X151537000Y-136899500D02*
X148747000Y-139689500D01*
X156373000Y-136655500D02*
X153583000Y-139445500D01*
X156617000Y-136899500D02*
X153827000Y-139689500D01*
X157640000Y-132272500D02*
X157640000Y-143472500D01*
X157640000Y-143472500D02*
X137820000Y-143472500D01*
X141860000Y-138172500D02*
G75*
G02*
X137860000Y-138172500I-2000000J0D01*
G01*
X137860000Y-138172500D02*
G75*
G02*
X141860000Y-138172500I2000000J0D01*
G01*
X146940000Y-138172500D02*
G75*
G02*
X142940000Y-138172500I-2000000J0D01*
G01*
X142940000Y-138172500D02*
G75*
G02*
X146940000Y-138172500I2000000J0D01*
G01*
X152020000Y-138172500D02*
G75*
G02*
X148020000Y-138172500I-2000000J0D01*
G01*
X148020000Y-138172500D02*
G75*
G02*
X152020000Y-138172500I2000000J0D01*
G01*
X157100000Y-138172500D02*
G75*
G02*
X153100000Y-138172500I-2000000J0D01*
G01*
X153100000Y-138172500D02*
G75*
G02*
X157100000Y-138172500I2000000J0D01*
G01*
%TO.C,F1*%
X133400000Y-130600000D02*
X135000000Y-130600000D01*
X133400000Y-133800000D02*
X133400000Y-130600000D01*
X135000000Y-130600000D02*
X135000000Y-133800000D01*
X135000000Y-133800000D02*
X133400000Y-133800000D01*
%TO.C,U1*%
X139310000Y-84400000D02*
X139310000Y-102400000D01*
X139310000Y-84400000D02*
X164810000Y-84400000D01*
X139310000Y-102400000D02*
X164810000Y-102400000D01*
X158810000Y-84400000D02*
X158810000Y-102400000D01*
X164810000Y-84400000D02*
X164810000Y-102400000D01*
%TO.C,R12*%
X152100000Y-106387500D02*
X153700000Y-106387500D01*
X152100000Y-107212500D02*
X152100000Y-106387500D01*
X153700000Y-106387500D02*
X153700000Y-107212500D01*
X153700000Y-107212500D02*
X152100000Y-107212500D01*
%TO.C,U2*%
X148595000Y-111500000D02*
X152520000Y-111500000D01*
X148595000Y-115400000D02*
X148595000Y-111500000D01*
X152520000Y-111500000D02*
X153495000Y-112475000D01*
X153495000Y-112475000D02*
X153495000Y-115400000D01*
X153495000Y-115400000D02*
X148595000Y-115400000D01*
%TO.C,D12*%
X143500000Y-122172500D02*
X146500000Y-122172500D01*
X143500000Y-126772500D02*
X143500000Y-122172500D01*
X144249680Y-124973680D02*
X145799080Y-124973680D01*
X144998980Y-123823060D02*
X144249680Y-124973680D01*
X144998980Y-123823060D02*
X144998980Y-122921360D01*
X144998980Y-123823060D02*
X145799080Y-124973680D01*
X144998980Y-124973680D02*
X144998980Y-125971900D01*
X145799080Y-123823060D02*
X144198880Y-123823060D01*
X146500000Y-126772500D02*
X143500000Y-126772500D01*
X146500000Y-126772500D02*
X146500000Y-122172500D01*
%TO.C,IO12*%
X136600000Y-92395000D02*
X137830000Y-92395000D01*
X136600000Y-93595000D02*
X136600000Y-92395000D01*
X137800000Y-92395000D02*
X137800000Y-93595000D01*
X137800000Y-93595000D02*
X136600000Y-93595000D01*
%TO.C,R3*%
X156027500Y-80100000D02*
X156852500Y-80100000D01*
X156027500Y-81700000D02*
X156027500Y-80100000D01*
X156852500Y-80100000D02*
X156852500Y-81700000D01*
X156852500Y-81700000D02*
X156027500Y-81700000D01*
%TO.C,R15*%
X141200000Y-117787500D02*
X142800000Y-117787500D01*
X141200000Y-118612500D02*
X141200000Y-117787500D01*
X142800000Y-117787500D02*
X142800000Y-118612500D01*
X142800000Y-118612500D02*
X141200000Y-118612500D01*
%TO.C,R8*%
X140387500Y-104125000D02*
X141212500Y-104125000D01*
X140387500Y-105725000D02*
X140387500Y-104125000D01*
X141212500Y-104125000D02*
X141212500Y-105725000D01*
X141212500Y-105725000D02*
X140387500Y-105725000D01*
%TO.C,C5*%
X154320000Y-80100000D02*
X155120000Y-80100000D01*
X154320000Y-81700000D02*
X154320000Y-80100000D01*
X155120000Y-80100000D02*
X155120000Y-81700000D01*
X155120000Y-81700000D02*
X154320000Y-81700000D01*
%TO.C,R17*%
X142442500Y-71527500D02*
X144042500Y-71527500D01*
X142442500Y-72352500D02*
X142442500Y-71527500D01*
X144042500Y-71527500D02*
X144042500Y-72352500D01*
X144042500Y-72352500D02*
X142442500Y-72352500D01*
%TO.C,D6*%
X138150000Y-69600000D02*
X139950000Y-69600000D01*
X138150000Y-72400000D02*
X138150000Y-69600000D01*
X138650000Y-71250000D02*
X139050000Y-70650000D01*
X139050000Y-70250000D02*
X139050000Y-70650000D01*
X139050000Y-70650000D02*
X138500000Y-70650000D01*
X139050000Y-70650000D02*
X139450000Y-71250000D01*
X139050000Y-70650000D02*
X139600000Y-70650000D01*
X139050000Y-71250000D02*
X139050000Y-71750000D01*
X139450000Y-71250000D02*
X138650000Y-71250000D01*
X139950000Y-69600000D02*
X139950000Y-72400000D01*
X139950000Y-72400000D02*
X138150000Y-72400000D01*
%TO.C,R28*%
X160530000Y-127997500D02*
X162130000Y-127997500D01*
X160530000Y-128822500D02*
X160530000Y-127997500D01*
X162130000Y-127997500D02*
X162130000Y-128822500D01*
X162130000Y-128822500D02*
X160530000Y-128822500D01*
%TO.C,R21*%
X130987500Y-50400000D02*
X131812500Y-50400000D01*
X130987500Y-52000000D02*
X130987500Y-50400000D01*
X131812500Y-50400000D02*
X131812500Y-52000000D01*
X131812500Y-52000000D02*
X130987500Y-52000000D01*
%TO.C,F2*%
X147810000Y-125350000D02*
X149410000Y-125350000D01*
X147810000Y-128550000D02*
X147810000Y-125350000D01*
X149410000Y-125350000D02*
X149410000Y-128550000D01*
X149410000Y-128550000D02*
X147810000Y-128550000D01*
%TO.C,R10*%
X150437500Y-51450000D02*
X151262500Y-51450000D01*
X150437500Y-53050000D02*
X150437500Y-51450000D01*
X151262500Y-51450000D02*
X151262500Y-53050000D01*
X151262500Y-53050000D02*
X150437500Y-53050000D01*
%TO.C,IO13*%
X136600000Y-94036000D02*
X137830000Y-94036000D01*
X136600000Y-95236000D02*
X136600000Y-94036000D01*
X137800000Y-94036000D02*
X137800000Y-95236000D01*
X137800000Y-95236000D02*
X136600000Y-95236000D01*
%TO.C,IO8*%
X143650000Y-81900000D02*
X144880000Y-81900000D01*
X143650000Y-83100000D02*
X143650000Y-81900000D01*
X144850000Y-81900000D02*
X144850000Y-83100000D01*
X144850000Y-83100000D02*
X143650000Y-83100000D01*
%TO.C,R27*%
X151705000Y-118077500D02*
X153305000Y-118077500D01*
X151705000Y-118902500D02*
X151705000Y-118077500D01*
X153305000Y-118077500D02*
X153305000Y-118902500D01*
X153305000Y-118902500D02*
X151705000Y-118902500D01*
%TO.C,R16*%
X141977500Y-80325000D02*
X142802500Y-80325000D01*
X141977500Y-81925000D02*
X141977500Y-80325000D01*
X142802500Y-80325000D02*
X142802500Y-81925000D01*
X142802500Y-81925000D02*
X141977500Y-81925000D01*
%TO.C,SW3*%
X158350000Y-45315000D02*
X158350000Y-43865000D01*
X159650000Y-43865000D02*
X158350000Y-43865000D01*
X159650000Y-45315000D02*
X159650000Y-43865000D01*
X163150000Y-48115000D02*
X156450000Y-48115000D01*
X156450000Y-45315000D01*
X163150000Y-45315000D01*
X163150000Y-48115000D01*
%TO.C,IO46*%
X136600000Y-85831000D02*
X137830000Y-85831000D01*
X136600000Y-87031000D02*
X136600000Y-85831000D01*
X137800000Y-85831000D02*
X137800000Y-87031000D01*
X137800000Y-87031000D02*
X136600000Y-87031000D01*
%TO.C,R13*%
X151985000Y-103617500D02*
X153585000Y-103617500D01*
X151985000Y-104442500D02*
X151985000Y-103617500D01*
X153585000Y-103617500D02*
X153585000Y-104442500D01*
X153585000Y-104442500D02*
X151985000Y-104442500D01*
%TO.C,U7*%
X132650000Y-57450000D02*
X137550000Y-57450000D01*
X132650000Y-60375000D02*
X132650000Y-57450000D01*
X133625000Y-61350000D02*
X132650000Y-60375000D01*
X137550000Y-57450000D02*
X137550000Y-61350000D01*
X137550000Y-61350000D02*
X133625000Y-61350000D01*
%TO.C,IO14*%
X136600000Y-95677000D02*
X137830000Y-95677000D01*
X136600000Y-96877000D02*
X136600000Y-95677000D01*
X137800000Y-95677000D02*
X137800000Y-96877000D01*
X137800000Y-96877000D02*
X136600000Y-96877000D01*
%TO.C,SW2*%
X135100000Y-78575000D02*
X131400000Y-78575000D01*
X131400000Y-84675000D01*
X135100000Y-84675000D01*
X135100000Y-78575000D01*
%TO.C,C6*%
X154500000Y-116737500D02*
X155300000Y-116737500D01*
X154500000Y-118337500D02*
X154500000Y-116737500D01*
X155300000Y-116737500D02*
X155300000Y-118337500D01*
X155300000Y-118337500D02*
X154500000Y-118337500D01*
%TO.C,IO3*%
X136600000Y-84190000D02*
X137830000Y-84190000D01*
X136600000Y-85390000D02*
X136600000Y-84190000D01*
X137800000Y-84190000D02*
X137800000Y-85390000D01*
X137800000Y-85390000D02*
X136600000Y-85390000D01*
%TO.C,L1*%
X140600000Y-68100000D02*
X136600000Y-68100000D01*
X136600000Y-64100000D01*
X140600000Y-64100000D01*
X140600000Y-68100000D01*
%TO.C,R4*%
X145445000Y-110087500D02*
X147045000Y-110087500D01*
X145445000Y-110912500D02*
X145445000Y-110087500D01*
X147045000Y-110087500D02*
X147045000Y-110912500D01*
X147045000Y-110912500D02*
X145445000Y-110912500D01*
%TO.C,U5*%
X142137500Y-53400000D02*
X142537500Y-53000000D01*
X142137500Y-55900000D02*
X142137500Y-53400000D01*
X142537500Y-53000000D02*
X143737500Y-53000000D01*
X143737500Y-53000000D02*
X143737500Y-55900000D01*
X143737500Y-55900000D02*
X142137500Y-55900000D01*
%TO.C,IO47*%
X136600000Y-97318000D02*
X137830000Y-97318000D01*
X136600000Y-98518000D02*
X136600000Y-97318000D01*
X137800000Y-97318000D02*
X137800000Y-98518000D01*
X137800000Y-98518000D02*
X136600000Y-98518000D01*
%TO.C,D2*%
X131000000Y-46400000D02*
X131000000Y-48000000D01*
X131000000Y-48000000D02*
X131800000Y-48000000D01*
X131500000Y-46400000D02*
X131000000Y-46400000D01*
X131800000Y-46700000D02*
X131500000Y-46400000D01*
X131800000Y-48000000D02*
X131800000Y-46700000D01*
%TO.C,C7*%
X151062500Y-71602500D02*
X152662500Y-71602500D01*
X151062500Y-72402500D02*
X151062500Y-71602500D01*
X152662500Y-71602500D02*
X152662500Y-72402500D01*
X152662500Y-72402500D02*
X151062500Y-72402500D01*
%TO.C,R7*%
X141225000Y-115787500D02*
X142825000Y-115787500D01*
X141225000Y-116612500D02*
X141225000Y-115787500D01*
X142825000Y-115787500D02*
X142825000Y-116612500D01*
X142825000Y-116612500D02*
X141225000Y-116612500D01*
%TO.C,IO7*%
X148865000Y-80920000D02*
X150095000Y-80920000D01*
X148865000Y-82120000D02*
X148865000Y-80920000D01*
X150065000Y-80920000D02*
X150065000Y-82120000D01*
X150065000Y-82120000D02*
X148865000Y-82120000D01*
%TO.C,C10*%
X150600000Y-78250000D02*
X151400000Y-78250000D01*
X150600000Y-79850000D02*
X150600000Y-78250000D01*
X151400000Y-78250000D02*
X151400000Y-79850000D01*
X151400000Y-79850000D02*
X150600000Y-79850000D01*
%TO.C,R6*%
X140787500Y-111950000D02*
X141612500Y-111950000D01*
X140787500Y-113550000D02*
X140787500Y-111950000D01*
X141612500Y-111950000D02*
X141612500Y-113550000D01*
X141612500Y-113550000D02*
X140787500Y-113550000D01*
%TO.C,R11*%
X152000000Y-108087500D02*
X153600000Y-108087500D01*
X152000000Y-108912500D02*
X152000000Y-108087500D01*
X153600000Y-108087500D02*
X153600000Y-108912500D01*
X153600000Y-108912500D02*
X152000000Y-108912500D01*
%TD*%
M02*
