%TF.GenerationSoftware,KiCad,Pcbnew,9.0.1*%
%TF.CreationDate,2025-10-10T09:50:29+06:00*%
%TF.ProjectId,Plant_pulse_hardware_V1.0,506c616e-745f-4707-956c-73655f686172,rev?*%
%TF.SameCoordinates,Original*%
%TF.FileFunction,Soldermask,Top*%
%TF.FilePolarity,Negative*%
%FSLAX46Y46*%
G04 Gerber Fmt 4.6, Leading zero omitted, Abs format (unit mm)*
G04 Created by KiCad (PCBNEW 9.0.1) date 2025-10-10 09:50:29*
%MOMM*%
%LPD*%
G01*
G04 APERTURE LIST*
G04 Aperture macros list*
%AMRoundRect*
0 Rectangle with rounded corners*
0 $1 Rounding radius*
0 $2 $3 $4 $5 $6 $7 $8 $9 X,Y pos of 4 corners*
0 Add a 4 corners polygon primitive as box body*
4,1,4,$2,$3,$4,$5,$6,$7,$8,$9,$2,$3,0*
0 Add four circle primitives for the rounded corners*
1,1,$1+$1,$2,$3*
1,1,$1+$1,$4,$5*
1,1,$1+$1,$6,$7*
1,1,$1+$1,$8,$9*
0 Add four rect primitives between the rounded corners*
20,1,$1+$1,$2,$3,$4,$5,0*
20,1,$1+$1,$4,$5,$6,$7,0*
20,1,$1+$1,$6,$7,$8,$9,0*
20,1,$1+$1,$8,$9,$2,$3,0*%
%AMFreePoly0*
4,1,23,0.500000,-0.750000,0.000000,-0.750000,0.000000,-0.745722,-0.065263,-0.745722,-0.191342,-0.711940,-0.304381,-0.646677,-0.396677,-0.554381,-0.461940,-0.441342,-0.495722,-0.315263,-0.495722,-0.250000,-0.500000,-0.250000,-0.500000,0.250000,-0.495722,0.250000,-0.495722,0.315263,-0.461940,0.441342,-0.396677,0.554381,-0.304381,0.646677,-0.191342,0.711940,-0.065263,0.745722,0.000000,0.745722,
0.000000,0.750000,0.500000,0.750000,0.500000,-0.750000,0.500000,-0.750000,$1*%
%AMFreePoly1*
4,1,23,0.000000,0.745722,0.065263,0.745722,0.191342,0.711940,0.304381,0.646677,0.396677,0.554381,0.461940,0.441342,0.495722,0.315263,0.495722,0.250000,0.500000,0.250000,0.500000,-0.250000,0.495722,-0.250000,0.495722,-0.315263,0.461940,-0.441342,0.396677,-0.554381,0.304381,-0.646677,0.191342,-0.711940,0.065263,-0.745722,0.000000,-0.745722,0.000000,-0.750000,-0.500000,-0.750000,
-0.500000,0.750000,0.000000,0.750000,0.000000,0.745722,0.000000,0.745722,$1*%
G04 Aperture macros list end*
%ADD10RoundRect,0.250000X-0.550000X1.250000X-0.550000X-1.250000X0.550000X-1.250000X0.550000X1.250000X0*%
%ADD11RoundRect,0.250000X-0.250000X-0.250000X0.250000X-0.250000X0.250000X0.250000X-0.250000X0.250000X0*%
%ADD12RoundRect,0.237500X0.300000X0.237500X-0.300000X0.237500X-0.300000X-0.237500X0.300000X-0.237500X0*%
%ADD13RoundRect,0.200000X0.275000X-0.200000X0.275000X0.200000X-0.275000X0.200000X-0.275000X-0.200000X0*%
%ADD14RoundRect,0.250000X0.650000X-1.000000X0.650000X1.000000X-0.650000X1.000000X-0.650000X-1.000000X0*%
%ADD15RoundRect,0.237500X-0.237500X0.300000X-0.237500X-0.300000X0.237500X-0.300000X0.237500X0.300000X0*%
%ADD16RoundRect,0.218750X-0.256250X0.218750X-0.256250X-0.218750X0.256250X-0.218750X0.256250X0.218750X0*%
%ADD17RoundRect,0.250000X-0.312500X-1.075000X0.312500X-1.075000X0.312500X1.075000X-0.312500X1.075000X0*%
%ADD18RoundRect,0.237500X-0.250000X-0.237500X0.250000X-0.237500X0.250000X0.237500X-0.250000X0.237500X0*%
%ADD19RoundRect,0.200000X-0.200000X-0.275000X0.200000X-0.275000X0.200000X0.275000X-0.200000X0.275000X0*%
%ADD20RoundRect,0.250000X1.000000X0.650000X-1.000000X0.650000X-1.000000X-0.650000X1.000000X-0.650000X0*%
%ADD21RoundRect,0.250000X0.550000X-1.250000X0.550000X1.250000X-0.550000X1.250000X-0.550000X-1.250000X0*%
%ADD22RoundRect,0.250000X-1.600000X0.300000X-1.600000X-0.300000X1.600000X-0.300000X1.600000X0.300000X0*%
%ADD23RoundRect,0.237500X-0.300000X-0.237500X0.300000X-0.237500X0.300000X0.237500X-0.300000X0.237500X0*%
%ADD24RoundRect,0.237500X0.250000X0.237500X-0.250000X0.237500X-0.250000X-0.237500X0.250000X-0.237500X0*%
%ADD25RoundRect,0.250000X-1.250000X-0.550000X1.250000X-0.550000X1.250000X0.550000X-1.250000X0.550000X0*%
%ADD26RoundRect,0.150000X0.150000X-0.512500X0.150000X0.512500X-0.150000X0.512500X-0.150000X-0.512500X0*%
%ADD27RoundRect,0.150000X-0.150000X0.512500X-0.150000X-0.512500X0.150000X-0.512500X0.150000X0.512500X0*%
%ADD28R,1.000000X1.250000*%
%ADD29RoundRect,0.112500X0.112500X0.237500X-0.112500X0.237500X-0.112500X-0.237500X0.112500X-0.237500X0*%
%ADD30RoundRect,0.250000X0.625000X-0.375000X0.625000X0.375000X-0.625000X0.375000X-0.625000X-0.375000X0*%
%ADD31RoundRect,0.225000X-0.375000X0.225000X-0.375000X-0.225000X0.375000X-0.225000X0.375000X0.225000X0*%
%ADD32R,1.700000X1.700000*%
%ADD33C,1.700000*%
%ADD34RoundRect,0.100000X0.637500X0.100000X-0.637500X0.100000X-0.637500X-0.100000X0.637500X-0.100000X0*%
%ADD35RoundRect,0.200000X0.200000X0.275000X-0.200000X0.275000X-0.200000X-0.275000X0.200000X-0.275000X0*%
%ADD36FreePoly0,90.000000*%
%ADD37FreePoly1,90.000000*%
%ADD38C,0.650000*%
%ADD39R,0.600000X1.240000*%
%ADD40R,0.300000X1.240000*%
%ADD41O,1.000000X1.800000*%
%ADD42O,1.000000X2.100000*%
%ADD43RoundRect,0.250000X-1.050000X-1.050000X1.050000X-1.050000X1.050000X1.050000X-1.050000X1.050000X0*%
%ADD44C,2.600000*%
%ADD45R,0.900000X1.500000*%
%ADD46R,1.500000X0.900000*%
%ADD47C,0.600000*%
%ADD48R,3.900000X3.900000*%
%ADD49RoundRect,0.150000X-0.150000X0.825000X-0.150000X-0.825000X0.150000X-0.825000X0.150000X0.825000X0*%
%ADD50RoundRect,0.250000X-0.650000X1.000000X-0.650000X-1.000000X0.650000X-1.000000X0.650000X1.000000X0*%
%ADD51RoundRect,0.200000X-0.275000X0.200000X-0.275000X-0.200000X0.275000X-0.200000X0.275000X0.200000X0*%
%ADD52RoundRect,0.237500X0.237500X-0.300000X0.237500X0.300000X-0.237500X0.300000X-0.237500X-0.300000X0*%
%ADD53C,0.850000*%
%ADD54RoundRect,0.150000X0.150000X0.500000X-0.150000X0.500000X-0.150000X-0.500000X0.150000X-0.500000X0*%
%ADD55RoundRect,0.175000X0.350000X0.175000X-0.350000X0.175000X-0.350000X-0.175000X0.350000X-0.175000X0*%
%ADD56RoundRect,0.150000X0.150000X-0.825000X0.150000X0.825000X-0.150000X0.825000X-0.150000X-0.825000X0*%
%ADD57R,3.300000X2.410000*%
%ADD58RoundRect,0.250000X0.300000X1.600000X-0.300000X1.600000X-0.300000X-1.600000X0.300000X-1.600000X0*%
%ADD59RoundRect,0.150000X-0.512500X-0.150000X0.512500X-0.150000X0.512500X0.150000X-0.512500X0.150000X0*%
%ADD60C,2.390000*%
G04 APERTURE END LIST*
%TO.C,JP1*%
G36*
X161350000Y-125600000D02*
G01*
X162850000Y-125600000D01*
X162850000Y-125300000D01*
X161350000Y-125300000D01*
X161350000Y-125600000D01*
G37*
%TD*%
D10*
%TO.C,C1*%
X134150000Y-70400000D03*
X134150000Y-74800000D03*
%TD*%
D11*
%TO.C,IO11*%
X137200000Y-91354000D03*
%TD*%
D12*
%TO.C,C8*%
X152725000Y-70312500D03*
X151000000Y-70312500D03*
%TD*%
D13*
%TO.C,R24*%
X131300000Y-61825000D03*
X131300000Y-60175000D03*
%TD*%
D11*
%TO.C,IO9*%
X137200000Y-88072000D03*
%TD*%
D14*
%TO.C,D11*%
X156280000Y-126427500D03*
X156280000Y-122427500D03*
%TD*%
D15*
%TO.C,C11*%
X157885000Y-104092500D03*
X157885000Y-105817500D03*
%TD*%
D11*
%TO.C,IO5*%
X151948333Y-81520000D03*
%TD*%
%TO.C,IO4*%
X153190000Y-82790000D03*
%TD*%
D16*
%TO.C,D7*%
X152950000Y-46282500D03*
X152950000Y-47857500D03*
%TD*%
D17*
%TO.C,R23*%
X131987500Y-66100000D03*
X134912500Y-66100000D03*
%TD*%
D18*
%TO.C,R18*%
X156797500Y-59080000D03*
X158622500Y-59080000D03*
%TD*%
D14*
%TO.C,D10*%
X134200000Y-127500000D03*
X134200000Y-123500000D03*
%TD*%
D11*
%TO.C,IO40*%
X147300000Y-105600000D03*
%TD*%
D19*
%TO.C,R2*%
X145775000Y-46200000D03*
X147425000Y-46200000D03*
%TD*%
D20*
%TO.C,D1*%
X152617500Y-122677500D03*
X148617500Y-122677500D03*
%TD*%
D18*
%TO.C,R19*%
X156957500Y-56840000D03*
X158782500Y-56840000D03*
%TD*%
D19*
%TO.C,R1*%
X145775000Y-48000000D03*
X147425000Y-48000000D03*
%TD*%
D21*
%TO.C,C3*%
X139600000Y-127500000D03*
X139600000Y-123100000D03*
%TD*%
D22*
%TO.C,L2*%
X134200000Y-117200000D03*
X134200000Y-120200000D03*
%TD*%
D23*
%TO.C,C16*%
X133937500Y-53500000D03*
X135662500Y-53500000D03*
%TD*%
D11*
%TO.C,IO10*%
X137200000Y-89713000D03*
%TD*%
D24*
%TO.C,R20*%
X144205000Y-65940000D03*
X142380000Y-65940000D03*
%TD*%
D25*
%TO.C,C2*%
X132300000Y-112700000D03*
X136700000Y-112700000D03*
%TD*%
D11*
%TO.C,IO45*%
X137200000Y-101200000D03*
%TD*%
D15*
%TO.C,C9*%
X152800000Y-78150000D03*
X152800000Y-79875000D03*
%TD*%
D13*
%TO.C,R9*%
X152850000Y-53025000D03*
X152850000Y-51375000D03*
%TD*%
D26*
%TO.C,U3*%
X137550000Y-119975000D03*
X138500000Y-119975000D03*
X139450000Y-119975000D03*
X139450000Y-117700000D03*
X138500000Y-117700000D03*
X137550000Y-117700000D03*
%TD*%
D27*
%TO.C,U4*%
X144192500Y-67802500D03*
X143242500Y-67802500D03*
X142292500Y-67802500D03*
X142292500Y-70077500D03*
X143242500Y-70077500D03*
X144192500Y-70077500D03*
%TD*%
D28*
%TO.C,SW1*%
X133250000Y-108500000D03*
X133250000Y-100750000D03*
%TD*%
D29*
%TO.C,Q1*%
X147080000Y-113910000D03*
X145780000Y-113910000D03*
X146430000Y-115910000D03*
%TD*%
D12*
%TO.C,C14*%
X144105000Y-73740000D03*
X142380000Y-73740000D03*
%TD*%
D27*
%TO.C,U6*%
X152750000Y-73875000D03*
X151800000Y-73875000D03*
X150850000Y-73875000D03*
X150850000Y-76150000D03*
X152750000Y-76150000D03*
%TD*%
D11*
%TO.C,IO6*%
X150691667Y-82840000D03*
%TD*%
%TO.C,IO42*%
X150400000Y-104500000D03*
%TD*%
D30*
%TO.C,F3*%
X152620000Y-128290000D03*
X152620000Y-125490000D03*
%TD*%
D31*
%TO.C,D3*%
X155900000Y-104200000D03*
X155900000Y-107500000D03*
%TD*%
D16*
%TO.C,D8*%
X150750000Y-46282500D03*
X150750000Y-47857500D03*
%TD*%
D13*
%TO.C,R22*%
X131750000Y-55975000D03*
X131750000Y-54325000D03*
%TD*%
D19*
%TO.C,R5*%
X145420000Y-112200000D03*
X147070000Y-112200000D03*
%TD*%
D32*
%TO.C,J5*%
X163060000Y-66880000D03*
D33*
X163060000Y-64340000D03*
X163060000Y-61800000D03*
X163060000Y-59260000D03*
X163060000Y-56720000D03*
X163060000Y-54180000D03*
%TD*%
D11*
%TO.C,IO48*%
X137200000Y-99559000D03*
%TD*%
D19*
%TO.C,R14*%
X141175000Y-120200000D03*
X142825000Y-120200000D03*
%TD*%
D34*
%TO.C,Q3*%
X146355000Y-62852500D03*
X146355000Y-62202500D03*
X146355000Y-61552500D03*
X146355000Y-60902500D03*
X140630000Y-60902500D03*
X140630000Y-61552500D03*
X140630000Y-62202500D03*
X140630000Y-62852500D03*
%TD*%
D35*
%TO.C,R26*%
X150115000Y-118400000D03*
X148465000Y-118400000D03*
%TD*%
D13*
%TO.C,R25*%
X140810000Y-81950000D03*
X140810000Y-80300000D03*
%TD*%
D36*
%TO.C,JP1*%
X162100000Y-126100000D03*
D37*
X162100000Y-124800000D03*
%TD*%
D38*
%TO.C,J1*%
X140540000Y-50280001D03*
X134760000Y-50280002D03*
D39*
X140850000Y-51400001D03*
X140050001Y-51400000D03*
D40*
X138900001Y-51399999D03*
X137900000Y-51400000D03*
X137400002Y-51400002D03*
X136400001Y-51400000D03*
D39*
X135249999Y-51400002D03*
X134450001Y-51399999D03*
X134450001Y-51399999D03*
X135249999Y-51400002D03*
D40*
X135900000Y-51400002D03*
X136900000Y-51400000D03*
X138399999Y-51400002D03*
X139399999Y-51400000D03*
D39*
X140050001Y-51400000D03*
X140850000Y-51400001D03*
D41*
X141970001Y-46600001D03*
D42*
X141970000Y-50799999D03*
X133329999Y-50800002D03*
D41*
X133329999Y-46600000D03*
%TD*%
D11*
%TO.C,IO41*%
X148900000Y-104500000D03*
%TD*%
D43*
%TO.C,J2*%
X139860000Y-138172500D03*
D44*
X144940000Y-138172500D03*
X150020000Y-138172500D03*
X155100000Y-138172500D03*
%TD*%
D30*
%TO.C,F1*%
X134200000Y-133600000D03*
X134200000Y-130800000D03*
%TD*%
D45*
%TO.C,U1*%
X157320000Y-84650000D03*
X156050000Y-84650000D03*
X154780000Y-84650000D03*
X153510000Y-84650000D03*
X152240000Y-84650000D03*
X150970000Y-84650000D03*
X149700000Y-84650000D03*
X148430000Y-84650000D03*
X147160000Y-84650000D03*
X145890000Y-84650000D03*
X144620000Y-84650000D03*
X143350000Y-84650000D03*
X142080000Y-84650000D03*
X140810000Y-84650000D03*
D46*
X139560000Y-86415000D03*
X139560000Y-87685000D03*
X139560000Y-88955000D03*
X139560000Y-90225000D03*
X139560000Y-91495000D03*
X139560000Y-92765000D03*
X139560000Y-94035000D03*
X139560000Y-95305000D03*
X139560000Y-96575000D03*
X139560000Y-97845000D03*
X139560000Y-99115000D03*
X139560000Y-100385000D03*
D45*
X140810000Y-102150000D03*
X142080000Y-102150000D03*
X143350000Y-102150000D03*
X144620000Y-102150000D03*
X145890000Y-102150000D03*
X147160000Y-102150000D03*
X148430000Y-102150000D03*
X149700000Y-102150000D03*
X150970000Y-102150000D03*
X152240000Y-102150000D03*
X153510000Y-102150000D03*
X154780000Y-102150000D03*
X156050000Y-102150000D03*
X157320000Y-102150000D03*
D47*
X150300000Y-90500000D03*
X148900000Y-90500000D03*
X151000000Y-91200000D03*
X149600000Y-91200000D03*
X148200000Y-91200000D03*
X150300000Y-91900000D03*
D48*
X149600000Y-91900000D03*
D47*
X148900000Y-91900000D03*
X151000000Y-92600000D03*
X149600000Y-92600000D03*
X148200000Y-92600000D03*
X150300000Y-93300000D03*
X148900000Y-93300000D03*
%TD*%
D19*
%TO.C,R12*%
X152075000Y-106800000D03*
X153725000Y-106800000D03*
%TD*%
D49*
%TO.C,U2*%
X152950000Y-110975000D03*
X151680000Y-110975000D03*
X150410000Y-110975000D03*
X149140000Y-110975000D03*
X149140000Y-115925000D03*
X150410000Y-115925000D03*
X151680000Y-115925000D03*
X152950000Y-115925000D03*
%TD*%
D50*
%TO.C,D12*%
X145000000Y-122472500D03*
X145000000Y-126472500D03*
%TD*%
D11*
%TO.C,IO12*%
X137200000Y-92995000D03*
%TD*%
D51*
%TO.C,R3*%
X156440000Y-80075000D03*
X156440000Y-81725000D03*
%TD*%
D35*
%TO.C,R15*%
X142825000Y-118200000D03*
X141175000Y-118200000D03*
%TD*%
D13*
%TO.C,R8*%
X140800000Y-105750000D03*
X140800000Y-104100000D03*
%TD*%
D52*
%TO.C,C5*%
X154720000Y-81762500D03*
X154720000Y-80037500D03*
%TD*%
D18*
%TO.C,R17*%
X142330000Y-71940000D03*
X144155000Y-71940000D03*
%TD*%
D31*
%TO.C,D6*%
X139050000Y-69350000D03*
X139050000Y-72650000D03*
%TD*%
D19*
%TO.C,R28*%
X160505000Y-128410000D03*
X162155000Y-128410000D03*
%TD*%
D51*
%TO.C,R21*%
X131400000Y-50375000D03*
X131400000Y-52025000D03*
%TD*%
D30*
%TO.C,F2*%
X148610000Y-128350000D03*
X148610000Y-125550000D03*
%TD*%
D13*
%TO.C,R10*%
X150850000Y-53075000D03*
X150850000Y-51425000D03*
%TD*%
D11*
%TO.C,IO13*%
X137200000Y-94636000D03*
%TD*%
%TO.C,IO8*%
X144250000Y-82500000D03*
%TD*%
D35*
%TO.C,R27*%
X153330000Y-118490000D03*
X151680000Y-118490000D03*
%TD*%
D13*
%TO.C,R16*%
X142390000Y-81950000D03*
X142390000Y-80300000D03*
%TD*%
D53*
%TO.C,SW3*%
X161300000Y-46715000D03*
X158300000Y-46715000D03*
D54*
X162050000Y-48665000D03*
X159050000Y-48665000D03*
X157550000Y-48665000D03*
D55*
X163475000Y-47815000D03*
X163475000Y-45615000D03*
X156125000Y-47815000D03*
X156125000Y-45615000D03*
%TD*%
D11*
%TO.C,IO46*%
X137200000Y-86431000D03*
%TD*%
D35*
%TO.C,R13*%
X153610000Y-104030000D03*
X151960000Y-104030000D03*
%TD*%
D56*
%TO.C,U7*%
X133195000Y-61875000D03*
X134465000Y-61875000D03*
X135735000Y-61875000D03*
X137005000Y-61875000D03*
X137005000Y-56925000D03*
X135735000Y-56925000D03*
X134465000Y-56925000D03*
X133195000Y-56925000D03*
D57*
X135100000Y-59400000D03*
%TD*%
D11*
%TO.C,IO14*%
X137200000Y-96277000D03*
%TD*%
D28*
%TO.C,SW2*%
X133250000Y-77750000D03*
X133250000Y-85500000D03*
%TD*%
D15*
%TO.C,C6*%
X154900000Y-116675000D03*
X154900000Y-118400000D03*
%TD*%
D11*
%TO.C,IO3*%
X137200000Y-84790000D03*
%TD*%
D58*
%TO.C,L1*%
X140100000Y-66100000D03*
X137100000Y-66100000D03*
%TD*%
D19*
%TO.C,R4*%
X145420000Y-110500000D03*
X147070000Y-110500000D03*
%TD*%
D59*
%TO.C,U5*%
X141800000Y-53500000D03*
X141800000Y-54450000D03*
X141800000Y-55400000D03*
X144075000Y-55400000D03*
X144075000Y-54450000D03*
X144075000Y-53500000D03*
%TD*%
D11*
%TO.C,IO47*%
X137200000Y-97918000D03*
%TD*%
D16*
%TO.C,D2*%
X131400000Y-46412500D03*
X131400000Y-47987500D03*
%TD*%
D12*
%TO.C,C7*%
X152725000Y-72002500D03*
X151000000Y-72002500D03*
%TD*%
D35*
%TO.C,R7*%
X142850000Y-116200000D03*
X141200000Y-116200000D03*
%TD*%
D11*
%TO.C,IO7*%
X149465000Y-81520000D03*
%TD*%
D15*
%TO.C,C10*%
X151000000Y-78187500D03*
X151000000Y-79912500D03*
%TD*%
D13*
%TO.C,R6*%
X141200000Y-113575000D03*
X141200000Y-111925000D03*
%TD*%
D19*
%TO.C,R11*%
X151975000Y-108500000D03*
X153625000Y-108500000D03*
%TD*%
D60*
%TO.C,BT1*%
X139500000Y-56580000D03*
%TD*%
M02*
