%TF.GenerationSoftware,KiCad,Pcbnew,9.0.1*%
%TF.CreationDate,2025-10-10T09:50:29+06:00*%
%TF.ProjectId,Plant_pulse_hardware_V1.0,506c616e-745f-4707-956c-73655f686172,rev?*%
%TF.SameCoordinates,Original*%
%TF.FileFunction,Legend,Bot*%
%TF.FilePolarity,Positive*%
%FSLAX46Y46*%
G04 Gerber Fmt 4.6, Leading zero omitted, Abs format (unit mm)*
G04 Created by KiCad (PCBNEW 9.0.1) date 2025-10-10 09:50:29*
%MOMM*%
%LPD*%
G01*
G04 APERTURE LIST*
%ADD10C,0.100000*%
%ADD11C,0.200000*%
%ADD12C,0.125000*%
%ADD13C,0.600000*%
%ADD14C,0.150000*%
%ADD15C,0.120000*%
G04 APERTURE END LIST*
D10*
X140450000Y-124550000D02*
X154550000Y-124550000D01*
X154550000Y-128350000D01*
X140450000Y-128350000D01*
X140450000Y-124550000D01*
G36*
X140450000Y-124550000D02*
G01*
X154550000Y-124550000D01*
X154550000Y-128350000D01*
X140450000Y-128350000D01*
X140450000Y-124550000D01*
G37*
X146650000Y-136450000D02*
X148350000Y-136450000D01*
X148350000Y-140550000D01*
X146650000Y-140550000D01*
X146650000Y-136450000D01*
G36*
X146650000Y-136450000D02*
G01*
X148350000Y-136450000D01*
X148350000Y-140550000D01*
X146650000Y-140550000D01*
X146650000Y-136450000D01*
G37*
X151650000Y-136250000D02*
X153350000Y-136250000D01*
X153350000Y-140350000D01*
X151650000Y-140350000D01*
X151650000Y-136250000D01*
G36*
X151650000Y-136250000D02*
G01*
X153350000Y-136250000D01*
X153350000Y-140350000D01*
X151650000Y-140350000D01*
X151650000Y-136250000D01*
G37*
X140450000Y-56900000D02*
X154550000Y-56900000D01*
X154550000Y-60700000D01*
X140450000Y-60700000D01*
X140450000Y-56900000D01*
G36*
X140450000Y-56900000D02*
G01*
X154550000Y-56900000D01*
X154550000Y-60700000D01*
X140450000Y-60700000D01*
X140450000Y-56900000D01*
G37*
X141650000Y-136450000D02*
X143350000Y-136450000D01*
X143350000Y-140550000D01*
X141650000Y-140550000D01*
X141650000Y-136450000D01*
G36*
X141650000Y-136450000D02*
G01*
X143350000Y-136450000D01*
X143350000Y-140550000D01*
X141650000Y-140550000D01*
X141650000Y-136450000D01*
G37*
D11*
X151333333Y-141547247D02*
X151333333Y-140547247D01*
X151333333Y-140547247D02*
X151095238Y-140547247D01*
X151095238Y-140547247D02*
X150952381Y-140594866D01*
X150952381Y-140594866D02*
X150857143Y-140690104D01*
X150857143Y-140690104D02*
X150809524Y-140785342D01*
X150809524Y-140785342D02*
X150761905Y-140975818D01*
X150761905Y-140975818D02*
X150761905Y-141118675D01*
X150761905Y-141118675D02*
X150809524Y-141309151D01*
X150809524Y-141309151D02*
X150857143Y-141404389D01*
X150857143Y-141404389D02*
X150952381Y-141499628D01*
X150952381Y-141499628D02*
X151095238Y-141547247D01*
X151095238Y-141547247D02*
X151333333Y-141547247D01*
X149952381Y-141499628D02*
X150047619Y-141547247D01*
X150047619Y-141547247D02*
X150238095Y-141547247D01*
X150238095Y-141547247D02*
X150333333Y-141499628D01*
X150333333Y-141499628D02*
X150380952Y-141404389D01*
X150380952Y-141404389D02*
X150380952Y-141023437D01*
X150380952Y-141023437D02*
X150333333Y-140928199D01*
X150333333Y-140928199D02*
X150238095Y-140880580D01*
X150238095Y-140880580D02*
X150047619Y-140880580D01*
X150047619Y-140880580D02*
X149952381Y-140928199D01*
X149952381Y-140928199D02*
X149904762Y-141023437D01*
X149904762Y-141023437D02*
X149904762Y-141118675D01*
X149904762Y-141118675D02*
X150380952Y-141213913D01*
X149523809Y-141499628D02*
X149428571Y-141547247D01*
X149428571Y-141547247D02*
X149238095Y-141547247D01*
X149238095Y-141547247D02*
X149142857Y-141499628D01*
X149142857Y-141499628D02*
X149095238Y-141404389D01*
X149095238Y-141404389D02*
X149095238Y-141356770D01*
X149095238Y-141356770D02*
X149142857Y-141261532D01*
X149142857Y-141261532D02*
X149238095Y-141213913D01*
X149238095Y-141213913D02*
X149380952Y-141213913D01*
X149380952Y-141213913D02*
X149476190Y-141166294D01*
X149476190Y-141166294D02*
X149523809Y-141071056D01*
X149523809Y-141071056D02*
X149523809Y-141023437D01*
X149523809Y-141023437D02*
X149476190Y-140928199D01*
X149476190Y-140928199D02*
X149380952Y-140880580D01*
X149380952Y-140880580D02*
X149238095Y-140880580D01*
X149238095Y-140880580D02*
X149142857Y-140928199D01*
X148666666Y-141547247D02*
X148666666Y-140880580D01*
X148666666Y-140547247D02*
X148714285Y-140594866D01*
X148714285Y-140594866D02*
X148666666Y-140642485D01*
X148666666Y-140642485D02*
X148619047Y-140594866D01*
X148619047Y-140594866D02*
X148666666Y-140547247D01*
X148666666Y-140547247D02*
X148666666Y-140642485D01*
X147761905Y-140880580D02*
X147761905Y-141690104D01*
X147761905Y-141690104D02*
X147809524Y-141785342D01*
X147809524Y-141785342D02*
X147857143Y-141832961D01*
X147857143Y-141832961D02*
X147952381Y-141880580D01*
X147952381Y-141880580D02*
X148095238Y-141880580D01*
X148095238Y-141880580D02*
X148190476Y-141832961D01*
X147761905Y-141499628D02*
X147857143Y-141547247D01*
X147857143Y-141547247D02*
X148047619Y-141547247D01*
X148047619Y-141547247D02*
X148142857Y-141499628D01*
X148142857Y-141499628D02*
X148190476Y-141452008D01*
X148190476Y-141452008D02*
X148238095Y-141356770D01*
X148238095Y-141356770D02*
X148238095Y-141071056D01*
X148238095Y-141071056D02*
X148190476Y-140975818D01*
X148190476Y-140975818D02*
X148142857Y-140928199D01*
X148142857Y-140928199D02*
X148047619Y-140880580D01*
X148047619Y-140880580D02*
X147857143Y-140880580D01*
X147857143Y-140880580D02*
X147761905Y-140928199D01*
X147285714Y-140880580D02*
X147285714Y-141547247D01*
X147285714Y-140975818D02*
X147238095Y-140928199D01*
X147238095Y-140928199D02*
X147142857Y-140880580D01*
X147142857Y-140880580D02*
X147000000Y-140880580D01*
X147000000Y-140880580D02*
X146904762Y-140928199D01*
X146904762Y-140928199D02*
X146857143Y-141023437D01*
X146857143Y-141023437D02*
X146857143Y-141547247D01*
X146000000Y-141499628D02*
X146095238Y-141547247D01*
X146095238Y-141547247D02*
X146285714Y-141547247D01*
X146285714Y-141547247D02*
X146380952Y-141499628D01*
X146380952Y-141499628D02*
X146428571Y-141404389D01*
X146428571Y-141404389D02*
X146428571Y-141023437D01*
X146428571Y-141023437D02*
X146380952Y-140928199D01*
X146380952Y-140928199D02*
X146285714Y-140880580D01*
X146285714Y-140880580D02*
X146095238Y-140880580D01*
X146095238Y-140880580D02*
X146000000Y-140928199D01*
X146000000Y-140928199D02*
X145952381Y-141023437D01*
X145952381Y-141023437D02*
X145952381Y-141118675D01*
X145952381Y-141118675D02*
X146428571Y-141213913D01*
X145095238Y-141547247D02*
X145095238Y-140547247D01*
X145095238Y-141499628D02*
X145190476Y-141547247D01*
X145190476Y-141547247D02*
X145380952Y-141547247D01*
X145380952Y-141547247D02*
X145476190Y-141499628D01*
X145476190Y-141499628D02*
X145523809Y-141452008D01*
X145523809Y-141452008D02*
X145571428Y-141356770D01*
X145571428Y-141356770D02*
X145571428Y-141071056D01*
X145571428Y-141071056D02*
X145523809Y-140975818D01*
X145523809Y-140975818D02*
X145476190Y-140928199D01*
X145476190Y-140928199D02*
X145380952Y-140880580D01*
X145380952Y-140880580D02*
X145190476Y-140880580D01*
X145190476Y-140880580D02*
X145095238Y-140928199D01*
X143857142Y-141547247D02*
X143857142Y-140547247D01*
X143857142Y-140928199D02*
X143761904Y-140880580D01*
X143761904Y-140880580D02*
X143571428Y-140880580D01*
X143571428Y-140880580D02*
X143476190Y-140928199D01*
X143476190Y-140928199D02*
X143428571Y-140975818D01*
X143428571Y-140975818D02*
X143380952Y-141071056D01*
X143380952Y-141071056D02*
X143380952Y-141356770D01*
X143380952Y-141356770D02*
X143428571Y-141452008D01*
X143428571Y-141452008D02*
X143476190Y-141499628D01*
X143476190Y-141499628D02*
X143571428Y-141547247D01*
X143571428Y-141547247D02*
X143761904Y-141547247D01*
X143761904Y-141547247D02*
X143857142Y-141499628D01*
X143047618Y-140880580D02*
X142809523Y-141547247D01*
X142571428Y-140880580D02*
X142809523Y-141547247D01*
X142809523Y-141547247D02*
X142904761Y-141785342D01*
X142904761Y-141785342D02*
X142952380Y-141832961D01*
X142952380Y-141832961D02*
X143047618Y-141880580D01*
X150261904Y-143109572D02*
X150119047Y-143157191D01*
X150119047Y-143157191D02*
X149880952Y-143157191D01*
X149880952Y-143157191D02*
X149785714Y-143109572D01*
X149785714Y-143109572D02*
X149738095Y-143061952D01*
X149738095Y-143061952D02*
X149690476Y-142966714D01*
X149690476Y-142966714D02*
X149690476Y-142871476D01*
X149690476Y-142871476D02*
X149738095Y-142776238D01*
X149738095Y-142776238D02*
X149785714Y-142728619D01*
X149785714Y-142728619D02*
X149880952Y-142681000D01*
X149880952Y-142681000D02*
X150071428Y-142633381D01*
X150071428Y-142633381D02*
X150166666Y-142585762D01*
X150166666Y-142585762D02*
X150214285Y-142538143D01*
X150214285Y-142538143D02*
X150261904Y-142442905D01*
X150261904Y-142442905D02*
X150261904Y-142347667D01*
X150261904Y-142347667D02*
X150214285Y-142252429D01*
X150214285Y-142252429D02*
X150166666Y-142204810D01*
X150166666Y-142204810D02*
X150071428Y-142157191D01*
X150071428Y-142157191D02*
X149833333Y-142157191D01*
X149833333Y-142157191D02*
X149690476Y-142204810D01*
X149261904Y-143157191D02*
X149261904Y-142157191D01*
X149261904Y-142633381D02*
X148690476Y-142633381D01*
X148690476Y-143157191D02*
X148690476Y-142157191D01*
X148261904Y-142871476D02*
X147785714Y-142871476D01*
X148357142Y-143157191D02*
X148023809Y-142157191D01*
X148023809Y-142157191D02*
X147690476Y-143157191D01*
X147357142Y-143157191D02*
X147357142Y-142157191D01*
X147357142Y-142157191D02*
X147119047Y-142157191D01*
X147119047Y-142157191D02*
X146976190Y-142204810D01*
X146976190Y-142204810D02*
X146880952Y-142300048D01*
X146880952Y-142300048D02*
X146833333Y-142395286D01*
X146833333Y-142395286D02*
X146785714Y-142585762D01*
X146785714Y-142585762D02*
X146785714Y-142728619D01*
X146785714Y-142728619D02*
X146833333Y-142919095D01*
X146833333Y-142919095D02*
X146880952Y-143014333D01*
X146880952Y-143014333D02*
X146976190Y-143109572D01*
X146976190Y-143109572D02*
X147119047Y-143157191D01*
X147119047Y-143157191D02*
X147357142Y-143157191D01*
X146357142Y-143157191D02*
X146357142Y-142157191D01*
X146357142Y-142157191D02*
X146023809Y-142871476D01*
X146023809Y-142871476D02*
X145690476Y-142157191D01*
X145690476Y-142157191D02*
X145690476Y-143157191D01*
X145261904Y-142871476D02*
X144785714Y-142871476D01*
X145357142Y-143157191D02*
X145023809Y-142157191D01*
X145023809Y-142157191D02*
X144690476Y-143157191D01*
X144357142Y-143157191D02*
X144357142Y-142157191D01*
X144357142Y-142157191D02*
X143785714Y-143157191D01*
X143785714Y-143157191D02*
X143785714Y-142157191D01*
D12*
X160293880Y-96202380D02*
X160960547Y-96202380D01*
X160770071Y-96202380D02*
X160865309Y-96154761D01*
X160865309Y-96154761D02*
X160912928Y-96107142D01*
X160912928Y-96107142D02*
X160960547Y-96011904D01*
X160960547Y-96011904D02*
X160960547Y-95916666D01*
X160341500Y-95202380D02*
X160293880Y-95297618D01*
X160293880Y-95297618D02*
X160293880Y-95488094D01*
X160293880Y-95488094D02*
X160341500Y-95583332D01*
X160341500Y-95583332D02*
X160436738Y-95630951D01*
X160436738Y-95630951D02*
X160817690Y-95630951D01*
X160817690Y-95630951D02*
X160912928Y-95583332D01*
X160912928Y-95583332D02*
X160960547Y-95488094D01*
X160960547Y-95488094D02*
X160960547Y-95297618D01*
X160960547Y-95297618D02*
X160912928Y-95202380D01*
X160912928Y-95202380D02*
X160817690Y-95154761D01*
X160817690Y-95154761D02*
X160722452Y-95154761D01*
X160722452Y-95154761D02*
X160627214Y-95630951D01*
X160960547Y-94821427D02*
X160293880Y-94583332D01*
X160293880Y-94583332D02*
X160960547Y-94345237D01*
X160293880Y-92678570D02*
X160293880Y-93249998D01*
X160293880Y-92964284D02*
X161293880Y-92964284D01*
X161293880Y-92964284D02*
X161151023Y-93059522D01*
X161151023Y-93059522D02*
X161055785Y-93154760D01*
X161055785Y-93154760D02*
X161008166Y-93249998D01*
X160389119Y-92249998D02*
X160341500Y-92202379D01*
X160341500Y-92202379D02*
X160293880Y-92249998D01*
X160293880Y-92249998D02*
X160341500Y-92297617D01*
X160341500Y-92297617D02*
X160389119Y-92249998D01*
X160389119Y-92249998D02*
X160293880Y-92249998D01*
X161293880Y-91583332D02*
X161293880Y-91488094D01*
X161293880Y-91488094D02*
X161246261Y-91392856D01*
X161246261Y-91392856D02*
X161198642Y-91345237D01*
X161198642Y-91345237D02*
X161103404Y-91297618D01*
X161103404Y-91297618D02*
X160912928Y-91249999D01*
X160912928Y-91249999D02*
X160674833Y-91249999D01*
X160674833Y-91249999D02*
X160484357Y-91297618D01*
X160484357Y-91297618D02*
X160389119Y-91345237D01*
X160389119Y-91345237D02*
X160341500Y-91392856D01*
X160341500Y-91392856D02*
X160293880Y-91488094D01*
X160293880Y-91488094D02*
X160293880Y-91583332D01*
X160293880Y-91583332D02*
X160341500Y-91678570D01*
X160341500Y-91678570D02*
X160389119Y-91726189D01*
X160389119Y-91726189D02*
X160484357Y-91773808D01*
X160484357Y-91773808D02*
X160674833Y-91821427D01*
X160674833Y-91821427D02*
X160912928Y-91821427D01*
X160912928Y-91821427D02*
X161103404Y-91773808D01*
X161103404Y-91773808D02*
X161198642Y-91726189D01*
X161198642Y-91726189D02*
X161246261Y-91678570D01*
X161246261Y-91678570D02*
X161293880Y-91583332D01*
X162293880Y-107535714D02*
X163293880Y-107535714D01*
X162293880Y-107107143D02*
X162817690Y-107107143D01*
X162817690Y-107107143D02*
X162912928Y-107154762D01*
X162912928Y-107154762D02*
X162960547Y-107250000D01*
X162960547Y-107250000D02*
X162960547Y-107392857D01*
X162960547Y-107392857D02*
X162912928Y-107488095D01*
X162912928Y-107488095D02*
X162865309Y-107535714D01*
X162960547Y-106773809D02*
X162960547Y-106392857D01*
X163293880Y-106630952D02*
X162436738Y-106630952D01*
X162436738Y-106630952D02*
X162341500Y-106583333D01*
X162341500Y-106583333D02*
X162293880Y-106488095D01*
X162293880Y-106488095D02*
X162293880Y-106392857D01*
X162960547Y-106202380D02*
X162960547Y-105821428D01*
X163293880Y-106059523D02*
X162436738Y-106059523D01*
X162436738Y-106059523D02*
X162341500Y-106011904D01*
X162341500Y-106011904D02*
X162293880Y-105916666D01*
X162293880Y-105916666D02*
X162293880Y-105821428D01*
X162960547Y-105488094D02*
X161960547Y-105488094D01*
X162912928Y-105488094D02*
X162960547Y-105392856D01*
X162960547Y-105392856D02*
X162960547Y-105202380D01*
X162960547Y-105202380D02*
X162912928Y-105107142D01*
X162912928Y-105107142D02*
X162865309Y-105059523D01*
X162865309Y-105059523D02*
X162770071Y-105011904D01*
X162770071Y-105011904D02*
X162484357Y-105011904D01*
X162484357Y-105011904D02*
X162389119Y-105059523D01*
X162389119Y-105059523D02*
X162341500Y-105107142D01*
X162341500Y-105107142D02*
X162293880Y-105202380D01*
X162293880Y-105202380D02*
X162293880Y-105392856D01*
X162293880Y-105392856D02*
X162341500Y-105488094D01*
X162341500Y-104630951D02*
X162293880Y-104535713D01*
X162293880Y-104535713D02*
X162293880Y-104345237D01*
X162293880Y-104345237D02*
X162341500Y-104249999D01*
X162341500Y-104249999D02*
X162436738Y-104202380D01*
X162436738Y-104202380D02*
X162484357Y-104202380D01*
X162484357Y-104202380D02*
X162579595Y-104249999D01*
X162579595Y-104249999D02*
X162627214Y-104345237D01*
X162627214Y-104345237D02*
X162627214Y-104488094D01*
X162627214Y-104488094D02*
X162674833Y-104583332D01*
X162674833Y-104583332D02*
X162770071Y-104630951D01*
X162770071Y-104630951D02*
X162817690Y-104630951D01*
X162817690Y-104630951D02*
X162912928Y-104583332D01*
X162912928Y-104583332D02*
X162960547Y-104488094D01*
X162960547Y-104488094D02*
X162960547Y-104345237D01*
X162960547Y-104345237D02*
X162912928Y-104249999D01*
X162389119Y-103773808D02*
X162341500Y-103726189D01*
X162341500Y-103726189D02*
X162293880Y-103773808D01*
X162293880Y-103773808D02*
X162341500Y-103821427D01*
X162341500Y-103821427D02*
X162389119Y-103773808D01*
X162389119Y-103773808D02*
X162293880Y-103773808D01*
X162912928Y-103773808D02*
X162865309Y-103726189D01*
X162865309Y-103726189D02*
X162817690Y-103773808D01*
X162817690Y-103773808D02*
X162865309Y-103821427D01*
X162865309Y-103821427D02*
X162912928Y-103773808D01*
X162912928Y-103773808D02*
X162817690Y-103773808D01*
X163341500Y-102583333D02*
X162055785Y-103440475D01*
X163341500Y-101535714D02*
X162055785Y-102392856D01*
X162960547Y-100773809D02*
X162151023Y-100773809D01*
X162151023Y-100773809D02*
X162055785Y-100821428D01*
X162055785Y-100821428D02*
X162008166Y-100869047D01*
X162008166Y-100869047D02*
X161960547Y-100964285D01*
X161960547Y-100964285D02*
X161960547Y-101107142D01*
X161960547Y-101107142D02*
X162008166Y-101202380D01*
X162341500Y-100773809D02*
X162293880Y-100869047D01*
X162293880Y-100869047D02*
X162293880Y-101059523D01*
X162293880Y-101059523D02*
X162341500Y-101154761D01*
X162341500Y-101154761D02*
X162389119Y-101202380D01*
X162389119Y-101202380D02*
X162484357Y-101249999D01*
X162484357Y-101249999D02*
X162770071Y-101249999D01*
X162770071Y-101249999D02*
X162865309Y-101202380D01*
X162865309Y-101202380D02*
X162912928Y-101154761D01*
X162912928Y-101154761D02*
X162960547Y-101059523D01*
X162960547Y-101059523D02*
X162960547Y-100869047D01*
X162960547Y-100869047D02*
X162912928Y-100773809D01*
X162293880Y-100297618D02*
X162960547Y-100297618D01*
X163293880Y-100297618D02*
X163246261Y-100345237D01*
X163246261Y-100345237D02*
X163198642Y-100297618D01*
X163198642Y-100297618D02*
X163246261Y-100249999D01*
X163246261Y-100249999D02*
X163293880Y-100297618D01*
X163293880Y-100297618D02*
X163198642Y-100297618D01*
X162960547Y-99964285D02*
X162960547Y-99583333D01*
X163293880Y-99821428D02*
X162436738Y-99821428D01*
X162436738Y-99821428D02*
X162341500Y-99773809D01*
X162341500Y-99773809D02*
X162293880Y-99678571D01*
X162293880Y-99678571D02*
X162293880Y-99583333D01*
X162293880Y-99249999D02*
X163293880Y-99249999D01*
X162293880Y-98821428D02*
X162817690Y-98821428D01*
X162817690Y-98821428D02*
X162912928Y-98869047D01*
X162912928Y-98869047D02*
X162960547Y-98964285D01*
X162960547Y-98964285D02*
X162960547Y-99107142D01*
X162960547Y-99107142D02*
X162912928Y-99202380D01*
X162912928Y-99202380D02*
X162865309Y-99249999D01*
X162960547Y-97916666D02*
X162293880Y-97916666D01*
X162960547Y-98345237D02*
X162436738Y-98345237D01*
X162436738Y-98345237D02*
X162341500Y-98297618D01*
X162341500Y-98297618D02*
X162293880Y-98202380D01*
X162293880Y-98202380D02*
X162293880Y-98059523D01*
X162293880Y-98059523D02*
X162341500Y-97964285D01*
X162341500Y-97964285D02*
X162389119Y-97916666D01*
X162293880Y-97440475D02*
X163293880Y-97440475D01*
X162912928Y-97440475D02*
X162960547Y-97345237D01*
X162960547Y-97345237D02*
X162960547Y-97154761D01*
X162960547Y-97154761D02*
X162912928Y-97059523D01*
X162912928Y-97059523D02*
X162865309Y-97011904D01*
X162865309Y-97011904D02*
X162770071Y-96964285D01*
X162770071Y-96964285D02*
X162484357Y-96964285D01*
X162484357Y-96964285D02*
X162389119Y-97011904D01*
X162389119Y-97011904D02*
X162341500Y-97059523D01*
X162341500Y-97059523D02*
X162293880Y-97154761D01*
X162293880Y-97154761D02*
X162293880Y-97345237D01*
X162293880Y-97345237D02*
X162341500Y-97440475D01*
X162389119Y-96535713D02*
X162341500Y-96488094D01*
X162341500Y-96488094D02*
X162293880Y-96535713D01*
X162293880Y-96535713D02*
X162341500Y-96583332D01*
X162341500Y-96583332D02*
X162389119Y-96535713D01*
X162389119Y-96535713D02*
X162293880Y-96535713D01*
X162341500Y-95630952D02*
X162293880Y-95726190D01*
X162293880Y-95726190D02*
X162293880Y-95916666D01*
X162293880Y-95916666D02*
X162341500Y-96011904D01*
X162341500Y-96011904D02*
X162389119Y-96059523D01*
X162389119Y-96059523D02*
X162484357Y-96107142D01*
X162484357Y-96107142D02*
X162770071Y-96107142D01*
X162770071Y-96107142D02*
X162865309Y-96059523D01*
X162865309Y-96059523D02*
X162912928Y-96011904D01*
X162912928Y-96011904D02*
X162960547Y-95916666D01*
X162960547Y-95916666D02*
X162960547Y-95726190D01*
X162960547Y-95726190D02*
X162912928Y-95630952D01*
X162293880Y-95059523D02*
X162341500Y-95154761D01*
X162341500Y-95154761D02*
X162389119Y-95202380D01*
X162389119Y-95202380D02*
X162484357Y-95249999D01*
X162484357Y-95249999D02*
X162770071Y-95249999D01*
X162770071Y-95249999D02*
X162865309Y-95202380D01*
X162865309Y-95202380D02*
X162912928Y-95154761D01*
X162912928Y-95154761D02*
X162960547Y-95059523D01*
X162960547Y-95059523D02*
X162960547Y-94916666D01*
X162960547Y-94916666D02*
X162912928Y-94821428D01*
X162912928Y-94821428D02*
X162865309Y-94773809D01*
X162865309Y-94773809D02*
X162770071Y-94726190D01*
X162770071Y-94726190D02*
X162484357Y-94726190D01*
X162484357Y-94726190D02*
X162389119Y-94773809D01*
X162389119Y-94773809D02*
X162341500Y-94821428D01*
X162341500Y-94821428D02*
X162293880Y-94916666D01*
X162293880Y-94916666D02*
X162293880Y-95059523D01*
X162293880Y-94297618D02*
X162960547Y-94297618D01*
X162865309Y-94297618D02*
X162912928Y-94249999D01*
X162912928Y-94249999D02*
X162960547Y-94154761D01*
X162960547Y-94154761D02*
X162960547Y-94011904D01*
X162960547Y-94011904D02*
X162912928Y-93916666D01*
X162912928Y-93916666D02*
X162817690Y-93869047D01*
X162817690Y-93869047D02*
X162293880Y-93869047D01*
X162817690Y-93869047D02*
X162912928Y-93821428D01*
X162912928Y-93821428D02*
X162960547Y-93726190D01*
X162960547Y-93726190D02*
X162960547Y-93583333D01*
X162960547Y-93583333D02*
X162912928Y-93488094D01*
X162912928Y-93488094D02*
X162817690Y-93440475D01*
X162817690Y-93440475D02*
X162293880Y-93440475D01*
X163341500Y-92250000D02*
X162055785Y-93107142D01*
X162293880Y-91440476D02*
X162293880Y-91916666D01*
X162293880Y-91916666D02*
X163293880Y-91916666D01*
X162293880Y-90678571D02*
X162817690Y-90678571D01*
X162817690Y-90678571D02*
X162912928Y-90726190D01*
X162912928Y-90726190D02*
X162960547Y-90821428D01*
X162960547Y-90821428D02*
X162960547Y-91011904D01*
X162960547Y-91011904D02*
X162912928Y-91107142D01*
X162341500Y-90678571D02*
X162293880Y-90773809D01*
X162293880Y-90773809D02*
X162293880Y-91011904D01*
X162293880Y-91011904D02*
X162341500Y-91107142D01*
X162341500Y-91107142D02*
X162436738Y-91154761D01*
X162436738Y-91154761D02*
X162531976Y-91154761D01*
X162531976Y-91154761D02*
X162627214Y-91107142D01*
X162627214Y-91107142D02*
X162674833Y-91011904D01*
X162674833Y-91011904D02*
X162674833Y-90773809D01*
X162674833Y-90773809D02*
X162722452Y-90678571D01*
X162960547Y-90202380D02*
X162293880Y-90202380D01*
X162865309Y-90202380D02*
X162912928Y-90154761D01*
X162912928Y-90154761D02*
X162960547Y-90059523D01*
X162960547Y-90059523D02*
X162960547Y-89916666D01*
X162960547Y-89916666D02*
X162912928Y-89821428D01*
X162912928Y-89821428D02*
X162817690Y-89773809D01*
X162817690Y-89773809D02*
X162293880Y-89773809D01*
X162293880Y-89297618D02*
X163293880Y-89297618D01*
X162674833Y-89202380D02*
X162293880Y-88916666D01*
X162960547Y-88916666D02*
X162579595Y-89297618D01*
X162293880Y-88059523D02*
X162817690Y-88059523D01*
X162817690Y-88059523D02*
X162912928Y-88107142D01*
X162912928Y-88107142D02*
X162960547Y-88202380D01*
X162960547Y-88202380D02*
X162960547Y-88392856D01*
X162960547Y-88392856D02*
X162912928Y-88488094D01*
X162341500Y-88059523D02*
X162293880Y-88154761D01*
X162293880Y-88154761D02*
X162293880Y-88392856D01*
X162293880Y-88392856D02*
X162341500Y-88488094D01*
X162341500Y-88488094D02*
X162436738Y-88535713D01*
X162436738Y-88535713D02*
X162531976Y-88535713D01*
X162531976Y-88535713D02*
X162627214Y-88488094D01*
X162627214Y-88488094D02*
X162674833Y-88392856D01*
X162674833Y-88392856D02*
X162674833Y-88154761D01*
X162674833Y-88154761D02*
X162722452Y-88059523D01*
X162341500Y-87630951D02*
X162293880Y-87488094D01*
X162293880Y-87488094D02*
X162293880Y-87249999D01*
X162293880Y-87249999D02*
X162341500Y-87154761D01*
X162341500Y-87154761D02*
X162389119Y-87107142D01*
X162389119Y-87107142D02*
X162484357Y-87059523D01*
X162484357Y-87059523D02*
X162579595Y-87059523D01*
X162579595Y-87059523D02*
X162674833Y-87107142D01*
X162674833Y-87107142D02*
X162722452Y-87154761D01*
X162722452Y-87154761D02*
X162770071Y-87249999D01*
X162770071Y-87249999D02*
X162817690Y-87440475D01*
X162817690Y-87440475D02*
X162865309Y-87535713D01*
X162865309Y-87535713D02*
X162912928Y-87583332D01*
X162912928Y-87583332D02*
X163008166Y-87630951D01*
X163008166Y-87630951D02*
X163103404Y-87630951D01*
X163103404Y-87630951D02*
X163198642Y-87583332D01*
X163198642Y-87583332D02*
X163246261Y-87535713D01*
X163246261Y-87535713D02*
X163293880Y-87440475D01*
X163293880Y-87440475D02*
X163293880Y-87202380D01*
X163293880Y-87202380D02*
X163246261Y-87059523D01*
X162293880Y-86630951D02*
X162960547Y-86630951D01*
X162865309Y-86630951D02*
X162912928Y-86583332D01*
X162912928Y-86583332D02*
X162960547Y-86488094D01*
X162960547Y-86488094D02*
X162960547Y-86345237D01*
X162960547Y-86345237D02*
X162912928Y-86249999D01*
X162912928Y-86249999D02*
X162817690Y-86202380D01*
X162817690Y-86202380D02*
X162293880Y-86202380D01*
X162817690Y-86202380D02*
X162912928Y-86154761D01*
X162912928Y-86154761D02*
X162960547Y-86059523D01*
X162960547Y-86059523D02*
X162960547Y-85916666D01*
X162960547Y-85916666D02*
X162912928Y-85821427D01*
X162912928Y-85821427D02*
X162817690Y-85773808D01*
X162817690Y-85773808D02*
X162293880Y-85773808D01*
X162293880Y-84869047D02*
X162817690Y-84869047D01*
X162817690Y-84869047D02*
X162912928Y-84916666D01*
X162912928Y-84916666D02*
X162960547Y-85011904D01*
X162960547Y-85011904D02*
X162960547Y-85202380D01*
X162960547Y-85202380D02*
X162912928Y-85297618D01*
X162341500Y-84869047D02*
X162293880Y-84964285D01*
X162293880Y-84964285D02*
X162293880Y-85202380D01*
X162293880Y-85202380D02*
X162341500Y-85297618D01*
X162341500Y-85297618D02*
X162436738Y-85345237D01*
X162436738Y-85345237D02*
X162531976Y-85345237D01*
X162531976Y-85345237D02*
X162627214Y-85297618D01*
X162627214Y-85297618D02*
X162674833Y-85202380D01*
X162674833Y-85202380D02*
X162674833Y-84964285D01*
X162674833Y-84964285D02*
X162722452Y-84869047D01*
X162293880Y-84392856D02*
X162960547Y-84392856D01*
X162770071Y-84392856D02*
X162865309Y-84345237D01*
X162865309Y-84345237D02*
X162912928Y-84297618D01*
X162912928Y-84297618D02*
X162960547Y-84202380D01*
X162960547Y-84202380D02*
X162960547Y-84107142D01*
X162960547Y-83916665D02*
X162960547Y-83535713D01*
X163293880Y-83773808D02*
X162436738Y-83773808D01*
X162436738Y-83773808D02*
X162341500Y-83726189D01*
X162341500Y-83726189D02*
X162293880Y-83630951D01*
X162293880Y-83630951D02*
X162293880Y-83535713D01*
X162817690Y-82869046D02*
X162817690Y-83202379D01*
X162293880Y-83202379D02*
X163293880Y-83202379D01*
X163293880Y-83202379D02*
X163293880Y-82726189D01*
X162293880Y-81916665D02*
X162817690Y-81916665D01*
X162817690Y-81916665D02*
X162912928Y-81964284D01*
X162912928Y-81964284D02*
X162960547Y-82059522D01*
X162960547Y-82059522D02*
X162960547Y-82249998D01*
X162960547Y-82249998D02*
X162912928Y-82345236D01*
X162341500Y-81916665D02*
X162293880Y-82011903D01*
X162293880Y-82011903D02*
X162293880Y-82249998D01*
X162293880Y-82249998D02*
X162341500Y-82345236D01*
X162341500Y-82345236D02*
X162436738Y-82392855D01*
X162436738Y-82392855D02*
X162531976Y-82392855D01*
X162531976Y-82392855D02*
X162627214Y-82345236D01*
X162627214Y-82345236D02*
X162674833Y-82249998D01*
X162674833Y-82249998D02*
X162674833Y-82011903D01*
X162674833Y-82011903D02*
X162722452Y-81916665D01*
X162293880Y-81440474D02*
X162960547Y-81440474D01*
X162770071Y-81440474D02*
X162865309Y-81392855D01*
X162865309Y-81392855D02*
X162912928Y-81345236D01*
X162912928Y-81345236D02*
X162960547Y-81249998D01*
X162960547Y-81249998D02*
X162960547Y-81154760D01*
X162293880Y-80821426D02*
X162960547Y-80821426D01*
X162865309Y-80821426D02*
X162912928Y-80773807D01*
X162912928Y-80773807D02*
X162960547Y-80678569D01*
X162960547Y-80678569D02*
X162960547Y-80535712D01*
X162960547Y-80535712D02*
X162912928Y-80440474D01*
X162912928Y-80440474D02*
X162817690Y-80392855D01*
X162817690Y-80392855D02*
X162293880Y-80392855D01*
X162817690Y-80392855D02*
X162912928Y-80345236D01*
X162912928Y-80345236D02*
X162960547Y-80249998D01*
X162960547Y-80249998D02*
X162960547Y-80107141D01*
X162960547Y-80107141D02*
X162912928Y-80011902D01*
X162912928Y-80011902D02*
X162817690Y-79964283D01*
X162817690Y-79964283D02*
X162293880Y-79964283D01*
D13*
G36*
X157042857Y-135156657D02*
G01*
X156270820Y-135156657D01*
X156091993Y-135067244D01*
X156017984Y-134993234D01*
X155928571Y-134814408D01*
X155928571Y-134527476D01*
X156017984Y-134348649D01*
X156076339Y-134290294D01*
X156391540Y-134185228D01*
X157042857Y-134185228D01*
X157042857Y-135156657D01*
G37*
G36*
X157042857Y-133585228D02*
G01*
X156413677Y-133585228D01*
X156234850Y-133495814D01*
X156160840Y-133421805D01*
X156071428Y-133242980D01*
X156071428Y-133098905D01*
X156160840Y-132920079D01*
X156234850Y-132846070D01*
X156413677Y-132756657D01*
X157042857Y-132756657D01*
X157042857Y-133585228D01*
G37*
G36*
X157976190Y-136089990D02*
G01*
X151426377Y-136089990D01*
X151426377Y-134274642D01*
X151759710Y-134274642D01*
X151759710Y-134352958D01*
X151779979Y-134428605D01*
X151819137Y-134496428D01*
X151874515Y-134551806D01*
X151942338Y-134590964D01*
X152017985Y-134611233D01*
X152057143Y-134613800D01*
X154342857Y-134613800D01*
X154382015Y-134611233D01*
X154457662Y-134590964D01*
X154525485Y-134551806D01*
X154580863Y-134496428D01*
X154603825Y-134456657D01*
X155328571Y-134456657D01*
X155328571Y-134885228D01*
X155329631Y-134901405D01*
X155329326Y-134906495D01*
X155330266Y-134911090D01*
X155331138Y-134924386D01*
X155338965Y-134953598D01*
X155345027Y-134983220D01*
X155350191Y-134995498D01*
X155351407Y-135000033D01*
X155353958Y-135004452D01*
X155360243Y-135019392D01*
X155503100Y-135305106D01*
X155522908Y-135338982D01*
X155528904Y-135345744D01*
X155533422Y-135353569D01*
X155559295Y-135383073D01*
X155702152Y-135525931D01*
X155731656Y-135551805D01*
X155739483Y-135556324D01*
X155746245Y-135562320D01*
X155780121Y-135582128D01*
X156065836Y-135724985D01*
X156080775Y-135731269D01*
X156085195Y-135733821D01*
X156089729Y-135735036D01*
X156102008Y-135740201D01*
X156131628Y-135746262D01*
X156160842Y-135754090D01*
X156174138Y-135754961D01*
X156178734Y-135755902D01*
X156183823Y-135755596D01*
X156200000Y-135756657D01*
X157342857Y-135756657D01*
X157382015Y-135754090D01*
X157457662Y-135733821D01*
X157525485Y-135694663D01*
X157580863Y-135639285D01*
X157620021Y-135571462D01*
X157640290Y-135495815D01*
X157642857Y-135456657D01*
X157642857Y-132456657D01*
X157640290Y-132417499D01*
X157620021Y-132341852D01*
X157580863Y-132274029D01*
X157525485Y-132218651D01*
X157457662Y-132179493D01*
X157382015Y-132159224D01*
X157342857Y-132156657D01*
X156342857Y-132156657D01*
X156326679Y-132157717D01*
X156321590Y-132157412D01*
X156316994Y-132158352D01*
X156303699Y-132159224D01*
X156274486Y-132167051D01*
X156244865Y-132173113D01*
X156232586Y-132178277D01*
X156228052Y-132179493D01*
X156223632Y-132182044D01*
X156208693Y-132188329D01*
X155922979Y-132331186D01*
X155889103Y-132350994D01*
X155882340Y-132356990D01*
X155874516Y-132361508D01*
X155845012Y-132387381D01*
X155702154Y-132530238D01*
X155676280Y-132559742D01*
X155671760Y-132567569D01*
X155665765Y-132574331D01*
X155645957Y-132608207D01*
X155503100Y-132893921D01*
X155496815Y-132908860D01*
X155494264Y-132913280D01*
X155493048Y-132917814D01*
X155487884Y-132930093D01*
X155481822Y-132959714D01*
X155473995Y-132988927D01*
X155473123Y-133002222D01*
X155472183Y-133006818D01*
X155472488Y-133011907D01*
X155471428Y-133028085D01*
X155471428Y-133313800D01*
X155472488Y-133329977D01*
X155472183Y-133335067D01*
X155473123Y-133339662D01*
X155473995Y-133352958D01*
X155481822Y-133382170D01*
X155487884Y-133411792D01*
X155493048Y-133424070D01*
X155494264Y-133428605D01*
X155496815Y-133433024D01*
X155503100Y-133447964D01*
X155645957Y-133733678D01*
X155665765Y-133767554D01*
X155671760Y-133774315D01*
X155676280Y-133782143D01*
X155702154Y-133811647D01*
X155704447Y-133813940D01*
X155702153Y-133815953D01*
X155559296Y-133958810D01*
X155533422Y-133988314D01*
X155528902Y-133996141D01*
X155522908Y-134002902D01*
X155503100Y-134036778D01*
X155360243Y-134322493D01*
X155353958Y-134337432D01*
X155351407Y-134341852D01*
X155350191Y-134346386D01*
X155345027Y-134358665D01*
X155338965Y-134388285D01*
X155331138Y-134417499D01*
X155330266Y-134430795D01*
X155329326Y-134435391D01*
X155329631Y-134440480D01*
X155328571Y-134456657D01*
X154603825Y-134456657D01*
X154620021Y-134428605D01*
X154640290Y-134352958D01*
X154640290Y-134274642D01*
X154620021Y-134198995D01*
X154580863Y-134131172D01*
X154525485Y-134075794D01*
X154457662Y-134036636D01*
X154382015Y-134016367D01*
X154342857Y-134013800D01*
X152057143Y-134013800D01*
X152017985Y-134016367D01*
X151942338Y-134036636D01*
X151874515Y-134075794D01*
X151819137Y-134131172D01*
X151779979Y-134198995D01*
X151759710Y-134274642D01*
X151426377Y-134274642D01*
X151426377Y-131823324D01*
X157976190Y-131823324D01*
X157976190Y-136089990D01*
G37*
G36*
X157142857Y-52556657D02*
G01*
X156370820Y-52556657D01*
X156191993Y-52467244D01*
X156117984Y-52393234D01*
X156028571Y-52214408D01*
X156028571Y-51927476D01*
X156117984Y-51748649D01*
X156176339Y-51690294D01*
X156491540Y-51585228D01*
X157142857Y-51585228D01*
X157142857Y-52556657D01*
G37*
G36*
X157142857Y-50985228D02*
G01*
X156513677Y-50985228D01*
X156334850Y-50895814D01*
X156260840Y-50821805D01*
X156171428Y-50642980D01*
X156171428Y-50498905D01*
X156260840Y-50320079D01*
X156334850Y-50246070D01*
X156513677Y-50156657D01*
X157142857Y-50156657D01*
X157142857Y-50985228D01*
G37*
G36*
X158076190Y-53489990D02*
G01*
X151526377Y-53489990D01*
X151526377Y-51674642D01*
X151859710Y-51674642D01*
X151859710Y-51752958D01*
X151879979Y-51828605D01*
X151919137Y-51896428D01*
X151974515Y-51951806D01*
X152042338Y-51990964D01*
X152117985Y-52011233D01*
X152157143Y-52013800D01*
X153000000Y-52013800D01*
X153000000Y-52856657D01*
X153002567Y-52895815D01*
X153022836Y-52971462D01*
X153061994Y-53039285D01*
X153117372Y-53094663D01*
X153185195Y-53133821D01*
X153260842Y-53154090D01*
X153339158Y-53154090D01*
X153414805Y-53133821D01*
X153482628Y-53094663D01*
X153538006Y-53039285D01*
X153577164Y-52971462D01*
X153597433Y-52895815D01*
X153600000Y-52856657D01*
X153600000Y-52013800D01*
X154442857Y-52013800D01*
X154482015Y-52011233D01*
X154557662Y-51990964D01*
X154625485Y-51951806D01*
X154680863Y-51896428D01*
X154703825Y-51856657D01*
X155428571Y-51856657D01*
X155428571Y-52285228D01*
X155429631Y-52301405D01*
X155429326Y-52306495D01*
X155430266Y-52311090D01*
X155431138Y-52324386D01*
X155438965Y-52353598D01*
X155445027Y-52383220D01*
X155450191Y-52395498D01*
X155451407Y-52400033D01*
X155453958Y-52404452D01*
X155460243Y-52419392D01*
X155603100Y-52705106D01*
X155622908Y-52738982D01*
X155628904Y-52745744D01*
X155633422Y-52753569D01*
X155659295Y-52783073D01*
X155802152Y-52925931D01*
X155831656Y-52951805D01*
X155839483Y-52956324D01*
X155846245Y-52962320D01*
X155880121Y-52982128D01*
X156165836Y-53124985D01*
X156180775Y-53131269D01*
X156185195Y-53133821D01*
X156189729Y-53135036D01*
X156202008Y-53140201D01*
X156231628Y-53146262D01*
X156260842Y-53154090D01*
X156274138Y-53154961D01*
X156278734Y-53155902D01*
X156283823Y-53155596D01*
X156300000Y-53156657D01*
X157442857Y-53156657D01*
X157482015Y-53154090D01*
X157557662Y-53133821D01*
X157625485Y-53094663D01*
X157680863Y-53039285D01*
X157720021Y-52971462D01*
X157740290Y-52895815D01*
X157742857Y-52856657D01*
X157742857Y-49856657D01*
X157740290Y-49817499D01*
X157720021Y-49741852D01*
X157680863Y-49674029D01*
X157625485Y-49618651D01*
X157557662Y-49579493D01*
X157482015Y-49559224D01*
X157442857Y-49556657D01*
X156442857Y-49556657D01*
X156426679Y-49557717D01*
X156421590Y-49557412D01*
X156416994Y-49558352D01*
X156403699Y-49559224D01*
X156374486Y-49567051D01*
X156344865Y-49573113D01*
X156332586Y-49578277D01*
X156328052Y-49579493D01*
X156323632Y-49582044D01*
X156308693Y-49588329D01*
X156022979Y-49731186D01*
X155989103Y-49750994D01*
X155982340Y-49756990D01*
X155974516Y-49761508D01*
X155945012Y-49787381D01*
X155802154Y-49930238D01*
X155776280Y-49959742D01*
X155771760Y-49967569D01*
X155765765Y-49974331D01*
X155745957Y-50008207D01*
X155603100Y-50293921D01*
X155596815Y-50308860D01*
X155594264Y-50313280D01*
X155593048Y-50317814D01*
X155587884Y-50330093D01*
X155581822Y-50359714D01*
X155573995Y-50388927D01*
X155573123Y-50402222D01*
X155572183Y-50406818D01*
X155572488Y-50411907D01*
X155571428Y-50428085D01*
X155571428Y-50713800D01*
X155572488Y-50729977D01*
X155572183Y-50735067D01*
X155573123Y-50739662D01*
X155573995Y-50752958D01*
X155581822Y-50782170D01*
X155587884Y-50811792D01*
X155593048Y-50824070D01*
X155594264Y-50828605D01*
X155596815Y-50833024D01*
X155603100Y-50847964D01*
X155745957Y-51133678D01*
X155765765Y-51167554D01*
X155771760Y-51174315D01*
X155776280Y-51182143D01*
X155802154Y-51211647D01*
X155804447Y-51213940D01*
X155802153Y-51215953D01*
X155659296Y-51358810D01*
X155633422Y-51388314D01*
X155628902Y-51396141D01*
X155622908Y-51402902D01*
X155603100Y-51436778D01*
X155460243Y-51722493D01*
X155453958Y-51737432D01*
X155451407Y-51741852D01*
X155450191Y-51746386D01*
X155445027Y-51758665D01*
X155438965Y-51788285D01*
X155431138Y-51817499D01*
X155430266Y-51830795D01*
X155429326Y-51835391D01*
X155429631Y-51840480D01*
X155428571Y-51856657D01*
X154703825Y-51856657D01*
X154720021Y-51828605D01*
X154740290Y-51752958D01*
X154740290Y-51674642D01*
X154720021Y-51598995D01*
X154680863Y-51531172D01*
X154625485Y-51475794D01*
X154557662Y-51436636D01*
X154482015Y-51416367D01*
X154442857Y-51413800D01*
X153600000Y-51413800D01*
X153600000Y-50570942D01*
X153597433Y-50531784D01*
X153577164Y-50456137D01*
X153538006Y-50388314D01*
X153482628Y-50332936D01*
X153414805Y-50293778D01*
X153339158Y-50273509D01*
X153260842Y-50273509D01*
X153185195Y-50293778D01*
X153117372Y-50332936D01*
X153061994Y-50388314D01*
X153022836Y-50456137D01*
X153002567Y-50531784D01*
X153000000Y-50570942D01*
X153000000Y-51413800D01*
X152157143Y-51413800D01*
X152117985Y-51416367D01*
X152042338Y-51436636D01*
X151974515Y-51475794D01*
X151919137Y-51531172D01*
X151879979Y-51598995D01*
X151859710Y-51674642D01*
X151526377Y-51674642D01*
X151526377Y-49223324D01*
X158076190Y-49223324D01*
X158076190Y-53489990D01*
G37*
D14*
X135901009Y-91924285D02*
X135948628Y-92067142D01*
X135948628Y-92067142D02*
X135996247Y-92114761D01*
X135996247Y-92114761D02*
X136091485Y-92162380D01*
X136091485Y-92162380D02*
X136234342Y-92162380D01*
X136234342Y-92162380D02*
X136329580Y-92114761D01*
X136329580Y-92114761D02*
X136377200Y-92067142D01*
X136377200Y-92067142D02*
X136424819Y-91971904D01*
X136424819Y-91971904D02*
X136424819Y-91590952D01*
X136424819Y-91590952D02*
X135424819Y-91590952D01*
X135424819Y-91590952D02*
X135424819Y-91924285D01*
X135424819Y-91924285D02*
X135472438Y-92019523D01*
X135472438Y-92019523D02*
X135520057Y-92067142D01*
X135520057Y-92067142D02*
X135615295Y-92114761D01*
X135615295Y-92114761D02*
X135710533Y-92114761D01*
X135710533Y-92114761D02*
X135805771Y-92067142D01*
X135805771Y-92067142D02*
X135853390Y-92019523D01*
X135853390Y-92019523D02*
X135901009Y-91924285D01*
X135901009Y-91924285D02*
X135901009Y-91590952D01*
X135424819Y-92448095D02*
X135424819Y-93019523D01*
X136424819Y-92733809D02*
X135424819Y-92733809D01*
X136424819Y-93876666D02*
X136424819Y-93305238D01*
X136424819Y-93590952D02*
X135424819Y-93590952D01*
X135424819Y-93590952D02*
X135567676Y-93495714D01*
X135567676Y-93495714D02*
X135662914Y-93400476D01*
X135662914Y-93400476D02*
X135710533Y-93305238D01*
X142655533Y-51948095D02*
X142655533Y-53471905D01*
X143417438Y-52710000D02*
X141893628Y-52710000D01*
D15*
%TO.C,BT1*%
X136815000Y-53820000D02*
X136815000Y-131600000D01*
X136815000Y-131600000D02*
X143990000Y-131600000D01*
X143990000Y-53820000D02*
X136815000Y-53820000D01*
X151010000Y-131600000D02*
X158185000Y-131600000D01*
X158185000Y-53820000D02*
X151010000Y-53820000D01*
X158185000Y-131600000D02*
X158185000Y-53820000D01*
%TD*%
M02*
