M48
; DRILL file {KiCad 9.0.1} date 2025-10-10T09:50:32+0600
; FORMAT={-:-/ absolute / inch / decimal}
; #@! TF.CreationDate,2025-10-10T09:50:32+06:00
; #@! TF.GenerationSoftware,Kicad,Pcbnew,9.0.1
; #@! TF.FileFunction,Plated,1,2,PTH
FMAT,2
INCH
; #@! TA.AperFunction,Plated,PTH,ComponentDrill
T1C0.0079
; #@! TA.AperFunction,Plated,PTH,ViaDrill
T2C0.0118
; #@! TA.AperFunction,Plated,PTH,ComponentDrill
T3C0.0118
; #@! TA.AperFunction,Plated,PTH,ComponentDrill
T4C0.0236
; #@! TA.AperFunction,Plated,PTH,ComponentDrill
T5C0.0394
; #@! TA.AperFunction,Plated,PTH,ComponentDrill
T6C0.0512
%
G90
G05
T1
X5.8346Y-3.5906
X5.8346Y-3.6457
X5.8622Y-3.563
X5.8622Y-3.6181
X5.8622Y-3.6732
X5.8898Y-3.5906
X5.8898Y-3.6457
X5.9173Y-3.563
X5.9173Y-3.6181
X5.9173Y-3.6732
X5.9449Y-3.5906
X5.9449Y-3.6457
T2
X5.1496Y-3.5787
X5.1496Y-3.689
X5.1575Y-5.5551
X5.1919Y-2.3219
X5.1969Y-3.7087
X5.1969Y-5.5472
X5.2008Y-3.5591
X5.2008Y-4.6732
X5.2008Y-4.8031
X5.2008Y-4.8701
X5.2008Y-4.9331
X5.2136Y-1.9213
X5.2362Y-5.5551
X5.2402Y-4.5079
X5.2402Y-4.563
X5.2402Y-4.6732
X5.248Y-3.5748
X5.248Y-3.689
X5.2677Y-5.5827
X5.2717Y-5.6654
X5.2736Y-2.1683
X5.2756Y-5.626
X5.315Y-1.8346
X5.3199Y-2.1713
X5.3524Y-3.4764
X5.3621Y-2.0676
X5.3622Y-1.8819
X5.374Y-4.6732
X5.3858Y-4.3701
X5.3858Y-4.5079
X5.3937Y-4.7874
X5.3937Y-4.8425
X5.3937Y-4.8937
X5.4104Y-2.7333
X5.4134Y-1.8346
X5.4252Y-2.9055
X5.4252Y-2.9843
X5.4252Y-3.0669
X5.4291Y-4.3701
X5.4331Y-4.5079
X5.4463Y-3.8096
X5.4528Y-2.5945
X5.4528Y-2.6299
X5.4528Y-2.6654
X5.4685Y-1.8819
X5.4685Y-4.3976
X5.4685Y-4.437
X5.4685Y-4.437
X5.4685Y-4.4803
X5.4744Y-3.3012
X5.4843Y-4.0827
X5.4858Y-2.0677
X5.5079Y-3.1929
X5.5118Y-2.9094
X5.5118Y-3.2717
X5.5118Y-4.2913
X5.5157Y-1.8346
X5.5157Y-2.9803
X5.5157Y-4.3661
X5.5157Y-4.5079
X5.5354Y-2.1378
X5.5402Y-2.5123
X5.5433Y-4.1929
X5.5472Y-2.9449
X5.5524Y-2.8563
X5.563Y-4.7835
X5.563Y-4.8425
X5.563Y-4.9055
X5.5728Y-3.3996
X5.5748Y-3.1929
X5.5748Y-3.2717
X5.5787Y-3.8701
X5.5906Y-4.0945
X5.5984Y-2.5591
X5.622Y-2.7126
X5.622Y-4.2835
X5.624Y-2.0768
X5.626Y-2.2087
X5.626Y-3.4213
X5.6378Y-2.5591
X5.6417Y-1.9606
X5.6417Y-2.0039
X5.6417Y-2.0433
X5.6417Y-3.1929
X5.6457Y-2.4173
X5.6457Y-2.4488
X5.6457Y-2.4843
X5.6575Y-2.7126
X5.6595Y-3.8227
X5.6614Y-3.9331
X5.6693Y-4.0945
X5.6693Y-4.2913
X5.6811Y-2.5551
X5.6909Y-3.7756
X5.6909Y-3.8248
X5.6929Y-4.1772
X5.7165Y-2.9803
X5.7165Y-3.126
X5.7205Y-5.1024
X5.7205Y-5.1614
X5.7205Y-5.2205
X5.7205Y-5.2795
X5.7261Y-2.802
X5.7261Y-2.8737
X5.7283Y-1.9685
X5.7283Y-2.0197
X5.7362Y-3.2717
X5.7477Y-2.5134
X5.7559Y-3.2283
X5.7559Y-5.1299
X5.7559Y-5.189
X5.7559Y-5.248
X5.7638Y-1.9961
X5.7638Y-2.0512
X5.7638Y-2.9291
X5.7638Y-4.2165
X5.7677Y-3.0906
X5.7913Y-5.0984
X5.7913Y-5.1575
X5.7913Y-5.2165
X5.7972Y-1.9685
X5.7972Y-2.0197
X5.7972Y-2.0748
X5.8071Y-4.2008
X5.815Y-3.0472
X5.8189Y-3.4764
X5.8346Y-2.0
X5.8346Y-2.0472
X5.8465Y-1.8543
X5.8465Y-4.6299
X5.8661Y-1.9685
X5.8661Y-2.0197
X5.8661Y-2.0748
X5.8701Y-2.4173
X5.8701Y-2.4961
X5.8701Y-2.5669
X5.878Y-2.2677
X5.8819Y-1.8543
X5.8858Y-3.4094
X5.8937Y-4.2559
X5.9055Y-2.2992
X5.9094Y-3.937
X5.9094Y-5.1063
X5.9094Y-5.1614
X5.9094Y-5.2087
X5.9311Y-4.187
X5.9331Y-3.2047
X5.937Y-2.3307
X5.9409Y-3.4094
X5.9528Y-2.4173
X5.9528Y-2.4921
X5.9528Y-2.5669
X5.9606Y-5.1063
X5.9606Y-5.1614
X5.9606Y-5.2087
X5.9764Y-2.8661
X5.9803Y-2.7165
X5.9937Y-3.9547
X5.9961Y-3.4094
X6.002Y-3.8878
X6.0098Y-4.313
X6.0157Y-2.6811
X6.0236Y-3.5433
X6.0236Y-3.622
X6.0236Y-3.7008
X6.0293Y-2.734
X6.0551Y-2.185
X6.0551Y-2.8701
X6.0551Y-2.9331
X6.0551Y-2.9685
X6.0576Y-3.0221
X6.0591Y-5.1063
X6.0591Y-5.1614
X6.0591Y-5.2087
X6.063Y-2.1378
X6.063Y-4.564
X6.0709Y-2.8031
X6.0827Y-1.815
X6.0827Y-1.878
X6.0827Y-1.937
X6.0827Y-2.0039
X6.0827Y-2.1614
X6.0896Y-2.8986
X6.0984Y-4.9764
X6.1102Y-2.0866
X6.1102Y-2.1378
X6.124Y-2.7933
X6.1417Y-1.8425
X6.1457Y-1.9134
X6.1496Y-3.9134
X6.1614Y-2.874
X6.1614Y-2.9764
X6.1614Y-3.0197
X6.1731Y-2.7529
X6.189Y-1.811
X6.189Y-1.8543
X6.1929Y-3.9685
X6.1969Y-2.1811
X6.2028Y-1.9528
X6.2087Y-4.9803
X6.2205Y-4.2953
X6.2205Y-4.3701
X6.2205Y-4.4488
X6.2205Y-4.5276
X6.2205Y-4.6457
X6.2283Y-2.1496
X6.2303Y-3.0394
X6.2323Y-3.9685
X6.2323Y-4.0118
X6.2618Y-1.9528
X6.2638Y-2.1142
X6.2795Y-2.6575
X6.2913Y-1.8386
X6.2992Y-4.6457
X6.3031Y-2.0827
X6.3031Y-2.185
X6.3031Y-2.6969
X6.3268Y-2.6575
X6.3307Y-2.1693
X6.3307Y-2.2008
X6.3346Y-5.6299
X6.3425Y-5.5906
X6.3425Y-5.6693
X6.3583Y-2.1327
X6.3661Y-1.9764
X6.3661Y-2.0433
X6.3701Y-5.5591
X6.378Y-4.6457
X6.3898Y-1.811
X6.3898Y-1.8583
X6.4016Y-2.0118
X6.4134Y-5.5512
X6.437Y-1.9134
X6.4409Y-1.8425
X6.4409Y-1.9764
X6.4409Y-2.0433
X6.4528Y-5.5551
X6.4567Y-4.6457
T3
X5.2717Y-2.311
X5.2717Y-2.3661
X5.3189Y-2.311
X5.3189Y-2.3661
X5.3661Y-2.311
X5.3661Y-2.3661
T5
X6.4197Y-2.1331
X6.4197Y-2.2331
X6.4197Y-2.3331
X6.4197Y-2.4331
X6.4197Y-2.5331
X6.4197Y-2.6331
T6
X5.5063Y-5.4399
X5.7063Y-5.4399
X5.9063Y-5.4399
X6.1063Y-5.4399
T4
G00X5.2492Y-1.8504
M15
G01X5.2492Y-1.8189
M16
G05
G00X5.2492Y-2.0217
M15
G01X5.2492Y-1.9783
M16
G05
G00X5.5894Y-2.0217
M15
G01X5.5894Y-1.9783
M16
G05
G00X5.5894Y-1.8504
M15
G01X5.5894Y-1.8189
M16
G05
M30
